<?xml version="1.0" standalone="no"?>
<!DOCTYPE svg PUBLIC "-//W3C//DTD SVG 1.1//EN" "http://www.w3.org/Graphics/SVG/1.1/DTD/svg11.dtd" >
<svg xmlns="http://www.w3.org/2000/svg" xmlns:xlink="http://www.w3.org/1999/xlink" version="1.1">
<metadata>
Created by FontForge 20161003 at Thu Oct  5 08:46:03 2017
 By www-data
(c)1992. The Font Bureau, Inc. Portions (c) 1992 Microsoft Corp. All rights reserved.
</metadata>
<defs>
<font id="HARNGTON" horiz-adv-x="1415" >
  <font-face 
    font-family="HARNGTON"
    font-weight="400"
    font-stretch="normal"
    units-per-em="2048"
    panose-1="4 4 5 5 5 10 2 2 7 2"
    ascent="1638"
    descent="-410"
    x-height="971"
    cap-height="1400"
    bbox="-374 -472 2470 1936"
    underline-thickness="40"
    underline-position="-326"
    unicode-range="U+0020-F002"
  />
<missing-glyph horiz-adv-x="1648" 
d="M103 0v1648h1442v-1648h-1442zM1442 103v1442h-1236v-1442h1236z" />
    <glyph glyph-name=".notdef" horiz-adv-x="1648" 
d="M103 0v1648h1442v-1648h-1442zM1442 103v1442h-1236v-1442h1236z" />
    <glyph glyph-name=".null" horiz-adv-x="0" 
 />
    <glyph glyph-name="nonmarkingreturn" horiz-adv-x="0" 
 />
    <glyph glyph-name="space" unicode=" " horiz-adv-x="512" 
 />
    <glyph glyph-name="exclam" unicode="!" horiz-adv-x="438" 
d="M338 1422q-20 -25 -29 -43q-17 -34 -17 -73v-930q0 -16 -16 -26l-42 -20q-15 -9 -31 -18.5t-24.5 -13t-13.5 -3.5q-9 0 -9 13v910q0 31 -15 45q-9 9 -25 12t-16 12q0 8 12 13q23 15 48 30t58 38q23 16 64 46q28 21 38.5 26.5t15.5 5.5q8 0 8 -9q0 -7 -6 -15zM338 78
q0 -47 -32.5 -78.5t-79.5 -31.5t-79.5 31.5t-32.5 78.5q0 48 32 80t80 32q46 0 79 -32t33 -80z" />
    <glyph glyph-name="quotedbl" unicode="&#x22;" horiz-adv-x="650" 
d="M560 1410q-6 -40 -10 -68q-10 -76 -17 -132t-14 -127t-15 -151q-2 -6 -22 -6t-20 6q-1 11 -11 105t-19 161l-26 216q-3 18 20 14q1 0 19 -2t37 -2q20 0 30 1t18 2.5t11 1.5h5q17 0 14 -19zM246 1410q-6 -40 -10 -68q-10 -76 -17 -132t-14 -127t-15 -151q-2 -6 -22 -6
t-20 6q-1 11 -11 105t-19 161l-26 216q-3 18 20 14q1 0 19 -2t37 -2q20 0 30 1t18 2.5t11 1.5h5q17 0 14 -19z" />
    <glyph glyph-name="numbersign" unicode="#" horiz-adv-x="1334" 
d="M1296 858q13 4 13 -7q0 -7 -8.5 -22.5t-16.5 -24.5q-38 -30 -86 -43q-61 -17 -160 -17l-92 -2l-84 -246q17 -1 41.5 -1.5t44.5 -0.5h34q71 0 105.5 4t92.5 22q13 4 13 -7q0 -7 -8.5 -22.5t-16.5 -24.5q-38 -30 -86 -43q-61 -17 -160 -17l-92 -2q-16 -43 -26 -71
q-30 -80 -60 -155q-39 -96 -69 -140.5t-67 -67.5q-12 -5 -23 -8t-22 -3q-15 0 -15 8l4 9q37 53 62 110q17 39 52 136q19 53 43 129q7 21 17 53h-250q-15 -43 -25 -71q-30 -82 -59 -155q-39 -96 -69 -140.5t-67 -67.5q-12 -5 -23 -8t-22 -3q-15 0 -15 8l4 9q37 53 62 110
q17 39 52 136q19 53 43 129q7 21 17 53q-17 1 -41.5 1.5t-44.5 0.5h-93q-64 -3 -139 -26q-13 -4 -13 7q0 7 8.5 22.5t16.5 24.5q38 30 86 43q61 17 160 17l90 2l90 246q-17 1 -41.5 1.5t-44.5 0.5h-93q-64 -3 -139 -26q-13 -4 -13 7q0 7 8.5 22.5t16.5 24.5q38 30 86 43
q61 17 160 17l90 2q15 43 25 71q30 82 59 155q39 96 69 140.5t67 67.5q22 10 45 10q16 0 16 -7l-5 -9q-37 -53 -62 -110q-17 -39 -52 -136q-19 -53 -43 -129q-7 -21 -17 -53h250q15 43 25 71q30 82 59 155q39 96 69 140.5t67 67.5q22 10 45 10q16 0 16 -7l-5 -9
q-37 -53 -62 -110q-17 -39 -52 -136q-19 -53 -43 -129q-7 -21 -17 -53q17 -1 41.5 -1.5t44.5 -0.5h34q71 0 105.5 4t92.5 22zM844 742h-248l-88 -246h248z" />
    <glyph glyph-name="dollar" unicode="$" horiz-adv-x="1018" 
d="M942 330q0 -133 -116 -232q-109 -94 -274 -122v-172h-40v168q-13 0 -37 -2t-35 -2v-164h-40v166q-162 0 -274 94q-116 98 -116 250q0 116 84 192q77 70 180 70q61 0 93.5 -24.5t32.5 -67.5v280q-114 62 -170 118q-74 73 -74 156q0 97 74 159q65 55 170 71v132h40v-128
q21 3 43 3q20 0 29 -1v126h40v-130q78 -9 119 -32q53 -30 53 -86q0 -30 -22 -53t-52 -23l-14 -1q-8 0 -15.5 1t-16 2.5t-8.5 8.5l6 11q10 12 14 21q8 17 8 37q3 29 -18 48t-54 26v-402q133 -66 199 -115q93 -68 139 -153q52 -96 52 -230zM512 850v388q-16 4 -35 4
q-9 0 -20 -1.5t-17 -2.5v-350zM400 910v322q-66 -15 -105 -50q-43 -40 -43 -100q0 -53 41 -95q26 -26 107 -77zM842 334q0 123 -82 210q-62 65 -208 140v-642q127 23 206 99q84 81 84 193zM512 36v670l-72 36v-710q12 0 36 2t36 2zM400 34v450q0 -31 -20 -54
q-16 -18 -36 -24q-5 -2 -9 0l-4 5q11 15 11 35q-6 39 -22 54q-22 20 -58 20q-79 0 -133 -48q-65 -57 -65 -160q0 -116 99 -193q93 -72 237 -85z" />
    <glyph glyph-name="percent" unicode="%" horiz-adv-x="1640" 
d="M1546 370q0 -154 -88 -276q-91 -126 -216 -126q-122 0 -194 97t-72 263q0 94 38 187q31 77 74 121q11 11 16 6q5 -4 0 -18q-10 -25 -21 -84q-15 -80 -15 -152q0 -157 54 -252.5t142 -95.5q82 0 130 67q56 77 56 227q0 154 -59 260t-135 106q-9 1 -14 1q-24 0 -40.5 -9.5
t-19.5 -25.5t8 -25t24 -9t24 16q0 6 2 7q4 2 10 -9q2 -4 2 -12q0 -6 -2 -18q0 -19 -16.5 -33.5t-37.5 -14.5q-30 0 -49 24t-19 60q0 43 41.5 71.5t98.5 28.5q117 0 197.5 -110.5t80.5 -271.5zM1412 1254q-16 -2 -33.5 -5t-38.5 -15q-33 -18 -75 -63q-34 -36 -73 -87
q-46 -60 -126 -174q-25 -36 -134 -191q-76 -109 -134 -187q-94 -127 -161 -216q-79 -104 -129 -165q-59 -72 -90 -99q-40 -35 -89 -66q-39 -25 -69 -38q-22 -10 -41 -15t-37 -7q-14 0 -25.5 6.5t-11.5 13.5q0 5 9 10q48 20 100.5 55t83.5 71q69 77 145 175q59 77 120 162
q83 116 115 159q22 29 118 162q51 70 124 170q63 86 114 152q39 49 85 97q14 15 35 35q-72 -40 -154 -58t-186 -18q-169 0 -278 50q86 -100 86 -276q0 -154 -88 -276q-91 -126 -216 -126q-122 0 -194 97t-72 263q0 94 38 187q31 77 74 121q11 11 16 6q5 -4 0 -18
q-10 -25 -21 -84q-15 -80 -15 -152q0 -157 54 -252.5t142 -95.5q82 0 130 67q56 77 56 227q0 154 -56.5 255.5t-137.5 110.5q-6 1 -16 1q-24 0 -40 -8.5t-18 -26.5q-3 -16 8 -25t24 -9q10 0 15 4q1 1 6 9.5t8 8.5q2 0 7 -8q2 -4 2 -12q0 -6 -2 -18q0 -19 -16.5 -33.5
t-37.5 -14.5q-30 0 -49 24t-19 60q0 43 41.5 71.5t98.5 28.5q27 0 48.5 -5.5t51.5 -18.5q78 -35 163 -58q112 -30 211 -30q106 0 198.5 22.5t167.5 61.5q20 10 44.5 19t48.5 13t53 4q30 0 38 -5t8 -15q0 -6 -4 -8z" />
    <glyph glyph-name="ampersand" unicode="&#x26;" horiz-adv-x="1308" 
d="M1302 182q2 -6 3 -16t1 -21q0 -26 -6 -47q-17 -58 -79 -90q-55 -28 -123 -28q-79 0 -156 43q-30 17 -80 51q-66 -51 -145 -78.5t-161 -27.5q-203 0 -333 100q-145 111 -145 312q0 153 92 261q75 87 188 125q-79 144 -85 158q-49 106 -49 190q0 150 92 237q83 79 206 79
q121 0 186.5 -86t65.5 -234q0 -102 -94 -200q-75 -79 -184 -132q34 -63 100 -165q81 -124 146 -211q84 -112 156 -186l32 46q38 59 60 144q11 42 11 91q0 65 -21 124q-24 68 -72 117q-19 -3 -48 -12.5t-46.5 -19t-28 -26t-10.5 -36.5q0 -7 2.5 -16.5t13.5 -20.5t26 -11
q9 0 17 4q13 7 17.5 13t4.5 13q3 10 8 10l10 -6l14 -24l2 -14q0 -37 -38 -54q-8 -4 -18.5 -6t-19.5 -2q-28 0 -50 18.5t-34.5 46t-12.5 59.5q0 49 25 90t70 66q58 32 147 54q64 16 129 32q73 25 73 70q0 9 -3 18q-11 30 -42 30q-18 0 -36 -12q-8 -4 -14.5 -14.5t-11.5 -10.5
t-10 11t-5 25q0 21 14 38.5t26.5 21t20 4.5t12.5 1q39 0 67 -30q22 -24 31 -56q6 -24 6 -44q0 -77 -81 -129q-64 -41 -173 -65q40 -25 77 -94q50 -92 50 -196q0 -25 -3 -54q-8 -57 -47.5 -128t-86.5 -114q29 -25 75 -47q61 -29 112 -29q6 0 27 2q27 4 54.5 22.5t43.5 37.5
l20 34l9 5q6 0 9 -11zM682 1090q3 23 3 47q0 92 -40 157q-47 76 -133 76q-87 0 -138 -67q-46 -61 -46 -144v-18q0 -8 4 -25q9 -51 49.5 -137.5t84.5 -150.5q89 47 147.5 116t68.5 146zM808 130q-64 60 -159 187q-81 108 -158 227q-73 113 -103 172q-48 -10 -103 -87
q-75 -104 -75 -249q0 -162 110 -262q97 -88 224 -88q69 0 135 23q77 27 129 77z" />
    <glyph glyph-name="quotesingle" unicode="'" horiz-adv-x="336" 
d="M246 1410q-6 -40 -10 -68q-10 -76 -17 -132t-14 -127t-15 -151q-2 -6 -22 -6t-20 6q-1 11 -11 105t-19 161l-26 216q-3 18 20 14q1 0 19 -2t37 -2q20 0 30 1t18 2.5t11 1.5h5q17 0 14 -19z" />
    <glyph glyph-name="parenleft" unicode="(" horiz-adv-x="566" 
d="M594 -340q-118 21 -205 89.5t-139.5 185.5t-82.5 267q-33 167 -33 356q0 192 32 354q29 147 84 268q105 234 344 276v-50q-80 -20 -141 -90q-55 -64 -94.5 -166.5t-60 -253.5t-20.5 -338q0 -191 19.5 -338t59 -252t94.5 -169q61 -71 143 -91v-48z" />
    <glyph glyph-name="parenright" unicode=")" horiz-adv-x="566" 
d="M432 558q0 -193 -30.5 -348t-84 -273.5t-139.5 -186.5t-206 -90v48q82 20 143 91q55 63 93.5 166.5t59 254.5t20.5 338q0 192 -19.5 338t-60 252t-94.5 168q-60 69 -142 90v50q239 -42 344 -276q53 -117 84.5 -276t31.5 -346z" />
    <glyph glyph-name="asterisk" unicode="*" horiz-adv-x="814" 
d="M728 1010l-10 -21q-21 -28 -32.5 -48.5t-30.5 -60.5q-11 -22 -15 -20q-8 2 -11 30t-11 34l-192 136l26 -234q0 -11 23.5 -27t22.5 -25l-14 -4q-5 0 -30 2t-44 2q-18 0 -36 -1.5t-38 -2.5l-14 4q-1 8 22.5 24t23.5 28l22 234l-188 -136q-10 -6 -12 -33t-10 -31
q-4 -2 -20 31q-10 21 -22.5 43.5t-34.5 53.5q-12 18 -9 22q3 5 31 -8q18 -8 28 -8l9 2l210 92l-210 96q-10 4 -37 -8.5t-31 -5.5q-3 4 9 22q21 30 33 51t29 57l15 22q7 -3 9 -31t13 -35l190 -136l-24 230q0 11 -23.5 27t-22.5 25l14 4q5 0 30 -2t44 -2q18 0 36.5 1t38.5 3
l13 -4q2 -9 -22 -24.5t-24 -27.5l-26 -230l188 136q9 6 12 34.5t10 31.5q5 1 15 -21q18 -39 29 -58t34 -51l10 -22q-7 -4 -44 10q-19 7 -26 4l-214 -96l218 -92q6 -2 11 -2q10 0 31 9.5t28 6.5z" />
    <glyph glyph-name="plus" unicode="+" horiz-adv-x="800" 
d="M714 596h-270v-292h-86v292h-268v80h268v294h86v-294h270v-80z" />
    <glyph glyph-name="comma" unicode="," horiz-adv-x="454" 
d="M354 42q0 -101 -72.5 -174.5t-169.5 -73.5q-33 0 -50 10q-9 6 -9 12q0 7 13 8q17 0 37.5 4t46.5 16q42 19 64 46q28 34 28 82q0 25 -13 45.5t-35 20.5q-23 0 -33.5 -7.5t-16 -19.5t-13.5 -12q-6 0 -13 7q-26 26 -26 76q0 44 36.5 69t87.5 25q73 0 110 -49q28 -37 28 -85z
" />
    <glyph glyph-name="hyphen" unicode="-" horiz-adv-x="730" 
d="M636 622q2 -12 2 -24q0 -33 -10 -54q-20 -51 -67 -75.5t-119 -24.5q-38 0 -90 12q-112 26 -146 26q-42 0 -68 -19q-20 -14 -28 -37q-4 -13 -10 -13t-9.5 13t-3.5 31q0 23 5.5 44t21.5 43q21 27 56.5 42.5t85.5 15.5q45 0 120 -22t122 -22q48 0 81 25q19 14 37 43
q4 8 10 8q8 0 10 -12z" />
    <glyph glyph-name="period" unicode="." horiz-adv-x="454" 
d="M338 78q0 -47 -32.5 -78.5t-79.5 -31.5t-79.5 31.5t-32.5 78.5q0 48 32 80t80 32q46 0 79 -32t33 -80z" />
    <glyph glyph-name="slash" unicode="/" horiz-adv-x="598" 
d="M718 1474q-49 -36 -78 -68q-38 -43 -64 -102q-38 -78 -84 -209q-25 -71 -80 -243q-51 -159 -76 -228q-60 -165 -93 -249q-46 -119 -79 -191q-38 -83 -70 -130q-52 -84 -113 -133q-43 -34 -87 -49q-8 -4 -23 -4q-14 0 -25 4t-11 10q0 4 7 10q44 36 81 80t59 90
q52 104 94 209q24 61 67 186t67 187q18 48 77.5 224.5t86.5 247.5q50 133 88 196q43 76 110 129q49 39 92 53q9 3 20 3q16 0 27.5 -4.5t11.5 -11.5q0 -4 -5 -7z" />
    <glyph glyph-name="zero" unicode="0" horiz-adv-x="1130" 
d="M1046 640q0 -260 -146 -462q-152 -210 -362 -210q-203 0 -322.5 162.5t-119.5 437.5q0 155 66 314q54 131 124 204q15 15 20 10t5 -12q0 -6 -1 -9q-2 -6 -4 -11q-36 -83 -59 -190t-23 -206q0 -280 97 -453t255 -173q148 0 236 122q100 139 100 410q0 281 -106 474
q-102 186 -240 186q-126 0 -126 -102q0 -25 15.5 -41.5t36.5 -16.5q15 0 26 11q10 14 14 20t11 6q6 0 9.5 -10t3.5 -32q0 -7 -3 -30.5t-30 -47t-59 -23.5q-50 0 -83 40.5t-33 101.5q0 72 69.5 119t164.5 47q196 0 330 -184t134 -452z" />
    <glyph glyph-name="one" unicode="1" horiz-adv-x="652" 
d="M470 1228q-40 -124 -59 -202q-27 -111 -41 -245t-14 -323q0 -136 24 -236q21 -86 70 -158q5 -6 5 -13t-11 -13q-23 -5 -43.5 -10t-46 -15t-45.5 -21.5t-27 -15.5l-5 -3l-9 -2q-8 0 -12 11q-15 32 -23.5 128.5t-8.5 191.5q0 171 39 398t99 422q-30 -39 -67 -67
q-49 -37 -93 -37q-33 0 -59.5 20t-26.5 53q0 18 2.5 30t19.5 24l8 -5q18 -22 26 -26q15 -8 36 -8q61 0 115 62q7 8 71 104q8 13 22 8q16 -6 28.5 -12t20.5 -13t8 -15q0 -6 -3 -12z" />
    <glyph glyph-name="two" unicode="2" horiz-adv-x="992" 
d="M856 168q-13 -24 -26 -47q-12 -25 -20.5 -49.5t-12.5 -46.5t-7 -43q-4 -15 -13 -15q-5 0 -11 3q-70 32 -140 45q-95 17 -214 17q-145 0 -249 -28q-6 -2 -103 -38q-13 -4 -13 8l1 10q7 34 51 110q41 71 87 134q87 117 241.5 252.5t197.5 195.5q81 112 81 262
q0 119 -77 203q-80 87 -205 87q-108 0 -182 -61t-74 -143q0 -58 24 -95q28 -43 78 -43q24 0 40.5 7.5t33.5 26.5q6 6 10 13.5t7 17.5t13 10q16 -14 21 -41.5t5 -49.5q-4 -45 -47.5 -77.5t-98.5 -32.5q-75 0 -123.5 61.5t-48.5 142.5q0 135 111 226q105 86 251 86
q172 0 281 -89q123 -101 123 -285q0 -97 -45 -177q-36 -64 -115 -135q-24 -22 -152 -124q-76 -59 -151 -118q-79 -63 -125 -116q-59 -67 -112 -164q92 43 189.5 61.5t220.5 18.5q31 0 121 -5q14 0 30 1t40 5t54 16q19 8 39 17q9 3 13 -1t1 -13z" />
    <glyph glyph-name="three" unicode="3" horiz-adv-x="1028" 
d="M910 472q0 -204 -155 -350q-164 -154 -415 -154q-124 0 -216 55q-104 62 -104 165q0 50 39.5 86t92.5 36q58 0 93 -27q31 -24 31 -59q0 -17 -1 -23l-3 -9q-1 -7 -9 -7l-9 3q-17 17 -34 23.5t-40 6.5q-30 0 -49 -23t-19 -59q0 -50 72 -82q64 -28 144 -28q178 0 310 125.5
t132 298.5q0 117 -78 193q-81 79 -212 79q-104 0 -169 -37q-27 -15 -63 -55q-5 -5 -10 -5t-10 5l-32 26q-7 7 2 16q24 24 152 134l228 196q124 107 156 140q-44 -10 -87 -14t-95 -4q-47 0 -86 3q-118 9 -132 9q-64 0 -117 -33q-47 -38 -59 -47l-6 -3l-5 -1q-9 0 -12 9
t-7 20.5t-18 32.5q-9 13 -19 24t-18 16.5t-8 11.5q0 7 11 14q29 24 113 47t169 23q53 0 208 -34q73 -16 132 -16q50 0 84 15q26 15 52 31q19 -8 38 -24t12 -22q-25 -20 -80 -66q-67 -57 -152 -130q-109 -95 -260 -228q39 13 74.5 17.5t83.5 4.5q152 0 250 -79
q110 -89 110 -247z" />
    <glyph glyph-name="four" unicode="4" horiz-adv-x="1138" 
d="M1068 582q0 -89 -82 -151q-78 -59 -180 -59h-31q-35 0 -50.5 1.5t-44.5 10.5q0 -75 11 -131q3 -17 21 -81q13 -47 33 -81q10 -17 27 -37l5 -7l1 -6q0 -5 -4 -8l-8 -3h-15q-18 0 -34 -3t-44.5 -15t-48.5 -24q-9 -6 -22 -16q-8 -6 -13 -6q-7 0 -11 10q-12 32 -18 146.5
t-6 269.5q-25 7 -53.5 10t-62.5 3q-53 0 -103 -6.5t-106.5 -20.5t-104.5 -39q-27 -16 -54 -31q-20 -8 -20 15q-1 7 -1 12q0 50 30.5 153t82.5 211q61 126 132 213q104 128 223 205q99 64 273 129q13 5 30 13l46 21q9 3 12 -2t0 -14l-68 -136q-38 -90 -66 -194
q-35 -130 -47.5 -227.5t-12.5 -236.5q40 -11 74.5 -16.5t73.5 -5.5q65 0 117 23q59 26 59 67q0 25 -10.5 42t-31.5 20q-7 1 -14.5 -2.5t-13.5 -8.5t-12 -5q-7 0 -6 12q0 20 16.5 50t31.5 36q8 2 14 2q30 0 56 -26q30 -30 30 -76zM770 1184q-122 -26 -250 -120
q-143 -105 -244 -260q-116 -178 -156 -392q63 33 121 52q74 25 132 30.5t95 5.5q42 0 98 -10q0 74 7.5 125.5t25.5 119.5q5 20 37 127q28 91 59 165q26 63 75 157z" />
    <glyph glyph-name="five" unicode="5" horiz-adv-x="986" 
d="M876 548q0 -229 -170 -402q-175 -178 -422 -178q-115 0 -196 50q-92 56 -92 154q0 47 30.5 84.5t75.5 37.5t75.5 -18.5t30.5 -57.5q0 -37 -18 -58q-6 -7 -12 -7t-14 11q-4 9 -11 15q-11 9 -31 9q-15 0 -24.5 -14.5t-9.5 -31.5q0 -62 74 -97q61 -29 146 -29
q178 0 309 152.5t131 349.5q0 130 -69 228q-75 106 -191 106q-71 0 -126 -21q-67 -26 -90 -75q-4 -11 -7 -22.5t-10 -33.5q-5 -5 -15 -4l-74 8q-17 4 -14 26l18 110q8 70 8 134q-4 205 -4 236q0 10 2 24l6 11q5 5 18 5q91 -24 189.5 -40t202.5 -16q57 0 86 9q44 14 44 51
q0 24 -9 36q-5 7 -14 11t-9 9q0 7 9.5 12.5t24 6.5t32.5 1q40 0 70 -29t30 -69q0 -67 -74 -103q-60 -29 -146 -29q-106 0 -218 21q-75 14 -180 45q0 -34 -1 -94t-1 -98q0 -101 -16 -194q52 86 133.5 128t180.5 42q157 0 249.5 -106.5t92.5 -295.5z" />
    <glyph glyph-name="six" unicode="6" horiz-adv-x="1092" 
d="M996 398q0 -166 -120 -295q-125 -135 -298 -135q-210 0 -339 182q-117 166 -117 398q0 284 171 501q179 227 435 227q90 0 151 -36q70 -41 83 -118q1 -5 1 -14q0 -41 -35.5 -72.5t-79.5 -31.5q-28 0 -53 8.5t-41 25.5q-7 7 -7 13q0 9 15 11q32 0 51 24q15 19 15 48
q0 42 -39 64t-89 22q-191 0 -317 -178q-131 -184 -131 -478q0 -206 95 -349q104 -157 277 -157q127 0 212 103q82 99 82 235q0 125 -78 219q-81 97 -198 97q-51 0 -101.5 -23t-68.5 -63q-4 -8 -6 -19.5t-2 -18.5q2 -21 2 -28q0 -13 -12 -13q-6 0 -12 7q-9 13 -17 25
q-14 21 -35 43q-16 16 -27 24.5t-15 11.5q-6 6 -6 15q0 6 4 13q28 46 90 85q87 55 186 55q165 0 271 -127q103 -123 103 -301z" />
    <glyph glyph-name="seven" unicode="7" horiz-adv-x="876" 
d="M956 1230q-15 -20 -73 -78l-120 -120q-75 -78 -117 -132q-101 -131 -138 -188q-64 -99 -95 -190q-35 -104 -35 -226q0 -87 20 -139t66 -81q7 -4 7 -9q0 -6 -9 -11q-20 -9 -41 -19.5t-39 -20.5l-66 -42l-12 -5q-7 0 -18 11q-20 29 -41 107t-21 139q0 103 32 202
q27 84 78 173q29 50 94 143q56 79 158 193q107 119 206 211q-67 -20 -115 -28t-109 -8q-53 0 -193 12q-70 6 -119 6q-63 0 -119 -47q-50 -54 -63 -67l-13 -6q-6 0 -6 7q0 5 4 16.5t9 23.5q26 63 36 91l24 80q5 14 25.5 16.5t87.5 4t95 1.5h30q62 0 136 -12q159 -26 228 -26
q77 0 126 22q18 8 52 36l6 3l5 1q6 0 11 -4l24 -18q5 -5 5 -13z" />
    <glyph glyph-name="eight" unicode="8" horiz-adv-x="1060" 
d="M1018 1302l-4 -26q-26 -77 -131 -105q-57 -15 -145 -15q-50 0 -181 17q-69 9 -115 9q-83 0 -141.5 -51.5t-58.5 -118.5q0 -113 130 -190q4 -2 204 -88q72 41 145 83q79 53 79 111q0 38 -15 58q-11 14 -25.5 17.5t-14.5 9.5t9 13q21 16 54 16q39 0 65.5 -32.5t26.5 -75.5
q0 -87 -135 -161q-63 -33 -125 -65q141 -44 230 -132q104 -103 104 -240q0 -164 -142 -269q-133 -99 -314 -99q-185 0 -303.5 100.5t-118.5 263.5q0 124 122 233q97 87 216 125q-86 52 -171 105q-105 84 -105 201q0 136 110 210q104 70 280 70q48 0 175 -23q61 -11 111 -11
q72 0 100 11q7 3 46 31l12 13q5 6 12 13q5 5 9 3q5 -2 5 -11zM848 336q0 80 -78 160q-60 61 -153 112q-69 38 -109 48q-35 -7 -98 -41q-88 -47 -144 -108q-74 -81 -74 -171q0 -147 102 -236q90 -78 212 -78q136 0 236 86q106 91 106 228z" />
    <glyph glyph-name="nine" unicode="9" horiz-adv-x="1090" 
d="M970 698q0 -354 -226 -624t-516 -270q-92 0 -149 24q-75 31 -75 96q0 37 27.5 60.5t66.5 23.5q20 0 37.5 -5.5t26.5 -14.5t9 -14q0 -7 -13 -8.5t-22 -11.5q-10 -11 -10 -32q0 -36 44 -51q32 -11 86 -11q221 0 396 214q186 228 186 554q0 223 -76 381q-95 197 -274 197
q-130 0 -214 -85q-92 -93 -92 -253q0 -138 74 -240q80 -110 202 -110q56 0 99 27q49 31 49 81q0 35 -7.5 50.5t-22.5 23.5l-8 10q0 6 10 12q22 11 46 8q52 0 84 -43q32 -44 32 -101q0 -89 -84 -143q-76 -49 -180 -49q-171 0 -274.5 130t-103.5 338q0 172 125 293t297 121
q204 0 332 -181q118 -167 118 -397z" />
    <glyph glyph-name="colon" unicode=":" horiz-adv-x="454" 
d="M338 814q0 -47 -32.5 -78.5t-79.5 -31.5t-79.5 31.5t-32.5 78.5q0 48 32 80t80 32q46 0 79 -32t33 -80zM338 78q0 -47 -32.5 -78.5t-79.5 -31.5t-79.5 31.5t-32.5 78.5q0 48 32 80t80 32q46 0 79 -32t33 -80z" />
    <glyph glyph-name="semicolon" unicode=";" horiz-adv-x="454" 
d="M338 814q0 -47 -32.5 -78.5t-79.5 -31.5t-79.5 31.5t-32.5 78.5q0 48 32 80t80 32q46 0 79 -32t33 -80zM354 42q0 -101 -72.5 -174.5t-169.5 -73.5q-30 0 -50 10q-8 5 -8 12q0 8 12 8q17 0 37.5 4t46.5 16q42 19 64 46q28 34 28 82q0 25 -13 45.5t-35 20.5
q-23 0 -33.5 -7.5t-16 -19.5t-13.5 -12q-6 0 -13 7q-26 23 -26 76q0 44 36.5 69t87.5 25q73 0 110 -49q28 -37 28 -85z" />
    <glyph glyph-name="less" unicode="&#x3c;" horiz-adv-x="636" 
d="M560 350l-68 -80l-448 320l448 318l68 -80l-376 -240z" />
    <glyph glyph-name="equal" unicode="=" horiz-adv-x="800" 
d="M714 696h-626v80h626v-80zM714 496h-626v80h626v-80z" />
    <glyph glyph-name="greater" unicode="&#x3e;" horiz-adv-x="636" 
d="M592 590l-448 -320l-68 80l376 238l-376 240l68 80z" />
    <glyph glyph-name="question" unicode="?" horiz-adv-x="992" 
d="M852 1104q0 -102 -52 -190q-40 -68 -124 -144l-144 -124q-45 -38 -65 -66q-35 -48 -35 -100q0 -24 6 -45.5t22 -40.5q11 -14 21.5 -19t20.5 -7q13 0 13 -9q0 -5 -7 -9q-18 -9 -23 -12q-6 -3 -23 -16q-9 -7 -23 -19q-9 -9 -13 -11q-8 -5 -14 -5t-14 5q-24 13 -40.5 44.5
t-21.5 69.5q0 7 -0.5 15.5t-0.5 11.5q0 47 16 94q13 39 39 81q20 33 68 80q27 27 68 62q78 69 109 116q71 108 71 258q0 106 -57 174q-65 78 -185 78q-106 0 -173 -63q-63 -59 -63 -141q0 -72 25 -112t77 -40q42 0 74 38q6 7 10 19.5t6.5 19.5t10.5 7q6 0 13.5 -10
t12.5 -38.5t5 -53.5q-5 -50 -48 -85t-100 -35q-78 0 -125 62t-47 162q0 140 100 232t242 92q164 0 263 -82q105 -87 105 -244zM538 78q0 -47 -32.5 -78.5t-79.5 -31.5t-79.5 31.5t-32.5 78.5q0 48 32 80t80 32q46 0 79 -32t33 -80z" />
    <glyph glyph-name="at" unicode="@" horiz-adv-x="1972" 
d="M1864 696q0 -115 -8 -184q-14 -125 -56.5 -205.5t-108.5 -128.5t-139 -48q-65 0 -114 21q-64 27 -102 87q-22 34 -29 56.5t-7 49.5q-34 -74 -115 -129q-90 -61 -189 -61q-139 0 -234 82q-100 86 -100 224q0 139 107.5 230.5t254.5 91.5q71 0 136 -27t100 -67
q-4 40 -49 117q-55 93 -126 152q-91 75 -187 75q-61 0 -104 -25q-50 -29 -50 -79q0 -27 15.5 -46.5t40.5 -19.5q19 0 32.5 11.5t13.5 28.5q0 14 -2.5 23t-7.5 19q-3 7 3 9q6 3 15 1q25 -5 43.5 -25t18.5 -45q0 -42 -34 -71t-78 -29q-52 0 -86 36t-34 94q0 78 82 121
q71 37 174 37q99 0 196 -63.5t158 -172.5q41 -76 66 -188q15 -69 29.5 -192t26.5 -174q9 -38 48 -68t80 -30q56 0 106 38q54 41 94 122q23 45 32.5 134.5t9.5 213.5t-57 250.5t-149 215.5q-103 99 -237.5 152.5t-272.5 53.5q-173 0 -292 -40q-109 -37 -218 -124
q-136 -109 -211 -267.5t-75 -336.5q0 -164 36 -295q31 -113 86 -197q42 -64 106 -122q102 -91 247 -137q137 -43 309 -43q155 0 302 49.5t284 148.5l40 -46q-292 -216 -640 -216q-196 0 -337 38q-155 42 -265 134q-86 71 -140 142q-74 97 -113 219q-47 146 -47 333
q0 185 94 365q98 187 266 305q218 156 568 156q161 0 310 -57t256 -161q96 -92 162 -245t66 -271zM1292 494q0 103 -72.5 163.5t-193.5 60.5q-99 0 -172.5 -64.5t-73.5 -159.5q0 -102 74 -172t178 -70q120 0 190 67t70 175z" />
    <glyph glyph-name="A" unicode="A" horiz-adv-x="1528" 
d="M1400 22q2 -2 3 -6q1 -3 1 -5q0 -11 -18 -11q-10 -1 -59.5 2.5t-68.5 3.5q-32 0 -96 -5q-24 -2 -34 -1q-17 0 -17 12q0 5 3 8q3 4 43 35q31 24 31 43q2 11 4.5 31.5t2.5 47.5q0 110 -34 216q-49 152 -165 283q-70 78 -159.5 133.5t-200.5 92.5q-57 -101 -97 -221
q-53 -160 -53 -299q0 -152 7 -218q12 -115 53 -206q26 -55 78 -96q28 -22 72 -44q12 -6 12 -14q0 -7 -10 -10q-29 -9 -55.5 -19t-61 -27t-59.5 -35q-17 -12 -32 -25q-8 -6 -13 -6q-9 0 -9 16q0 31 -3 71t-15 127q-18 103 -33 204t-15 190q0 183 47 361q41 156 107 271
q-22 4 -46.5 7t-56.5 3q-57 0 -118.5 -13.5t-107.5 -44.5q-61 -41 -61 -96q0 -57 46 -66q4 -1 12 -1q21 0 36.5 10t18 30t10.5 20q6 0 9.5 -11t3.5 -28q0 -9 -2 -19.5t-4 -20.5q-13 -37 -44 -61.5t-77 -24.5q-6 -1 -11 -1q-53 0 -89.5 39.5t-36.5 101.5q0 103 112 171
q74 45 166 63q32 6 71 9t80 3q81 0 127 -10q145 192 321 297q203 121 441 121q33 0 33 -9q0 -4 -7 -11q-33 -37 -42 -67q-12 -42 -12 -153v-1062q0 -19 30 -42q40 -31 42 -34zM1188 526v790q-144 -27 -286 -126q-78 -54 -126 -103t-102 -129q86 -29 157 -68q63 -35 129 -88
q73 -58 126 -123q49 -60 102 -153z" />
    <glyph glyph-name="B" unicode="B" horiz-adv-x="1414" 
d="M1282 456q0 -286 -225 -474q-220 -184 -543 -184q-186 0 -320 82q-152 93 -152 250q0 79 38.5 140.5t101.5 61.5q46 0 71 -24t25 -60q0 -32 -5.5 -48.5t-18.5 -31.5q-7 -8 -11 -8q-3 0 -9 16.5t-17 27.5q-15 16 -37 16q-32 0 -49 -32.5t-17 -73.5q0 -122 122 -190
q104 -58 254 -58q265 0 449 164q195 173 195 446q0 88 -36.5 162.5t-97.5 115.5q-39 -51 -100 -89q-72 -45 -138 -45q-73 0 -110 28q-32 24 -32 66q0 51 55 90.5t125 49.5q40 5 70 5q45 0 80 -9q21 44 33.5 89.5t12.5 96.5q0 156 -138 246q-122 80 -294 80
q-158 0 -284.5 -77t-139.5 -187q-2 -18 -2 -26q0 -35 14 -53.5t38 -18.5q22 0 37 8q7 4 17 14q4 7 7 6t3 -6q6 -34 -36 -66q-29 -22 -70 -22q-37 0 -65 33q-31 36 -31 93q0 143 158 254q165 116 392 116q216 0 363 -84q175 -100 175 -290q0 -69 -25 -128q-18 -43 -65 -108
q79 -35 149 -131q83 -114 83 -233zM590 22q2 -2 3 -6q1 -3 1 -5q0 -11 -18 -11q-10 -1 -59.5 2.5t-68.5 3.5q-32 0 -96 -5q-24 -2 -34 -1q-17 0 -17 12q0 5 3 8q3 4 43 35q31 24 31 43v920q0 31 -19 44q-23 9 -31.5 13.5t-8.5 10.5t9 10q8 7 31 20q73 41 87 50q24 15 80 55
q41 30 54 33q11 5 11 -6q0 -3 -3 -8q-37 -62 -52 -120q-18 -71 -18 -154v-868q0 -19 30 -42q40 -31 42 -34zM918 788q-39 13 -88 13q-16 0 -40 -2.5t-57 -19.5q-41 -22 -41 -53q0 -28 31 -38q18 -6 35 -6q45 0 91.5 31.5t68.5 74.5z" />
    <glyph glyph-name="C" unicode="C" horiz-adv-x="1240" 
d="M1348 1410q0 -34 -25 -61q-11 -12 -41 -33q-6 -3 -9 -3q-7 0 -5 11q6 13 8.5 21.5t2.5 21.5q0 17 -7 35q-11 30 -39 45t-63 15q-64 0 -113 -46t-49 -110q0 -46 28 -88q10 -15 24 -25q7 -5 38 -23q9 -5 9 -10q0 -4 -7 -8l-62 -36q-26 -16 -30 -19q-27 -18 -28 -19
q-3 -3 -7 -2q-9 1 -7 12q2 9 5.5 26t3.5 30q0 20 -7 44q-21 79 -102.5 128.5t-191.5 49.5q-202 0 -326 -182q-114 -167 -114 -396q0 -280 143 -492q159 -236 413 -236q150 0 259 79t109 179q0 25 -13 46.5t-35 21.5q-20 0 -34 -9q-9 -6 -16 -15q-2 -8 -8 -8t-6 14
q0 28 20 58q25 38 64 38q48 0 75 -40q24 -35 24 -85q0 -11 -1 -17q-14 -147 -154 -250.5t-330 -103.5q-287 0 -475 237q-179 225 -179 537q0 275 164 477q172 211 428 211q164 0 274 -98q13 80 66 142q66 76 162 76q73 0 118.5 -38.5t45.5 -101.5z" />
    <glyph glyph-name="D" unicode="D" horiz-adv-x="1424" 
d="M1318 744q0 -249 -158 -435q-140 -165 -379 -257q-217 -84 -451 -84h-14q-12 0 -27.5 0.5t-15.5 9.5q0 6 13 18q59 49 88.5 130t29.5 208v244q-167 18 -262 113q-106 106 -106 295q0 193 183 322q173 122 399 122q297 0 493 -181q207 -191 207 -505zM1176 796
q0 241 -152 404q-158 170 -406 170q-200 0 -347 -101q-161 -111 -161 -287q0 -156 84 -242q72 -73 210 -98v370q0 35 -25 47q-12 4 -22 8t-10 14q0 7 7 11t42 18t72 32q28 14 83 45q18 10 29 15q16 6 16 -9q0 -6 -2 -9q-24 -33 -37 -58t-13 -46v-430q63 0 141 63
q87 71 87 149q0 32 -13 53t-33 21q-22 0 -34.5 -4.5t-15.5 -11.5q-6 -13 -12 -13q-5 0 -8 9q-1 4 -1 14q0 9 3 18q23 68 96 68q56 0 86 -42q26 -37 26 -96q0 -99 -101.5 -189t-220.5 -105v-232q0 -89 -27.5 -170t-72.5 -136q179 0 342 86q173 92 276 254q114 180 114 410z
" />
    <glyph glyph-name="E" unicode="E" horiz-adv-x="1382" 
d="M1366 1164q0 -85 -52.5 -147t-159.5 -113q-80 -38 -189 -62q-57 -12 -192.5 -33t-196.5 -37q-103 -28 -199 -100q-80 -61 -129 -132q31 -180 176 -324q161 -160 362 -160q144 0 243 55t99 145q0 29 -6.5 50.5t-11.5 37.5q-3 6 0 10t12 4q27 -4 52 -28q34 -33 34 -80
q0 -127 -146 -208q-133 -74 -314 -74q-291 0 -473 202q-185 205 -185 536q0 293 192 506q197 218 480 218q125 0 214 -48q100 -54 100 -144q0 -46 -29 -79t-79 -41q-4 -1 -10 -1h-11q-20 0 -35 3.5t-26 11.5q-9 4 -9 10t9 12q20 14 27 23q17 21 21 53q1 4 1 7v7q0 55 -69 87
q-58 27 -132 27q-115 0 -211.5 -47.5t-170.5 -138.5q-69 -85 -100 -194.5t-31 -240.5q0 -26 1.5 -56.5t5.5 -68.5q37 52 114 120q103 91 194 126q79 30 163 46q47 9 160 23t181 27q110 21 168 51q90 47 90 123q0 52 -30 70q-8 6 -28 6q-12 0 -18 -4q-11 -9 -17 -9
q-5 0 -5 10q0 1 3.5 17t24.5 33t48 17q42 0 66 -31.5t24 -72.5z" />
    <glyph glyph-name="F" unicode="F" horiz-adv-x="1210" 
d="M1268 1436q0 -77 -99 -129q-90 -47 -201 -47q-98 0 -171.5 16t-142.5 32q-46 7 -81 8.5t-93 1.5v-394q51 -11 125 -18.5t151 -7.5q84 0 131 16q63 22 63 71q0 27 -11 38t-29 11q-5 0 -12 -2.5t-10 -3.5q-6 -2 -9 0q-4 3 -1 14q5 23 25.5 43.5t44.5 20.5q43 0 66 -29
q20 -26 20 -67q0 -87 -109 -149q-100 -57 -219 -57q-120 0 -226 24v-730q0 -19 30 -42q40 -31 42 -34q2 -2 3 -6q1 -3 1 -5q0 -11 -18 -11q-10 -1 -59.5 2.5t-68.5 3.5q-32 0 -96 -5q-24 -2 -34 -1q-17 0 -17 12q0 5 3 8q3 4 43 35q31 24 31 43v742q-66 0 -113 -21
q-57 -25 -57 -71q0 -25 5.5 -42t20.5 -32q5 -5 5 -9q0 -7 -9 -7q-23 -6 -53 17q-35 27 -35 73q0 81 76 131q68 45 160 45v374q-18 -2 -36 -8q-55 -19 -98 -66q-35 -40 -48 -79q-8 -25 -8 -55v-12q0 -13 -7 -13q-4 0 -9 5q-9 11 -16.5 35t-7.5 47q0 55 47 113q51 62 137 103
q66 31 150 46.5t174 15.5q76 0 157 -21l162 -42t141 -21q47 0 78 16q38 20 38 58q0 25 -14 36.5t-26 5.5q-14 -6 -18 -6q-7 0 -4 10q6 20 20 35q19 21 42 21q38 0 56 -24.5t18 -61.5z" />
    <glyph glyph-name="G" unicode="G" horiz-adv-x="1392" 
d="M1312 1416q0 -56 -50 -92t-118 -36q-74 0 -156 27q-179 59 -246 59q-222 0 -368 -189q-138 -178 -138 -423q0 -296 172 -509q178 -220 438 -220q27 0 67.5 4t98.5 21t84 38q-17 16 -29 34q-8 13 -20.5 38.5t-15.5 63.5t-3 98v448q-40 -18 -70 -25t-72 -7q-40 0 -108 41
t-108 41q-31 0 -56.5 -14.5t-25.5 -43.5q0 -62 54 -56q17 3 26.5 7.5t13.5 10.5q3 5 7 5q5 0 5 -7q5 -13 5 -29q0 -8 -2 -20.5t-24 -30.5t-49 -18q-44 0 -67.5 34t-23.5 79q0 10 1 15q7 68 59 110t125 42q68 0 132 -24q139 -52 218 -52q37 0 78 13q44 16 88 33q14 0 8 -12
q-15 -18 -30 -35q-44 -57 -44 -119v-424q0 -80 32 -136q11 -19 48 -60q5 -6 5 -11t-7 -11q-41 -31 -167 -65q-150 -41 -273 -41q-302 0 -511 227q-205 223 -205 533q0 295 178 495q186 209 478 209q98 0 218 -39t144 -39q86 0 86 62q0 26 -15.5 39t-36.5 13q-8 2 -16 -0.5
t-12 -3.5q-6 -3 -10 -2t-4 6q0 6 4 14q13 29 40 43.5t58 14.5q54 0 82 -35.5t28 -88.5z" />
    <glyph glyph-name="H" unicode="H" horiz-adv-x="1464" 
d="M1336 22q2 -2 3 -6q1 -3 1 -5q0 -11 -18 -11q-10 -1 -59.5 2.5t-68.5 3.5q-32 0 -96 -5q-24 -2 -34 -1q-17 0 -17 12q0 5 3 8q3 4 43 35q31 24 31 43v872q-56 -24 -128.5 -35t-143.5 -11q-80 0 -186 23t-186 59v-908q0 -19 30 -42q40 -31 42 -34q2 -2 3 -6q1 -3 1 -5
q0 -11 -18 -11q-10 -1 -59.5 2.5t-68.5 3.5q-32 0 -96 -5q-24 -2 -34 -1q-17 0 -17 12q0 5 3 8q3 4 43 35q31 24 31 43v916q-14 2 -24 2q-66 0 -120 -31q-64 -37 -64 -97q0 -29 13 -47q8 -11 25 -21t46 -10q13 0 18 2q12 3 12 -7q0 -6 -8 -13q-17 -15 -37 -24
q-30 -14 -61 -14q-50 0 -85 27q-43 33 -43 93q0 67 36 115q31 40 90 71q31 17 76 27q56 13 126 13v202q0 19 -30 43q-22 17 -44 35q-3 4 -1.5 12t15.5 8q10 1 60 -2.5t70 -3.5q40 0 81.5 3t46.5 3q18 0 18 -11q0 -6 -4 -11q-2 -3 -41 -33q-31 -24 -31 -43v-214
q79 -37 192 -66.5t202 -29.5q71 0 110 7q61 11 140 47v256q0 19 -30 43q-22 17 -44 35q-3 4 -1.5 12t15.5 8q10 1 60 -2.5t70 -3.5q40 0 81.5 3t46.5 3q18 0 18 -11q0 -6 -4 -11q-2 -3 -41 -33q-31 -24 -31 -43v-1204q0 -19 30 -42q40 -31 42 -34z" />
    <glyph glyph-name="I" unicode="I" horiz-adv-x="540" 
d="M412 22q2 -2 3 -6q1 -3 1 -5q0 -11 -18 -11q-10 -1 -59.5 2.5t-68.5 3.5q-32 0 -96 -5q-24 -2 -34 -1q-17 0 -17 12q0 5 3 8q3 4 43 35q31 24 31 43v1204q0 19 -30 43q-22 17 -44 35q-3 4 -1.5 12t15.5 8q10 1 60 -2.5t70 -3.5q40 0 81.5 3t46.5 3q18 0 18 -11
q0 -6 -4 -11q-2 -3 -41 -33q-31 -24 -31 -43v-1204q0 -19 30 -42q40 -31 42 -34z" />
    <glyph glyph-name="J" unicode="J" horiz-adv-x="560" 
d="M432 1378q-2 -3 -41 -33q-31 -24 -31 -43v-834q0 -92 18 -140q10 -26 30 -44q6 -3 6 -9q0 -5 -10 -8.5t-26 -21.5q-26 -30 -58 -95l-110 -224q-84 -134 -188 -134q-53 0 -84.5 22.5t-31.5 55.5q0 30 19 50t47 20q30 0 48 -18q14 -14 14 -30q0 -23 2.5 -32.5t15.5 -9.5
q43 0 101 131q67 150 67 315v1006q0 19 -30 43q-22 17 -44 35q-3 4 -1.5 12t15.5 8q10 1 60 -2.5t70 -3.5q40 0 81.5 3t46.5 3q18 0 18 -11q0 -6 -4 -11z" />
    <glyph glyph-name="K" unicode="K" horiz-adv-x="1206" 
d="M1336 -138q0 -30 -20.5 -50t-59.5 -20q-138 0 -244 111q-83 87 -140 237q-31 81 -48 172q-3 17 -24 160q-14 96 -31.5 160.5t-56.5 124.5q-28 43 -74 95q-84 -28 -174 -87q-73 -49 -124 -101v-566q0 -19 30 -42q40 -31 42 -34q2 -2 3 -6q1 -3 1 -5q0 -11 -18 -11
q-10 -1 -59.5 2.5t-68.5 3.5q-32 0 -96 -5q-24 -2 -34 -1q-17 0 -17 12q0 5 3 8q3 4 43 35q31 24 31 43v1204q0 19 -30 43q-22 17 -44 35q-3 4 -1.5 12t15.5 8q10 1 60 -2.5t70 -3.5q40 0 81.5 3t46.5 3q18 0 18 -11q0 -6 -4 -11q-2 -3 -41 -33q-31 -24 -31 -43v-532
q39 30 76 55q49 33 94 55l318 150q81 49 118 92q50 57 50 128q0 49 -21.5 73.5t-60.5 24.5q-16 -1 -34 -15q-7 -6 -18 -15q-5 -5 -12 -5t-8 11q-4 38 28 81q43 57 116 57q68 0 110 -55.5t42 -130.5q0 -85 -38 -149q-34 -58 -110 -113q-54 -39 -137 -75q-60 -26 -137 -51
q68 -67 108 -118q47 -60 88 -140q46 -88 69 -213q18 -148 37 -295q24 -113 75 -187q61 -89 141 -89q7 0 4 10q-10 15 -8 24q3 15 16 24.5t30 11.5q23 0 41.5 -15.5t18.5 -38.5z" />
    <glyph glyph-name="L" unicode="L" horiz-adv-x="1182" 
d="M1168 314q0 -147 -102.5 -246.5t-253.5 -99.5q-73 0 -159 29q-193 65 -257 65q-72 0 -116.5 -18.5t-73.5 -55.5q-8 -8 -12 -8q-3 0 -8 6q-8 13 -14 22q-10 15 -26.5 29t-36.5 22q-5 2 -29 9q-9 2 -9 5t7 9q96 66 144 162q40 80 40 174v884q0 19 -30 43q-22 17 -44 35
q-3 4 -1.5 12t15.5 8q10 1 60 -2.5t70 -3.5q40 0 81.5 3t46.5 3q18 0 18 -11q0 -6 -4 -11q-2 -3 -41 -33q-31 -24 -31 -43v-792q0 -140 -62 -264q-46 -92 -116 -158q52 34 112 57q76 29 142 29q69 0 250 -65q86 -31 158 -31q91 0 152 59q66 64 66 171q0 113 -56.5 184.5
t-149.5 71.5q-61 0 -98.5 -28.5t-37.5 -77.5q0 -40 22 -58q17 -14 46 -14q11 1 23 5l21 7q7 4 8 -2v-12q0 -31 -35.5 -55.5t-78.5 -24.5q-63 0 -102.5 42.5t-39.5 113.5q0 83 71 134.5t163 51.5q133 0 220.5 -95.5t87.5 -236.5z" />
    <glyph glyph-name="M" unicode="M" horiz-adv-x="1576" 
d="M1506 28q12 -9 12 -17q0 -11 -24 -11q-20 0 -34 1q-69 5 -90 5q-39 0 -62.5 -2t-53.5 -4q-22 0 -22 11q0 7 8 15q25 22 37 33q23 21 21 39l-152 1130l-322 -362q55 -58 91 -131q41 -83 41 -155q0 -97 -52 -169q-56 -77 -144 -77q-86 0 -141 75q-51 70 -51 165
q0 68 35 139q27 55 67 97q-116 132 -184.5 226.5t-85.5 143.5l-140 -1082q-2 -18 25 -39q22 -17 45 -33q8 -8 8 -15q0 -11 -18 -11q-9 -1 -55.5 2.5t-66.5 3.5q-42 0 -67.5 -2t-58.5 -4q-22 0 -22 11q0 8 12 19q19 15 39 30q25 21 27 38l170 1204q2 18 -26 41q-22 16 -44 33
q-6 6 -6 12q0 12 18 12q7 0 49 -3t79 -3q41 0 66 1.5t58 4.5q23 0 23 -11q0 -6 -7 -13q-25 -20 -39 -31q-27 -22 -27 -40q0 -3 2 -9q15 -42 99 -139q65 -74 152 -163q77 -78 79 -78l328 366q16 16 16 31q0 11 -10 23q-5 6 -19 17t-29 23q-8 8 -8 14q0 10 22 10q20 0 34 -1
q69 -5 90 -5q30 0 70 3t48 3q28 0 28 -13q0 -7 -8 -13q-21 -14 -32 -22q-39 -28 -36 -50l162 -1204q2 -17 31 -39q22 -16 45 -31zM850 564q0 53 -43 112q-31 42 -79 80q-40 -36 -62 -74q-30 -51 -30 -104q0 -66 26 -112q31 -54 86 -54q49 0 77 49q25 43 25 103z" />
    <glyph glyph-name="N" unicode="N" horiz-adv-x="1356" 
d="M1230 28q10 -7 10 -16q0 -12 -18 -12q-19 0 -32 1q-66 5 -88 5q-39 0 -62.5 -2t-53.5 -4q-21 0 -21 11q0 6 11 17q29 20 43 31q27 21 27 39l-12 306q-20 -51 -67 -89q-54 -43 -117 -43t-108.5 34t-45.5 92q0 43 28.5 73.5t69.5 30.5q17 0 27 -1.5t17 -8.5t7 -12
q0 -6 -9 -6q-12 0 -20.5 -4.5t-14 -16t-5.5 -29.5q0 -12 2 -18q8 -30 36 -44q20 -10 46 -10q46 0 76 43t30 99t-26 97q-20 32 -80 83q-54 46 -129 85q-190 98 -217 117q-64 46 -117 111q-46 57 -71 111l-74 -1000q0 -18 26 -39q21 -17 42 -33q7 -7 7 -15q0 -11 -17 -11
q-11 -1 -51 2.5t-63 3.5q-29 0 -67 -3t-45 -3q-19 0 -19 10q0 7 9 16q5 4 52 33q36 22 38 39l92 1204q0 19 -28 41q-23 16 -46 33q-8 6 -8 14q0 13 26 10q18 0 30 -1q60 -5 76 -5q25 0 64.5 3.5t49.5 2.5q17 0 17 -11q0 -6 -5 -11q-27 -17 -42 -28q-30 -21 -32 -48
q0 -62 27 -117.5t76.5 -97.5t117.5 -77q59 -29 118 -57q71 -36 125 -81q61 -51 112 -116q47 -60 68 -110l-44 656q-2 18 -39 40q-52 31 -55 34q-8 8 -8 14q0 10 20 10q19 0 32 -1q66 -5 86 -5q38 0 77.5 3t44.5 3q15 0 15 -10q0 -7 -7 -14q-29 -21 -46 -33q-32 -23 -32 -41
l76 -1204q0 -15 21 -30q33 -20 67 -40z" />
    <glyph glyph-name="O" unicode="O" horiz-adv-x="1360" 
d="M1270 708q0 -276 -166 -497q-181 -241 -448 -241q-254 0 -416 220q-150 204 -150 486q0 228 83 399q80 165 215 235q18 8 25 8q9 0 9 -7q0 -10 -18 -25q-55 -48 -89 -101q-47 -75 -71 -179q-28 -124 -28 -310q0 -239 145 -425q150 -193 355 -193q189 0 307 135
q129 148 129 417q0 287 -150 512q-144 216 -310 216q-67 0 -106.5 -33.5t-39.5 -88.5q0 -32 19 -58.5t50 -26.5q7 0 15 1t18.5 8.5t15 15t7.5 15t5 13.5q0 6 4 6q5 0 10 -6q10 -18 10 -48v-10q-2 -7 -2 -10q-6 -38 -36 -64t-72 -26q-64 0 -105 48t-41 116q0 101 87 164
q78 56 183 56q249 0 407 -220q149 -207 149 -502z" />
    <glyph glyph-name="P" unicode="P" horiz-adv-x="1372" 
d="M1252 920q0 -281 -165 -500q-171 -228 -407 -228q-83 0 -141 44q-63 48 -63 122q0 47 28.5 83.5t71.5 36.5q23 0 42.5 -5.5t27.5 -16.5q8 -10 -4 -14q-33 -17 -41 -29q-13 -21 -13 -59q0 -51 45 -80q38 -24 91 -24q153 0 260 186q104 181 104 426q0 201 -90 347
q-99 161 -260 161q-126 0 -220 -75q-100 -79 -100 -197v-1002q0 -184 -71 -303t-169 -119q-47 0 -78.5 20t-31.5 58q-3 24 5 41.5t23 28.5q7 5 12 5q9 0 6 -11q-4 -17 -2 -30q4 -21 15 -32q15 -15 42 -15q8 0 13 1q52 7 74 68.5t22 169.5v1232q-24 -7 -53.5 -10.5
t-70.5 -3.5q-40 0 -71 26.5t-31 65.5q0 67 64 80q12 2 16 2q16 0 22 -6q10 -7 10 -12t-14 -10q-16 -8 -16 -34v-9q2 -4 2 -5q7 -18 25.5 -24t46.5 -6h18q33 0 126 43q122 56 188 79q128 44 236 44q201 0 340 -153q136 -150 136 -357z" />
    <glyph glyph-name="Q" unicode="Q" horiz-adv-x="1374" 
d="M1298 42q0 -58 -47 -97t-109 -39q-58 0 -98 14q-78 27 -154 110q-35 -23 -108.5 -41.5t-125.5 -18.5q-254 0 -416 220q-150 204 -150 486q0 228 83 399q80 165 215 235q18 8 24 8q7 0 7 -7q0 -11 -15 -25q-55 -48 -89 -101q-47 -75 -71 -179q-28 -124 -28 -310
q0 -142 66 -288q61 -134 146 -208q31 39 81 69q73 43 159 43q119 0 211 -84q55 -58 79 -82q88 76 134 173q60 127 60 311q0 287 -150 512q-144 216 -310 216q-67 0 -106.5 -33.5t-39.5 -88.5q0 -32 19 -58.5t50 -26.5q7 0 15 1t18.5 8.5t17 18t6.5 21.5q4 11 10 11
q5 0 11.5 -13.5t6.5 -42.5q0 -7 -2 -19q-6 -38 -36 -64t-72 -26q-64 0 -105 48t-41 116q0 101 87 164q78 56 183 56q249 0 407 -220q149 -207 149 -502q0 -188 -82 -362q-76 -161 -192 -252q70 -77 99 -96.5t57 -19.5q35 0 54 21q16 17 16 39q0 18 -7.5 31.5t-20.5 16.5h-22
q-11 0 -11 4q0 3 9 12q18 18 46 18q39 0 62 -25q20 -22 20 -53zM842 92q-57 73 -68 84q-47 45 -110 60q-27 6 -51 6q-53 0 -97 -28q-31 -19 -52 -48q44 -36 120 -62t132 -26q41 0 70.5 2.5t55.5 11.5z" />
    <glyph glyph-name="R" unicode="R" horiz-adv-x="1398" 
d="M1458 -152q0 -43 -46 -68q-40 -22 -94 -22q-124 0 -225 63q-91 57 -157 161q-34 55 -58 139q-7 25 -34 149q-19 88 -40 140q-31 -9 -62.5 -14.5t-61.5 -5.5q-68 0 -109 22q-49 26 -49 78q0 46 48 73q41 23 98 23q53 0 102.5 -21.5t79.5 -64.5q99 50 168 157
q76 117 76 249q0 194 -133 324t-341 130q-111 0 -170 -9q-91 -14 -180 -59q-63 -32 -110 -79q-56 -57 -56 -109q-1 -12 -1 -16q0 -28 12.5 -49t36.5 -21q21 0 33 11t19 41q3 12 9 12t9 -8q16 -19 16 -54q0 -40 -30 -68t-72 -28q-49 0 -79.5 38t-30.5 92q0 87 63 162
q49 59 135 108q111 63 228 87q93 19 232 19q236 0 401 -134q171 -139 171 -346q0 -173 -112 -318q-100 -130 -250 -192q36 -46 68 -110t64 -148q49 -127 69 -169q46 -97 93 -148q58 -63 126 -63q25 0 47 11t25 33q0 18 -2.5 26.5t-9 16t-6.5 11.5q0 5 8 8q22 4 52 -13
t30 -47zM526 22q2 -2 3 -6q1 -3 1 -5q0 -11 -18 -11q-10 -1 -59.5 2.5t-68.5 3.5q-32 0 -96 -5q-24 -2 -34 -1q-17 0 -17 12q0 5 3 8q3 4 43 35q31 24 31 43v932q0 31 -18 45q-2 2 -32 15q-10 4 -10 10q0 5 12 16q29 16 52 29q17 9 50 30t90 66q28 22 34 25q10 3 14 -2
t0 -14q-25 -46 -38.5 -79.5t-13.5 -64.5v-1008q0 -19 30 -42q40 -31 42 -34zM778 468q-12 30 -45 49t-69 19q-28 0 -50 -12t-22 -34q0 -27 30 -39q23 -9 60 -9q23 0 50.5 7t45.5 19z" />
    <glyph glyph-name="S" unicode="S" horiz-adv-x="1178" 
d="M1102 448q0 -210 -176 -349q-166 -131 -394 -131q-208 0 -351 100q-159 112 -159 304q0 135 110.5 231.5t265.5 96.5q151 0 245 -58q105 -65 105 -184q0 -87 -70.5 -144.5t-163.5 -57.5q-85 0 -143 32q-69 38 -69 108q0 42 35 70q27 22 48 25t23 3q8 0 8 -6l-4 -12
q-1 -2 -4 -12q-6 -20 -6 -44q0 -31 31.5 -53.5t68.5 -22.5q62 0 103 38t41 94q0 84 -83 131q-72 41 -173 41q-129 0 -223 -76q-99 -80 -99 -200q0 -156 149 -250q133 -84 317 -84q187 0 321 116q139 120 139 298q0 97 -46 170q-40 64 -123 123q-57 41 -173 101
q-148 70 -295 141q-149 87 -149 205q0 117 119 182q103 56 251 56q113 0 179 -25q91 -34 91 -113q0 -32 -25.5 -57.5t-45 -27.5t-28.5 -2q-22 0 -37 7q-11 8 -11 10q0 5 7 12q14 14 20 29.5t6 32.5q0 49 -54 74q-43 20 -108 20q-105 0 -175 -33q-85 -40 -85 -115
q0 -55 61 -101q43 -32 150 -79q159 -69 185 -82q134 -65 204 -119q94 -72 139 -163q51 -103 51 -250z" />
    <glyph glyph-name="T" unicode="T" horiz-adv-x="1092" 
d="M1160 1458q0 -75 -104 -135.5t-228 -60.5q-45 0 -79.5 4.5t-88.5 15.5v-1184q0 -19 30 -42q40 -31 42 -34q2 -2 3 -6q1 -3 1 -5q0 -11 -18 -11q-10 -1 -59.5 2.5t-68.5 3.5q-32 0 -96 -5q-24 -2 -34 -1q-17 0 -17 12q0 5 3 8q3 4 43 35q31 24 31 43v1204q-70 11 -112 17
q-78 11 -152 11q-84 0 -122 -22t-38 -72q0 -17 12 -31t24 -16t23 -2q17 0 26 3t15 8q8 5 12 0t2 -14q-6 -27 -26 -48q-27 -28 -70 -28q-40 0 -65 29t-25 73q0 95 129 158.5t291 63.5q87 0 165 -18t159.5 -36t169.5 -18q71 0 109.5 19t38.5 57q0 25 -15.5 31.5t-40.5 6.5
q-15 0 -15 6q0 4 3 10q7 17 23 29q20 15 43 15q37 0 56.5 -19.5t19.5 -56.5z" />
    <glyph glyph-name="U" unicode="U" horiz-adv-x="1338" 
d="M1276 60q0 -28 -33 -58q-38 -34 -85 -34q-70 0 -116 66q-42 61 -42 140q-82 -105 -193 -158q-105 -50 -229 -50q-228 0 -355 179q-117 164 -117 425q0 144 84 303q67 127 188 263q90 101 190 186q-24 -12 -51.5 -17.5t-58.5 -5.5q-23 0 -44 3l-174 44q-22 0 -38 -13.5
t-16 -34.5q-1 -15 7 -25.5t21 -12.5q18 0 27 4q9 6 13 8q4 4 8 3q6 -1 6 -13q0 -26 -16 -50q-22 -32 -58 -32q-30 0 -48.5 23.5t-18.5 57.5q0 12 5 29q14 48 65 88q56 44 115 44q39 0 83 -13q98 -29 135 -29q43 0 78 12q16 5 42 20q12 5 16 5q8 0 22 -17q15 -15 15 -24
t-9 -18q-54 -40 -105 -86.5t-99 -105.5q-75 -91 -123 -173q-57 -97 -85 -195q-32 -112 -32 -236q0 -197 86 -329q101 -155 288 -155q121 0 224 56q84 46 150 126v1042q0 19 -30 43q-22 17 -44 35q-3 4 -1.5 12t15.5 8q10 1 60 -2.5t70 -3.5q40 0 81.5 3t46.5 3q18 0 18 -11
q0 -6 -4 -11q-2 -3 -41 -33q-31 -24 -31 -43v-1078q0 -74 14 -117q19 -57 60 -57q18 0 28.5 4.5t23.5 17.5q3 4 7 4q3 0 5 -5q2 -6 0 -11z" />
    <glyph glyph-name="V" unicode="V" horiz-adv-x="1298" 
d="M1206 1210q0 -94 -48 -215q-36 -91 -119 -237q-75 -128 -149 -256.5t-142 -265.5q-51 -102 -91 -189.5t-44 -95.5t-9 -8q-6 0 -12 9q-23 39 -78 173q-58 142 -112 290q-65 180 -102 305q-31 104 -61 230q-25 106 -47 212q-15 72 -26 138q-4 23 -43 50q-29 20 -33 24
q-7 7 -7 14q0 12 21 12q6 0 48 -3t78 -3q44 0 69.5 1.5t58.5 4.5q17 0 17 -12q0 -7 -5 -12q-26 -21 -40 -34q-26 -24 -24 -46q9 -91 40 -226q28 -120 76 -284q52 -180 111 -344t109 -264q27 70 65 151q43 91 87 173q68 123 136 247q73 138 108 237q44 124 44 228
q0 113 -41 182q-51 86 -159 86q-59 0 -99.5 -29t-40.5 -81q0 -31 17 -52t48 -21q7 1 11 1q24 3 38 19q10 12 13 27t9 15q4 0 10 -7q16 -20 16 -50q0 -40 -30 -68t-72 -28q-55 0 -89.5 41.5t-34.5 106.5q0 81 73 131.5t173 50.5q124 0 205 -100q77 -95 77 -228z" />
    <glyph glyph-name="W" unicode="W" horiz-adv-x="1764" 
d="M1666 1122q0 -136 -83 -363q-61 -166 -178 -409q-82 -166 -163 -332q-16 -32 -29.5 -70.5t-16.5 -43.5q-3 -6 -8 -6t-10.5 7.5t-45.5 96.5q-53 116 -137.5 320t-134.5 332q-46 -103 -93 -206q-57 -124 -114 -247q-67 -147 -93 -207q-3 -8 -17 -50q-8 -25 -15 -36
q-3 -7 -9 -7q-4 0 -7 5q-2 3 -7 18q-10 29 -19 50q-67 165 -133 331q-109 274 -167 462q-82 266 -82 409q0 97 43 171q50 87 135 87q54 0 87 -30q29 -26 25 -54q-5 -10 -6 -11q-5 -5 -12 1q-8 8 -23.5 14t-42.5 6q-43 0 -66 -53q-18 -42 -18 -101q0 -78 21 -171
q17 -75 51 -176q31 -87 62 -173q40 -111 84 -224q32 -81 71 -177q21 -53 43 -105l256 570q-47 120 -68 199q-26 99 -26 187q0 108 45.5 169t128.5 61q75 0 118.5 -54.5t43.5 -145.5q0 -56 -36.5 -163.5t-79.5 -188.5l278 -654q57 105 122 248q87 193 138 352q66 208 66 340
q0 86 -34 148q-39 72 -108 72q-48 0 -70 -21t-22 -73q0 -14 -6 -14q-2 0 -10 4q-46 23 -46 82q0 67 62 103q50 29 112 29q111 0 179 -91q65 -87 65 -217zM980 1154q0 50 -17 85q-21 43 -61 43q-39 0 -58.5 -36t-19.5 -84q0 -68 23 -140q19 -58 53 -120q34 72 52 123
q28 79 28 129z" />
    <glyph glyph-name="X" unicode="X" horiz-adv-x="1212" 
d="M1154 28q12 -10 12 -18q0 -10 -20 -10q-24 0 -41 1q-85 5 -107 5q-41 0 -66 -2t-58 -4q-22 0 -22 11q0 5 8 15q15 14 22 21q13 13 13 25q0 8 -7 18q-27 38 -95 141q-35 51 -69 103q-55 84 -107 174q-39 67 -81 148q-49 -38 -98 -91q-58 -62 -104 -131q-58 -88 -89 -170
t-31 -160q0 -27 19 -48q24 -20 33.5 -29t9.5 -17q0 -10 -16 -10q-10 -1 -48.5 2.5t-61.5 3.5q-32 0 -53 -2t-49 -4q-23 0 -23 13q0 4 7 11q25 16 40 27q28 21 34 49q16 68 57 167q45 108 89 177q60 92 110.5 148.5t139.5 133.5q-26 50 -60 127q-43 96 -70 173
q-22 62 -40.5 125.5t-33.5 126.5q-6 25 -44 57q-26 21 -52 43q-5 7 -5 11q0 11 21 11q6 0 48 -3t78 -3q40 0 64.5 1.5t57.5 4.5q25 0 25 -12q0 -5 -5 -12l-43 -43q-14 -19 -11 -35q17 -83 73 -233.5t107 -248.5q157 126 164 132q109 93 166 162q76 93 76 160q0 41 -25 62
t-64 21q-13 0 -27.5 -2t-30 -13t-29.5 -32q-8 -12 -11.5 -30t-5.5 -25.5t-8 -7.5q-4 0 -9 5q-11 11 -18 31t-7 41q1 8 1 12q0 54 46 94t106 40q82 0 130 -48t48 -122q0 -99 -93 -214q-66 -81 -197 -188q-171 -139 -176 -144q60 -125 148 -269q71 -116 151 -231
q58 -83 111 -150q16 -20 42 -37.5t54 -34.5z" />
    <glyph glyph-name="Y" unicode="Y" horiz-adv-x="1260" 
d="M1186 1382q-7 -10 -16 -29q-22 -48 -34 -123q-5 -29 -26.5 -184.5t-41.5 -273.5q-26 -156 -60 -292q-54 -219 -117 -377q-81 -203 -177 -312q-114 -129 -252 -129q-82 0 -137 39q-59 42 -59 111q0 28 10.5 54.5t25.5 37.5q8 3 12 3q9 0 12 -11q1 -13 2.5 -23t5.5 -23
q10 -24 40 -39q37 -19 92 -19q93 0 191 115q83 97 158 259q63 135 99 268q-53 -102 -152 -173q-104 -75 -206 -75q-186 0 -290 156q-96 144 -96 378q0 112 48 240q37 99 102 206q34 57 92 136q-49 0 -113 22t-99 22q-21 0 -42.5 -13.5t-21.5 -34.5q0 -48 30 -48q15 0 24 12
q4 6 10 20q6 9 12 0q6 -12 6 -28q0 -29 -19.5 -49.5t-48.5 -20.5q-27 0 -46 22t-19 60q1 9 1 14q5 47 44 83q43 39 104 39q31 0 112 -17q43 -9 70 -9q28 0 52 14q16 9 28 24q5 5 9 6t9 -2q7 -4 12.5 -10t9.5 -10q2 -11 -2 -16q-48 -53 -79 -97q-64 -92 -103 -203
q-52 -149 -52 -314q0 -206 75 -326q82 -130 235 -130q159 0 261 145q87 123 127 343q22 122 22 252q0 138 -22 218q-11 39 -31 73q-15 25 -31 41q-5 5 -5 9q0 7 19 7q29 -5 56 -8.5t52 -3.5q31 0 71 6t47 6q15 3 15 -6q0 -5 -5 -12z" />
    <glyph glyph-name="Z" unicode="Z" horiz-adv-x="1238" 
d="M1184 256q0 -122 -98 -205t-240 -83q-81 0 -165 33.5t-161 66.5q-94 36 -174 36q-86 0 -167 -54q-76 -63 -95 -78q-8 -7 -15 -7q-8 0 -10.5 11t-2.5 31q0 49 17 120.5t45 130.5q65 139 182 259q68 70 244 211q186 149 282 242q87 83 151 183q56 88 73 153
q-58 -35 -112 -56q-74 -28 -142 -28q-73 0 -149 27t-150 54t-141 27q-74 0 -128 -46.5t-54 -121.5q0 -51 29.5 -87.5t73.5 -36.5q31 0 52.5 18.5t21.5 47.5q0 8 -1 12q-4 25 -19 33.5t-33 8.5q-9 0 -9 6q0 3 5 10q9 11 30 20.5t42 9.5q45 0 74.5 -28.5t29.5 -77.5
q0 -56 -54 -99t-120 -43q-81 0 -127.5 61t-46.5 159q0 107 115 183q108 71 243 71q70 0 141.5 -27l143 -54t143.5 -27q80 0 136 41q28 20 56 61q6 7 14 7q4 0 10 -3l30 -16q7 -4 7 -12q0 -6 -1 -10q-7 -42 -53 -142q-51 -111 -101 -180q-63 -90 -192 -203q-61 -53 -236 -193
q-146 -117 -196 -170q-79 -84 -109 -121q-47 -58 -75 -118q-31 -66 -46 -151q60 51 115 78q73 36 147 36q93 0 193 -41q83 -39 167 -77q97 -42 174 -42q63 0 103 33q47 39 47 111q0 50 -34 85t-86 35q-56 0 -78 -28q-14 -18 -14 -46q0 -11 -10 -11q-4 0 -10 3q-14 11 -23 31
t-9 43q0 60 47 99t111 39q81 0 136.5 -60.5t55.5 -143.5z" />
    <glyph glyph-name="bracketleft" unicode="[" horiz-adv-x="586" 
d="M532 1358v-11l-10 1q-11 8 -18 12q-15 8 -30.5 11t-56 5t-77.5 4v-1646q36 1 73.5 3t56 5.5t31.5 8t19 9.5l8 1l2 -7l-2 -30v-25t2 -21q2 -8 -2 -11q-4 -4 -10 1q-9 7 -18 10q-16 6 -34 6h-258v1746h258q21 0 32 4t22 12l7 1l3 -7l-2 -50q0 -17 1 -23q1 -5 3 -9z" />
    <glyph glyph-name="backslash" unicode="\" horiz-adv-x="598" 
d="M734 -108q7 -6 7 -10q0 -5 -8.5 -9.5t-28.5 -4.5q-6 0 -12 1q-7 2 -10 3q-42 14 -86 49q-63 50 -114 133q-32 48 -70 130q-31 68 -79 192.5t-93 247.5q-28 77 -76 227q-55 172 -80 243q-47 135 -84 210q-26 60 -63 101q-29 33 -79 69q-5 3 -5 7q0 6 13 11t28 5
q10 0 18 -3q45 -15 92 -52q65 -52 110 -130q36 -60 87 -195q27 -71 88 -253q53 -158 77 -220t67 -187t67 -186q42 -105 94 -209q21 -43 59.5 -89.5t80.5 -80.5z" />
    <glyph glyph-name="bracketright" unicode="]" horiz-adv-x="586" 
d="M378 -316h-258q-20 0 -31 -4t-21 -12q-6 -4 -10 -1t-2 11q1 36 2 46l-2 30l2 7l8 -1q7 -5 18 -9t34 -9q10 -2 50.5 -4t77.5 -4v1646q-36 -1 -73.5 -3t-56.5 -5.5t-34 -11.5q-7 -4 -18 -12l-9 -1q-4 3 -1 11q4 12 4 32l-2 50l2 7l8 -1q11 -8 25 -12t29 -4h258v-1746z" />
    <glyph glyph-name="asciicircum" unicode="^" horiz-adv-x="1000" 
d="M982 544q7 -6 7 -9q0 -4 -10 -4q-6 1 -9 1q-8 0 -27 2t-29 2q-14 0 -29 -1l-30 -2q-9 1 -13 1q-23 0 -32 12q-84 128 -177 247q-87 112 -115 133q-16 -12 -64 -70q-55 -67 -108 -138q-60 -81 -120 -172q-6 -12 -26 -12q-5 -1 -18 -1q-14 0 -29.5 1t-30.5 2
q-12 0 -31 -2.5t-27 -3.5q-16 0 -16 5q0 3 6 9q86 79 154 157q48 55 101 125.5t97 133.5q27 38 60 88h104q20 -32 37 -56q45 -65 121 -166q47 -64 100 -124q73 -83 154 -158z" />
    <glyph glyph-name="underscore" unicode="_" horiz-adv-x="1000" 
d="M1000 -292h-1000v98h1000v-98z" />
    <glyph glyph-name="grave" unicode="`" horiz-adv-x="1000" 
d="M726 1510q-6 -12 -13.5 -19.5t-14.5 -0.5q-45 25 -70 39q-102 58 -132 73q-66 36 -121 67q-46 26 -53.5 29t-7.5 8q0 4 10 14t15 16q9 11 15 20l28 50q5 6 11 6q5 0 9 -4q26 -26 146 -130q12 -11 115 -100q36 -31 57 -52q9 -9 6 -16z" />
    <glyph glyph-name="a" unicode="a" horiz-adv-x="1084" 
d="M992 26q7 -11 7 -16q0 -10 -15 -10q-4 0 -33 3t-55 3q-18 0 -40 -3t-26 -3q-23 0 -23 11q0 4 5 11q9 13 14.5 27.5t5.5 32.5l-6 96q-39 -82 -129 -143q-100 -67 -209 -67q-154 0 -260 91q-112 96 -112 249q0 154 122 258q117 100 280 100q79 0 151.5 -31t110.5 -75
q0 44 -51 131q-60 103 -141 169q-102 84 -210 84q-67 0 -115 -28q-55 -32 -55 -88q0 -32 16.5 -53t45.5 -21q20 0 35 13t15 31q0 13 -3.5 25.5t-6.5 22.5q-3 7 1 9q2 1 13 1q28 -3 51 -26t23 -52q0 -47 -37.5 -78.5t-86.5 -31.5q-58 0 -96 39t-38 105q0 86 91 134
q80 42 193 42q111 0 219 -70.5t175 -191.5q47 -85 75 -211q18 -80 34 -219.5t27 -191.5q5 -26 19 -50q15 -22 19 -28zM822 346q0 113 -83.5 180.5t-218.5 67.5q-110 0 -192 -72t-82 -178q0 -113 83.5 -190.5t198.5 -77.5q133 0 213.5 75.5t80.5 194.5z" />
    <glyph glyph-name="b" unicode="b" horiz-adv-x="1110" 
d="M1024 540q0 -238 -127 -401q-133 -171 -343 -171q-83 0 -149.5 32t-110.5 92q-10 -36 -33 -70q-19 -28 -39 -44q-8 -6 -14 -6q-2 0 -10 8t-18 21q-14 18 -20 25l-48 50q-5 5 -5 10q0 7 9 12q31 13 46 33q28 38 28 115v922q0 29 -2 46t-24 14q-13 -2 -38.5 -19.5
t-33.5 -20.5q-6 -3 -12 0q-5 2 -5 8q0 8 7.5 17.5t40.5 40.5q53 51 77 76q37 37 76 82q29 34 35 38t11 4q8 0 8 -16q-7 -66 -8 -75q-4 -55 -4 -105v-482q51 83 126 140q95 72 196 72q173 0 278.5 -122.5t105.5 -325.5zM892 510q0 154 -75 260q-81 114 -213 114
q-125 0 -205.5 -90.5t-80.5 -227.5v-312q0 -110 64 -171q60 -57 160 -57q159 0 259 155q91 141 91 329z" />
    <glyph glyph-name="c" unicode="c" horiz-adv-x="1012" 
d="M958 242q0 -14 -8 -34q-32 -81 -114 -148q-113 -92 -262 -92q-219 0 -348 132q-132 135 -132 372q0 207 149.5 361.5t358.5 154.5q120 0 210 -64q98 -70 98 -178q0 -91 -57.5 -153.5t-142.5 -62.5q-72 0 -124 42q-56 45 -56 114q0 45 30 84q26 35 54 42q11 4 17 -2t3 -14
q-5 -14 -7 -23q-6 -20 -6 -36q0 -11 1 -17q6 -31 32.5 -47.5t61.5 -16.5q48 0 77 35t29 87q0 76 -73 120q-66 40 -155 40q-169 0 -273.5 -128.5t-104.5 -321.5q0 -168 107 -287q111 -123 275 -123q103 0 171.5 30.5t140.5 113.5q1 2 12 17q8 11 14 15q5 3 13.5 0.5
t8.5 -12.5z" />
    <glyph glyph-name="d" unicode="d" horiz-adv-x="1140" 
d="M1030 70q-5 -3 -16 -12q-18 -15 -29.5 -25.5t-25.5 -24.5q-10 -10 -13 -14q-8 -9 -16 -9q-5 0 -16 7q-23 17 -54 68q-34 56 -48 102q-47 -87 -124.5 -140.5t-167.5 -53.5q-185 0 -302.5 137.5t-117.5 350.5t120 367q128 165 324 165q82 0 147 -27q59 -24 115 -77v284
q0 29 -2 46t-24 14q-12 -1 -33 -16q-28 -20 -33 -22q-5 -3 -9 -3q-13 0 -13 12q0 5 6.5 14t39.5 41q59 57 78 76q34 34 74 81q28 33 36 39q2 2 6 3q3 1 5 1q9 0 9 -16q-7 -66 -8 -75q-4 -55 -4 -105v-1002q0 -59 21 -98t71 -64q11 -6 11 -14q0 -6 -7 -10zM806 340v338
q0 121 -84 191q-75 63 -188 63q-135 0 -230 -126q-90 -120 -90 -276q0 -187 89 -313q97 -137 255 -137q101 0 171 66q77 73 77 194z" />
    <glyph glyph-name="e" unicode="e" horiz-adv-x="1006" 
d="M986 212q-26 -85 -125 -159q-116 -87 -253 -87q-88 0 -156 19q-78 22 -148 75q-28 -35 -51 -76q-29 -51 -29 -74q0 -28 15 -39q10 -7 33 -7q7 0 14 2l12 4q4 2 7 0q7 -4 3 -16q-6 -24 -24 -44q-24 -26 -56 -26q-34 0 -56 25t-22 65q0 32 22 78q6 13 86 142
q-74 76 -114 165q-44 99 -44 213q0 210 136.5 363t339.5 153q81 0 166 -39q47 -23 94 -45q9 -4 26 -6t34 -2l30 2q11 0 11 -9q0 -7 -7 -11q-16 -10 -35 -27q-26 -22 -45 -45q-97 -108 -225 -283t-241 -351q59 -42 120 -65q72 -27 150 -27q108 0 178 41q51 30 114 107
q6 9 14 19.5t18 8.5q13 -3 13 -19q0 -12 -5 -25zM712 802q0 59 -64 92q-54 28 -130 28q-142 0 -234 -121q-86 -114 -86 -271q0 -93 45 -186q38 -79 95 -134q68 101 106 157q61 90 104 151l110 156q54 84 54 128z" />
    <glyph glyph-name="f" unicode="f" horiz-adv-x="596" 
d="M600 1314q0 -48 -29 -84t-75 -36q-39 0 -68.5 21t-29.5 55t22 52q3 3 6 1q5 -3 6.5 -13t7.5 -16q10 -11 29 -11q6 1 9 1q16 2 27 14.5t11 33.5q0 25 -21.5 39.5t-50.5 14.5q-54 0 -79 -44.5t-25 -125.5v-264q33 0 65 1t67 3q14 0 14 -14v-34q0 -16 -14 -16q-5 0 -49 2
t-83 2v-850q0 -171 -55 -286q-42 -88 -116 -143q-38 -28 -99 -53q-8 -3 -14.5 1t-8 15t-2.5 24q-4 15 -7 26q-6 22 -11.5 35.5t-10.5 24.5q-3 7 1 10t13 2q15 -2 31 -4q61 0 97 56q54 83 54 284v858q-32 0 -61 -1.5t-59 -2.5q-14 0 -14 16v32q0 16 18 16q5 0 44 -2t72 -2
v180q0 125 66.5 211.5t171.5 86.5q59 0 104.5 -31.5t45.5 -84.5z" />
    <glyph glyph-name="g" unicode="g" horiz-adv-x="1098" 
d="M1024 -94q0 -163 -185 -261q-161 -85 -379 -85q-158 0 -276 64q-130 70 -130 180q0 67 38.5 106.5t99.5 39.5q57 0 91.5 -25t40.5 -69q2 -10 2 -15q0 -22 -12 -39q-6 -6 -10 -6q-6 0 -8 6q-12 29 -34.5 42.5t-53.5 13.5q-29 0 -48.5 -24.5t-19.5 -53.5q0 -80 103 -126
q90 -40 219 -40q157 0 280 83q132 89 132 219q0 114 -104 186q-95 66 -226 66q-120 0 -200 -38q-42 -20 -80 -58q-9 -9 -20 2q-21 13 -34 23t-22 19q-8 8 2 18q1 1 54 35q18 11 46 33q55 40 85 73q22 23 39 53q-112 21 -206 100q-118 99 -118 232q0 147 129 241
q120 87 285 87q89 0 149.5 -12.5t128.5 -49.5q20 22 32 46q16 33 16 70q0 29 -15 46q-18 21 -51 18q-17 0 -30 -8q-5 -3 -16 -14q-5 -5 -8 -3t-2 11q5 35 22 62q26 40 68 40q58 0 88 -39q26 -34 26 -95q0 -46 -27 -97q-23 -44 -51 -65q70 -52 104 -114t34 -146
q0 -147 -130 -238q-120 -84 -294 -84q-16 0 -35.5 1.5t-30.5 2.5q-17 -29 -58 -69t-70 -59q52 17 107 23.5t115 6.5q171 0 296 -71q152 -87 152 -245zM836 640q0 63 -16 109t-56 91q-23 -15 -46.5 -22.5t-53.5 -7.5q-57 0 -89 32q-25 25 -25 52q0 11 4 11q3 0 8 -5
q15 -18 24 -24q24 -16 58 -16q24 0 44 6t36 16q-28 28 -82 49t-110 21q-128 0 -222 -82.5t-94 -205.5q0 -108 56.5 -187t159.5 -107q6 20 6 37q0 30 -20 63q-7 12 8 17.5t25.5 9t31.5 12.5t35.5 18.5t31.5 20.5q6 6 10 2q4 -3 4 -12q0 -23 -20.5 -79t-39.5 -95q18 -3 36 -3
q108 0 200 82q96 86 96 197z" />
    <glyph glyph-name="h" unicode="h" horiz-adv-x="1112" 
d="M960 614q0 -148 -52 -283.5t-154 -250.5q3 0 10.5 -0.5t20.5 -0.5q31 0 58 3.5t53 20.5q26 21 32.5 26t11.5 5q8 0 8 -14q-3 -20 -5.5 -39.5t-2.5 -28.5q0 -19 3 -43t3 -29q0 -15 -8 -15q-4 0 -12 5q-22 16 -43 23.5t-42 10.5t-64 3q-29 0 -46 -1t-45 -6q-12 -2 -19 -2
q-10 0 -13 4q-4 6 -1.5 13t7.5 15q54 84 84 139q47 87 70 162q28 92 28 187q0 156 -70 255q-73 103 -198 103q-83 0 -151 -49q-58 -42 -99 -115v-614q0 -16 21 -35q18 -16 37 -31q12 -12 12 -20q0 -12 -22 -12q-18 0 -30 1q-62 5 -82 5q-36 0 -58.5 -2t-51.5 -4
q-24 0 -24 12q0 6 10 18q25 20 37 31q23 20 23 37v1070q0 29 -2 46t-24 14q-11 -2 -37 -19.5t-35 -20.5q-15 -5 -15 11q0 5 6 14t55 56q39 38 62 61q34 34 74 81q28 33 36 39q2 2 6 3q3 1 5 1q9 0 9 -16q-5 -32 -8.5 -79.5t-3.5 -100.5v-460q44 72 99 118q86 72 183 72
q180 0 277 -135q77 -107 77 -239z" />
    <glyph glyph-name="i" unicode="i" horiz-adv-x="560" 
d="M370 1240q0 -35 -26.5 -59.5t-63.5 -24.5q-36 0 -61 26t-25 62t27 61t63 25t61 -27t25 -63zM392 32q12 -12 12 -20q0 -12 -22 -12q-18 0 -30 1q-62 5 -82 5q-36 0 -58.5 -2t-51.5 -4q-24 0 -24 12q0 6 10 18q25 20 37 31q23 20 23 37v672q0 50 -24 67q-31 11 -43 15
t-12 12q0 6 9.5 13t32.5 19q34 18 53 30q47 29 73.5 48.5t33.5 24.5t10 5q14 0 9 -18q-5 -22 -9.5 -73t-4.5 -121v-694q0 -16 21 -35q18 -16 37 -31z" />
    <glyph glyph-name="j" unicode="j" horiz-adv-x="520" 
d="M360 1240q0 -35 -26.5 -59.5t-63.5 -24.5q-36 0 -61 26t-25 62t27 61t63 25t61 -27t25 -63zM358 -112q6 -6 -2 -14q-7 -5 -17 -15.5t-19 -24.5q-51 -89 -102 -179q-62 -95 -126 -95q-30 0 -51 17.5t-21 46.5q0 20 13 35t33 15q25 0 34 -15.5t6 -26.5q-1 -4 -1 -10
q0 -10 7 -10q2 0 10 2q27 10 47 55q27 62 27 169v932q0 50 -24 67q-31 11 -43 15t-12 12q0 6 9.5 13t32.5 19q34 18 53 30q47 29 73.5 48.5t33.5 24.5t10 5q14 0 9 -18q-5 -22 -9.5 -73t-4.5 -121v-794q0 -45 9 -72q6 -19 25 -38z" />
    <glyph glyph-name="k" unicode="k" horiz-adv-x="992" 
d="M982 52q0 -32 -26 -55t-60 -23q-72 0 -126 67q-32 40 -85 150t-91 155q-68 80 -120 116q-70 48 -150 48v-412q0 -16 21 -35q18 -16 37 -31q12 -12 12 -20q0 -12 -22 -12q-18 0 -30 1q-62 5 -82 5q-36 0 -58.5 -2t-51.5 -4q-24 0 -24 12q0 6 10 18q25 20 37 31
q23 20 23 37v1070q0 29 -2 46t-24 14q-11 -2 -37 -19.5t-35 -20.5q-15 -5 -15 11q0 5 6 14t55 56q39 38 62 61q34 34 74 81q28 33 36 39q2 2 6 3q3 1 5 1q9 0 9 -16q-5 -32 -8.5 -79.5t-3.5 -100.5v-678q60 22 129 57q95 48 159 97q71 56 97 87q41 50 41 109q0 28 -17 48
t-45 20q-20 0 -34 -11.5t-16 -26.5q0 -27 -9 -27q-4 0 -11 5q-16 9 -28 28.5t-12 43.5q0 50 37 84t89 34q59 0 98.5 -46t39.5 -108q0 -80 -47 -150q-39 -58 -113 -112q-45 -33 -121 -77q-91 -53 -151 -75q82 -16 146 -43q104 -43 158 -109q46 -56 69 -121q19 -53 27 -128
t11 -85q12 -43 41 -38q7 1 8 23.5t2 24.5q9 34 50 34q29 0 44.5 -19t15.5 -47z" />
    <glyph glyph-name="l" unicode="l" horiz-adv-x="560" 
d="M392 32q12 -12 12 -20q0 -12 -22 -12q-18 0 -30 1q-62 5 -82 5q-36 0 -58.5 -2t-51.5 -4q-24 0 -24 12q0 6 10 18q25 20 37 31q23 20 23 37v1070q0 29 -2 46t-24 14q-11 -2 -37 -19.5t-35 -20.5q-15 -5 -15 11q0 5 6 14t55 56q39 38 62 61q34 34 74 81q28 33 36 39
q2 2 6 3q3 1 5 1q9 0 9 -16q-5 -32 -8.5 -79.5t-3.5 -100.5v-1160q0 -16 21 -35q18 -16 37 -31z" />
    <glyph glyph-name="m" unicode="m" horiz-adv-x="1530" 
d="M1376 618q0 -131 -67 -279q-63 -139 -169 -259q3 0 10.5 -0.5t20.5 -0.5q31 0 59 3.5t55 22.5q16 13 33 27q6 6 12 2q5 -4 4 -14q-3 -20 -5.5 -39.5t-2.5 -28.5q0 -22 1.5 -36.5t4.5 -33.5q2 -17 -7 -17q-7 0 -15 7q-19 13 -42 21t-42.5 11t-62.5 3q-29 0 -46 -1t-45 -6
q-4 -1 -7 -1h-7q-19 0 -19 13q0 6 7 18q50 77 87 147q49 92 75 170q32 96 32 173q0 164 -47 255q-56 107 -175 107q-49 0 -93 -19.5t-79 -60.5q18 -49 26 -119t8 -149q0 -98 -46 -229q-36 -103 -90 -202q-44 -81 -62 -99q-3 -4 -13 -4q-16 0 -19 6q-3 4 -1 11q6 14 7 17
q88 182 88 484q0 146 -56 248q-61 110 -158 110q-66 0 -124 -55q-49 -46 -72 -109v-614q0 -17 23 -36q18 -15 37 -30q12 -12 12 -20q0 -12 -22 -12q-11 0 -58 3t-56 3q-36 0 -58.5 -2t-51.5 -4q-23 0 -23 11q0 8 11 19q24 20 36 31q22 20 22 37v592q0 85 -53 138
q-20 20 -77 52q-8 5 -8 12q0 5 6 10q16 12 46 42q15 15 23 24t14.5 16.5t11.5 7.5t11 -6q38 -33 76 -83q53 -69 62 -119q35 73 80 120q80 84 184 84q86 0 153 -48q46 -33 91 -96q40 60 91 97q65 47 139 47q172 0 257 -133q63 -99 63 -237z" />
    <glyph glyph-name="n" unicode="n" horiz-adv-x="1124" 
d="M970 614q0 -148 -52 -283.5t-154 -250.5q3 0 10.5 -0.5t20.5 -0.5q31 0 58 3.5t53 20.5q26 21 34 27q2 2 6 3q3 1 4 1q11 0 6 -18q-2 -15 -4 -36t-2 -28q0 -15 1 -31.5t3 -34.5q4 -20 -8 -20q-5 0 -10 4q-30 17 -42 22q-23 9 -43.5 12t-63.5 3q-29 0 -46 -1t-45 -6
q-29 -5 -29 18q0 7 3 12q54 84 84 139q47 87 70 162q28 92 28 187q0 157 -70 255q-73 103 -198 103q-84 0 -151 -47q-60 -42 -99 -117v-614q0 -18 22 -37q19 -16 38 -31q11 -11 11 -20q0 -10 -17 -10q-5 0 -45 3t-73 3q-38 0 -60.5 -2t-51.5 -4q-24 0 -24 11q0 7 9 17t29 26
q34 26 34 44v592q0 85 -51 138q-22 23 -77 52q-8 4 -8 11t6 13q13 12 22 19.5t23 21.5t22 23t15 18q4 5 11 5q6 0 9 -3q36 -29 76 -81q55 -71 64 -123q44 72 107 125q94 79 191 79q180 0 277 -135q77 -107 77 -239z" />
    <glyph glyph-name="o" unicode="o" horiz-adv-x="1174" 
d="M1092 472q0 -210 -154 -359q-150 -145 -354 -145q-215 0 -362.5 149.5t-147.5 364.5q0 209 150.5 357.5t361.5 148.5q212 0 359 -151t147 -365zM1006 428q0 165 -152 314q-157 154 -344 154q-146 0 -248 -100t-102 -236q0 -197 155 -350q152 -150 335 -150q145 0 246 94
q110 103 110 274z" />
    <glyph glyph-name="p" unicode="p" horiz-adv-x="1146" 
d="M1050 586q0 -265 -147 -445q-142 -173 -333 -173q-69 0 -125 26q-45 21 -105 74v-214q0 -56 22 -92q11 -17 38 -42q9 -8 9 -14q0 -7 -14.5 -13t-32.5 -13q-31 -14 -72 -40q-28 -17 -52.5 -37t-49.5 -41q-8 -4 -14 -4q-10 0 -8 20q20 53 33 106.5t13 109.5v896
q0 86 -53 140q-22 23 -77 52q-6 3 -6 8q0 3 2 7t4 7q5 6 17 16q17 14 27 24q15 15 23 24t15 18q3 5 11 5q6 0 9 -3q41 -31 80 -80q58 -73 68 -142q39 77 107 136q100 86 223 86q124 0 219 -73q79 -61 127 -163q42 -90 42 -166zM916 514q0 144 -80 253q-84 115 -208 115
q-103 0 -181 -65q-64 -53 -107 -145v-582l40 38q17 16 27.5 28t24.5 34q5 6 10 6q13 0 8 -16q-1 -2 -4 -19.5t-3 -28.5q0 -24 9 -44q13 -26 50.5 -44t77.5 -18q152 0 244 135t92 353z" />
    <glyph glyph-name="q" unicode="q" horiz-adv-x="1124" 
d="M1044 880q7 -6 7 -11q0 -7 -9 -11q-71 -33 -78 -39q-54 -42 -54 -123v-842q0 -56 22 -92q11 -17 38 -42q9 -9 9 -15q0 -8 -13 -11q-26 -11 -53 -24.5t-53 -29.5q-33 -22 -63 -46q-36 -29 -37 -30q-9 -6 -15 -6q-12 0 -12 12q0 5 3 10q21 54 33.5 105.5t12.5 108.5v350
q-48 -77 -113 -119q-79 -51 -183 -51q-169 0 -282.5 151t-113.5 359q0 212 128.5 358t307.5 146q90 0 165 -47q61 -38 111 -107q10 37 62 87q44 42 74 57q8 2 10 2q9 0 12 -6q8 -12 17 -23q14 -15 21 -23q12 -13 25.5 -27.5t20.5 -20.5zM782 356v332q0 96 -76 164t-184 68
q-142 0 -227 -119q-77 -108 -77 -261q0 -184 83 -312q93 -144 251 -144q117 0 178 85q52 73 52 187z" />
    <glyph glyph-name="r" unicode="r" horiz-adv-x="822" 
d="M806 842q0 -58 -31 -94t-83 -36q-37 0 -63.5 10t-34.5 28q-3 4 -1 9t9 5q18 0 33.5 5t27.5 18q17 19 17 47q0 33 -26 53q-30 23 -86 23q-71 0 -140 -63q-61 -56 -94 -135v-614q0 -18 22 -37q19 -16 38 -31q10 -10 10 -18q0 -12 -22 -12q-18 0 -30 1q-62 5 -82 5
q-38 0 -60.5 -2t-51.5 -4q-22 0 -22 11q0 9 12 21q18 15 27 22q31 25 31 44v592q0 69 -37 114q-25 30 -107 66q-4 1 -4 6q0 6 4 10l46 44q13 13 23 25q3 3 13 17q6 7 13 7q4 0 9 -3q56 -39 83 -67q60 -61 69 -125q37 83 110 139q85 65 188 65q89 0 139.5 -42.5t50.5 -103.5z
" />
    <glyph glyph-name="s" unicode="s" horiz-adv-x="996" 
d="M894 322q0 -158 -137 -259q-128 -95 -305 -95q-150 0 -249 49q-121 60 -121 177q0 89 65.5 150.5t156.5 61.5q94 0 153 -34q67 -39 67 -110q0 -45 -32.5 -78.5t-77.5 -33.5q-43 0 -62 16q-5 5 -5 8q0 7 13 10q17 6 28.5 21t11.5 47q0 29 -31 47.5t-67 18.5
q-71 0 -119.5 -34t-48.5 -94q0 -84 107 -130q89 -38 211 -38q127 0 222 57q112 67 112 181t-82 169q-51 34 -194 69q-82 18 -163 37q-92 25 -135 65q-56 52 -56 146q0 107 113 177q104 65 239 65q122 0 197 -31q99 -41 99 -127q0 -55 -53 -91q-49 -33 -113 -33
q-61 0 -102 23q-50 28 -50 80q0 27 18.5 47.5t41.5 27.5q10 2 11 2q7 0 7 -10l-2 -20q0 -22 14 -36q18 -18 58 -18q26 0 45 18t19 42q0 45 -65 64q-48 14 -125 14q-96 0 -173 -43q-85 -48 -85 -119q0 -64 56 -100q35 -23 224 -66q117 -27 180 -52q88 -35 132 -86
q52 -60 52 -152z" />
    <glyph glyph-name="t" unicode="t" horiz-adv-x="596" 
d="M486 908q0 -16 -14 -16q-5 0 -49 2t-83 2v-662q0 -71 40 -121q11 -14 58 -53q8 -6 8 -14q0 -5 -8 -10.5t-18 -11.5q-13 -10 -20 -16q-28 -25 -36 -36q-8 -8 -16 -8q-7 0 -14 4q-43 24 -76 82q-46 81 -46 194v652q-32 0 -61 -1.5t-59 -2.5q-14 0 -14 16v32q0 16 18 16
q5 0 44 -2t72 -2v76q0 58 -25 65q-17 2 -23 3q-14 0 -14 14q0 6 6 12q22 19 45 40.5t51 49.5q32 33 49.5 55t34.5 43q3 5 8 5q8 0 8 -15l-6 -52q-6 -63 -6 -130v-166q33 0 65 1t67 3q14 0 14 -14v-34z" />
    <glyph glyph-name="u" unicode="u" horiz-adv-x="1152" 
d="M1028 64q-2 -3 -25 -21q-10 -8 -23 -21t-23 -25q-2 -3 -13 -17q-4 -7 -10 -7t-14 5q-39 25 -73 66q-49 60 -49 122q-33 -69 -104 -125q-91 -71 -192 -71q-183 0 -282 121q-86 105 -86 265q0 93 23 176q19 70 57 145q14 27 70 125q5 11 -14 24q-12 8 -46 22l-36 18
q-8 3 -8 10t16.5 11t34.5 8q31 7 67.5 20.5t68.5 30.5t63 34q8 3 11 3q4 0 7 -5q4 -5 1 -14.5t-7 -13.5q-89 -115 -137 -233q-57 -139 -57 -279q0 -160 73.5 -263t196.5 -103q84 0 162.5 51t107.5 123v612q0 18 -25 41q-20 16 -39 33q-6 6 -6 12q0 12 20 12q11 0 58 -3
t56 -3q41 0 63.5 1.5t52.5 4.5q18 0 18 -13q0 -7 -6 -13q-23 -18 -37 -30q-27 -23 -27 -42v-590q0 -84 43 -133q14 -16 65 -49q7 -4 7 -13q0 -4 -3 -9z" />
    <glyph glyph-name="v" unicode="v" horiz-adv-x="992" 
d="M884 876q0 -65 -19 -138q-15 -58 -49 -138q-24 -57 -60.5 -131t-77.5 -153q-18 -35 -80 -148l-80 -146l-22 -46q-6 -8 -13 -8t-13 8q-13 17 -26 42q-27 53 -60 112q-39 68 -52 94q-28 54 -72 156q-40 92 -70 196q-22 74 -40 168q-13 66 -20 118q-2 19 -30 40l-42 32
q-7 7 -7 13q0 9 17 9q11 1 53.5 -2.5t70.5 -3.5q29 0 72 3.5t52 2.5q14 0 14 -11q0 -7 -6 -13q-25 -19 -38 -31q-24 -22 -22 -43q9 -100 27 -186q22 -106 63 -210q45 -117 79 -183q27 -52 83 -141q41 81 86 176q52 110 88 194q46 105 71 185q33 106 33 179q0 37 -20 69
q-24 38 -60 38q-7 -1 -10 -1q-33 -3 -48 -36q-3 -7 -4 -14t-1 -11q0 -9 1 -13q2 -16 -7 -16q-4 0 -11 4q-15 8 -28 29q-16 26 -16 53q0 46 35 78t81 32q87 0 135 -66q43 -59 43 -142z" />
    <glyph glyph-name="w" unicode="w" horiz-adv-x="1340" 
d="M1256 894q0 -71 -35 -178q-26 -79 -81 -204q-36 -82 -81 -181q-54 -119 -73 -163q-39 -88 -68 -160l-12 -32q-6 -9 -12 -9t-12 9l-14 28q-51 100 -75 153q-31 67 -63 153q-11 28 -30 84q-35 102 -46 128q-3 7 -6 14.5t-6 7.5t-12 -20q-32 -76 -84 -236q-20 -61 -52 -150
l-48 -134q-1 -6 -5.5 -15l-6.5 -13q-5 -8 -11 -8q-5 0 -10 5.5t-9 16.5t-6 16q-31 86 -60 158q-51 127 -58 146q-32 86 -70 208q-21 67 -50 173t-48 173q-2 17 -27 37q-20 14 -39 29q-9 7 -9 15q0 11 23 11q18 0 30 -1q61 -5 80 -5q31 0 69 3t45 3q20 0 20 -11q0 -7 -8 -13
q-21 -15 -41 -30q-24 -21 -19 -42q14 -63 41 -142q53 -157 53 -158l114 -368q24 76 60 178q33 88 48 132q26 70 57 147q43 106 47.5 117t9 20.5t9.5 16.5t9 7q6 0 10 -10l12 -32q37 -123 104 -306q42 -115 70 -180q22 -51 46 -96q56 130 88 210q66 161 98 260q46 140 46 202
q0 66 -16 104q-20 48 -64 48q-23 0 -34 -8.5t-20 -27.5q-4 -8 -6 -17t-2 -23q-1 -10 -11 -10q-3 0 -6 1q-4 2 -5 3q-17 11 -30.5 34t-13.5 46q0 50 42.5 79t99.5 29q88 0 130 -71q34 -57 34 -151z" />
    <glyph glyph-name="x" unicode="x" horiz-adv-x="918" 
d="M852 28q14 -8 14 -17q0 -11 -18 -11q-4 0 -50 2t-90 2q-29 0 -59 -1.5t-63 -2.5q-21 0 -21 12q0 7 7 14l28 20q17 15 17 30q0 10 -9 24q-75 103 -109 152q-58 82 -105 156q-52 -49 -114 -139q-74 -109 -74 -163q0 -48 18 -70q7 -8 30 -20q9 -6 9 -15q0 -8 -9 -11
q-16 -2 -28 -4q-45 -9 -100 -48q-42 -30 -70 -69q-15 -23 -30 -47q-6 -6 -12 -6q-8 0 -8 12q-1 3 -1 12q0 41 30 124t83 180q48 90 118 183q66 89 124 145q-54 89 -113.5 206.5t-82.5 183.5q-9 23 -40 43q-23 13 -46 27q-8 5 -8 13q0 11 20 11q19 0 32 -1q66 -5 88 -5
q28 0 70 3.5t52 2.5q16 0 16 -11q0 -8 -8 -13q-18 -13 -27 -22q-17 -17 -17 -38q0 -4 2 -14q16 -73 66 -172q27 -55 84 -148q122 125 163 174q101 121 101 186q0 44 -21 65q-17 17 -49 17q-18 0 -31 -9.5t-23 -32.5q-6 -11 -12 -11q-5 0 -8 5q-20 17 -20 54q0 50 39 83
t91 33q64 0 102 -46t38 -124q0 -67 -54 -152q-45 -71 -129 -157q-59 -61 -151 -141l86 -126q35 -50 90 -124q48 -64 94 -120q31 -37 71 -65q13 -10 27 -19z" />
    <glyph glyph-name="y" unicode="y" horiz-adv-x="1130" 
d="M978 928q-24 -21 -37 -32q-25 -22 -25 -38v-804q0 -222 -124 -361q-118 -133 -294 -133q-79 0 -126 20q-62 26 -62 84q0 43 46 69.5t82 22.5q15 0 15 -11q0 -4 -4.5 -10.5t-7.5 -12.5q-6 -12 -6 -23q0 -8 3 -17q7 -27 33 -42.5t59 -15.5q122 0 193 109q65 100 65 255v178
q-33 -69 -101 -125q-87 -71 -185 -71q-183 0 -282 121q-86 105 -86 265q0 93 23 173q19 66 57 139q3 6 70 122q5 11 -14 24q-12 8 -46 22l-36 18q-8 3 -8 10t17.5 11t35.5 8q31 7 68 21t67.5 30.5t61.5 33.5q6 3 11 3q12 0 12 -11q0 -3 -4 -10.5t-17 -24.5q-8 -11 -20 -27
q-77 -107 -117 -210q-47 -122 -47 -250q0 -160 73.5 -263t196.5 -103q86 0 161 49.5t109 124.5v612q0 19 -22 39q-20 16 -40 33q-7 7 -7 15q0 11 17 11q5 0 44 -3t72 -3q39 0 61.5 1.5t52.5 4.5q20 0 20 -12q0 -8 -8 -16z" />
    <glyph glyph-name="z" unicode="z" horiz-adv-x="968" 
d="M876 206q0 -96 -81.5 -160t-188.5 -64q-50 0 -190 45q-65 21 -120 21q-52 0 -93.5 -14t-86.5 -42q-5 -3 -9 -3q-6 0 -9 5l-12 14q-5 5 -5 12q0 3 3 8q11 16 20.5 34t15.5 30q31 68 63.5 138.5t58.5 119.5q32 58 78 130q88 133 159 217t189 191q-36 4 -80 4
q-83 0 -159.5 -17t-138.5 -45t-123 -71q-22 -16 -43 -31q-8 -5 -12 -5t-5 4q1 8 3 13q7 16 26 50q31 54 42 76q17 34 42 88q15 33 20 40q3 3 6 4t5 1q6 0 13 -7q12 -21 20 -27q23 -17 72 -17h494q21 0 21 -9q0 -6 -9 -13q-83 -76 -97 -90q-53 -51 -118 -119
q-69 -73 -115 -131q-97 -126 -173 -252q-79 -131 -115 -228q30 19 55 27q32 11 73 11q49 0 111 -22q136 -48 179 -48q73 0 114.5 27.5t41.5 78.5q0 28 -18 50t-44 22q-20 0 -33.5 -10.5t-20 -25t-6.5 -34.5q0 -7 -5 -9t-11 1q-16 8 -28 31t-12 51q0 42 34 70t80 28
q54 0 88 -44.5t34 -103.5z" />
    <glyph glyph-name="braceleft" unicode="{" horiz-adv-x="664" 
d="M642 -304q-124 0 -189.5 17t-106.5 55q-78 69 -78 268v218q0 143 -59 211q-53 61 -165 71v54q114 10 165 67q59 66 59 215v218q0 196 78 268q40 37 108.5 54.5t187.5 17.5v-46q-146 0 -191 -51t-45 -209v-146q0 -114 -15.5 -187.5t-48.5 -114.5q-31 -43 -80.5 -73
t-111.5 -41q59 -10 109.5 -39.5t82.5 -72.5q64 -76 64 -304v-146q0 -157 41 -206q45 -54 195 -54v-44z" />
    <glyph glyph-name="bar" unicode="|" horiz-adv-x="600" 
d="M356 -472h-116v2000h116v-2000z" />
    <glyph glyph-name="braceright" unicode="}" horiz-adv-x="664" 
d="M620 536q-110 -9 -164 -71q-60 -69 -60 -211v-218q0 -199 -78 -268q-41 -38 -106.5 -55t-189.5 -17v44q148 0 194 54q42 50 42 206v146q0 228 64 304q68 90 192 112q-61 10 -111 40t-81 74q-64 79 -64 302v146q0 157 -43 207q-46 53 -193 53v46q118 0 187 -17.5
t109 -54.5q78 -72 78 -268v-218q0 -149 58 -214q52 -58 166 -68v-54z" />
    <glyph glyph-name="asciitilde" unicode="~" horiz-adv-x="1000" 
d="M968 870q-26 -100 -89 -181q-79 -103 -171 -103q-78 0 -150 70q-58 65 -116 131q-69 71 -140 71q-66 0 -108 -82t-42 -188l-116 104q36 107 92 181q77 101 168 101q81 0 152 -70q56 -66 113 -131q68 -71 141 -71q66 0 108 82t42 188z" />
    <glyph glyph-name="nonbreakingspace" unicode="&#xa0;" horiz-adv-x="512" 
 />
    <glyph glyph-name="exclamdown" unicode="&#xa1;" horiz-adv-x="438" 
d="M334 1320q0 -48 -32 -80t-80 -32q-46 0 -79 32t-33 80q0 47 32.5 78.5t79.5 31.5t79.5 -31.5t32.5 -78.5zM336 96q-19 -11 -36 -21q-24 -15 -70 -45l-104 -74q-7 -4 -13 -4q-9 0 -9 8q0 6 6 14l34 60q12 30 12 58v930q0 5 2 9q3 6 9.5 11.5t20 12t26.5 13.5q2 1 32 19
q20 12 28 15q18 7 18 -12v-910q0 -22 8.5 -34.5t33.5 -21.5q12 -5 12 -14q0 -7 -10 -14z" />
    <glyph glyph-name="cent" unicode="&#xa2;" horiz-adv-x="1046" 
d="M944 430q5 -1 5 -10q0 -7 -7 -30q-28 -71 -103 -132q-103 -84 -235 -84q-79 0 -154 26l-34 -78q-28 -57 -49 -82q-17 -20 -41 -32q-9 -3 -21 -3l-13 2l2 9q19 25 35.5 54.5t40.5 83.5l28 66q-102 51 -159 144q-67 109 -67 262q0 188 134 326t322 138q39 0 82 -10l24 54
q28 57 49 82q17 20 41 32q14 4 22 4l9 -1q8 -4 1 -11q-22 -24 -38.5 -54t-39.5 -82q-5 -12 -9 -21.5t-7 -20.5q64 -26 101 -70q43 -51 43 -118q0 -82 -52 -139t-128 -57q-48 0 -94 26l-146 -402q63 -30 138 -30q94 0 156 28t126 102q9 12 13 18q9 12 17 12zM826 902
q0 39 -21 67.5t-57 48.5l-76 -208q28 -21 58 -18q44 0 70 32t26 78zM694 1036q-37 10 -72 10q-153 0 -246.5 -115t-93.5 -289q0 -96 41 -179t115 -133l150 414q-24 33 -24 76q0 47 30 80q26 29 54 29l8 -1z" />
    <glyph glyph-name="sterling" unicode="&#xa3;" horiz-adv-x="1214" 
d="M1206 -54q-22 -37 -100 -79q-96 -51 -188 -51t-180 33q-70 26 -152 79l-142 96q-39 -32 -97.5 -53t-124.5 -21q-61 0 -103 22q-51 27 -51 76q0 56 60 84q47 22 122 22q47 0 101 -14.5t85 -33.5q28 41 45 86q21 57 21 114q0 71 -32 138q-29 -16 -76 -45
q-98 -61 -105.5 -65t-12.5 -4q-6 0 -10 6l-14 22q-8 16 -14 34q0 9 14 16q48 24 82 42q56 29 106 58q-53 116 -69 161q-39 109 -39 199q0 179 121.5 293.5t324.5 114.5q125 0 216.5 -81.5t91.5 -202.5q0 -97 -66.5 -166.5t-161.5 -69.5q-69 0 -119.5 41t-50.5 105
q0 39 23 73t53 45q7 3 19 5t19 1q16 -2 16 -8q0 -5 -8 -14q-17 -21 -14 -50q3 -32 29 -53t59 -21q54 0 88 44.5t34 103.5q0 91 -83 147q-75 51 -179 51q-151 0 -242 -97q-78 -83 -78 -187q0 -70 39.5 -173.5t100.5 -194.5q31 17 83.5 49t70.5 43q5 4 13 4t15 -10l24 -40
q9 -13 -8.5 -23.5t-92.5 -48.5q-61 -30 -79 -40q19 -49 24.5 -79.5t5.5 -62.5q0 -86 -38 -165q-29 -61 -88 -127q62 -42 100 -63q63 -35 128 -56q78 -25 152 -25q46 0 97 15q76 22 103 69q6 9 10 23.5t7.5 24.5t8.5 10l6 -4q12 -20 22 -35t26 -33q13 -14 28 -24l20 -12
q9 -9 4 -18zM388 56q-26 24 -69.5 37t-80.5 13q-63 0 -90 -17q-22 -14 -22 -41q0 -31 36 -44q27 -10 72 -10q35 0 78.5 16.5t75.5 45.5z" />
    <glyph glyph-name="currency" unicode="&#xa4;" horiz-adv-x="1016" 
d="M900 383l-51 -51l-143 143q-42 -33 -91.5 -51t-106.5 -18q-56 0 -105.5 17.5t-92.5 51.5l-143 -143l-51 51l143 143q-33 42 -51 91.5t-18 106.5q0 56 17.5 105.5t51.5 92.5l-143 143l51 51l143 -143q42 33 91.5 51t106.5 18q56 0 105.5 -17.5t92.5 -51.5l143 143l51 -51
l-143 -143q33 -42 51 -91.5t18 -106.5q0 -56 -17.5 -105.5t-51.5 -92.5zM754 724q0 102 -72 174t-174 72t-174 -72t-72 -174t72 -174t174 -72t174 72t72 174z" />
    <glyph glyph-name="yen" unicode="&#xa5;" horiz-adv-x="946" 
d="M872 464h-350q0 -140 22 -235.5t70 -170.5q6 -11 6 -16q0 -10 -15 -12.5t-32 -6.5t-47 -17q-29 -10 -58 -28q-7 -4 -13 -4q-9 0 -15 12q-13 35 -21.5 116.5t-8.5 161.5q0 37 1 104t1 96h-342v52h346q0 18 5 50t5 46l-18 24h-338v50h302q-61 87 -129 204q-74 129 -127 246
q-8 19 -38 44q-37 31 -42 38q-8 8 -8 15q0 11 22 11q18 0 30 -1q61 -5 80 -5q27 0 62 3t42 3q23 0 23 -14q0 -5 -5 -10q-19 -18 -29 -28q-19 -20 -17 -38q14 -67 109 -229q83 -142 157 -239q75 84 98 113q75 92 117 165q57 99 57 164q0 35 -22.5 53.5t-56.5 18.5
q-5 0 -17 -2q-20 0 -33.5 -10t-26.5 -30q-6 -10 -8.5 -24t-4.5 -23t-11 -9q-5 0 -12 10.5t-11 31t-3 36.5q0 48 40 84t92 36q74 0 117 -42t43 -108q0 -77 -42 -161q-33 -65 -102 -152q-63 -76 -126 -151h282v-50h-328l-12 -12q-3 -20 -4 -33q-4 -40 -4 -75h348v-52z" />
    <glyph glyph-name="brokenbar" unicode="&#xa6;" horiz-adv-x="600" 
d="M356 748h-116v780h116v-780zM356 -472h-116v780h116v-780z" />
    <glyph glyph-name="section" unicode="&#xa7;" horiz-adv-x="952" 
d="M854 630q-7 -60 -52 -115q-37 -45 -88 -75q57 -48 85 -92q39 -61 39 -136q0 -162 -128 -261q-120 -93 -298 -93q-133 0 -221 57q-93 60 -93 159q0 88 49 148q53 64 137 64q91 0 145.5 -30.5t54.5 -86.5q0 -51 -32 -85t-78 -34q-20 0 -36 4.5t-26 13.5q-4 3 -4 8q0 6 6 8
q21 6 29 13q18 14 18 41q0 9 -2 22.5t-23 25.5t-54 12q-58 0 -90.5 -36t-32.5 -84q0 -12 1 -18q11 -65 80 -106.5t172 -41.5q127 0 215 49q113 63 113 189q0 80 -43 141q-35 49 -109 93q-55 32 -138 64q-101 38 -153 65q-86 44 -129 93q-54 62 -54 140v15q2 10 2 15
q7 62 55 113q42 45 107 73q-57 36 -89 86q-39 61 -39 140q0 106 103 176q98 66 229 66q122 0 197 -31q99 -41 99 -127q0 -55 -53 -91q-49 -33 -113 -33q-61 0 -102 23q-50 28 -50 80q0 28 21 50t43 25q9 2 13 -2t1 -12q-1 -4 -1.5 -11.5t-0.5 -10.5q2 -19 15 -30
q19 -16 57 -16q26 0 45 18t19 42q0 45 -65 66q-50 16 -125 16q-92 0 -160 -44.5t-78 -121.5q-1 -6 -1 -19q0 -52 41 -97q35 -39 99 -74q45 -25 121 -56q124 -52 177 -80q87 -46 127 -95q48 -58 48 -138q0 -8 -1 -17t-1 -14zM756 606q3 14 3 27q0 52 -41 95q-33 35 -103 72
q-39 21 -131 60q-54 23 -80 33q-49 21 -80 37q-31 -12 -66 -46q-41 -40 -48 -76q-2 -9 -2 -25q0 -86 132 -160q44 -24 130 -61q68 -29 114 -50q58 -27 82 -42q30 18 55.5 54.5t34.5 81.5z" />
    <glyph glyph-name="dieresis" unicode="&#xa8;" horiz-adv-x="1000" 
d="M736 1600q0 -34 -25 -57t-61 -23q-35 0 -58.5 24.5t-23.5 59.5q0 34 25 58t61 24q34 0 58 -25t24 -61zM432 1600q0 -34 -25 -57t-61 -23q-35 0 -58.5 24.5t-23.5 59.5q0 34 25 58t61 24q34 0 58 -25t24 -61z" />
    <glyph glyph-name="copyright" unicode="&#xa9;" horiz-adv-x="1432" 
d="M1236 936q0 -219 -152.5 -371.5t-371.5 -152.5t-371.5 152.5t-152.5 371.5q0 218 152 371t372 153q218 0 371 -153t153 -371zM1158 936q0 185 -130.5 315.5t-315.5 130.5q-183 0 -314.5 -130.5t-131.5 -315.5q0 -184 131 -315t315 -131q185 0 315.5 130.5t130.5 315.5z
M968 760q0 -67 -64.5 -114.5t-151.5 -47.5q-145 0 -230.5 106t-85.5 272q0 129 87.5 213.5t204.5 84.5q68 0 120 -35q39 -26 60 -65q4 -6 13 -15l13 -13q9 -9 -2 -14q-10 -3 -14 -4q-8 -3 -20 -10l-28 -18q-5 -2 -9 -1q-3 1 -3 4q0 1 2 10t2 17q0 12 -4 24q-32 74 -130 74
q-87 0 -142 -79q-50 -72 -50 -171q0 -129 49 -216q59 -104 167 -104q73 0 118.5 29.5t45.5 72.5q0 9 -3.5 17.5t-8.5 10.5q-16 4 -26 -6q-2 -1 -4 -1q-6 0 -4 7q5 22 16.5 33t25.5 11q31 0 45 -23q11 -18 11 -49z" />
    <glyph glyph-name="ordfeminine" unicode="&#xaa;" horiz-adv-x="976" 
d="M893 482q6 -8 6 -14q0 -9 -13 -9q-12 0 -21 1q-43 5 -59 5t-35 -3t-24 -3q-20 0 -20 9q0 5 4 10q8 13 13 27.5t5 25.5l-6 83q-34 -71 -116 -124q-89 -58 -188 -58q-139 0 -234 79q-101 84 -101 216q0 134 110 225q105 87 252 87q71 0 136.5 -27t99.5 -65q0 38 -46 114
q-54 89 -127 147q-92 73 -189 73q-60 0 -103 -24q-50 -28 -50 -77q0 -27 15 -46t41 -19q18 0 31.5 11.5t13.5 27.5q0 14 -3 23.5t-6 17.5q-3 6 1 8q2 1 12 1q25 -2 45.5 -22t20.5 -46q0 -39 -34 -67t-77 -28q-52 0 -86.5 33.5t-34.5 91.5q0 75 82 117q71 36 174 36
q100 0 197 -61.5t157 -166.5q43 -76 68 -183q16 -71 31 -194.5t24 -163.5q4 -23 17 -44q14 -19 17 -24zM866 323q2 -12 2 -21q0 -29 -10 -49q-20 -46 -67.5 -68t-118.5 -22q-40 0 -129 13t-181.5 26.5t-125.5 13.5q-41 0 -68 -18q-20 -13 -28 -33q-4 -12 -10 -12t-9.5 12.5
t-3.5 27.5q0 21 5.5 40t21.5 38q21 25 56 38.5t86 13.5q43 0 131.5 -14t180.5 -28.5t130 -14.5q47 0 81 23q20 14 37 38q4 7 10 7q8 0 10 -11zM740 760q0 99 -75 157.5t-197 58.5q-100 0 -173.5 -62.5t-73.5 -154.5q0 -99 74.5 -166.5t179.5 -67.5q119 0 192 66t73 169z" />
    <glyph glyph-name="guillemotleft" unicode="&#xab;" horiz-adv-x="750" 
d="M712 180h-136l-230 310l230 312h136l-260 -312zM438 180h-136l-230 310l230 312h136l-260 -312z" />
    <glyph glyph-name="minus" unicode="&#xad;" horiz-adv-x="800" 
d="M714 596h-626v80h626v-80z" />
    <glyph glyph-name="registered" unicode="&#xae;" horiz-adv-x="1432" 
d="M1236 936q0 -219 -152.5 -371.5t-371.5 -152.5t-371.5 152.5t-152.5 371.5q0 218 152 371t372 153q218 0 371 -153t153 -371zM1158 936q0 185 -130.5 315.5t-315.5 130.5q-183 0 -314.5 -130.5t-131.5 -315.5q0 -184 131 -315t315 -131q185 0 315.5 130.5t130.5 315.5z
M1004 640q-13 -20 -46 -20q-39 0 -69 19q-51 32 -81 117q-12 42 -25 74t-27 58l-58 -6q-33 0 -53.5 11t-20.5 37q0 23 21 37.5t49 14.5q22 0 44 -9.5t36 -24.5q66 35 66 134q0 56 -35 101q-46 59 -133 59q-39 0 -74 -7t-78 -27q-27 -12 -52 -39q-30 -32 -30 -55q0 -17 1 -20
q1 -2 7 -10q14 -10 20 -8q14 1 14 -7q0 -1 -2.5 -10t-13.5 -18t-24 -9q-25 0 -35.5 16t-10.5 46q0 41 38 87q33 41 74 61q48 28 95 37q26 5 75 5q107 0 180.5 -54.5t73.5 -147.5q0 -59 -36 -107q-32 -43 -84 -67q20 -18 40.5 -48.5t33.5 -63.5q17 -54 29 -83q23 -55 47 -55
q14 0 20 5t9 13t7 8q2 0 8 -6q6 -12 6 -21t-6 -17zM634 648q9 -8 9 -13t-13 -5h-66h-62q-17 1 -17 8q0 5 9 10q13 8 18 12q12 10 12 18v422q0 14 -7.5 17.5t-8.5 4.5q-5 3 -5 8q0 4 5 8q15 8 24 12.5t27.5 16t35.5 25.5q10 9 21 18q5 4 9 2q4 -1 4 -5t-3 -7
q-9 -10 -14.5 -27t-5.5 -37v-458q0 -7 11.5 -16.5t16.5 -13.5zM732 924q-6 9 -18 15.5t-22 8.5q-11 2 -20.5 -2.5t-9.5 -15.5q0 -9 10.5 -11.5t23.5 -2.5q20 0 36 8z" />
    <glyph glyph-name="macron" unicode="&#xaf;" horiz-adv-x="1000" 
d="M820 1610h-640v88h640v-88z" />
    <glyph glyph-name="degree" unicode="&#xb0;" horiz-adv-x="600" 
d="M520 1054q0 -92 -64 -156t-156 -64t-156 64t-64 156t64 157t156 65t156 -65t64 -157zM440 1054q0 59 -40.5 100.5t-99.5 41.5t-99.5 -41.5t-40.5 -100.5t40.5 -99.5t99.5 -40.5t99.5 40.5t40.5 99.5z" />
    <glyph glyph-name="acute" unicode="&#xb4;" horiz-adv-x="1000" 
d="M730 1698q-11 -5 -52 -28q-80 -45 -122.5 -67.5t-78.5 -42.5q-15 -8 -123 -70q-7 -7 -14.5 0.5t-13.5 19.5q-3 7 6 16q19 19 78 69.5t94 82.5q28 24 80 70t66 60q4 4 9 4q6 0 11 -6l28 -50q9 -14 18 -24l12 -12q10 -10 10 -14q0 -5 -8 -8z" />
    <glyph glyph-name="paragraph" unicode="&#xb6;" horiz-adv-x="1276" 
d="M1220 1368q0 -37 -31.5 -64.5t-70.5 -27.5q-79 0 -124 14v-1192q0 -16 22 -35q19 -16 38 -31q14 -14 14 -22q0 -10 -24 -10q-19 0 -32 1q-67 5 -86 5q-39 0 -63 -2t-55 -4q-25 0 -25 10q0 7 15 20q29 20 43 31q27 20 27 37v1080q0 78 -35 124q-30 40 -91 56v-594
q26 -17 40 -45t14 -61q0 -79 -64 -127q-74 -55 -174 -55q-195 0 -316 118q-128 125 -128 346q0 204 141 345q145 145 361 145q97 0 190 -22q30 -7 138 -42q68 -22 102 -22h20q28 0 43.5 5t22.5 25q2 8 2 13q0 25 -16 39q-9 8 -9 12q0 5 9.5 8.5t19.5 3.5q6 0 18 -2
q30 -6 47 -28t17 -52zM686 778v588q-220 0 -327 -115q-95 -103 -95 -289q0 -223 100 -340q79 -92 184 -92q62 0 99 34t37 90q0 38 -10.5 56t-43.5 34q-5 2 -5 9q0 5 5 9q19 16 56 16z" />
    <glyph glyph-name="periodcentered" unicode="&#xb7;" horiz-adv-x="454" 
d="M338 638q0 -47 -32.5 -78.5t-79.5 -31.5t-79.5 31.5t-32.5 78.5q0 48 32 80t80 32q46 0 79 -32t33 -80z" />
    <glyph glyph-name="periodcentered" unicode="&#x2219;" horiz-adv-x="454" 
d="M338 638q0 -47 -32.5 -78.5t-79.5 -31.5t-79.5 31.5t-32.5 78.5q0 48 32 80t80 32q46 0 79 -32t33 -80z" />
    <glyph glyph-name="cedilla" unicode="&#xb8;" horiz-adv-x="1000" 
d="M682 -280q0 -62 -55 -103t-133 -41t-125 21q-53 24 -53 69q0 36 23 58t59 22q16 0 34.5 -5t26.5 -12t8 -11q0 -6 -15 -6q-19 0 -29 -6q-17 -10 -17 -34q0 -23 25.5 -34.5t66.5 -11.5q47 0 75.5 27.5t28.5 70.5t-37.5 68.5t-100.5 25.5q-30 0 -72 -8l60 210h50l-42 -148
q10 2 21.5 2h18.5q78 0 125 -33q57 -40 57 -121z" />
    <glyph glyph-name="ordmasculine" unicode="&#xba;" horiz-adv-x="1057" 
d="M983 851q0 -183 -139 -313q-135 -126 -318 -126q-194 0 -326.5 130.5t-132.5 316.5q0 183 135 312t325 129q191 0 323.5 -131.5t132.5 -317.5zM921 323q2 -12 2 -21q0 -29 -10 -49q-20 -46 -67.5 -68t-118.5 -22q-40 0 -129 13t-181.5 26.5t-125.5 13.5q-41 0 -68 -18
q-20 -13 -28 -33q-4 -12 -10 -12t-9.5 12.5t-3.5 27.5q0 21 5.5 40t21.5 38q21 25 56 38.5t86 13.5q43 0 131.5 -14t180.5 -28.5t130 -14.5q47 0 81 23q20 14 37 38q4 7 10 7q8 0 10 -11zM905 812q0 144 -137 274q-141 134 -309 134q-132 0 -223.5 -87.5t-91.5 -205.5
q0 -171 140 -305q136 -130 301 -130q131 0 221 82q99 90 99 238z" />
    <glyph glyph-name="guillemotright" unicode="&#xbb;" horiz-adv-x="750" 
d="M678 490l-230 -310h-136l260 310l-260 312h136zM404 490l-230 -310h-136l260 310l-260 312h136z" />
    <glyph glyph-name="questiondown" unicode="&#xbf;" horiz-adv-x="992" 
d="M690 1322q0 -48 -32 -80t-80 -32q-46 0 -79 32t-33 80q0 47 32.5 78.5t79.5 31.5t79.5 -31.5t32.5 -78.5zM862 294q0 -140 -100 -232t-242 -92q-164 0 -263 82q-105 87 -105 244q0 102 52 190q40 68 124 144l144 124q45 38 65 66q35 48 35 100q0 24 -6 45.5t-22 40.5
q-11 14 -20 19t-20 7q-12 0 -12 7q0 6 10 13l40 26q12 8 24.5 19.5t13.5 12.5q5 3 12 3q8 0 14 -5q21 -17 39.5 -49t22.5 -65q1 -7 1 -13v-14q0 -47 -14.5 -90t-40.5 -85q-20 -33 -68 -80q-27 -27 -68 -62q-78 -69 -109 -116q-71 -108 -71 -258q0 -106 57 -174
q65 -78 185 -78q106 0 173 63q63 59 63 141q0 72 -25 112t-77 40q-45 0 -74 -38q-4 -6 -8 -16.5t-6 -15.5q-6 -14 -15 -14q-7 0 -13 10q-9 15 -12.5 39.5t-3.5 52.5q5 50 48 85t100 35q78 0 125 -62t47 -162z" />
    <glyph glyph-name="Agrave" unicode="&#xc0;" horiz-adv-x="1528" 
d="M1400 22q2 -2 3 -6q1 -3 1 -5q0 -11 -18 -11q-10 -1 -59.5 2.5t-68.5 3.5q-32 0 -96 -5q-24 -2 -34 -1q-17 0 -17 12q0 5 3 8q3 4 43 35q31 24 31 43q2 11 4.5 31.5t2.5 47.5q0 110 -34 216q-49 152 -165 283q-70 78 -159.5 133.5t-200.5 92.5q-57 -101 -97 -221
q-53 -160 -53 -299q0 -152 7 -218q12 -115 53 -206q26 -55 78 -96q28 -22 72 -44q12 -6 12 -14q0 -7 -10 -10q-29 -9 -55.5 -19t-61 -27t-59.5 -35q-17 -12 -32 -25q-8 -6 -13 -6q-9 0 -9 16q0 31 -3 71t-15 127q-18 103 -33 204t-15 190q0 183 47 361q41 156 107 271
q-22 4 -46.5 7t-56.5 3q-57 0 -118.5 -13.5t-107.5 -44.5q-61 -41 -61 -96q0 -57 46 -66q4 -1 12 -1q21 0 36.5 10t18 30t10.5 20q6 0 9.5 -11t3.5 -28q0 -9 -2 -19.5t-4 -20.5q-13 -37 -44 -61.5t-77 -24.5q-6 -1 -11 -1q-53 0 -89.5 39.5t-36.5 101.5q0 103 112 171
q74 45 166 63q32 6 71 9t80 3q81 0 127 -10q145 192 321 297q203 121 441 121q33 0 33 -9q0 -4 -7 -11q-33 -37 -42 -67q-12 -42 -12 -153v-1062q0 -19 30 -42q40 -31 42 -34zM1188 526v790q-144 -27 -286 -126q-78 -54 -126 -103t-102 -129q86 -29 157 -68q63 -35 129 -88
q73 -58 126 -123q49 -60 102 -153zM1161 1510q-6 -12 -13.5 -19.5t-14.5 -0.5q-45 25 -70 39q-102 58 -132 73q-66 36 -121 67q-46 26 -53.5 29t-7.5 8q0 4 10 14t15 16q9 11 15 20l28 50q5 6 11 6q5 0 9 -4q26 -26 146 -130q12 -11 115 -100q36 -31 57 -52q9 -9 6 -16z" />
    <glyph glyph-name="Aacute" unicode="&#xc1;" horiz-adv-x="1528" 
d="M1400 22q2 -2 3 -6q1 -3 1 -5q0 -11 -18 -11q-10 -1 -59.5 2.5t-68.5 3.5q-32 0 -96 -5q-24 -2 -34 -1q-17 0 -17 12q0 5 3 8q3 4 43 35q31 24 31 43q2 11 4.5 31.5t2.5 47.5q0 110 -34 216q-49 152 -165 283q-70 78 -159.5 133.5t-200.5 92.5q-57 -101 -97 -221
q-53 -160 -53 -299q0 -152 7 -218q12 -115 53 -206q26 -55 78 -96q28 -22 72 -44q12 -6 12 -14q0 -7 -10 -10q-29 -9 -55.5 -19t-61 -27t-59.5 -35q-17 -12 -32 -25q-8 -6 -13 -6q-9 0 -9 16q0 31 -3 71t-15 127q-18 103 -33 204t-15 190q0 183 47 361q41 156 107 271
q-22 4 -46.5 7t-56.5 3q-57 0 -118.5 -13.5t-107.5 -44.5q-61 -41 -61 -96q0 -57 46 -66q4 -1 12 -1q21 0 36.5 10t18 30t10.5 20q6 0 9.5 -11t3.5 -28q0 -9 -2 -19.5t-4 -20.5q-13 -37 -44 -61.5t-77 -24.5q-6 -1 -11 -1q-53 0 -89.5 39.5t-36.5 101.5q0 103 112 171
q74 45 166 63q32 6 71 9t80 3q81 0 127 -10q145 192 321 297q203 121 441 121q33 0 33 -9q0 -4 -7 -11q-33 -37 -42 -67q-12 -42 -12 -153v-1062q0 -19 30 -42q40 -31 42 -34zM1188 526v790q-144 -27 -286 -126q-78 -54 -126 -103t-102 -129q86 -29 157 -68q63 -35 129 -88
q73 -58 126 -123q49 -60 102 -153zM1265 1698q-11 -5 -52 -28q-80 -45 -122.5 -67.5t-78.5 -42.5q-15 -8 -123 -70q-7 -7 -14.5 0.5t-13.5 19.5q-3 7 6 16q19 19 78 69.5t94 82.5q28 24 80 70t66 60q4 4 9 4q6 0 11 -6l28 -50q9 -14 18 -24l12 -12q10 -10 10 -14q0 -5 -8 -8
z" />
    <glyph glyph-name="Acircumflex" unicode="&#xc2;" horiz-adv-x="1528" 
d="M1400 22q2 -2 3 -6q1 -3 1 -5q0 -11 -18 -11q-10 -1 -59.5 2.5t-68.5 3.5q-32 0 -96 -5q-24 -2 -34 -1q-17 0 -17 12q0 5 3 8q3 4 43 35q31 24 31 43q2 11 4.5 31.5t2.5 47.5q0 110 -34 216q-49 152 -165 283q-70 78 -159.5 133.5t-200.5 92.5q-57 -101 -97 -221
q-53 -160 -53 -299q0 -152 7 -218q12 -115 53 -206q26 -55 78 -96q28 -22 72 -44q12 -6 12 -14q0 -7 -10 -10q-29 -9 -55.5 -19t-61 -27t-59.5 -35q-17 -12 -32 -25q-8 -6 -13 -6q-9 0 -9 16q0 31 -3 71t-15 127q-18 103 -33 204t-15 190q0 183 47 361q41 156 107 271
q-22 4 -46.5 7t-56.5 3q-57 0 -118.5 -13.5t-107.5 -44.5q-61 -41 -61 -96q0 -57 46 -66q4 -1 12 -1q21 0 36.5 10t18 30t10.5 20q6 0 9.5 -11t3.5 -28q0 -9 -2 -19.5t-4 -20.5q-13 -37 -44 -61.5t-77 -24.5q-6 -1 -11 -1q-53 0 -89.5 39.5t-36.5 101.5q0 103 112 171
q74 45 166 63q32 6 71 9t80 3q81 0 127 -10q145 192 321 297q203 121 441 121q33 0 33 -9q0 -4 -7 -11q-33 -37 -42 -67q-12 -42 -12 -153v-1062q0 -19 30 -42q40 -31 42 -34zM1188 526v790q-144 -27 -286 -126q-78 -54 -126 -103t-102 -129q86 -29 157 -68q63 -35 129 -88
q73 -58 126 -123q49 -60 102 -153zM1452 1524q3 -2 0 -5t-8 -3q-7 1 -18.5 1.5t-17.5 0.5q-8 0 -17 -0.5t-18 -0.5q-7 0 -11 1q-18 0 -24 6q-35 32 -90 76.5t-108 83.5q-42 -31 -107 -83q-51 -41 -91 -77q-6 -6 -20 -6q-6 -1 -19 -1q-21 1 -31 1l-38 -2q-5 0 -7 1q-5 3 -1 7
q61 51 122 108q36 35 50 48q63 60 106 112h72q50 -56 59.5 -66.5t44.5 -44.5t69 -66q46 -44 103 -91z" />
    <glyph glyph-name="Atilde" unicode="&#xc3;" horiz-adv-x="1528" 
d="M1400 22q2 -2 3 -6q1 -3 1 -5q0 -11 -18 -11q-10 -1 -59.5 2.5t-68.5 3.5q-32 0 -96 -5q-24 -2 -34 -1q-17 0 -17 12q0 5 3 8q3 4 43 35q31 24 31 43q2 11 4.5 31.5t2.5 47.5q0 110 -34 216q-49 152 -165 283q-70 78 -159.5 133.5t-200.5 92.5q-57 -101 -97 -221
q-53 -160 -53 -299q0 -152 7 -218q12 -115 53 -206q26 -55 78 -96q28 -22 72 -44q12 -6 12 -14q0 -7 -10 -10q-29 -9 -55.5 -19t-61 -27t-59.5 -35q-17 -12 -32 -25q-8 -6 -13 -6q-9 0 -9 16q0 31 -3 71t-15 127q-18 103 -33 204t-15 190q0 183 47 361q41 156 107 271
q-22 4 -46.5 7t-56.5 3q-57 0 -118.5 -13.5t-107.5 -44.5q-61 -41 -61 -96q0 -57 46 -66q4 -1 12 -1q21 0 36.5 10t18 30t10.5 20q6 0 9.5 -11t3.5 -28q0 -9 -2 -19.5t-4 -20.5q-13 -37 -44 -61.5t-77 -24.5q-6 -1 -11 -1q-53 0 -89.5 39.5t-36.5 101.5q0 103 112 171
q74 45 166 63q32 6 71 9t80 3q81 0 127 -10q145 192 321 297q203 121 441 121q33 0 33 -9q0 -4 -7 -11q-33 -37 -42 -67q-12 -42 -12 -153v-1062q0 -19 30 -42q40 -31 42 -34zM1188 526v790q-144 -27 -286 -126q-78 -54 -126 -103t-102 -129q86 -29 157 -68q63 -35 129 -88
q73 -58 126 -123q49 -60 102 -153zM1335 1714q-14 -65 -56 -119q-50 -65 -110 -65q-70 0 -157 78t-107 78q-43 0 -69.5 -43.5t-26.5 -110.5l-74 68q22 68 58 116q49 66 108 66q58 0 117 -49q128 -107 147 -107q43 0 69.5 43.5t26.5 110.5z" />
    <glyph glyph-name="Adieresis" unicode="&#xc4;" horiz-adv-x="1528" 
d="M1400 22q2 -2 3 -6q1 -3 1 -5q0 -11 -18 -11q-10 -1 -59.5 2.5t-68.5 3.5q-32 0 -96 -5q-24 -2 -34 -1q-17 0 -17 12q0 5 3 8q3 4 43 35q31 24 31 43q2 11 4.5 31.5t2.5 47.5q0 110 -34 216q-49 152 -165 283q-70 78 -159.5 133.5t-200.5 92.5q-57 -101 -97 -221
q-53 -160 -53 -299q0 -152 7 -218q12 -115 53 -206q26 -55 78 -96q28 -22 72 -44q12 -6 12 -14q0 -7 -10 -10q-29 -9 -55.5 -19t-61 -27t-59.5 -35q-17 -12 -32 -25q-8 -6 -13 -6q-9 0 -9 16q0 31 -3 71t-15 127q-18 103 -33 204t-15 190q0 183 47 361q41 156 107 271
q-22 4 -46.5 7t-56.5 3q-57 0 -118.5 -13.5t-107.5 -44.5q-61 -41 -61 -96q0 -57 46 -66q4 -1 12 -1q21 0 36.5 10t18 30t10.5 20q6 0 9.5 -11t3.5 -28q0 -9 -2 -19.5t-4 -20.5q-13 -37 -44 -61.5t-77 -24.5q-6 -1 -11 -1q-53 0 -89.5 39.5t-36.5 101.5q0 103 112 171
q74 45 166 63q32 6 71 9t80 3q81 0 127 -10q145 192 321 297q203 121 441 121q33 0 33 -9q0 -4 -7 -11q-33 -37 -42 -67q-12 -42 -12 -153v-1062q0 -19 30 -42q40 -31 42 -34zM1188 526v790q-144 -27 -286 -126q-78 -54 -126 -103t-102 -129q86 -29 157 -68q63 -35 129 -88
q73 -58 126 -123q49 -60 102 -153zM1366 1600q0 -34 -25 -57t-61 -23q-35 0 -58.5 24.5t-23.5 59.5q0 34 25 58t61 24q34 0 58 -25t24 -61zM1062 1600q0 -34 -25 -57t-61 -23q-35 0 -58.5 24.5t-23.5 59.5q0 34 25 58t61 24q34 0 58 -25t24 -61z" />
    <glyph glyph-name="Aring" unicode="&#xc5;" horiz-adv-x="1528" 
d="M1400 22q2 -2 3 -6q1 -3 1 -5q0 -11 -18 -11q-10 -1 -59.5 2.5t-68.5 3.5q-32 0 -96 -5q-24 -2 -34 -1q-17 0 -17 12q0 5 3 8q3 4 43 35q31 24 31 43q2 11 4.5 31.5t2.5 47.5q0 110 -34 216q-49 152 -165 283q-70 78 -159.5 133.5t-200.5 92.5q-57 -101 -97 -221
q-53 -160 -53 -299q0 -152 7 -218q12 -115 53 -206q26 -55 78 -96q28 -22 72 -44q12 -6 12 -14q0 -7 -10 -10q-29 -9 -55.5 -19t-61 -27t-59.5 -35q-17 -12 -32 -25q-8 -6 -13 -6q-9 0 -9 16q0 31 -3 71t-15 127q-18 103 -33 204t-15 190q0 183 47 361q41 156 107 271
q-22 4 -46.5 7t-56.5 3q-57 0 -118.5 -13.5t-107.5 -44.5q-61 -41 -61 -96q0 -57 46 -66q4 -1 12 -1q21 0 36.5 10t18 30t10.5 20q6 0 9.5 -11t3.5 -28q0 -9 -2 -19.5t-4 -20.5q-13 -37 -44 -61.5t-77 -24.5q-6 -1 -11 -1q-53 0 -89.5 39.5t-36.5 101.5q0 103 112 171
q74 45 166 63q32 6 71 9t80 3q81 0 127 -10q145 192 321 297q203 121 441 121q33 0 33 -9q0 -4 -7 -11q-33 -37 -42 -67q-12 -42 -12 -153v-1062q0 -19 30 -42q40 -31 42 -34zM1188 526v790q-144 -27 -286 -126q-78 -54 -126 -103t-102 -129q86 -29 157 -68q63 -35 129 -88
q73 -58 126 -123q49 -60 102 -153zM1380 1714q0 -92 -64 -156t-156 -64t-156 64t-64 156t64 157t156 65t156 -65t64 -157zM1300 1714q0 59 -40.5 100.5t-99.5 41.5t-99.5 -41.5t-40.5 -100.5t40.5 -99.5t99.5 -40.5t99.5 40.5t40.5 99.5z" />
    <glyph glyph-name="AE" unicode="&#xc6;" horiz-adv-x="2486" 
d="M2470 1164q0 -85 -52.5 -147t-159.5 -113q-80 -38 -189 -62q-57 -12 -192.5 -33t-196.5 -37q-104 -28 -207 -105q-89 -67 -137 -137q34 -172 185 -315q168 -159 369 -159q138 0 237 54q105 57 105 146q0 34 -7 59q-9 23 -11 29q-3 6 1 10q5 5 13 2q25 0 51 -26
q33 -33 33 -80q0 -126 -151 -208q-136 -74 -309 -74q-165 0 -300.5 69.5t-223.5 196.5v-136q0 -20 34 -44q25 -18 30 -22q13 -13 13 -21q0 -11 -21 -11q-7 0 -49 3t-77 3q-39 0 -63 -2t-55 -4q-27 0 -27 14q0 8 11 16q26 20 39 31q25 20 25 37q2 11 4.5 31.5t2.5 47.5
q0 110 -34 216q-49 152 -165 283q-70 78 -159.5 133.5t-200.5 92.5q-57 -101 -97 -221q-53 -160 -53 -299q0 -152 7 -218q12 -115 53 -206q25 -56 73 -95q36 -29 73 -41q16 -6 16 -15t-12 -13q-28 -8 -43 -14q-30 -11 -73 -32q-35 -18 -59 -35q-20 -14 -31 -25q-5 -5 -10 -5
q-12 0 -12 19q0 33 -3 73t-15 121q-18 103 -33 204t-15 190q0 183 47 361q41 156 107 271q-22 4 -46.5 7t-56.5 3q-57 0 -118.5 -13.5t-107.5 -44.5q-61 -41 -61 -96q0 -57 46 -66q4 -1 11 -1q18 0 33 11t22 26l6 20q3 8 5 8q5 0 9 -12t4 -33t-6 -39q-13 -37 -44 -61.5
t-77 -24.5q-6 -1 -11 -1q-53 0 -89.5 39.5t-36.5 101.5q0 103 112 171q74 45 166 63q32 6 71 9t80 3q81 0 127 -10q145 192 321 297q203 121 441 121h15q10 0 20.5 -0.5t10.5 -5.5q0 -6 -8 -14l-10 -10q-36 -45 -43 -68q-13 -43 -13 -164q93 134 229 211q144 81 309 81
q125 0 214 -48q100 -54 100 -144q0 -46 -29 -79t-79 -41q-4 -1 -10 -1h-11q-20 0 -35 3.5t-26 11.5q-8 4 -8 9q0 4 10 13q20 17 26 25q16 21 20 51q1 4 1 7v7q0 55 -69 87q-58 27 -132 27q-115 0 -211.5 -47.5t-170.5 -138.5q-86 -107 -123 -233q-28 -96 -28 -204
q0 -36 3 -67t8 -62q35 49 122 123q111 94 202 129q79 30 163 46q47 9 160 23t181 27q110 21 168 51q90 47 90 123q0 52 -30 70q-4 3 -13 4t-11 1q-11 0 -16 -1l-18 -6q-6 -3 -9 1q-4 5 -1 13q8 19 26 36q24 22 50 22q42 0 66 -31.5t24 -72.5zM1188 526v790
q-144 -27 -286 -126q-78 -54 -126 -103t-102 -129q86 -29 157 -68q63 -35 129 -88q73 -58 126 -123q49 -60 102 -153z" />
    <glyph glyph-name="Ccedilla" unicode="&#xc7;" horiz-adv-x="1240" 
d="M1348 1410q0 -34 -25 -61q-11 -12 -41 -33q-6 -3 -9 -3q-7 0 -5 11q6 13 8.5 21.5t2.5 21.5q0 17 -7 35q-11 30 -39 45t-63 15q-64 0 -113 -46t-49 -110q0 -46 28 -88q10 -15 24 -25q7 -5 38 -23q9 -5 9 -10q0 -4 -7 -8l-62 -36q-26 -16 -30 -19q-27 -18 -28 -19
q-3 -3 -7 -2q-9 1 -7 12q2 9 5.5 26t3.5 30q0 20 -7 44q-21 79 -102.5 128.5t-191.5 49.5q-202 0 -326 -182q-114 -167 -114 -396q0 -280 143 -492q159 -236 413 -236q150 0 259 79t109 179q0 25 -13 46.5t-35 21.5q-20 0 -34 -9q-9 -6 -16 -15q-2 -8 -8 -8t-6 14
q0 28 20 58q25 38 64 38q48 0 75 -40q24 -35 24 -85q0 -11 -1 -17q-14 -147 -154 -250.5t-330 -103.5q-287 0 -475 237q-179 225 -179 537q0 275 164 477q172 211 428 211q164 0 274 -98q13 80 66 142q66 76 162 76q73 0 118.5 -38.5t45.5 -101.5zM817 -280q0 -62 -55 -103
t-133 -41t-125 21q-53 24 -53 69q0 36 23 58t59 22q16 0 34.5 -5t26.5 -12t8 -11q0 -6 -15 -6q-19 0 -29 -6q-17 -10 -17 -34q0 -23 25.5 -34.5t66.5 -11.5q47 0 75.5 27.5t28.5 70.5t-37.5 68.5t-100.5 25.5q-30 0 -72 -8l60 210h50l-42 -148q10 2 21.5 2h18.5
q78 0 125 -33q57 -40 57 -121z" />
    <glyph glyph-name="Egrave" unicode="&#xc8;" horiz-adv-x="1382" 
d="M1366 1164q0 -85 -52.5 -147t-159.5 -113q-80 -38 -189 -62q-57 -12 -192.5 -33t-196.5 -37q-103 -28 -199 -100q-80 -61 -129 -132q31 -180 176 -324q161 -160 362 -160q144 0 243 55t99 145q0 29 -6.5 50.5t-11.5 37.5q-3 6 0 10t12 4q27 -4 52 -28q34 -33 34 -80
q0 -127 -146 -208q-133 -74 -314 -74q-291 0 -473 202q-185 205 -185 536q0 293 192 506q197 218 480 218q125 0 214 -48q100 -54 100 -144q0 -46 -29 -79t-79 -41q-4 -1 -10 -1h-11q-20 0 -35 3.5t-26 11.5q-9 4 -9 10t9 12q20 14 27 23q17 21 21 53q1 4 1 7v7q0 55 -69 87
q-58 27 -132 27q-115 0 -211.5 -47.5t-170.5 -138.5q-69 -85 -100 -194.5t-31 -240.5q0 -26 1.5 -56.5t5.5 -68.5q37 52 114 120q103 91 194 126q79 30 163 46q47 9 160 23t181 27q110 21 168 51q90 47 90 123q0 52 -30 70q-8 6 -28 6q-12 0 -18 -4q-11 -9 -17 -9
q-5 0 -5 10q0 1 3.5 17t24.5 33t48 17q42 0 66 -31.5t24 -72.5zM816 1510q-6 -12 -13.5 -19.5t-14.5 -0.5q-45 25 -70 39q-102 58 -132 73q-66 36 -121 67q-46 26 -53.5 29t-7.5 8q0 4 10 14t15 16q9 11 15 20l28 50q5 6 11 6q5 0 9 -4q26 -26 146 -130q12 -11 115 -100
q36 -31 57 -52q9 -9 6 -16z" />
    <glyph glyph-name="Eacute" unicode="&#xc9;" horiz-adv-x="1382" 
d="M1366 1164q0 -85 -52.5 -147t-159.5 -113q-80 -38 -189 -62q-57 -12 -192.5 -33t-196.5 -37q-103 -28 -199 -100q-80 -61 -129 -132q31 -180 176 -324q161 -160 362 -160q144 0 243 55t99 145q0 29 -6.5 50.5t-11.5 37.5q-3 6 0 10t12 4q27 -4 52 -28q34 -33 34 -80
q0 -127 -146 -208q-133 -74 -314 -74q-291 0 -473 202q-185 205 -185 536q0 293 192 506q197 218 480 218q125 0 214 -48q100 -54 100 -144q0 -46 -29 -79t-79 -41q-4 -1 -10 -1h-11q-20 0 -35 3.5t-26 11.5q-9 4 -9 10t9 12q20 14 27 23q17 21 21 53q1 4 1 7v7q0 55 -69 87
q-58 27 -132 27q-115 0 -211.5 -47.5t-170.5 -138.5q-69 -85 -100 -194.5t-31 -240.5q0 -26 1.5 -56.5t5.5 -68.5q37 52 114 120q103 91 194 126q79 30 163 46q47 9 160 23t181 27q110 21 168 51q90 47 90 123q0 52 -30 70q-8 6 -28 6q-12 0 -18 -4q-11 -9 -17 -9
q-5 0 -5 10q0 1 3.5 17t24.5 33t48 17q42 0 66 -31.5t24 -72.5zM1020 1698q-11 -5 -52 -28q-80 -45 -122.5 -67.5t-78.5 -42.5q-15 -8 -123 -70q-7 -7 -14.5 0.5t-13.5 19.5q-3 7 6 16q19 19 78 69.5t94 82.5q28 24 80 70t66 60q4 4 9 4q6 0 11 -6l28 -50q9 -14 18 -24
l12 -12q10 -10 10 -14q0 -5 -8 -8z" />
    <glyph glyph-name="Ecircumflex" unicode="&#xca;" horiz-adv-x="1382" 
d="M1366 1164q0 -85 -52.5 -147t-159.5 -113q-80 -38 -189 -62q-57 -12 -192.5 -33t-196.5 -37q-103 -28 -199 -100q-80 -61 -129 -132q31 -180 176 -324q161 -160 362 -160q144 0 243 55t99 145q0 29 -6.5 50.5t-11.5 37.5q-3 6 0 10t12 4q27 -4 52 -28q34 -33 34 -80
q0 -127 -146 -208q-133 -74 -314 -74q-291 0 -473 202q-185 205 -185 536q0 293 192 506q197 218 480 218q125 0 214 -48q100 -54 100 -144q0 -46 -29 -79t-79 -41q-4 -1 -10 -1h-11q-20 0 -35 3.5t-26 11.5q-9 4 -9 10t9 12q20 14 27 23q17 21 21 53q1 4 1 7v7q0 55 -69 87
q-58 27 -132 27q-115 0 -211.5 -47.5t-170.5 -138.5q-69 -85 -100 -194.5t-31 -240.5q0 -26 1.5 -56.5t5.5 -68.5q37 52 114 120q103 91 194 126q79 30 163 46q47 9 160 23t181 27q110 21 168 51q90 47 90 123q0 52 -30 70q-8 6 -28 6q-12 0 -18 -4q-11 -9 -17 -9
q-5 0 -5 10q0 1 3.5 17t24.5 33t48 17q42 0 66 -31.5t24 -72.5zM1032 1524q3 -2 0 -5t-8 -3q-7 1 -18.5 1.5t-17.5 0.5q-8 0 -17 -0.5t-18 -0.5q-7 0 -11 1q-18 0 -24 6q-35 32 -90 76.5t-108 83.5q-42 -31 -107 -83q-51 -41 -91 -77q-6 -6 -20 -6q-6 -1 -19 -1q-21 1 -31 1
l-38 -2q-5 0 -7 1q-5 3 -1 7q61 51 122 108q36 35 50 48q63 60 106 112h72q50 -56 59.5 -66.5t44.5 -44.5t69 -66q46 -44 103 -91z" />
    <glyph glyph-name="Edieresis" unicode="&#xcb;" horiz-adv-x="1382" 
d="M1366 1164q0 -85 -52.5 -147t-159.5 -113q-80 -38 -189 -62q-57 -12 -192.5 -33t-196.5 -37q-103 -28 -199 -100q-80 -61 -129 -132q31 -180 176 -324q161 -160 362 -160q144 0 243 55t99 145q0 29 -6.5 50.5t-11.5 37.5q-3 6 0 10t12 4q27 -4 52 -28q34 -33 34 -80
q0 -127 -146 -208q-133 -74 -314 -74q-291 0 -473 202q-185 205 -185 536q0 293 192 506q197 218 480 218q125 0 214 -48q100 -54 100 -144q0 -46 -29 -79t-79 -41q-4 -1 -10 -1h-11q-20 0 -35 3.5t-26 11.5q-9 4 -9 10t9 12q20 14 27 23q17 21 21 53q1 4 1 7v7q0 55 -69 87
q-58 27 -132 27q-115 0 -211.5 -47.5t-170.5 -138.5q-69 -85 -100 -194.5t-31 -240.5q0 -26 1.5 -56.5t5.5 -68.5q37 52 114 120q103 91 194 126q79 30 163 46q47 9 160 23t181 27q110 21 168 51q90 47 90 123q0 52 -30 70q-8 6 -28 6q-12 0 -18 -4q-11 -9 -17 -9
q-5 0 -5 10q0 1 3.5 17t24.5 33t48 17q42 0 66 -31.5t24 -72.5zM976 1600q0 -34 -25 -57t-61 -23q-35 0 -58.5 24.5t-23.5 59.5q0 34 25 58t61 24q34 0 58 -25t24 -61zM672 1600q0 -34 -25 -57t-61 -23q-35 0 -58.5 24.5t-23.5 59.5q0 34 25 58t61 24q34 0 58 -25t24 -61z
" />
    <glyph glyph-name="Igrave" unicode="&#xcc;" horiz-adv-x="540" 
d="M412 22q2 -2 3 -6q1 -3 1 -5q0 -11 -18 -11q-10 -1 -59.5 2.5t-68.5 3.5q-32 0 -96 -5q-24 -2 -34 -1q-17 0 -17 12q0 5 3 8q3 4 43 35q31 24 31 43v1204q0 19 -30 43q-22 17 -44 35q-3 4 -1.5 12t15.5 8q10 1 60 -2.5t70 -3.5q40 0 81.5 3t46.5 3q18 0 18 -11
q0 -6 -4 -11q-2 -3 -41 -33q-31 -24 -31 -43v-1204q0 -19 30 -42q40 -31 42 -34zM481 1510q-6 -12 -13.5 -19.5t-14.5 -0.5q-45 25 -70 39q-102 58 -132 73q-66 36 -121 67q-46 26 -53.5 29t-7.5 8q0 4 10 14t15 16q9 11 15 20l28 50q5 6 11 6q5 0 9 -4q26 -26 146 -130
q12 -11 115 -100q36 -31 57 -52q9 -9 6 -16z" />
    <glyph glyph-name="Iacute" unicode="&#xcd;" horiz-adv-x="540" 
d="M412 22q2 -2 3 -6q1 -3 1 -5q0 -11 -18 -11q-10 -1 -59.5 2.5t-68.5 3.5q-32 0 -96 -5q-24 -2 -34 -1q-17 0 -17 12q0 5 3 8q3 4 43 35q31 24 31 43v1204q0 19 -30 43q-22 17 -44 35q-3 4 -1.5 12t15.5 8q10 1 60 -2.5t70 -3.5q40 0 81.5 3t46.5 3q18 0 18 -11
q0 -6 -4 -11q-2 -3 -41 -33q-31 -24 -31 -43v-1204q0 -19 30 -42q40 -31 42 -34zM600 1698q-11 -5 -52 -28q-80 -45 -122.5 -67.5t-78.5 -42.5q-15 -8 -123 -70q-7 -7 -14.5 0.5t-13.5 19.5q-3 7 6 16q19 19 78 69.5t94 82.5q28 24 80 70t66 60q4 4 9 4q6 0 11 -6l28 -50
q9 -14 18 -24l12 -12q10 -10 10 -14q0 -5 -8 -8z" />
    <glyph glyph-name="Icircumflex" unicode="&#xce;" horiz-adv-x="540" 
d="M412 22q2 -2 3 -6q1 -3 1 -5q0 -11 -18 -11q-10 -1 -59.5 2.5t-68.5 3.5q-32 0 -96 -5q-24 -2 -34 -1q-17 0 -17 12q0 5 3 8q3 4 43 35q31 24 31 43v1204q0 19 -30 43q-22 17 -44 35q-3 4 -1.5 12t15.5 8q10 1 60 -2.5t70 -3.5q40 0 81.5 3t46.5 3q18 0 18 -11
q0 -6 -4 -11q-2 -3 -41 -33q-31 -24 -31 -43v-1204q0 -19 30 -42q40 -31 42 -34zM582 1530q3 -2 0 -5t-8 -3q-7 1 -18.5 1.5t-17.5 0.5q-8 0 -17 -0.5t-18 -0.5q-7 0 -11 1q-18 0 -24 6q-35 32 -90 76.5t-108 83.5q-42 -31 -107 -83q-51 -41 -91 -77q-6 -6 -20 -6
q-6 -1 -19 -1q-21 1 -31 1l-38 -2q-5 0 -7 1q-5 3 -1 7q61 51 122 108q36 35 50 48q63 60 106 112h72q50 -56 59.5 -66.5t44.5 -44.5t69 -66q46 -44 103 -91z" />
    <glyph glyph-name="Idieresis" unicode="&#xcf;" horiz-adv-x="540" 
d="M412 22q2 -2 3 -6q1 -3 1 -5q0 -11 -18 -11q-10 -1 -59.5 2.5t-68.5 3.5q-32 0 -96 -5q-24 -2 -34 -1q-17 0 -17 12q0 5 3 8q3 4 43 35q31 24 31 43v1204q0 19 -30 43q-22 17 -44 35q-3 4 -1.5 12t15.5 8q10 1 60 -2.5t70 -3.5q40 0 81.5 3t46.5 3q18 0 18 -11
q0 -6 -4 -11q-2 -3 -41 -33q-31 -24 -31 -43v-1204q0 -19 30 -42q40 -31 42 -34zM506 1600q0 -34 -25 -57t-61 -23q-35 0 -58.5 24.5t-23.5 59.5q0 34 25 58t61 24q34 0 58 -25t24 -61zM202 1600q0 -34 -25 -57t-61 -23q-35 0 -58.5 24.5t-23.5 59.5q0 34 25 58t61 24
q34 0 58 -25t24 -61z" />
    <glyph glyph-name="Eth" unicode="&#xd0;" horiz-adv-x="1424" 
d="M1318 744q0 -249 -158 -435q-140 -165 -379 -257q-217 -84 -451 -84q-30 0 -44 3t-14 8q0 4 4 8q2 2 10 9q59 49 88.5 130t29.5 208v322h-184v92h184v264q0 37 -26 50q-12 5 -22.5 9.5t-10.5 9.5t7 9q2 1 41 17.5t74 34t54 28.5q51 30 59 32q11 2 14 -2q5 -5 0 -14
q-17 -26 -28 -43q-22 -35 -22 -63v-332h254v-92h-254v-304q0 -89 -27.5 -170t-72.5 -136q179 0 342 86q173 92 276 254q114 180 114 410q0 241 -152 404q-158 170 -406 170q-217 0 -351 -94q-120 -84 -120 -194q0 -24 5 -40q9 -33 27.5 -47t39.5 -14q13 0 23 5q17 9 18 21.5
t2 20.5q5 8 11 8q5 0 9 -4q10 -8 16.5 -24t6.5 -39q-1 -9 -1 -13q-4 -31 -31 -50.5t-59 -19.5q-71 0 -111 40q-43 43 -43 124q0 147 171.5 263.5t386.5 116.5q297 0 493 -181q207 -191 207 -505z" />
    <glyph glyph-name="Ntilde" unicode="&#xd1;" horiz-adv-x="1356" 
d="M1230 28q10 -7 10 -16q0 -12 -18 -12q-19 0 -32 1q-66 5 -88 5q-39 0 -62.5 -2t-53.5 -4q-21 0 -21 11q0 6 11 17q29 20 43 31q27 21 27 39l-12 306q-20 -51 -67 -89q-54 -43 -117 -43t-108.5 34t-45.5 92q0 43 28.5 73.5t69.5 30.5q17 0 27 -1.5t17 -8.5t7 -12
q0 -6 -9 -6q-12 0 -20.5 -4.5t-14 -16t-5.5 -29.5q0 -12 2 -18q8 -30 36 -44q20 -10 46 -10q46 0 76 43t30 99t-26 97q-20 32 -80 83q-54 46 -129 85q-190 98 -217 117q-64 46 -117 111q-46 57 -71 111l-74 -1000q0 -18 26 -39q21 -17 42 -33q7 -7 7 -15q0 -11 -17 -11
q-11 -1 -51 2.5t-63 3.5q-29 0 -67 -3t-45 -3q-19 0 -19 10q0 7 9 16q5 4 52 33q36 22 38 39l92 1204q0 19 -28 41q-23 16 -46 33q-8 6 -8 14q0 13 26 10q18 0 30 -1q60 -5 76 -5q25 0 64.5 3.5t49.5 2.5q17 0 17 -11q0 -6 -5 -11q-27 -17 -42 -28q-30 -21 -32 -48
q0 -62 27 -117.5t76.5 -97.5t117.5 -77q59 -29 118 -57q71 -36 125 -81q61 -51 112 -116q47 -60 68 -110l-44 656q-2 18 -39 40q-52 31 -55 34q-8 8 -8 14q0 10 20 10q19 0 32 -1q66 -5 86 -5q38 0 77.5 3t44.5 3q15 0 15 -10q0 -7 -7 -14q-29 -21 -46 -33q-32 -23 -32 -41
l76 -1204q0 -15 21 -30q33 -20 67 -40zM992 1714q-14 -65 -56 -119q-50 -65 -110 -65q-70 0 -157 78t-107 78q-43 0 -69.5 -43.5t-26.5 -110.5l-74 68q22 68 58 116q49 66 108 66q58 0 117 -49q128 -107 147 -107q43 0 69.5 43.5t26.5 110.5z" />
    <glyph glyph-name="Ograve" unicode="&#xd2;" horiz-adv-x="1360" 
d="M1270 708q0 -276 -166 -497q-181 -241 -448 -241q-254 0 -416 220q-150 204 -150 486q0 228 83 399q80 165 215 235q18 8 25 8q9 0 9 -7q0 -10 -18 -25q-55 -48 -89 -101q-47 -75 -71 -179q-28 -124 -28 -310q0 -239 145 -425q150 -193 355 -193q189 0 307 135
q129 148 129 417q0 287 -150 512q-144 216 -310 216q-67 0 -106.5 -33.5t-39.5 -88.5q0 -32 19 -58.5t50 -26.5q7 0 15 1t18.5 8.5t15 15t7.5 15t5 13.5q0 6 4 6q5 0 10 -6q10 -18 10 -48v-10q-2 -7 -2 -10q-6 -38 -36 -64t-72 -26q-64 0 -105 48t-41 116q0 101 87 164
q78 56 183 56q249 0 407 -220q149 -207 149 -502zM796 1510q-6 -12 -13.5 -19.5t-14.5 -0.5q-45 25 -70 39q-102 58 -132 73q-66 36 -121 67q-46 26 -53.5 29t-7.5 8q0 4 10 14t15 16q9 11 15 20l28 50q5 6 11 6q5 0 9 -4q26 -26 146 -130q12 -11 115 -100q36 -31 57 -52
q9 -9 6 -16z" />
    <glyph glyph-name="Oacute" unicode="&#xd3;" horiz-adv-x="1360" 
d="M1270 708q0 -276 -166 -497q-181 -241 -448 -241q-254 0 -416 220q-150 204 -150 486q0 228 83 399q80 165 215 235q18 8 25 8q9 0 9 -7q0 -10 -18 -25q-55 -48 -89 -101q-47 -75 -71 -179q-28 -124 -28 -310q0 -239 145 -425q150 -193 355 -193q189 0 307 135
q129 148 129 417q0 287 -150 512q-144 216 -310 216q-67 0 -106.5 -33.5t-39.5 -88.5q0 -32 19 -58.5t50 -26.5q7 0 15 1t18.5 8.5t15 15t7.5 15t5 13.5q0 6 4 6q5 0 10 -6q10 -18 10 -48v-10q-2 -7 -2 -10q-6 -38 -36 -64t-72 -26q-64 0 -105 48t-41 116q0 101 87 164
q78 56 183 56q249 0 407 -220q149 -207 149 -502zM930 1698q-11 -5 -52 -28q-80 -45 -122.5 -67.5t-78.5 -42.5q-15 -8 -123 -70q-7 -7 -14.5 0.5t-13.5 19.5q-3 7 6 16q19 19 78 69.5t94 82.5q28 24 80 70t66 60q4 4 9 4q6 0 11 -6l28 -50q9 -14 18 -24l12 -12
q10 -10 10 -14q0 -5 -8 -8z" />
    <glyph glyph-name="Ocircumflex" unicode="&#xd4;" horiz-adv-x="1360" 
d="M1270 708q0 -276 -166 -497q-181 -241 -448 -241q-254 0 -416 220q-150 204 -150 486q0 228 83 399q80 165 215 235q18 8 25 8q9 0 9 -7q0 -10 -18 -25q-55 -48 -89 -101q-47 -75 -71 -179q-28 -124 -28 -310q0 -239 145 -425q150 -193 355 -193q189 0 307 135
q129 148 129 417q0 287 -150 512q-144 216 -310 216q-67 0 -106.5 -33.5t-39.5 -88.5q0 -32 19 -58.5t50 -26.5q7 0 15 1t18.5 8.5t15 15t7.5 15t5 13.5q0 6 4 6q5 0 10 -6q10 -18 10 -48v-10q-2 -7 -2 -10q-6 -38 -36 -64t-72 -26q-64 0 -105 48t-41 116q0 101 87 164
q78 56 183 56q249 0 407 -220q149 -207 149 -502zM999 1524q3 -2 0 -5t-8 -3q-7 1 -18.5 1.5t-17.5 0.5q-8 0 -17 -0.5t-18 -0.5q-7 0 -11 1q-18 0 -24 6q-35 32 -90 76.5t-108 83.5q-42 -31 -107 -83q-51 -41 -91 -77q-6 -6 -20 -6q-6 -1 -19 -1q-21 1 -31 1l-38 -2
q-5 0 -7 1q-5 3 -1 7q61 51 122 108q36 35 50 48q63 60 106 112h72q50 -56 59.5 -66.5t44.5 -44.5t69 -66q46 -44 103 -91z" />
    <glyph glyph-name="Otilde" unicode="&#xd5;" horiz-adv-x="1360" 
d="M1270 708q0 -276 -166 -497q-181 -241 -448 -241q-254 0 -416 220q-150 204 -150 486q0 228 83 399q80 165 215 235q18 8 25 8q9 0 9 -7q0 -10 -18 -25q-55 -48 -89 -101q-47 -75 -71 -179q-28 -124 -28 -310q0 -239 145 -425q150 -193 355 -193q189 0 307 135
q129 148 129 417q0 287 -150 512q-144 216 -310 216q-67 0 -106.5 -33.5t-39.5 -88.5q0 -32 19 -58.5t50 -26.5q7 0 15 1t18.5 8.5t15 15t7.5 15t5 13.5q0 6 4 6q5 0 10 -6q10 -18 10 -48v-10q-2 -7 -2 -10q-6 -38 -36 -64t-72 -26q-64 0 -105 48t-41 116q0 101 87 164
q78 56 183 56q249 0 407 -220q149 -207 149 -502zM937 1714q-14 -65 -56 -119q-50 -65 -110 -65q-70 0 -157 78t-107 78q-43 0 -69.5 -43.5t-26.5 -110.5l-74 68q22 68 58 116q49 66 108 66q58 0 117 -49q128 -107 147 -107q43 0 69.5 43.5t26.5 110.5z" />
    <glyph glyph-name="Odieresis" unicode="&#xd6;" horiz-adv-x="1360" 
d="M1270 708q0 -276 -166 -497q-181 -241 -448 -241q-254 0 -416 220q-150 204 -150 486q0 228 83 399q80 165 215 235q18 8 25 8q9 0 9 -7q0 -10 -18 -25q-55 -48 -89 -101q-47 -75 -71 -179q-28 -124 -28 -310q0 -239 145 -425q150 -193 355 -193q189 0 307 135
q129 148 129 417q0 287 -150 512q-144 216 -310 216q-67 0 -106.5 -33.5t-39.5 -88.5q0 -32 19 -58.5t50 -26.5q7 0 15 1t18.5 8.5t15 15t7.5 15t5 13.5q0 6 4 6q5 0 10 -6q10 -18 10 -48v-10q-2 -7 -2 -10q-6 -38 -36 -64t-72 -26q-64 0 -105 48t-41 116q0 101 87 164
q78 56 183 56q249 0 407 -220q149 -207 149 -502zM921 1600q0 -34 -25 -57t-61 -23q-35 0 -58.5 24.5t-23.5 59.5q0 34 25 58t61 24q34 0 58 -25t24 -61zM617 1600q0 -34 -25 -57t-61 -23q-35 0 -58.5 24.5t-23.5 59.5q0 34 25 58t61 24q34 0 58 -25t24 -61z" />
    <glyph glyph-name="multiply" unicode="&#xd7;" horiz-adv-x="720" 
d="M624 436l-64 -62l-202 202l-198 -200l-60 60l200 198l-204 204l64 64l202 -204l202 200l58 -58l-200 -202z" />
    <glyph glyph-name="Oslash" unicode="&#xd8;" horiz-adv-x="1360" 
d="M1272 1534q-81 -52 -156 -154q-31 -42 -60 -94q102 -102 158 -254t56 -324q0 -276 -166 -497q-181 -241 -448 -241q-83 0 -158.5 27t-141.5 75q-15 -23 -30 -45q-19 -28 -28 -39q-66 -80 -123 -122q-47 -35 -85 -42q-8 -2 -14 -2q-13 0 -23.5 4t-10.5 10q0 3 6 8
q40 26 84.5 69.5t75.5 84.5q23 30 45 62t39 62q-95 103 -148.5 251t-53.5 303q0 227 83 399q80 166 215 235q5 2 13.5 6t14.5 0q4 -3 4 -8q0 -8 -5 -14.5t-9 -9.5q-57 -51 -89 -100q-48 -74 -72 -178q-29 -124 -29 -310q0 -114 43 -230q40 -109 111 -200l558 966
q-57 62 -116.5 94t-119.5 32q-67 0 -106.5 -33.5t-39.5 -88.5q0 -32 19 -58.5t50 -26.5q7 0 15 1t18.5 8.5t15 15t6.5 15t4 13.5q0 6 5 6t11 -6q10 -15 10 -48v-10q-2 -7 -2 -10q-6 -38 -36 -64t-72 -26q-64 0 -105 48t-41 116q0 97 87 161q80 59 183 59q74 0 150 -26
q68 -23 132 -66q11 19 23 35q8 11 23 29q54 66 104.5 106t83.5 46q8 2 14 2q13 0 23.5 -4t10.5 -10q0 -3 -6 -8zM1152 630q0 152 -45.5 291.5t-122.5 244.5l-556 -964q62 -59 135 -91.5t153 -32.5q189 0 307 135q129 148 129 417z" />
    <glyph glyph-name="Ugrave" unicode="&#xd9;" horiz-adv-x="1338" 
d="M1276 60q0 -28 -33 -58q-38 -34 -85 -34q-70 0 -116 66q-42 61 -42 140q-82 -105 -193 -158q-105 -50 -229 -50q-228 0 -355 179q-117 164 -117 425q0 144 84 303q67 127 188 263q90 101 190 186q-24 -12 -51.5 -17.5t-58.5 -5.5q-23 0 -44 3l-174 44q-22 0 -38 -13.5
t-16 -34.5q-1 -15 7 -25.5t21 -12.5q18 0 27 4q9 6 13 8q4 4 8 3q6 -1 6 -13q0 -26 -16 -50q-22 -32 -58 -32q-30 0 -48.5 23.5t-18.5 57.5q0 12 5 29q14 48 65 88q56 44 115 44q39 0 83 -13q98 -29 135 -29q43 0 78 12q16 5 42 20q12 5 16 5q8 0 22 -17q15 -15 15 -24
t-9 -18q-54 -40 -105 -86.5t-99 -105.5q-75 -91 -123 -173q-57 -97 -85 -195q-32 -112 -32 -236q0 -197 86 -329q101 -155 288 -155q121 0 224 56q84 46 150 126v1042q0 19 -30 43q-22 17 -44 35q-3 4 -1.5 12t15.5 8q10 1 60 -2.5t70 -3.5q40 0 81.5 3t46.5 3q18 0 18 -11
q0 -6 -4 -11q-2 -3 -41 -33q-31 -24 -31 -43v-1078q0 -74 14 -117q19 -57 60 -57q18 0 28.5 4.5t23.5 17.5q3 4 7 4q3 0 5 -5q2 -6 0 -11zM916 1510q-6 -12 -13.5 -19.5t-14.5 -0.5q-45 25 -70 39q-102 58 -132 73q-66 36 -121 67q-46 26 -53.5 29t-7.5 8q0 4 10 14t15 16
q9 11 15 20l28 50q5 6 11 6q5 0 9 -4q26 -26 146 -130q12 -11 115 -100q36 -31 57 -52q9 -9 6 -16z" />
    <glyph glyph-name="Uacute" unicode="&#xda;" horiz-adv-x="1338" 
d="M1276 60q0 -28 -33 -58q-38 -34 -85 -34q-70 0 -116 66q-42 61 -42 140q-82 -105 -193 -158q-105 -50 -229 -50q-228 0 -355 179q-117 164 -117 425q0 144 84 303q67 127 188 263q90 101 190 186q-24 -12 -51.5 -17.5t-58.5 -5.5q-23 0 -44 3l-174 44q-22 0 -38 -13.5
t-16 -34.5q-1 -15 7 -25.5t21 -12.5q18 0 27 4q9 6 13 8q4 4 8 3q6 -1 6 -13q0 -26 -16 -50q-22 -32 -58 -32q-30 0 -48.5 23.5t-18.5 57.5q0 12 5 29q14 48 65 88q56 44 115 44q39 0 83 -13q98 -29 135 -29q43 0 78 12q16 5 42 20q12 5 16 5q8 0 22 -17q15 -15 15 -24
t-9 -18q-54 -40 -105 -86.5t-99 -105.5q-75 -91 -123 -173q-57 -97 -85 -195q-32 -112 -32 -236q0 -197 86 -329q101 -155 288 -155q121 0 224 56q84 46 150 126v1042q0 19 -30 43q-22 17 -44 35q-3 4 -1.5 12t15.5 8q10 1 60 -2.5t70 -3.5q40 0 81.5 3t46.5 3q18 0 18 -11
q0 -6 -4 -11q-2 -3 -41 -33q-31 -24 -31 -43v-1078q0 -74 14 -117q19 -57 60 -57q18 0 28.5 4.5t23.5 17.5q3 4 7 4q3 0 5 -5q2 -6 0 -11zM1115 1698q-11 -5 -52 -28q-80 -45 -122.5 -67.5t-78.5 -42.5q-15 -8 -123 -70q-7 -7 -14.5 0.5t-13.5 19.5q-3 7 6 16q19 19 78 69.5
t94 82.5q28 24 80 70t66 60q4 4 9 4q6 0 11 -6l28 -50q9 -14 18 -24l12 -12q10 -10 10 -14q0 -5 -8 -8z" />
    <glyph glyph-name="Ucircumflex" unicode="&#xdb;" horiz-adv-x="1338" 
d="M1276 60q0 -28 -33 -58q-38 -34 -85 -34q-70 0 -116 66q-42 61 -42 140q-82 -105 -193 -158q-105 -50 -229 -50q-228 0 -355 179q-117 164 -117 425q0 144 84 303q67 127 188 263q90 101 190 186q-24 -12 -51.5 -17.5t-58.5 -5.5q-23 0 -44 3l-174 44q-22 0 -38 -13.5
t-16 -34.5q-1 -15 7 -25.5t21 -12.5q18 0 27 4q9 6 13 8q4 4 8 3q6 -1 6 -13q0 -26 -16 -50q-22 -32 -58 -32q-30 0 -48.5 23.5t-18.5 57.5q0 12 5 29q14 48 65 88q56 44 115 44q39 0 83 -13q98 -29 135 -29q43 0 78 12q16 5 42 20q12 5 16 5q8 0 22 -17q15 -15 15 -24
t-9 -18q-54 -40 -105 -86.5t-99 -105.5q-75 -91 -123 -173q-57 -97 -85 -195q-32 -112 -32 -236q0 -197 86 -329q101 -155 288 -155q121 0 224 56q84 46 150 126v1042q0 19 -30 43q-22 17 -44 35q-3 4 -1.5 12t15.5 8q10 1 60 -2.5t70 -3.5q40 0 81.5 3t46.5 3q18 0 18 -11
q0 -6 -4 -11q-2 -3 -41 -33q-31 -24 -31 -43v-1078q0 -74 14 -117q19 -57 60 -57q18 0 28.5 4.5t23.5 17.5q3 4 7 4q3 0 5 -5q2 -6 0 -11zM1132 1524q3 -2 0 -5t-8 -3q-7 1 -18.5 1.5t-17.5 0.5q-8 0 -17 -0.5t-18 -0.5q-7 0 -11 1q-18 0 -24 6q-35 32 -90 76.5t-108 83.5
q-42 -31 -107 -83q-51 -41 -91 -77q-6 -6 -20 -6q-6 -1 -19 -1q-21 1 -31 1l-38 -2q-5 0 -7 1q-5 3 -1 7q61 51 122 108q36 35 50 48q63 60 106 112h72q50 -56 59.5 -66.5t44.5 -44.5t69 -66q46 -44 103 -91z" />
    <glyph glyph-name="Udieresis" unicode="&#xdc;" horiz-adv-x="1338" 
d="M1276 60q0 -28 -33 -58q-38 -34 -85 -34q-70 0 -116 66q-42 61 -42 140q-82 -105 -193 -158q-105 -50 -229 -50q-228 0 -355 179q-117 164 -117 425q0 144 84 303q67 127 188 263q90 101 190 186q-24 -12 -51.5 -17.5t-58.5 -5.5q-23 0 -44 3l-174 44q-22 0 -38 -13.5
t-16 -34.5q-1 -15 7 -25.5t21 -12.5q18 0 27 4q9 6 13 8q4 4 8 3q6 -1 6 -13q0 -26 -16 -50q-22 -32 -58 -32q-30 0 -48.5 23.5t-18.5 57.5q0 12 5 29q14 48 65 88q56 44 115 44q39 0 83 -13q98 -29 135 -29q43 0 78 12q16 5 42 20q12 5 16 5q8 0 22 -17q15 -15 15 -24
t-9 -18q-54 -40 -105 -86.5t-99 -105.5q-75 -91 -123 -173q-57 -97 -85 -195q-32 -112 -32 -236q0 -197 86 -329q101 -155 288 -155q121 0 224 56q84 46 150 126v1042q0 19 -30 43q-22 17 -44 35q-3 4 -1.5 12t15.5 8q10 1 60 -2.5t70 -3.5q40 0 81.5 3t46.5 3q18 0 18 -11
q0 -6 -4 -11q-2 -3 -41 -33q-31 -24 -31 -43v-1078q0 -74 14 -117q19 -57 60 -57q18 0 28.5 4.5t23.5 17.5q3 4 7 4q3 0 5 -5q2 -6 0 -11zM1131 1600q0 -34 -25 -57t-61 -23q-35 0 -58.5 24.5t-23.5 59.5q0 34 25 58t61 24q34 0 58 -25t24 -61zM827 1600q0 -34 -25 -57
t-61 -23q-35 0 -58.5 24.5t-23.5 59.5q0 34 25 58t61 24q34 0 58 -25t24 -61z" />
    <glyph glyph-name="Yacute" unicode="&#xdd;" horiz-adv-x="1260" 
d="M1186 1382q-7 -10 -16 -29q-22 -48 -34 -123q-5 -29 -26.5 -184.5t-41.5 -273.5q-26 -156 -60 -292q-54 -219 -117 -377q-81 -203 -177 -312q-114 -129 -252 -129q-82 0 -137 39q-59 42 -59 111q0 28 10.5 54.5t25.5 37.5q8 3 12 3q9 0 12 -11q1 -13 2.5 -23t5.5 -23
q10 -24 40 -39q37 -19 92 -19q93 0 191 115q83 97 158 259q63 135 99 268q-53 -102 -152 -173q-104 -75 -206 -75q-186 0 -290 156q-96 144 -96 378q0 112 48 240q37 99 102 206q34 57 92 136q-49 0 -113 22t-99 22q-21 0 -42.5 -13.5t-21.5 -34.5q0 -48 30 -48q15 0 24 12
q4 6 10 20q6 9 12 0q6 -12 6 -28q0 -29 -19.5 -49.5t-48.5 -20.5q-27 0 -46 22t-19 60q1 9 1 14q5 47 44 83q43 39 104 39q31 0 112 -17q43 -9 70 -9q28 0 52 14q16 9 28 24q5 5 9 6t9 -2q7 -4 12.5 -10t9.5 -10q2 -11 -2 -16q-48 -53 -79 -97q-64 -92 -103 -203
q-52 -149 -52 -314q0 -206 75 -326q82 -130 235 -130q159 0 261 145q87 123 127 343q22 122 22 252q0 138 -22 218q-11 39 -31 73q-15 25 -31 41q-5 5 -5 9q0 7 19 7q29 -5 56 -8.5t52 -3.5q31 0 71 6t47 6q15 3 15 -6q0 -5 -5 -12zM1040 1698q-11 -5 -52 -28
q-80 -45 -122.5 -67.5t-78.5 -42.5q-15 -8 -123 -70q-7 -7 -14.5 0.5t-13.5 19.5q-3 7 6 16q19 19 78 69.5t94 82.5q28 24 80 70t66 60q4 4 9 4q6 0 11 -6l28 -50q9 -14 18 -24l12 -12q10 -10 10 -14q0 -5 -8 -8z" />
    <glyph glyph-name="Thorn" unicode="&#xde;" horiz-adv-x="1372" 
d="M1202 792q0 -223 -149.5 -386.5t-364.5 -163.5q-74 0 -129 37t-55 97q0 39 25 68.5t65 29.5q25 0 39.5 -3.5t22.5 -14.5l-8 -14q-44 -17 -44 -68q0 -42 41 -65q34 -19 83 -19q139 0 232.5 130.5t93.5 323.5q0 152 -73 253q-69 96 -195 135q-45 14 -104 21.5t-118 7.5
q-45 0 -69.5 -1.5t-76.5 -7.5v-1056q0 -184 -71 -303t-169 -119q-47 0 -78.5 20t-31.5 58q-3 30 10.5 52t29.5 22q5 0 6 -17.5t3.5 -31t11.5 -23.5q13 -15 40 -15q8 0 13 1q52 7 74 68.5t22 169.5v1324q0 20 -39.5 48.5t-36.5 41.5q1 9 23 9q37 -3 64.5 -5t58.5 -2
q37 0 67.5 2.5t55.5 4.5q22 0 23 -9q3 -14 -36.5 -42.5t-39.5 -47.5v-96q34 7 98 13.5t127 6.5q43 0 81.5 -3t77.5 -11q174 -33 279 -131q121 -113 121 -289z" />
    <glyph glyph-name="germandbls" unicode="&#xdf;" horiz-adv-x="1032" 
d="M970 256q0 -108 -81 -193q-91 -95 -233 -95q-89 0 -156 39q-85 50 -96 147q-1 6 -1 17q0 67 48.5 120t120.5 53q77 0 123.5 -38.5t46.5 -103.5q0 -41 -28.5 -66.5t-71.5 -25.5q-17 0 -31.5 5t-21 11.5t-6.5 9.5q0 5 11 8q21 8 27 13q15 13 15 41q0 30 -22.5 45t-55.5 15
q-49 0 -79 -27t-30 -70q1 -7 1 -11q7 -69 75 -102q53 -26 131 -26q98 0 159 64t61 154q0 81 -46.5 133.5t-211.5 158.5q-94 60 -141 112q-62 69 -62 139q0 18 3.5 34.5t11.5 34.5q14 33 82 87q86 69 112 100q56 67 56 147q1 13 1 20q0 73 -38 123q-44 57 -119 57
q-86 0 -135 -46t-49 -124v-1170q0 -170 -54 -287q-42 -92 -115 -147q-52 -39 -99 -48q-17 -2 -21 8t-6.5 26t-7.5 35t-10.5 32.5t-10.5 24.5q-5 13 10 13q5 0 14.5 -2.5t22.5 -2.5q60 0 96 57q53 83 53 283v858q-31 0 -70 -2t-45 -2q-16 0 -17 4q-1 7 -1 15v13q0 18 1.5 25
t20.5 7q7 0 44 -2t67 -2v180q0 127 83 210q88 88 235 88q110 0 184 -49q89 -59 89 -168v-18q-1 -7 -1 -11q-8 -76 -75 -147q-28 -29 -126 -106q-73 -57 -85 -93q-7 -18 -7 -39q0 -74 114 -146q47 -29 95 -57q76 -49 116 -83q63 -53 96 -109q40 -68 40 -148z" />
    <glyph glyph-name="agrave" unicode="&#xe0;" horiz-adv-x="1084" 
d="M992 26q7 -11 7 -16q0 -10 -15 -10q-4 0 -33 3t-55 3q-18 0 -40 -3t-26 -3q-23 0 -23 11q0 4 5 11q9 13 14.5 27.5t5.5 32.5l-6 96q-39 -82 -129 -143q-100 -67 -209 -67q-154 0 -260 91q-112 96 -112 249q0 154 122 258q117 100 280 100q79 0 151.5 -31t110.5 -75
q0 44 -51 131q-60 103 -141 169q-102 84 -210 84q-67 0 -115 -28q-55 -32 -55 -88q0 -32 16.5 -53t45.5 -21q20 0 35 13t15 31q0 13 -3.5 25.5t-6.5 22.5q-3 7 1 9q2 1 13 1q28 -3 51 -26t23 -52q0 -47 -37.5 -78.5t-86.5 -31.5q-58 0 -96 39t-38 105q0 86 91 134
q80 42 193 42q111 0 219 -70.5t175 -191.5q47 -85 75 -211q18 -80 34 -219.5t27 -191.5q5 -26 19 -50q15 -22 19 -28zM822 346q0 113 -83.5 180.5t-218.5 67.5q-110 0 -192 -72t-82 -178q0 -113 83.5 -190.5t198.5 -77.5q133 0 213.5 75.5t80.5 194.5zM671 1125
q-6 -12 -13.5 -19.5t-14.5 -0.5q-45 25 -70 39q-102 58 -132 73q-66 36 -121 67q-46 26 -53.5 29t-7.5 8q0 4 10 14t15 16q9 11 15 20l28 50q5 6 11 6q5 0 9 -4q26 -26 146 -130q12 -11 115 -100q36 -31 57 -52q9 -9 6 -16z" />
    <glyph glyph-name="aacute" unicode="&#xe1;" horiz-adv-x="1084" 
d="M992 26q7 -11 7 -16q0 -10 -15 -10q-4 0 -33 3t-55 3q-18 0 -40 -3t-26 -3q-23 0 -23 11q0 4 5 11q9 13 14.5 27.5t5.5 32.5l-6 96q-39 -82 -129 -143q-100 -67 -209 -67q-154 0 -260 91q-112 96 -112 249q0 154 122 258q117 100 280 100q79 0 151.5 -31t110.5 -75
q0 44 -51 131q-60 103 -141 169q-102 84 -210 84q-67 0 -115 -28q-55 -32 -55 -88q0 -32 16.5 -53t45.5 -21q20 0 35 13t15 31q0 13 -3.5 25.5t-6.5 22.5q-3 7 1 9q2 1 13 1q28 -3 51 -26t23 -52q0 -47 -37.5 -78.5t-86.5 -31.5q-58 0 -96 39t-38 105q0 86 91 134
q80 42 193 42q111 0 219 -70.5t175 -191.5q47 -85 75 -211q18 -80 34 -219.5t27 -191.5q5 -26 19 -50q15 -22 19 -28zM822 346q0 113 -83.5 180.5t-218.5 67.5q-110 0 -192 -72t-82 -178q0 -113 83.5 -190.5t198.5 -77.5q133 0 213.5 75.5t80.5 194.5zM720 1313
q-11 -5 -52 -28q-80 -45 -122.5 -67.5t-78.5 -42.5q-15 -8 -123 -70q-7 -7 -14.5 0.5t-13.5 19.5q-3 7 6 16q19 19 78 69.5t94 82.5q28 24 80 70t66 60q4 4 9 4q6 0 11 -6l28 -50q9 -14 18 -24l12 -12q10 -10 10 -14q0 -5 -8 -8z" />
    <glyph glyph-name="acircumflex" unicode="&#xe2;" horiz-adv-x="1084" 
d="M992 26q7 -11 7 -16q0 -10 -15 -10q-4 0 -33 3t-55 3q-18 0 -40 -3t-26 -3q-23 0 -23 11q0 4 5 11q9 13 14.5 27.5t5.5 32.5l-6 96q-39 -82 -129 -143q-100 -67 -209 -67q-154 0 -260 91q-112 96 -112 249q0 154 122 258q117 100 280 100q79 0 151.5 -31t110.5 -75
q0 44 -51 131q-60 103 -141 169q-102 84 -210 84q-67 0 -115 -28q-55 -32 -55 -88q0 -32 16.5 -53t45.5 -21q20 0 35 13t15 31q0 13 -3.5 25.5t-6.5 22.5q-3 7 1 9q2 1 13 1q28 -3 51 -26t23 -52q0 -47 -37.5 -78.5t-86.5 -31.5q-58 0 -96 39t-38 105q0 86 91 134
q80 42 193 42q111 0 219 -70.5t175 -191.5q47 -85 75 -211q18 -80 34 -219.5t27 -191.5q5 -26 19 -50q15 -22 19 -28zM822 346q0 113 -83.5 180.5t-218.5 67.5q-110 0 -192 -72t-82 -178q0 -113 83.5 -190.5t198.5 -77.5q133 0 213.5 75.5t80.5 194.5zM792 1114q3 -2 0 -5
t-8 -3q-7 1 -18.5 1.5t-17.5 0.5q-8 0 -17 -0.5t-18 -0.5q-7 0 -11 1q-18 0 -24 6q-35 32 -90 76.5t-108 83.5q-42 -31 -107 -83q-51 -41 -91 -77q-6 -6 -20 -6q-6 -1 -19 -1q-21 1 -31 1l-38 -2q-5 0 -7 1q-5 3 -1 7q61 51 122 108q36 35 50 48q63 60 106 112h72
q50 -56 59.5 -66.5t44.5 -44.5t69 -66q46 -44 103 -91z" />
    <glyph glyph-name="atilde" unicode="&#xe3;" horiz-adv-x="1084" 
d="M992 26q7 -11 7 -16q0 -10 -15 -10q-4 0 -33 3t-55 3q-18 0 -40 -3t-26 -3q-23 0 -23 11q0 4 5 11q9 13 14.5 27.5t5.5 32.5l-6 96q-39 -82 -129 -143q-100 -67 -209 -67q-154 0 -260 91q-112 96 -112 249q0 154 122 258q117 100 280 100q79 0 151.5 -31t110.5 -75
q0 44 -51 131q-60 103 -141 169q-102 84 -210 84q-67 0 -115 -28q-55 -32 -55 -88q0 -32 16.5 -53t45.5 -21q20 0 35 13t15 31q0 13 -3.5 25.5t-6.5 22.5q-3 7 1 9q2 1 13 1q28 -3 51 -26t23 -52q0 -47 -37.5 -78.5t-86.5 -31.5q-58 0 -96 39t-38 105q0 86 91 134
q80 42 193 42q111 0 219 -70.5t175 -191.5q47 -85 75 -211q18 -80 34 -219.5t27 -191.5q5 -26 19 -50q15 -22 19 -28zM822 346q0 113 -83.5 180.5t-218.5 67.5q-110 0 -192 -72t-82 -178q0 -113 83.5 -190.5t198.5 -77.5q133 0 213.5 75.5t80.5 194.5zM762 1274
q-14 -65 -56 -119q-50 -65 -110 -65q-70 0 -157 78t-107 78q-43 0 -69.5 -43.5t-26.5 -110.5l-74 68q22 68 58 116q49 66 108 66q58 0 117 -49q128 -107 147 -107q43 0 69.5 43.5t26.5 110.5z" />
    <glyph glyph-name="adieresis" unicode="&#xe4;" horiz-adv-x="1084" 
d="M992 26q7 -11 7 -16q0 -10 -15 -10q-4 0 -33 3t-55 3q-18 0 -40 -3t-26 -3q-23 0 -23 11q0 4 5 11q9 13 14.5 27.5t5.5 32.5l-6 96q-39 -82 -129 -143q-100 -67 -209 -67q-154 0 -260 91q-112 96 -112 249q0 154 122 258q117 100 280 100q79 0 151.5 -31t110.5 -75
q0 44 -51 131q-60 103 -141 169q-102 84 -210 84q-67 0 -115 -28q-55 -32 -55 -88q0 -32 16.5 -53t45.5 -21q20 0 35 13t15 31q0 13 -3.5 25.5t-6.5 22.5q-3 7 1 9q2 1 13 1q28 -3 51 -26t23 -52q0 -47 -37.5 -78.5t-86.5 -31.5q-58 0 -96 39t-38 105q0 86 91 134
q80 42 193 42q111 0 219 -70.5t175 -191.5q47 -85 75 -211q18 -80 34 -219.5t27 -191.5q5 -26 19 -50q15 -22 19 -28zM822 346q0 113 -83.5 180.5t-218.5 67.5q-110 0 -192 -72t-82 -178q0 -113 83.5 -190.5t198.5 -77.5q133 0 213.5 75.5t80.5 194.5zM681 1165
q0 -34 -25 -57t-61 -23q-35 0 -58.5 24.5t-23.5 59.5q0 34 25 58t61 24q34 0 58 -25t24 -61zM377 1165q0 -34 -25 -57t-61 -23q-35 0 -58.5 24.5t-23.5 59.5q0 34 25 58t61 24q34 0 58 -25t24 -61z" />
    <glyph glyph-name="aring" unicode="&#xe5;" horiz-adv-x="1084" 
d="M992 26q7 -11 7 -16q0 -10 -15 -10q-4 0 -33 3t-55 3q-18 0 -40 -3t-26 -3q-23 0 -23 11q0 4 5 11q9 13 14.5 27.5t5.5 32.5l-6 96q-39 -82 -129 -143q-100 -67 -209 -67q-154 0 -260 91q-112 96 -112 249q0 154 122 258q117 100 280 100q79 0 151.5 -31t110.5 -75
q0 44 -51 131q-60 103 -141 169q-102 84 -210 84q-67 0 -115 -28q-55 -32 -55 -88q0 -32 16.5 -53t45.5 -21q20 0 35 13t15 31q0 13 -3.5 25.5t-6.5 22.5q-3 7 1 9q2 1 13 1q28 -3 51 -26t23 -52q0 -47 -37.5 -78.5t-86.5 -31.5q-58 0 -96 39t-38 105q0 86 91 134
q80 42 193 42q111 0 219 -70.5t175 -191.5q47 -85 75 -211q18 -80 34 -219.5t27 -191.5q5 -26 19 -50q15 -22 19 -28zM822 346q0 113 -83.5 180.5t-218.5 67.5q-110 0 -192 -72t-82 -178q0 -113 83.5 -190.5t198.5 -77.5q133 0 213.5 75.5t80.5 194.5zM675 1304
q0 -92 -64 -156t-156 -64t-156 64t-64 156t64 157t156 65t156 -65t64 -157zM595 1304q0 59 -40.5 100.5t-99.5 41.5t-99.5 -41.5t-40.5 -100.5t40.5 -99.5t99.5 -40.5t99.5 40.5t40.5 99.5z" />
    <glyph glyph-name="ae" unicode="&#xe6;" horiz-adv-x="1704" 
d="M1684 212q-26 -85 -125 -159q-116 -87 -253 -87q-88 0 -156 19q-78 22 -148 75q-28 -35 -51 -76q-29 -51 -29 -74q0 -28 15 -39q10 -7 33 -7q7 0 14 2l12 4q6 3 9 -2q4 -7 1 -18q-5 -23 -25 -42q-25 -24 -55 -24q-34 0 -56 25t-22 65q0 32 22 78q6 13 86 142
q-28 30 -54 68q-31 46 -42 80q-20 -102 -128 -186q-113 -88 -244 -88q-154 0 -260 91q-112 96 -112 249q0 154 122 258q117 100 280 100q79 0 151.5 -31t110.5 -75q0 44 -51 131q-60 103 -141 169q-102 84 -210 84q-67 0 -115 -28q-55 -32 -55 -88q0 -32 16.5 -53t45.5 -21
q20 0 35 13t15 31q0 17 -2 26t-6 20q-2 5 2 8q5 4 14 4q27 -5 48.5 -28t21.5 -50q0 -47 -37.5 -78.5t-86.5 -31.5q-58 0 -96 39t-38 105q0 86 91 134q80 42 193 42q118 0 227.5 -81.5t188.5 -224.5q56 137 169 220q118 86 265 86q81 0 166 -39q47 -23 94 -45q9 -4 28.5 -7
t34.5 -3q14 1 19 1q19 0 19 -7q0 -4 -9 -12q-26 -21 -43.5 -36t-34.5 -34q-97 -108 -225 -283t-241 -351q59 -42 120 -65q72 -27 150 -27q108 0 178 41q51 30 114 107q6 9 14 19.5t18 8.5q13 -3 13 -19q0 -12 -5 -25zM1410 802q0 59 -64 92q-54 28 -130 28q-142 0 -234 -121
q-86 -114 -86 -271q0 -91 43 -183q38 -82 97 -137q68 101 106 157q61 90 104 151l110 156q54 84 54 128zM822 346q0 113 -83.5 180.5t-218.5 67.5q-110 0 -192 -72t-82 -178q0 -113 83.5 -190.5t198.5 -77.5q133 0 213.5 75.5t80.5 194.5z" />
    <glyph glyph-name="ccedilla" unicode="&#xe7;" horiz-adv-x="1012" 
d="M958 242q0 -14 -8 -34q-32 -81 -114 -148q-113 -92 -262 -92q-219 0 -348 132q-132 135 -132 372q0 207 149.5 361.5t358.5 154.5q120 0 210 -64q98 -70 98 -178q0 -91 -57.5 -153.5t-142.5 -62.5q-72 0 -124 42q-56 45 -56 114q0 45 30 84q26 35 54 42q11 4 17 -2t3 -14
q-5 -14 -7 -23q-6 -20 -6 -36q0 -11 1 -17q6 -31 32.5 -47.5t61.5 -16.5q48 0 77 35t29 87q0 76 -73 120q-66 40 -155 40q-169 0 -273.5 -128.5t-104.5 -321.5q0 -168 107 -287q111 -123 275 -123q103 0 171.5 30.5t140.5 113.5q1 2 12 17q8 11 14 15q5 3 13.5 0.5
t8.5 -12.5zM732 -280q0 -62 -55 -103t-133 -41t-125 21q-53 24 -53 69q0 36 23 58t59 22q16 0 34.5 -5t26.5 -12t8 -11q0 -6 -15 -6q-19 0 -29 -6q-17 -10 -17 -34q0 -23 25.5 -34.5t66.5 -11.5q47 0 75.5 27.5t28.5 70.5t-37.5 68.5t-100.5 25.5q-30 0 -72 -8l60 210h50
l-42 -148q10 2 21.5 2h18.5q78 0 125 -33q57 -40 57 -121z" />
    <glyph glyph-name="egrave" unicode="&#xe8;" horiz-adv-x="1006" 
d="M986 212q-26 -85 -125 -159q-116 -87 -253 -87q-88 0 -156 19q-78 22 -148 75q-28 -35 -51 -76q-29 -51 -29 -74q0 -28 15 -39q10 -7 33 -7q7 0 14 2l12 4q4 2 7 0q7 -4 3 -16q-6 -24 -24 -44q-24 -26 -56 -26q-34 0 -56 25t-22 65q0 32 22 78q6 13 86 142
q-74 76 -114 165q-44 99 -44 213q0 210 136.5 363t339.5 153q81 0 166 -39q47 -23 94 -45q9 -4 26 -6t34 -2l30 2q11 0 11 -9q0 -7 -7 -11q-16 -10 -35 -27q-26 -22 -45 -45q-97 -108 -225 -283t-241 -351q59 -42 120 -65q72 -27 150 -27q108 0 178 41q51 30 114 107
q6 9 14 19.5t18 8.5q13 -3 13 -19q0 -12 -5 -25zM712 802q0 59 -64 92q-54 28 -130 28q-142 0 -234 -121q-86 -114 -86 -271q0 -93 45 -186q38 -79 95 -134q68 101 106 157q61 90 104 151l110 156q54 84 54 128zM736 1120q-6 -12 -13.5 -19.5t-14.5 -0.5q-45 25 -70 39
q-102 58 -132 73q-66 36 -121 67q-46 26 -53.5 29t-7.5 8q0 4 10 14t15 16q9 11 15 20l28 50q5 6 11 6q5 0 9 -4q26 -26 146 -130q12 -11 115 -100q36 -31 57 -52q9 -9 6 -16z" />
    <glyph glyph-name="eacute" unicode="&#xe9;" horiz-adv-x="1006" 
d="M986 212q-26 -85 -125 -159q-116 -87 -253 -87q-88 0 -156 19q-78 22 -148 75q-28 -35 -51 -76q-29 -51 -29 -74q0 -28 15 -39q10 -7 33 -7q7 0 14 2l12 4q4 2 7 0q7 -4 3 -16q-6 -24 -24 -44q-24 -26 -56 -26q-34 0 -56 25t-22 65q0 32 22 78q6 13 86 142
q-74 76 -114 165q-44 99 -44 213q0 210 136.5 363t339.5 153q81 0 166 -39q47 -23 94 -45q9 -4 26 -6t34 -2l30 2q11 0 11 -9q0 -7 -7 -11q-16 -10 -35 -27q-26 -22 -45 -45q-97 -108 -225 -283t-241 -351q59 -42 120 -65q72 -27 150 -27q108 0 178 41q51 30 114 107
q6 9 14 19.5t18 8.5q13 -3 13 -19q0 -12 -5 -25zM712 802q0 59 -64 92q-54 28 -130 28q-142 0 -234 -121q-86 -114 -86 -271q0 -93 45 -186q38 -79 95 -134q68 101 106 157q61 90 104 151l110 156q54 84 54 128zM785 1313q-11 -5 -52 -28q-80 -45 -122.5 -67.5t-78.5 -42.5
q-15 -8 -123 -70q-7 -7 -14.5 0.5t-13.5 19.5q-3 7 6 16q19 19 78 69.5t94 82.5q28 24 80 70t66 60q4 4 9 4q6 0 11 -6l28 -50q9 -14 18 -24l12 -12q10 -10 10 -14q0 -5 -8 -8z" />
    <glyph glyph-name="ecircumflex" unicode="&#xea;" horiz-adv-x="1006" 
d="M986 212q-26 -85 -125 -159q-116 -87 -253 -87q-88 0 -156 19q-78 22 -148 75q-28 -35 -51 -76q-29 -51 -29 -74q0 -28 15 -39q10 -7 33 -7q7 0 14 2l12 4q4 2 7 0q7 -4 3 -16q-6 -24 -24 -44q-24 -26 -56 -26q-34 0 -56 25t-22 65q0 32 22 78q6 13 86 142
q-74 76 -114 165q-44 99 -44 213q0 210 136.5 363t339.5 153q81 0 166 -39q47 -23 94 -45q9 -4 26 -6t34 -2l30 2q11 0 11 -9q0 -7 -7 -11q-16 -10 -35 -27q-26 -22 -45 -45q-97 -108 -225 -283t-241 -351q59 -42 120 -65q72 -27 150 -27q108 0 178 41q51 30 114 107
q6 9 14 19.5t18 8.5q13 -3 13 -19q0 -12 -5 -25zM712 802q0 59 -64 92q-54 28 -130 28q-142 0 -234 -121q-86 -114 -86 -271q0 -93 45 -186q38 -79 95 -134q68 101 106 157q61 90 104 151l110 156q54 84 54 128zM847 1109q3 -2 0 -5t-8 -3q-7 1 -18.5 1.5t-17.5 0.5
q-8 0 -17 -0.5t-18 -0.5q-7 0 -11 1q-18 0 -24 6q-35 32 -90 76.5t-108 83.5q-42 -31 -107 -83q-51 -41 -91 -77q-6 -6 -20 -6q-6 -1 -19 -1q-21 1 -31 1l-38 -2q-5 0 -7 1q-5 3 -1 7q61 51 122 108q36 35 50 48q63 60 106 112h72q50 -56 59.5 -66.5t44.5 -44.5t69 -66
q46 -44 103 -91z" />
    <glyph glyph-name="edieresis" unicode="&#xeb;" horiz-adv-x="1006" 
d="M986 212q-26 -85 -125 -159q-116 -87 -253 -87q-88 0 -156 19q-78 22 -148 75q-28 -35 -51 -76q-29 -51 -29 -74q0 -28 15 -39q10 -7 33 -7q7 0 14 2l12 4q4 2 7 0q7 -4 3 -16q-6 -24 -24 -44q-24 -26 -56 -26q-34 0 -56 25t-22 65q0 32 22 78q6 13 86 142
q-74 76 -114 165q-44 99 -44 213q0 210 136.5 363t339.5 153q81 0 166 -39q47 -23 94 -45q9 -4 26 -6t34 -2l30 2q11 0 11 -9q0 -7 -7 -11q-16 -10 -35 -27q-26 -22 -45 -45q-97 -108 -225 -283t-241 -351q59 -42 120 -65q72 -27 150 -27q108 0 178 41q51 30 114 107
q6 9 14 19.5t18 8.5q13 -3 13 -19q0 -12 -5 -25zM712 802q0 59 -64 92q-54 28 -130 28q-142 0 -234 -121q-86 -114 -86 -271q0 -93 45 -186q38 -79 95 -134q68 101 106 157q61 90 104 151l110 156q54 84 54 128zM791 1190q0 -34 -25 -57t-61 -23q-35 0 -58.5 24.5
t-23.5 59.5q0 34 25 58t61 24q34 0 58 -25t24 -61zM487 1190q0 -34 -25 -57t-61 -23q-35 0 -58.5 24.5t-23.5 59.5q0 34 25 58t61 24q34 0 58 -25t24 -61z" />
    <glyph glyph-name="igrave" unicode="&#xec;" horiz-adv-x="560" 
d="M404 8q-1 -9 -21 -9q-33 3 -58 5t-55 2q-33 0 -83 -5q-20 -2 -31 -2q-19 0 -20 9q-3 14 33.5 42.5t36.5 47.5v672q0 49 -25 68q-28 12 -55 24q0 8 12 16q43 22 84 48q33 20 73 50t51 24q3 -2 3 -10q-6 -44 -10.5 -95t-4.5 -103v-694q0 -20 36.5 -48.5t33.5 -41.5z
M491 1125q-6 -12 -13.5 -19.5t-14.5 -0.5q-45 25 -70 39q-102 58 -132 73q-66 36 -121 67q-46 26 -53.5 29t-7.5 8q0 4 10 14t15 16q9 11 15 20l28 50q5 6 11 6q5 0 9 -4q26 -26 146 -130q12 -11 115 -100q36 -31 57 -52q9 -9 6 -16z" />
    <glyph glyph-name="iacute" unicode="&#xed;" horiz-adv-x="560" 
d="M404 8q-1 -9 -21 -9q-33 3 -58 5t-55 2q-33 0 -83 -5q-20 -2 -31 -2q-19 0 -20 9q-3 14 33.5 42.5t36.5 47.5v672q0 49 -25 68q-28 12 -55 24q0 8 12 16q43 22 84 48q33 20 73 50t51 24q3 -2 3 -10q-6 -44 -10.5 -95t-4.5 -103v-694q0 -20 36.5 -48.5t33.5 -41.5z
M485 1308q-11 -5 -52 -28q-80 -45 -122.5 -67.5t-78.5 -42.5q-15 -8 -123 -70q-7 -7 -14.5 0.5t-13.5 19.5q-3 7 6 16q19 19 78 69.5t94 82.5q28 24 80 70t66 60q4 4 9 4q6 0 11 -6l28 -50q9 -14 18 -24l12 -12q10 -10 10 -14q0 -5 -8 -8z" />
    <glyph glyph-name="icircumflex" unicode="&#xee;" horiz-adv-x="560" 
d="M404 8q-1 -9 -21 -9q-33 3 -58 5t-55 2q-33 0 -83 -5q-20 -2 -31 -2q-19 0 -20 9q-3 14 33.5 42.5t36.5 47.5v672q0 49 -25 68q-28 12 -55 24q0 8 12 16q43 22 84 48q33 20 73 50t51 24q3 -2 3 -10q-6 -44 -10.5 -95t-4.5 -103v-694q0 -20 36.5 -48.5t33.5 -41.5z
M587 1114q3 -2 0 -5t-8 -3q-7 1 -18.5 1.5t-17.5 0.5q-8 0 -17 -0.5t-18 -0.5q-7 0 -11 1q-18 0 -24 6q-35 32 -90 76.5t-108 83.5q-42 -31 -107 -83q-51 -41 -91 -77q-6 -6 -20 -6q-6 -1 -19 -1q-21 1 -31 1l-38 -2q-5 0 -7 1q-5 3 -1 7q61 51 122 108q36 35 50 48
q63 60 106 112h72q50 -56 59.5 -66.5t44.5 -44.5t69 -66q46 -44 103 -91z" />
    <glyph glyph-name="idieresis" unicode="&#xef;" horiz-adv-x="560" 
d="M404 8q-1 -9 -21 -9q-33 3 -58 5t-55 2q-33 0 -83 -5q-20 -2 -31 -2q-19 0 -20 9q-3 14 33.5 42.5t36.5 47.5v672q0 49 -25 68q-28 12 -55 24q0 8 12 16q43 22 84 48q33 20 73 50t51 24q3 -2 3 -10q-6 -44 -10.5 -95t-4.5 -103v-694q0 -20 36.5 -48.5t33.5 -41.5z
M518 1190q0 -34 -25 -57t-61 -23q-35 0 -58.5 24.5t-23.5 59.5q0 34 25 58t61 24q34 0 58 -25t24 -61zM214 1190q0 -34 -25 -57t-61 -23q-35 0 -58.5 24.5t-23.5 59.5q0 34 25 58t61 24q34 0 58 -25t24 -61z" />
    <glyph glyph-name="eth" unicode="&#xf0;" horiz-adv-x="1174" 
d="M1056 524q0 -247 -136.5 -401.5t-357.5 -154.5q-205 0 -344.5 140.5t-139.5 343.5q0 197 143.5 337.5t342.5 140.5q89 0 182 -45q109 -52 166 -143q-7 73 -53 182t-99 184q-9 14 -17 24.5t-35 39.5l-320 -158l-40 72l300 148q-63 56 -141.5 88t-178.5 42q-48 5 -87 5
q-63 0 -101 -11q-4 -1 -10.5 2.5t-7.5 9.5q-3 14 6 20q19 12 79.5 25t112.5 13q140 0 245.5 -32.5t192.5 -107.5l182 90l38 -72l-158 -78q41 -48 70 -90q95 -138 133 -293q33 -133 33 -321zM960 402q0 156 -144 296q-148 144 -324 144q-138 0 -235 -94t-97 -222
q0 -186 148 -331q144 -141 316 -141q137 0 232 89q104 97 104 259z" />
    <glyph glyph-name="ntilde" unicode="&#xf1;" horiz-adv-x="1124" 
d="M970 614q0 -148 -52 -283.5t-154 -250.5q3 0 10.5 -0.5t20.5 -0.5q31 0 58 3.5t53 20.5q26 21 34 27q2 2 6 3q3 1 4 1q11 0 6 -18q-2 -15 -4 -36t-2 -28q0 -15 1 -31.5t3 -34.5q4 -20 -8 -20q-5 0 -10 4q-30 17 -42 22q-23 9 -43.5 12t-63.5 3q-29 0 -46 -1t-45 -6
q-29 -5 -29 18q0 7 3 12q54 84 84 139q47 87 70 162q28 92 28 187q0 157 -70 255q-73 103 -198 103q-84 0 -151 -47q-60 -42 -99 -117v-614q0 -18 22 -37q19 -16 38 -31q11 -11 11 -20q0 -10 -17 -10q-5 0 -45 3t-73 3q-38 0 -60.5 -2t-51.5 -4q-24 0 -24 11q0 7 9 17t29 26
q34 26 34 44v592q0 85 -51 138q-22 23 -77 52q-8 4 -8 11t6 13q13 12 22 19.5t23 21.5t22 23t15 18q4 5 11 5q6 0 9 -3q36 -29 76 -81q55 -71 64 -123q44 72 107 125q94 79 191 79q180 0 277 -135q77 -107 77 -239zM847 1284q-14 -65 -56 -119q-50 -65 -110 -65
q-70 0 -157 78t-107 78q-43 0 -69.5 -43.5t-26.5 -110.5l-74 68q22 68 58 116q49 66 108 66q58 0 117 -49q128 -107 147 -107q43 0 69.5 43.5t26.5 110.5z" />
    <glyph glyph-name="ograve" unicode="&#xf2;" horiz-adv-x="1174" 
d="M1092 472q0 -210 -154 -359q-150 -145 -354 -145q-215 0 -362.5 149.5t-147.5 364.5q0 209 150.5 357.5t361.5 148.5q212 0 359 -151t147 -365zM1006 428q0 165 -152 314q-157 154 -344 154q-146 0 -248 -100t-102 -236q0 -197 155 -350q152 -150 335 -150q145 0 246 94
q110 103 110 274zM766 1115q-6 -12 -13.5 -19.5t-14.5 -0.5q-45 25 -70 39q-102 58 -132 73q-66 36 -121 67q-46 26 -53.5 29t-7.5 8q0 4 10 14t15 16q9 11 15 20l28 50q5 6 11 6q5 0 9 -4q26 -26 146 -130q12 -11 115 -100q36 -31 57 -52q9 -9 6 -16z" />
    <glyph glyph-name="oacute" unicode="&#xf3;" horiz-adv-x="1174" 
d="M1092 472q0 -210 -154 -359q-150 -145 -354 -145q-215 0 -362.5 149.5t-147.5 364.5q0 209 150.5 357.5t361.5 148.5q212 0 359 -151t147 -365zM1006 428q0 165 -152 314q-157 154 -344 154q-146 0 -248 -100t-102 -236q0 -197 155 -350q152 -150 335 -150q145 0 246 94
q110 103 110 274zM800 1313q-11 -5 -52 -28q-80 -45 -122.5 -67.5t-78.5 -42.5q-15 -8 -123 -70q-7 -7 -14.5 0.5t-13.5 19.5q-3 7 6 16q19 19 78 69.5t94 82.5q28 24 80 70t66 60q4 4 9 4q6 0 11 -6l28 -50q9 -14 18 -24l12 -12q10 -10 10 -14q0 -5 -8 -8z" />
    <glyph glyph-name="ocircumflex" unicode="&#xf4;" horiz-adv-x="1174" 
d="M1092 472q0 -210 -154 -359q-150 -145 -354 -145q-215 0 -362.5 149.5t-147.5 364.5q0 209 150.5 357.5t361.5 148.5q212 0 359 -151t147 -365zM1006 428q0 165 -152 314q-157 154 -344 154q-146 0 -248 -100t-102 -236q0 -197 155 -350q152 -150 335 -150q145 0 246 94
q110 103 110 274zM882 1104q3 -2 0 -5t-8 -3q-7 1 -18.5 1.5t-17.5 0.5q-8 0 -17 -0.5t-18 -0.5q-7 0 -11 1q-18 0 -24 6q-35 32 -90 76.5t-108 83.5q-42 -31 -107 -83q-51 -41 -91 -77q-6 -6 -20 -6q-6 -1 -19 -1q-21 1 -31 1l-38 -2q-5 0 -7 1q-5 3 -1 7q61 51 122 108
q36 35 50 48q63 60 106 112h72q50 -56 59.5 -66.5t44.5 -44.5t69 -66q46 -44 103 -91z" />
    <glyph glyph-name="otilde" unicode="&#xf5;" horiz-adv-x="1174" 
d="M1092 472q0 -210 -154 -359q-150 -145 -354 -145q-215 0 -362.5 149.5t-147.5 364.5q0 209 150.5 357.5t361.5 148.5q212 0 359 -151t147 -365zM1006 428q0 165 -152 314q-157 154 -344 154q-146 0 -248 -100t-102 -236q0 -197 155 -350q152 -150 335 -150q145 0 246 94
q110 103 110 274zM857 1279q-14 -65 -56 -119q-50 -65 -110 -65q-70 0 -157 78t-107 78q-43 0 -69.5 -43.5t-26.5 -110.5l-74 68q22 68 58 116q49 66 108 66q58 0 117 -49q128 -107 147 -107q43 0 69.5 43.5t26.5 110.5z" />
    <glyph glyph-name="odieresis" unicode="&#xf6;" horiz-adv-x="1174" 
d="M1092 472q0 -210 -154 -359q-150 -145 -354 -145q-215 0 -362.5 149.5t-147.5 364.5q0 209 150.5 357.5t361.5 148.5q212 0 359 -151t147 -365zM1006 428q0 165 -152 314q-157 154 -344 154q-146 0 -248 -100t-102 -236q0 -197 155 -350q152 -150 335 -150q145 0 246 94
q110 103 110 274zM816 1190q0 -34 -25 -57t-61 -23q-35 0 -58.5 24.5t-23.5 59.5q0 34 25 58t61 24q34 0 58 -25t24 -61zM512 1190q0 -34 -25 -57t-61 -23q-35 0 -58.5 24.5t-23.5 59.5q0 34 25 58t61 24q34 0 58 -25t24 -61z" />
    <glyph glyph-name="divide" unicode="&#xf7;" horiz-adv-x="800" 
d="M714 596h-624v80h624v-80zM402 948q32 0 54 -22t22 -54t-22 -54t-54 -22t-54 22t-22 54t22 54t54 22zM402 476q32 0 54 -22t22 -54t-22 -54t-54 -22t-54 22t-22 54t22 54t54 22z" />
    <glyph glyph-name="oslash" unicode="&#xf8;" horiz-adv-x="1174" 
d="M1170 1044q-46 -25 -87 -57.5t-85 -80.5q-13 -13 -28 -32t-28 -36q69 -69 109.5 -165.5t40.5 -200.5q0 -210 -154 -359q-150 -145 -354 -145q-81 0 -154.5 24.5t-139.5 71.5l-40 -42q-59 -59 -113.5 -94t-88.5 -38q-15 0 -31 5.5t-16 11.5q0 4 7 7q44 23 84 57
q36 30 82 81q26 26 56 62q-74 72 -115 167t-41 201q0 209 150.5 357.5t361.5 148.5q165 0 298 -98l44 46q59 59 113.5 94t88.5 38q15 0 31 -5.5t16 -11.5q0 -4 -7 -7zM1006 428q0 76 -39.5 155t-108.5 151l-484 -574q62 -47 133.5 -73.5t142.5 -26.5q145 0 246 94
q110 103 110 274zM798 788q-67 51 -136 78q-77 30 -152 30q-146 0 -248 -100t-102 -236q0 -96 42 -189q39 -86 110 -157z" />
    <glyph glyph-name="ugrave" unicode="&#xf9;" horiz-adv-x="1152" 
d="M1028 64q-2 -3 -25 -21q-10 -8 -23 -21t-23 -25q-2 -3 -13 -17q-4 -7 -10 -7t-14 5q-39 25 -73 66q-49 60 -49 122q-33 -69 -104 -125q-91 -71 -192 -71q-183 0 -282 121q-86 105 -86 265q0 93 23 176q19 70 57 145q14 27 70 125q5 11 -14 24q-12 8 -46 22l-36 18
q-8 3 -8 10t16.5 11t34.5 8q31 7 67.5 20.5t68.5 30.5t63 34q8 3 11 3q4 0 7 -5q4 -5 1 -14.5t-7 -13.5q-89 -115 -137 -233q-57 -139 -57 -279q0 -160 73.5 -263t196.5 -103q84 0 162.5 51t107.5 123v612q0 18 -25 41q-20 16 -39 33q-6 6 -6 12q0 12 20 12q11 0 58 -3
t56 -3q41 0 63.5 1.5t52.5 4.5q18 0 18 -13q0 -7 -6 -13q-23 -18 -37 -30q-27 -23 -27 -42v-590q0 -84 43 -133q14 -16 65 -49q7 -4 7 -13q0 -4 -3 -9zM786 1110q-6 -12 -13.5 -19.5t-14.5 -0.5q-45 25 -70 39q-102 58 -132 73q-66 36 -121 67q-46 26 -53.5 29t-7.5 8
q0 4 10 14t15 16q9 11 15 20l28 50q5 6 11 6q5 0 9 -4q26 -26 146 -130q12 -11 115 -100q36 -31 57 -52q9 -9 6 -16z" />
    <glyph glyph-name="uacute" unicode="&#xfa;" horiz-adv-x="1152" 
d="M1028 64q-2 -3 -25 -21q-10 -8 -23 -21t-23 -25q-2 -3 -13 -17q-4 -7 -10 -7t-14 5q-39 25 -73 66q-49 60 -49 122q-33 -69 -104 -125q-91 -71 -192 -71q-183 0 -282 121q-86 105 -86 265q0 93 23 176q19 70 57 145q14 27 70 125q5 11 -14 24q-12 8 -46 22l-36 18
q-8 3 -8 10t16.5 11t34.5 8q31 7 67.5 20.5t68.5 30.5t63 34q8 3 11 3q4 0 7 -5q4 -5 1 -14.5t-7 -13.5q-89 -115 -137 -233q-57 -139 -57 -279q0 -160 73.5 -263t196.5 -103q84 0 162.5 51t107.5 123v612q0 18 -25 41q-20 16 -39 33q-6 6 -6 12q0 12 20 12q11 0 58 -3
t56 -3q41 0 63.5 1.5t52.5 4.5q18 0 18 -13q0 -7 -6 -13q-23 -18 -37 -30q-27 -23 -27 -42v-590q0 -84 43 -133q14 -16 65 -49q7 -4 7 -13q0 -4 -3 -9zM870 1293q-11 -5 -52 -28q-80 -45 -122.5 -67.5t-78.5 -42.5q-15 -8 -123 -70q-7 -7 -14.5 0.5t-13.5 19.5q-3 7 6 16
q19 19 78 69.5t94 82.5q28 24 80 70t66 60q4 4 9 4q6 0 11 -6l28 -50q9 -14 18 -24l12 -12q10 -10 10 -14q0 -5 -8 -8z" />
    <glyph glyph-name="ucircumflex" unicode="&#xfb;" horiz-adv-x="1152" 
d="M1028 64q-2 -3 -25 -21q-10 -8 -23 -21t-23 -25q-2 -3 -13 -17q-4 -7 -10 -7t-14 5q-39 25 -73 66q-49 60 -49 122q-33 -69 -104 -125q-91 -71 -192 -71q-183 0 -282 121q-86 105 -86 265q0 93 23 176q19 70 57 145q14 27 70 125q5 11 -14 24q-12 8 -46 22l-36 18
q-8 3 -8 10t16.5 11t34.5 8q31 7 67.5 20.5t68.5 30.5t63 34q8 3 11 3q4 0 7 -5q4 -5 1 -14.5t-7 -13.5q-89 -115 -137 -233q-57 -139 -57 -279q0 -160 73.5 -263t196.5 -103q84 0 162.5 51t107.5 123v612q0 18 -25 41q-20 16 -39 33q-6 6 -6 12q0 12 20 12q11 0 58 -3
t56 -3q41 0 63.5 1.5t52.5 4.5q18 0 18 -13q0 -7 -6 -13q-23 -18 -37 -30q-27 -23 -27 -42v-590q0 -84 43 -133q14 -16 65 -49q7 -4 7 -13q0 -4 -3 -9zM922 1109q3 -2 0 -5t-8 -3q-7 1 -18.5 1.5t-17.5 0.5q-8 0 -17 -0.5t-18 -0.5q-7 0 -11 1q-18 0 -24 6q-35 32 -90 76.5
t-108 83.5q-42 -31 -107 -83q-51 -41 -91 -77q-6 -6 -20 -6q-6 -1 -19 -1q-21 1 -31 1l-38 -2q-5 0 -7 1q-5 3 -1 7q61 51 122 108q36 35 50 48q63 60 106 112h72q50 -56 59.5 -66.5t44.5 -44.5t69 -66q46 -44 103 -91z" />
    <glyph glyph-name="udieresis" unicode="&#xfc;" horiz-adv-x="1152" 
d="M1028 64q-2 -3 -25 -21q-10 -8 -23 -21t-23 -25q-2 -3 -13 -17q-4 -7 -10 -7t-14 5q-39 25 -73 66q-49 60 -49 122q-33 -69 -104 -125q-91 -71 -192 -71q-183 0 -282 121q-86 105 -86 265q0 93 23 176q19 70 57 145q14 27 70 125q5 11 -14 24q-12 8 -46 22l-36 18
q-8 3 -8 10t16.5 11t34.5 8q31 7 67.5 20.5t68.5 30.5t63 34q8 3 11 3q4 0 7 -5q4 -5 1 -14.5t-7 -13.5q-89 -115 -137 -233q-57 -139 -57 -279q0 -160 73.5 -263t196.5 -103q84 0 162.5 51t107.5 123v612q0 18 -25 41q-20 16 -39 33q-6 6 -6 12q0 12 20 12q11 0 58 -3
t56 -3q41 0 63.5 1.5t52.5 4.5q18 0 18 -13q0 -7 -6 -13q-23 -18 -37 -30q-27 -23 -27 -42v-590q0 -84 43 -133q14 -16 65 -49q7 -4 7 -13q0 -4 -3 -9zM901 1175q0 -34 -25 -57t-61 -23q-35 0 -58.5 24.5t-23.5 59.5q0 34 25 58t61 24q34 0 58 -25t24 -61zM597 1175
q0 -34 -25 -57t-61 -23q-35 0 -58.5 24.5t-23.5 59.5q0 34 25 58t61 24q34 0 58 -25t24 -61z" />
    <glyph glyph-name="yacute" unicode="&#xfd;" horiz-adv-x="1130" 
d="M978 928q-24 -21 -37 -32q-25 -22 -25 -38v-804q0 -222 -124 -361q-118 -133 -294 -133q-79 0 -126 20q-62 26 -62 84q0 43 46 69.5t82 22.5q15 0 15 -11q0 -4 -4.5 -10.5t-7.5 -12.5q-6 -12 -6 -23q0 -8 3 -17q7 -27 33 -42.5t59 -15.5q122 0 193 109q65 100 65 255v178
q-33 -69 -101 -125q-87 -71 -185 -71q-183 0 -282 121q-86 105 -86 265q0 93 23 173q19 66 57 139q3 6 70 122q5 11 -14 24q-12 8 -46 22l-36 18q-8 3 -8 10t17.5 11t35.5 8q31 7 68 21t67.5 30.5t61.5 33.5q6 3 11 3q12 0 12 -11q0 -3 -4 -10.5t-17 -24.5q-8 -11 -20 -27
q-77 -107 -117 -210q-47 -122 -47 -250q0 -160 73.5 -263t196.5 -103q86 0 161 49.5t109 124.5v612q0 19 -22 39q-20 16 -40 33q-7 7 -7 15q0 11 17 11q5 0 44 -3t72 -3q39 0 61.5 1.5t52.5 4.5q20 0 20 -12q0 -8 -8 -16zM935 1323q-11 -5 -52 -28q-80 -45 -122.5 -67.5
t-78.5 -42.5q-15 -8 -123 -70q-7 -7 -14.5 0.5t-13.5 19.5q-3 7 6 16q19 19 78 69.5t94 82.5q28 24 80 70t66 60q4 4 9 4q6 0 11 -6l28 -50q9 -14 18 -24l12 -12q10 -10 10 -14q0 -5 -8 -8z" />
    <glyph glyph-name="thorn" unicode="&#xfe;" horiz-adv-x="1130" 
d="M1034 586q0 -265 -147 -445q-142 -173 -333 -173q-69 0 -125 26q-45 21 -105 74v-214q0 -58 22 -93q24 -28 48 -57q-1 -5 -41.5 -22.5t-78.5 -41.5q-29 -19 -82 -62q-29 -24 -38 -18q-6 5 -6 12q19 52 33.5 108t14.5 114v1374q0 29 -2 46t-24 14q-12 -1 -50 -28
q-19 -13 -27 -13q-6 0 -9 5q-6 7 122 138q21 21 91 100q25 28 35 22q4 -3 4 -9q-5 -27 -8.5 -76t-3.5 -109v-488q39 78 103 134q96 84 219 84q124 0 219 -73q79 -61 127 -163q42 -90 42 -166zM900 514q0 144 -80 253q-84 115 -208 115q-103 0 -181 -65q-64 -53 -107 -145
v-582l40 38q17 17 37 43.5t31 20.5q3 -2 0 -29.5t-3 -34.5q0 -14 1.5 -23t5.5 -17q13 -26 50.5 -44t77.5 -18q152 0 244 135t92 353z" />
    <glyph glyph-name="ydieresis" unicode="&#xff;" horiz-adv-x="1130" 
d="M978 928q-24 -21 -37 -32q-25 -22 -25 -38v-804q0 -222 -124 -361q-118 -133 -294 -133q-79 0 -126 20q-62 26 -62 84q0 43 46 69.5t82 22.5q15 0 15 -11q0 -4 -4.5 -10.5t-7.5 -12.5q-6 -12 -6 -23q0 -8 3 -17q7 -27 33 -42.5t59 -15.5q122 0 193 109q65 100 65 255v178
q-33 -69 -101 -125q-87 -71 -185 -71q-183 0 -282 121q-86 105 -86 265q0 93 23 173q19 66 57 139q3 6 70 122q5 11 -14 24q-12 8 -46 22l-36 18q-8 3 -8 10t17.5 11t35.5 8q31 7 68 21t67.5 30.5t61.5 33.5q6 3 11 3q12 0 12 -11q0 -3 -4 -10.5t-17 -24.5q-8 -11 -20 -27
q-77 -107 -117 -210q-47 -122 -47 -250q0 -160 73.5 -263t196.5 -103q86 0 161 49.5t109 124.5v612q0 19 -22 39q-20 16 -40 33q-7 7 -7 15q0 11 17 11q5 0 44 -3t72 -3q39 0 61.5 1.5t52.5 4.5q20 0 20 -12q0 -8 -8 -16zM886 1190q0 -34 -25 -57t-61 -23q-35 0 -58.5 24.5
t-23.5 59.5q0 34 25 58t61 24q34 0 58 -25t24 -61zM582 1190q0 -34 -25 -57t-61 -23q-35 0 -58.5 24.5t-23.5 59.5q0 34 25 58t61 24q34 0 58 -25t24 -61z" />
    <glyph glyph-name="dotlessi" unicode="&#x131;" horiz-adv-x="560" 
d="M404 8q-1 -9 -21 -9q-33 3 -58 5t-55 2q-33 0 -83 -5q-20 -2 -31 -2q-19 0 -20 9q-3 14 33.5 42.5t36.5 47.5v672q0 49 -25 68q-28 12 -55 24q0 8 12 16q43 22 84 48q33 20 73 50t51 24q3 -2 3 -10q-6 -44 -10.5 -95t-4.5 -103v-694q0 -20 36.5 -48.5t33.5 -41.5z" />
    <glyph glyph-name="Lslash" unicode="&#x141;" horiz-adv-x="1182" 
d="M1168 314q0 -147 -102.5 -246.5t-253.5 -99.5q-73 0 -159 29q-193 65 -257 65q-72 0 -116.5 -18.5t-73.5 -55.5q-7 -8 -12 -8t-11 9.5t-13 20.5q-11 16 -24 26q-17 15 -37 23q-5 2 -29 9q-10 1 -10 5q0 1 8 9q96 66 144 162q40 80 40 174v256l-128 -74l-48 80l176 100
v522q0 19 -29 43q-23 17 -45 35q-6 6 -2 13t16 7q10 1 60 -2.5t70 -3.5q40 0 81.5 3t46.5 3q19 0 19 -12q0 -5 -5 -10q-28 -20 -43 -32q-29 -24 -29 -44v-468l242 138l46 -78l-288 -166v-218q0 -140 -62 -264q-46 -92 -116 -158q52 34 112 57q76 29 142 29q69 0 250 -65
q86 -31 158 -31q91 0 152 59q66 64 66 171q0 113 -56.5 184.5t-149.5 71.5q-61 0 -98.5 -28.5t-37.5 -77.5q0 -40 22 -58q17 -14 46 -14q26 3 42 12q6 3 9 0q3 -2 1 -10q-8 -34 -40.5 -59t-73.5 -25q-63 0 -102.5 42.5t-39.5 113.5q0 83 71 134.5t163 51.5
q133 0 220.5 -95.5t87.5 -236.5z" />
    <glyph glyph-name="lslash" unicode="&#x142;" horiz-adv-x="560" 
d="M498 752l-164 -96v-558q0 -20 36.5 -48.5t33.5 -41.5q-1 -9 -21 -9q-33 3 -58 5t-55 2q-33 0 -83 -5q-20 -2 -31 -2q-19 0 -20 9q-3 14 33.5 42.5t36.5 47.5v498l-122 -74l-40 76l162 92v478q0 29 -2 46t-24 14q-12 -1 -50 -28q-19 -13 -27 -13q-6 0 -9 5q-6 7 122 138
q21 21 91 100q25 28 35 22q4 -3 4 -9q-5 -27 -8.5 -76t-3.5 -109v-506l122 72z" />
    <glyph glyph-name="OE" unicode="&#x152;" horiz-adv-x="2420" 
d="M2404 1164q0 -85 -52.5 -147t-159.5 -113q-80 -38 -189 -62q-57 -12 -192.5 -33t-196.5 -37q-103 -28 -199 -100q-80 -61 -129 -132q31 -180 176 -324q161 -160 362 -160q144 0 243 55t99 145q0 30 -6 53q-2 8 -12 31q-5 17 11 17q4 0 7 -1q27 -6 50 -30q30 -32 30 -76
q0 -127 -146 -208q-133 -74 -314 -74q-177 0 -309 73q-103 57 -184 162q-46 60 -99 161q-80 -175 -213 -279q-147 -115 -325 -115q-254 0 -416 220q-150 204 -150 486q0 227 83 399q80 166 215 235q5 2 13.5 6t14.5 0q4 -3 4 -8q0 -8 -5 -14.5t-9 -9.5q-57 -51 -89 -100
q-48 -74 -72 -178q-29 -124 -29 -310q0 -239 145 -425q150 -193 355 -193q189 0 307 135q129 148 129 417q0 287 -150 512q-144 216 -310 216q-67 0 -106.5 -33.5t-39.5 -88.5q0 -32 19 -58.5t50 -26.5q7 0 15 1t18.5 8.5t15.5 15.5q6 20 8 26q3 7 9 7q7 0 11 -7
q8 -14 8 -46v-10q-2 -7 -2 -10q-6 -38 -36 -64t-72 -26q-64 0 -105 48t-41 116q0 101 87 164q78 56 183 56q169 0 301 -106q123 -99 191 -272q83 165 237 268q164 110 357 110q125 0 214 -48q100 -54 100 -144q0 -46 -29 -79t-79 -41q-6 -1 -21 -1q-38 0 -61 15q-9 6 -9 11
t9 11q17 10 27 24q17 22 21 52q1 4 1 7v7q0 55 -69 87q-58 27 -132 27q-115 0 -211.5 -47.5t-170.5 -138.5q-69 -85 -100 -194.5t-31 -240.5q0 -26 1.5 -56.5t5.5 -68.5q37 52 114 120q103 91 194 126q79 30 163 46q47 9 160 23t181 27q110 21 168 51q90 47 90 123
q0 52 -30 70q-4 3 -13 4t-11 1q-11 0 -19 -1.5t-19 -3.5q-7 0 -7 6q0 4 3 10q9 21 26 35q22 19 48 19q42 0 66 -31.5t24 -72.5z" />
    <glyph glyph-name="oe" unicode="&#x153;" horiz-adv-x="1910" 
d="M1890 212q-26 -85 -125 -159q-116 -87 -253 -87q-88 0 -156 19q-78 22 -148 75q-28 -36 -51 -76q-29 -51 -29 -74q0 -28 15 -39q10 -7 33 -7q5 0 12 2.5t10 3.5q15 5 15 -7q0 -7 -1 -11q-7 -32 -36 -53q-20 -15 -44 -15q-34 0 -56 25t-22 65q0 32 22 78q6 13 86 142
q-35 35 -65.5 79t-50.5 89q-63 -133 -189.5 -213.5t-272.5 -80.5q-215 0 -362.5 149.5t-147.5 364.5q0 209 150.5 357.5t361.5 148.5q154 0 279 -84q121 -81 181 -218q59 136 171 217q118 85 263 85q81 0 166 -39q47 -23 94 -45q9 -4 26 -6t34 -2h26q14 0 14 -6t-14 -18
q-20 -17 -32 -27q-20 -17 -40 -39q-97 -108 -225 -283t-241 -351q59 -42 120 -65q72 -27 150 -27q108 0 178 41q51 30 114 107q6 9 14 19.5t18 8.5q13 -3 13 -19q0 -12 -5 -25zM1616 802q0 59 -64 92q-54 28 -130 28q-142 0 -234 -121q-86 -114 -86 -271q0 -93 45 -186
q38 -79 95 -134q68 101 106 157q61 90 104 151l110 156q54 84 54 128zM1006 428q0 165 -152 314q-157 154 -344 154q-146 0 -248 -100t-102 -236q0 -197 155 -350q152 -150 335 -150q145 0 246 94q110 103 110 274z" />
    <glyph glyph-name="Scaron" unicode="&#x160;" horiz-adv-x="1178" 
d="M1102 448q0 -210 -176 -349q-166 -131 -394 -131q-208 0 -351 100q-159 112 -159 304q0 135 110.5 231.5t265.5 96.5q151 0 245 -58q105 -65 105 -184q0 -87 -70.5 -144.5t-163.5 -57.5q-85 0 -143 32q-69 38 -69 108q0 42 35 70q27 22 48 25t23 3q8 0 8 -6l-4 -12
q-1 -2 -4 -12q-6 -20 -6 -44q0 -31 31.5 -53.5t68.5 -22.5q62 0 103 38t41 94q0 84 -83 131q-72 41 -173 41q-129 0 -223 -76q-99 -80 -99 -200q0 -156 149 -250q133 -84 317 -84q187 0 321 116q139 120 139 298q0 97 -46 170q-40 64 -123 123q-57 41 -173 101
q-148 70 -295 141q-149 87 -149 205q0 117 119 182q103 56 251 56q113 0 179 -25q91 -34 91 -113q0 -32 -25.5 -57.5t-45 -27.5t-28.5 -2q-22 0 -37 7q-11 8 -11 10q0 5 7 12q14 14 20 29.5t6 32.5q0 49 -54 74q-43 20 -108 20q-105 0 -175 -33q-85 -40 -85 -115
q0 -55 61 -101q43 -32 150 -79q159 -69 185 -82q134 -65 204 -119q94 -72 139 -163q51 -103 51 -250zM832 1784q-48 -40 -102 -91q-49 -47 -68 -65q-37 -36 -60 -60q-2 -2 -46 -52h-72q-43 52 -106 112q-35 33 -69 66q-46 43 -103 90q-3 3 -1 5q2 3 9 3l38 -2q21 1 31 1
q13 0 19 -1q14 0 20 -6q35 -32 90 -76q65 -52 108 -84q36 26 79 60q71 56 119 100q6 6 24 6q5 1 17 1q20 -1 29 -1h14h12q7 2 10 2q6 0 8 -2q3 -3 0 -6z" />
    <glyph glyph-name="scaron" unicode="&#x161;" horiz-adv-x="996" 
d="M894 322q0 -158 -137 -259q-128 -95 -305 -95q-150 0 -249 49q-121 60 -121 177q0 89 65.5 150.5t156.5 61.5q94 0 153 -34q67 -39 67 -110q0 -45 -32.5 -78.5t-77.5 -33.5q-43 0 -62 16q-5 5 -5 8q0 7 13 10q17 6 28.5 21t11.5 47q0 29 -31 47.5t-67 18.5
q-71 0 -119.5 -34t-48.5 -94q0 -84 107 -130q89 -38 211 -38q127 0 222 57q112 67 112 181t-82 169q-51 34 -194 69q-82 18 -163 37q-92 25 -135 65q-56 52 -56 146q0 107 113 177q104 65 239 65q122 0 197 -31q99 -41 99 -127q0 -55 -53 -91q-49 -33 -113 -33
q-61 0 -102 23q-50 28 -50 80q0 27 18.5 47.5t41.5 27.5q10 2 11 2q7 0 7 -10l-2 -20q0 -22 14 -36q18 -18 58 -18q26 0 45 18t19 42q0 45 -65 64q-48 14 -125 14q-96 0 -173 -43q-85 -48 -85 -119q0 -64 56 -100q35 -23 224 -66q117 -27 180 -52q88 -35 132 -86
q52 -60 52 -152zM812 1379q-48 -40 -102 -91q-49 -47 -68 -65q-37 -36 -60 -60q-2 -2 -46 -52h-72q-43 52 -106 112q-35 33 -69 66q-46 43 -103 90q-3 3 -1 5q2 3 9 3l38 -2q21 1 31 1q13 0 19 -1q14 0 20 -6q35 -32 90 -76q65 -52 108 -84q36 26 79 60q71 56 119 100
q6 6 24 6q5 1 17 1q20 -1 29 -1h14h12q7 2 10 2q6 0 8 -2q3 -3 0 -6z" />
    <glyph glyph-name="Ydieresis" unicode="&#x178;" horiz-adv-x="1260" 
d="M1186 1382q-7 -10 -16 -29q-22 -48 -34 -123q-5 -29 -26.5 -184.5t-41.5 -273.5q-26 -156 -60 -292q-54 -219 -117 -377q-81 -203 -177 -312q-114 -129 -252 -129q-82 0 -137 39q-59 42 -59 111q0 28 10.5 54.5t25.5 37.5q8 3 12 3q9 0 12 -11q1 -13 2.5 -23t5.5 -23
q10 -24 40 -39q37 -19 92 -19q93 0 191 115q83 97 158 259q63 135 99 268q-53 -102 -152 -173q-104 -75 -206 -75q-186 0 -290 156q-96 144 -96 378q0 112 48 240q37 99 102 206q34 57 92 136q-49 0 -113 22t-99 22q-21 0 -42.5 -13.5t-21.5 -34.5q0 -48 30 -48q15 0 24 12
q4 6 10 20q6 9 12 0q6 -12 6 -28q0 -29 -19.5 -49.5t-48.5 -20.5q-27 0 -46 22t-19 60q1 9 1 14q5 47 44 83q43 39 104 39q31 0 112 -17q43 -9 70 -9q28 0 52 14q16 9 28 24q5 5 9 6t9 -2q7 -4 12.5 -10t9.5 -10q2 -11 -2 -16q-48 -53 -79 -97q-64 -92 -103 -203
q-52 -149 -52 -314q0 -206 75 -326q82 -130 235 -130q159 0 261 145q87 123 127 343q22 122 22 252q0 138 -22 218q-11 39 -31 73q-15 25 -31 41q-5 5 -5 9q0 7 19 7q29 -5 56 -8.5t52 -3.5q31 0 71 6t47 6q15 3 15 -6q0 -5 -5 -12zM1026 1600q0 -34 -25 -57t-61 -23
q-35 0 -58.5 24.5t-23.5 59.5q0 34 25 58t61 24q34 0 58 -25t24 -61zM722 1600q0 -34 -25 -57t-61 -23q-35 0 -58.5 24.5t-23.5 59.5q0 34 25 58t61 24q34 0 58 -25t24 -61z" />
    <glyph glyph-name="Zcaron" unicode="&#x17d;" horiz-adv-x="1238" 
d="M1184 256q0 -122 -98 -205t-240 -83q-81 0 -165 33.5t-161 66.5q-94 36 -174 36q-86 0 -167 -54q-76 -63 -95 -78q-8 -7 -15 -7q-8 0 -10.5 11t-2.5 31q0 49 17 120.5t45 130.5q65 139 182 259q68 70 244 211q186 149 282 242q87 83 151 183q56 88 73 153
q-58 -35 -112 -56q-74 -28 -142 -28q-73 0 -149 27t-150 54t-141 27q-74 0 -128 -46.5t-54 -121.5q0 -51 29.5 -87.5t73.5 -36.5q31 0 52.5 18.5t21.5 47.5q0 8 -1 12q-4 25 -19 33.5t-33 8.5q-9 0 -9 6q0 3 5 10q9 11 30 20.5t42 9.5q45 0 74.5 -28.5t29.5 -77.5
q0 -56 -54 -99t-120 -43q-81 0 -127.5 61t-46.5 159q0 107 115 183q108 71 243 71q70 0 141.5 -27l143 -54t143.5 -27q80 0 136 41q28 20 56 61q6 7 14 7q4 0 10 -3l30 -16q7 -4 7 -12q0 -6 -1 -10q-7 -42 -53 -142q-51 -111 -101 -180q-63 -90 -192 -203q-61 -53 -236 -193
q-146 -117 -196 -170q-79 -84 -109 -121q-47 -58 -75 -118q-31 -66 -46 -151q60 51 115 78q73 36 147 36q93 0 193 -41q83 -39 167 -77q97 -42 174 -42q63 0 103 33q47 39 47 111q0 50 -34 85t-86 35q-56 0 -78 -28q-14 -18 -14 -46q0 -11 -10 -11q-4 0 -10 3q-14 11 -23 31
t-9 43q0 60 47 99t111 39q81 0 136.5 -60.5t55.5 -143.5zM950 1784q-48 -40 -102 -91q-49 -47 -68 -65q-37 -36 -60 -60q-2 -2 -46 -52h-72q-43 52 -106 112q-35 33 -69 66q-46 43 -103 90q-3 3 -1 5q2 3 9 3l38 -2q21 1 31 1q13 0 19 -1q14 0 20 -6q35 -32 90 -76
q65 -52 108 -84q36 26 79 60q71 56 119 100q6 6 24 6q5 1 17 1q20 -1 29 -1h14h12q7 2 10 2q6 0 8 -2q3 -3 0 -6z" />
    <glyph glyph-name="zcaron" unicode="&#x17e;" horiz-adv-x="968" 
d="M876 206q0 -96 -81.5 -160t-188.5 -64q-50 0 -190 45q-65 21 -120 21q-52 0 -93.5 -14t-86.5 -42q-5 -3 -9 -3q-6 0 -9 5l-12 14q-5 5 -5 12q0 3 3 8q11 16 20.5 34t15.5 30q31 68 63.5 138.5t58.5 119.5q32 58 78 130q88 133 159 217t189 191q-36 4 -80 4
q-83 0 -159.5 -17t-138.5 -45t-123 -71q-22 -16 -43 -31q-8 -5 -12 -5t-5 4q1 8 3 13q7 16 26 50q31 54 42 76q17 34 42 88q15 33 20 40q3 3 6 4t5 1q6 0 13 -7q12 -21 20 -27q23 -17 72 -17h494q21 0 21 -9q0 -6 -9 -13q-83 -76 -97 -90q-53 -51 -118 -119
q-69 -73 -115 -131q-97 -126 -173 -252q-79 -131 -115 -228q30 19 55 27q32 11 73 11q49 0 111 -22q136 -48 179 -48q73 0 114.5 27.5t41.5 78.5q0 28 -18 50t-44 22q-20 0 -33.5 -10.5t-20 -25t-6.5 -34.5q0 -7 -5 -9t-11 1q-16 8 -28 31t-12 51q0 42 34 70t80 28
q54 0 88 -44.5t34 -103.5zM837 1379q-48 -40 -102 -91q-49 -47 -68 -65q-37 -36 -60 -60q-2 -2 -46 -52h-72q-43 52 -106 112q-35 33 -69 66q-46 43 -103 90q-3 3 -1 5q2 3 9 3l38 -2q21 1 31 1q13 0 19 -1q14 0 20 -6q35 -32 90 -76q65 -52 108 -84q36 26 79 60
q71 56 119 100q6 6 24 6q5 1 17 1q20 -1 29 -1h14h12q7 2 10 2q6 0 8 -2q3 -3 0 -6z" />
    <glyph glyph-name="florin" unicode="&#x192;" horiz-adv-x="720" 
d="M758 1134q-7 -42 -37.5 -71.5t-72.5 -29.5q-9 0 -14 1q-35 4 -59 26.5t-24 53.5q0 8 1 16t8 20.5t16 21.5q4 4 8 4q7 0 5.5 -14t8 -25t34.5 -11q17 -2 30 9.5t16 30.5q4 26 -15 46t-45 20q-10 1 -13 1q-47 0 -80 -45q-29 -39 -43 -104q-19 -87 -30.5 -152.5t-17.5 -105.5
q32 0 60.5 1t59.5 3q14 0 14 -14v-34q0 -16 -14 -16q-5 0 -48 2t-82 2l-116 -686q-32 -178 -107 -285q-58 -83 -137 -119q-53 -24 -104 -24q-9 0 -14 3q-6 4 -6 17v52q0 19 -4 34.5t-8 27.5q0 12 10 12q2 0 11.5 -3t21 -5.5t25.5 -2.5q55 0 97 55q58 77 89 254l112 670
q-32 0 -61 -1.5t-59 -2.5q-14 0 -14 16v32q0 16 18 16q5 0 49 -2t77 -2q8 43 12 69q13 74 26 127q30 129 92.5 191.5t157.5 62.5q25 0 38 -2q54 -7 91.5 -40.5t37.5 -81.5q0 -12 -1 -18z" />
    <glyph glyph-name="hungarumlaut" unicode="&#x2ba;" horiz-adv-x="1000" 
d="M862 1702q0 -7 -60 -38q-14 -7 -112 -60l-200 -110q-3 -2 -7.5 4.5t-6.5 7.5q-12 12 -6 18q9 8 80 70q51 45 90 82q43 42 80 80.5t44 35.5q5 -1 12 -10q15 -19 36 -38q15 -14 32.5 -25t17.5 -17zM598 1742q1 -5 -14 -16q-60 -42 -132 -94q-52 -39 -94 -72l-84 -66
q-2 -2 -5 0q-8 9 -11 12q-5 2 -9 6q-4 5 -1 8l142 170q24 28 88 107q20 25 26 23q5 0 18 -14t30.5 -28.5t35.5 -24.5q9 -5 10 -11z" />
    <glyph glyph-name="circumflex" unicode="&#x2c6;" horiz-adv-x="1000" 
d="M812 1524q3 -2 0 -5t-8 -3q-7 1 -18.5 1.5t-17.5 0.5q-8 0 -17 -0.5t-18 -0.5q-7 0 -11 1q-18 0 -24 6q-35 32 -90 76.5t-108 83.5q-42 -31 -107 -83q-51 -41 -91 -77q-6 -6 -20 -6q-6 -1 -19 -1q-21 1 -31 1l-38 -2q-5 0 -7 1q-5 3 -1 7q61 51 122 108q36 35 50 48
q63 60 106 112h72q50 -56 59.5 -66.5t44.5 -44.5t69 -66q46 -44 103 -91z" />
    <glyph glyph-name="caron" unicode="&#x2c7;" horiz-adv-x="1000" 
d="M812 1784q-48 -40 -102 -91q-49 -47 -68 -65q-37 -36 -60 -60q-2 -2 -46 -52h-72q-43 52 -106 112q-35 33 -69 66q-46 43 -103 90q-3 3 -1 5q2 3 9 3l38 -2q21 1 31 1q13 0 19 -1q14 0 20 -6q35 -32 90 -76q65 -52 108 -84q36 26 79 60q71 56 119 100q6 6 24 6q5 1 17 1
q20 -1 29 -1h14h12q7 2 10 2q6 0 8 -2q3 -3 0 -6z" />
    <glyph glyph-name="breve" unicode="&#x2d8;" horiz-adv-x="1000" 
d="M758 1788q0 -109 -74.5 -190.5t-183.5 -81.5t-183.5 81.5t-74.5 190.5h58q21 -86 89 -127q51 -31 111 -31q65 0 114 30q66 40 86 128h58z" />
    <glyph glyph-name="dotaccent" unicode="&#x2d9;" horiz-adv-x="1000" 
d="M588 1600q0 -35 -26.5 -59.5t-63.5 -24.5q-36 0 -61 26t-25 62t27 61t63 25t61 -27t25 -63z" />
    <glyph glyph-name="ring" unicode="&#x2da;" horiz-adv-x="1000" 
d="M720 1714q0 -92 -64 -156t-156 -64t-156 64t-64 156t64 157t156 65t156 -65t64 -157zM640 1714q0 59 -40.5 100.5t-99.5 41.5t-99.5 -41.5t-40.5 -100.5t40.5 -99.5t99.5 -40.5t99.5 40.5t40.5 99.5z" />
    <glyph glyph-name="ogonek" unicode="&#x2db;" horiz-adv-x="1000" 
d="M674 -296q0 -57 -53 -92q-48 -32 -115 -32q-93 0 -146.5 39t-53.5 117q0 73 61 147t179 147h70q-101 -70 -151 -129q-63 -74 -63 -149q0 -45 21 -76q27 -40 83 -40q37 0 61.5 19.5t24.5 46.5q0 30 -8.5 41.5t-23.5 18.5q-13 3 -13 8q0 4 10.5 11t26.5 7q42 0 66 -24
t24 -60z" />
    <glyph glyph-name="tilde" unicode="&#x2dc;" horiz-adv-x="1000" 
d="M802 1714q-14 -65 -56 -119q-50 -65 -110 -65q-70 0 -157 78t-107 78q-43 0 -69.5 -43.5t-26.5 -110.5l-74 68q22 68 58 116q49 66 108 66q58 0 117 -49q128 -107 147 -107q43 0 69.5 43.5t26.5 110.5z" />
    <glyph glyph-name="summation" unicode="&#x3a3;" 
d="M1372 1162q0 -135 -110.5 -231.5t-265.5 -96.5q-151 0 -245 58q-105 65 -105 184q0 87 70.5 144.5t163.5 57.5q85 0 143 -32q69 -38 69 -108q0 -42 -35 -70q-27 -22 -48 -25t-23 -3q-8 0 -8 6l4 12q1 2 5.5 17t4.5 39q0 31 -31.5 53.5t-68.5 22.5q-62 0 -103 -38t-41 -94
q0 -84 83 -131q72 -41 173 -41q129 0 223 76q99 80 99 200q0 156 -149 250q-133 84 -317 84q-187 0 -321 -116q-139 -120 -139 -298q0 -97 43 -168q38 -63 121 -121q60 -42 180 -104q137 -70 192 -110q97 -70 144 -158q56 -106 56 -263q0 -203 -176 -344
q-169 -136 -394 -136q-208 0 -351 100q-159 112 -159 304q0 135 110.5 231.5t265.5 96.5q151 0 245 -58q105 -65 105 -184q0 -87 -70.5 -144.5t-163.5 -57.5q-85 0 -143 32q-69 38 -69 108q0 42 35 70q27 22 48 25t23 3q8 0 8 -6l-4 -12q-1 -2 -4 -12q-6 -20 -6 -44
q0 -31 31.5 -53.5t68.5 -22.5q62 0 103 38t41 94q0 84 -83 131q-72 41 -173 41q-129 0 -223 -76q-99 -80 -99 -200q0 -156 149 -250q133 -84 317 -84q187 0 321 116q139 120 139 298q0 95 -48 172q-43 68 -125 126q-64 45 -171 94q-123 56 -183 99q-97 69 -148 162
q-61 112 -61 271q0 210 176 349q166 131 394 131q208 0 351 -100q159 -112 159 -304z" />
    <glyph glyph-name="Omega" unicode="&#x3a9;" 
d="M1372 1162q0 -135 -110.5 -231.5t-265.5 -96.5q-151 0 -245 58q-105 65 -105 184q0 87 70.5 144.5t163.5 57.5q85 0 143 -32q69 -38 69 -108q0 -42 -35 -70q-27 -22 -48 -25t-23 -3q-8 0 -8 6l4 12q1 2 5.5 17t4.5 39q0 31 -31.5 53.5t-68.5 22.5q-62 0 -103 -38t-41 -94
q0 -84 83 -131q72 -41 173 -41q129 0 223 76q99 80 99 200q0 156 -149 250q-133 84 -317 84q-187 0 -321 -116q-139 -120 -139 -298q0 -97 43 -168q38 -63 121 -121q60 -42 180 -104q137 -70 192 -110q97 -70 144 -158q56 -106 56 -263q0 -203 -176 -344
q-169 -136 -394 -136q-208 0 -351 100q-159 112 -159 304q0 135 110.5 231.5t265.5 96.5q151 0 245 -58q105 -65 105 -184q0 -87 -70.5 -144.5t-163.5 -57.5q-85 0 -143 32q-69 38 -69 108q0 42 35 70q27 22 48 25t23 3q8 0 8 -6l-4 -12q-1 -2 -4 -12q-6 -20 -6 -44
q0 -31 31.5 -53.5t68.5 -22.5q62 0 103 38t41 94q0 84 -83 131q-72 41 -173 41q-129 0 -223 -76q-99 -80 -99 -200q0 -156 149 -250q133 -84 317 -84q187 0 321 116q139 120 139 298q0 95 -48 172q-43 68 -125 126q-64 45 -171 94q-123 56 -183 99q-97 69 -148 162
q-61 112 -61 271q0 210 176 349q166 131 394 131q208 0 351 -100q159 -112 159 -304z" />
    <glyph glyph-name="pi" unicode="&#x3c0;" 
d="M1372 1162q0 -135 -110.5 -231.5t-265.5 -96.5q-151 0 -245 58q-105 65 -105 184q0 87 70.5 144.5t163.5 57.5q85 0 143 -32q69 -38 69 -108q0 -42 -35 -70q-27 -22 -48 -25t-23 -3q-8 0 -8 6l4 12q1 2 5.5 17t4.5 39q0 31 -31.5 53.5t-68.5 22.5q-62 0 -103 -38t-41 -94
q0 -84 83 -131q72 -41 173 -41q129 0 223 76q99 80 99 200q0 156 -149 250q-133 84 -317 84q-187 0 -321 -116q-139 -120 -139 -298q0 -97 43 -168q38 -63 121 -121q60 -42 180 -104q137 -70 192 -110q97 -70 144 -158q56 -106 56 -263q0 -203 -176 -344
q-169 -136 -394 -136q-208 0 -351 100q-159 112 -159 304q0 135 110.5 231.5t265.5 96.5q151 0 245 -58q105 -65 105 -184q0 -87 -70.5 -144.5t-163.5 -57.5q-85 0 -143 32q-69 38 -69 108q0 42 35 70q27 22 48 25t23 3q8 0 8 -6l-4 -12q-1 -2 -4 -12q-6 -20 -6 -44
q0 -31 31.5 -53.5t68.5 -22.5q62 0 103 38t41 94q0 84 -83 131q-72 41 -173 41q-129 0 -223 -76q-99 -80 -99 -200q0 -156 149 -250q133 -84 317 -84q187 0 321 116q139 120 139 298q0 95 -48 172q-43 68 -125 126q-64 45 -171 94q-123 56 -183 99q-97 69 -148 162
q-61 112 -61 271q0 210 176 349q166 131 394 131q208 0 351 -100q159 -112 159 -304z" />
    <glyph glyph-name="endash" unicode="&#x2013;" horiz-adv-x="1024" 
d="M1024 438h-1024v86h1024v-86z" />
    <glyph glyph-name="emdash" unicode="&#x2014;" horiz-adv-x="2048" 
d="M2048 438h-2048v86h2048v-86z" />
    <glyph glyph-name="quoteleft" unicode="&#x2018;" horiz-adv-x="454" 
d="M374 1400q-17 0 -37.5 -4t-46.5 -16q-42 -19 -64 -44q-28 -31 -28 -72q0 -34 12.5 -56t35.5 -22q25 0 38 11q6 5 13 18t12 13t16 -11t17 -31.5t6 -43.5q0 -44 -36.5 -69t-87.5 -25q-73 0 -110 49q-28 37 -28 85q0 101 72.5 174.5t169.5 73.5q14 0 23 -1.5t23 -7t14 -12.5
q0 -9 -14 -9z" />
    <glyph glyph-name="quoteright" unicode="&#x2019;" horiz-adv-x="454" 
d="M354 1296q0 -101 -72.5 -174.5t-169.5 -73.5q-33 0 -50 10q-12 5 -12 12q0 8 18 8q16 2 33 4q26 5 49 16q42 19 64 46q28 34 28 82q0 25 -13 45.5t-35 20.5t-35 -10q-8 -7 -13.5 -18.5t-12.5 -11.5t-15 8q-26 23 -26 76q0 44 36.5 69t87.5 25q73 0 110 -49q28 -37 28 -85
z" />
    <glyph glyph-name="quotesinglbase" unicode="&#x201a;" horiz-adv-x="454" 
d="M354 42q0 -101 -72.5 -174.5t-169.5 -73.5q-16 0 -25 1.5t-23 6.5q-9 5 -9 11q0 9 13 9q26 0 32 1q23 4 52 19q41 19 63 47q27 34 27 83q0 25 -13 45.5t-35 20.5t-35 -10q-8 -7 -14.5 -19t-13.5 -12q-8 0 -17 11q-22 25 -22 74q0 44 36.5 69t87.5 25q73 0 110 -49
q28 -37 28 -85z" />
    <glyph glyph-name="quotedblleft" unicode="&#x201c;" horiz-adv-x="808" 
d="M732 1420q8 -6 8 -10q0 -7 -12 -10q-25 -3 -46 -6.5t-40 -13.5q-42 -19 -64 -44q-28 -31 -28 -72q0 -34 12.5 -56t35.5 -22q24 0 36 10q7 6 12.5 18.5t14.5 12.5q7 0 13 -7q11 -14 18.5 -35t7.5 -43q0 -44 -36.5 -69t-87.5 -25q-73 0 -110 49q-28 37 -28 85
q0 101 72.5 174.5t169.5 73.5q35 0 52 -10zM380 1420q8 -5 8 -12q0 -8 -14 -8q-17 -2 -38.5 -5.5t-45.5 -14.5q-42 -19 -64 -44q-28 -31 -28 -72q0 -34 12.5 -56t35.5 -22q25 0 38 11q6 5 14 21q5 9 13 9q6 0 15 -8.5t15.5 -30.5t6.5 -46q0 -44 -36.5 -69t-87.5 -25
q-73 0 -110 49q-28 37 -28 85q0 101 72.5 174.5t169.5 73.5q35 0 52 -10z" />
    <glyph glyph-name="quotedblright" unicode="&#x201d;" horiz-adv-x="808" 
d="M708 1296q0 -101 -72.5 -174.5t-169.5 -73.5q-16 0 -25 1.5t-23 6.5q-9 5 -9 11q0 11 15 11q17 0 36 4t44 16q42 19 64 46q28 34 28 82q0 25 -13 45.5t-35 20.5t-35 -10q-8 -7 -13.5 -18.5t-12.5 -11.5t-15 8q-26 29 -26 76q0 44 36.5 69t87.5 25q73 0 110 -49
q28 -37 28 -85zM354 1296q0 -101 -72.5 -174.5t-169.5 -73.5q-35 0 -52 10q-7 4 -7 10q0 7 11 10q25 3 46 6.5t40 13.5q42 19 64 46q28 34 28 82q0 25 -13 45.5t-35 20.5q-25 0 -38 -11q-6 -5 -12.5 -17t-11.5 -12q-6 0 -14 8q-26 23 -26 76q0 44 36.5 69t87.5 25
q73 0 110 -49q28 -37 28 -85z" />
    <glyph glyph-name="quotedblbase" unicode="&#x201e;" horiz-adv-x="804" 
d="M704 42q0 -101 -72.5 -174.5t-169.5 -73.5q-16 0 -25 1.5t-21.5 6t-12.5 12.5q0 10 19 10q20 0 38 2.5t40 13.5q41 19 64 48q28 35 28 84q0 25 -13 45.5t-35 20.5t-35 -10q-8 -6 -15 -18.5t-14 -12.5t-16 13q-22 29 -22 72q0 44 36.5 69t87.5 25q73 0 110 -49
q28 -37 28 -85zM354 42q0 -101 -72.5 -174.5t-169.5 -73.5q-30 0 -50 10q-9 6 -9 12q0 7 15 8q25 0 41.5 2t40.5 14q41 19 64 48q28 35 28 84q0 25 -13 45.5t-35 20.5q-23 0 -34.5 -8.5t-17.5 -20.5t-11 -12q-7 0 -17 12t-16 32.5t-6 40.5q0 44 36.5 69t87.5 25
q73 0 110 -49q28 -37 28 -85z" />
    <glyph glyph-name="dagger" unicode="&#x2020;" horiz-adv-x="850" 
d="M808 878q0 -22 -12 -22q-7 0 -12 8q-23 30 -37 45t-27 17l-270 38q5 -22 13 -45t18 -50.5t17 -41.5q13 -25 22 -43q-13 -91 -25.5 -190.5t-12.5 -195.5q0 -78 -6.5 -206t-13.5 -226t-8 -98h-60q-4 50 -7 100q-7 96 -14 233.5t-7 196.5q0 95 -13 204q-17 122 -25 182
q14 28 21 43q11 24 18 42.5t18 49.5t15 45l-270 -38q-16 -2 -34 -24l-28 -36q-9 -9 -16 -9q-10 0 -10 19q0 18 1 31q5 63 5 81q0 38 -2 61t-4 53q0 17 11 17q8 0 15 -7q18 -24 28 -36q19 -24 34 -26l270 -36l-38 328q-3 16 -25 35q-19 14 -37 29q-8 8 -8 14q0 10 20 10
q18 0 31 -1q63 -5 81 -5q29 0 67 3t45 3q20 0 20 -12q0 -7 -8 -12q-32 -23 -47 -37t-15 -27l-36 -328l270 36q17 2 36 27q27 34 30 37q5 5 10 5q12 0 12 -17q0 -18 -1 -31q-5 -64 -5 -83q0 -29 3 -66t3 -44z" />
    <glyph glyph-name="daggerdbl" unicode="&#x2021;" horiz-adv-x="850" 
d="M808 502q0 -23 -13 -23q-7 0 -11 7q-22 31 -27 37q-20 22 -37 25l-274 36q6 -22 9 -35q9 -34 18 -58t26 -59l17 -34q-26 -148 -42 -284q-9 -77 -16 -182l-4 -64h-60l-2 64q-5 89 -16 182q-14 116 -44 284l40 92q8 19 19 59q3 12 9 35l-270 -36q-17 -3 -35 -24
q-14 -18 -27 -36q-8 -10 -16 -10q-10 0 -10 22q0 18 1 30q5 61 5 80q0 36 -2 58t-4 52q0 21 12 21q7 0 14 -7q18 -24 28 -36q19 -24 34 -26l270 -36q-5 22 -8 35q-9 34 -19.5 61.5t-24.5 58.5q-5 12 -16 33q6 10 9 17q20 40 31 71q6 16 15 47t13 45l-270 -38q-18 -3 -41 -33
q-1 -1 -19 -27q-7 -11 -15 -11q-13 0 -13 33q1 6 3.5 45t2.5 55q0 36 -2 58t-4 52q0 22 12 22q6 0 12 -6q3 -3 29 -36q20 -26 35 -28l270 -36l-38 288q-2 16 -24 34l-36 28q-8 8 -8 16q0 10 16 10q17 0 30 -1q64 -5 84 -5q34 0 56 1.5t52 4.5q24 0 24 -12q0 -7 -10 -16
q-23 -17 -35 -27q-23 -19 -25 -33l-36 -288l270 36q16 3 35 26q14 19 29 38q6 6 12 6q12 0 12 -18t-1 -31q-5 -64 -5 -83q0 -32 2.5 -62.5t3.5 -41.5q0 -28 -11 -28q-7 0 -15 10q-14 18 -27 36q-18 21 -35 24l-270 38q7 -34 11 -48.5t15 -43.5q8 -23 25 -58q5 -11 15 -30
q-10 -21 -15 -33q-22 -49 -27 -61q-8 -19 -19 -60q-3 -13 -9 -36l274 38q16 2 34 25q14 18 28 37q8 8 15 8q11 0 11 -20q0 -18 -1 -31q-5 -63 -5 -81q0 -28 3 -64t3 -44z" />
    <glyph glyph-name="bullet" unicode="&#x2022;" horiz-adv-x="900" 
d="M738 744q0 -117 -85.5 -203.5t-204.5 -86.5t-203.5 84.5t-84.5 205.5t84.5 204.5t205.5 83.5q119 0 203.5 -83.5t84.5 -204.5z" />
    <glyph glyph-name="ellipsis" unicode="&#x2026;" horiz-adv-x="1252" 
d="M1138 78q0 -47 -32.5 -78.5t-79.5 -31.5t-79.5 31.5t-32.5 78.5q0 48 32 80t80 32q46 0 79 -32t33 -80zM740 78q0 -47 -32.5 -78.5t-79.5 -31.5t-79.5 31.5t-32.5 78.5q0 48 32 80t80 32q46 0 79 -32t33 -80zM338 78q0 -47 -32.5 -78.5t-79.5 -31.5t-79.5 31.5
t-32.5 78.5q0 48 32 80t80 32q46 0 79 -32t33 -80z" />
    <glyph glyph-name="perthousand" unicode="&#x2030;" horiz-adv-x="2326" 
d="M2230 370q0 -154 -88 -276q-91 -126 -216 -126q-122 0 -194 97t-72 263q0 94 38 187q31 77 74 121q11 11 16 6q5 -4 0 -18q-10 -25 -21 -84q-15 -80 -15 -152q0 -157 54 -252.5t142 -95.5q82 0 130 67q56 77 56 227q0 154 -59 260t-135 106q-9 1 -14 1q-24 0 -40.5 -9.5
t-19.5 -25.5t8 -25t24 -9t24 16q0 8 4 7q5 -1 8 -9q2 -4 2 -13q0 -5 -2 -17q0 -19 -16.5 -33.5t-37.5 -14.5q-30 0 -49 24t-19 60q0 43 41.5 71.5t98.5 28.5q117 0 197.5 -110.5t80.5 -271.5zM1546 370q0 -154 -88 -276q-91 -126 -216 -126q-122 0 -194 97t-72 263
q0 94 38 187q31 77 74 121q11 11 16 6q5 -4 0 -18q-10 -25 -21 -84q-15 -80 -15 -152q0 -157 54 -252.5t142 -95.5q82 0 130 67q56 77 56 227q0 154 -59 260t-135 106q-9 1 -14 1q-24 0 -40.5 -9.5t-19.5 -25.5t8 -25t24 -9t24 16q0 7 4 7q6 0 8 -8.5t2 -14.5t-2 -16
q0 -19 -16.5 -33.5t-37.5 -14.5q-30 0 -49 24t-19 60q0 43 41.5 71.5t98.5 28.5q117 0 197.5 -110.5t80.5 -271.5zM1412 1254q-16 -2 -33.5 -5t-38.5 -15q-33 -18 -75 -63q-34 -36 -73 -87q-46 -60 -126 -174q-25 -36 -134 -191q-76 -109 -134 -187q-94 -127 -161 -216
q-79 -104 -129 -165q-59 -72 -90 -99q-40 -35 -89 -66q-39 -25 -69 -38q-22 -10 -41 -15t-37 -7q-14 0 -25.5 6.5t-11.5 13.5q0 5 9 10q48 20 100.5 55t83.5 71q69 77 145 175q59 77 120 162q83 116 115 159q22 29 118 162q51 70 124 170q63 86 114 152q39 49 85 97
q14 15 35 35q-72 -40 -154 -58t-186 -18q-169 0 -278 50q86 -100 86 -276q0 -154 -88 -276q-91 -126 -216 -126q-122 0 -194 97t-72 263q0 94 38 187q31 77 74 121q11 11 16 6q5 -4 0 -18q-10 -25 -21 -84q-15 -80 -15 -152q0 -157 54 -252.5t142 -95.5q82 0 130 67
q56 77 56 227q0 154 -56.5 255.5t-137.5 110.5q-6 1 -16 1q-24 0 -40 -8.5t-18 -26.5q-3 -16 8 -25t24 -9q14 0 22 16q3 7 6 5q2 -1 6 -7q3 -8 3 -17t-1 -13q0 -19 -16.5 -33.5t-37.5 -14.5q-30 0 -49 24t-19 60q0 43 41.5 71.5t98.5 28.5q27 0 48.5 -5.5t51.5 -18.5
q78 -35 163 -58q112 -30 211 -30q106 0 198.5 22.5t167.5 61.5q20 10 44.5 19t48.5 13t53 4q30 0 38 -5t8 -15q0 -6 -4 -8z" />
    <glyph glyph-name="guilsinglleft" unicode="&#x2039;" horiz-adv-x="476" 
d="M438 180h-136l-230 310l230 312h136l-260 -312z" />
    <glyph glyph-name="guilsinglright" unicode="&#x203a;" horiz-adv-x="476" 
d="M404 490l-230 -310h-136l260 310l-260 312h136z" />
    <glyph glyph-name="Euro" unicode="&#x20ac;" horiz-adv-x="1092" 
d="M324 514q15 -206 121.5 -331.5t271.5 -125.5q119 0 198.5 63t79.5 148q0 34 -7 70q-3 13 -3 18q0 11 14 11q24 0 44 -42t20 -75q0 -129 -107.5 -206t-277.5 -77q-208 0 -337.5 149t-147.5 398h-146l14 53h132q0 27 4 78h-150l14 51h144q41 235 205 407.5t389 172.5
q94 0 163.5 -45.5t69.5 -122.5q0 -45 -32 -74.5t-82 -29.5q-35 0 -68 13.5t-33 33.5q0 6 19 11q61 15 61 73q0 40 -37.5 63t-89.5 23q-172 0 -292 -146t-148 -379h372l-14 -51h-362q-2 -25 -2 -78h378l-14 -53h-364z" />
    <glyph glyph-name="trademark" unicode="&#x2122;" horiz-adv-x="1680" 
d="M1474 646q8 -6 8 -13q0 -9 -16 -9l-68 2l-64 -2q-16 0 -16 9q0 5 6 11q13 10 20 16q13 12 12 22l-80 598l-166 -184q29 -32 49.5 -74t20.5 -82q0 -53 -31 -93.5t-81 -40.5q-48 0 -77 39.5t-29 92.5q0 29 11.5 61.5t38.5 64.5q-38 45 -69 86q-51 66 -67 100l-74 -568
q-1 -9 11.5 -19t22 -18t9.5 -14q0 -7 -13 -7l-66 2l-64 -2q-18 0 -18 10q0 6 6 12q13 10 20 15q13 10 14 21l92 648q1 8 -7 16q-15 13 -29 26q-4 4 -4 8q0 8 16 8q15 -2 27 -3t39 -1l64 2q15 0 15 -7q0 -4 -5 -9q-15 -12 -21 -18q-13 -12 -9 -22q10 -30 83 -109
q58 -63 91 -91l174 194q9 9 9 16q0 8 -10 16t-19 16q-5 3 -5 8q0 8 13 8q5 0 27 -2t41 -2q24 0 37.5 1t30.5 3q13 0 13 -7q0 -4 -3 -9q-14 -12 -22 -19q-15 -13 -14 -23l86 -648q1 -9 16 -20zM742 1416q0 -43 -58 -77.5t-126 -34.5q-23 0 -44 3t-42 7v-632q0 -8 10 -17
t19.5 -17t9.5 -15q0 -9 -17 -9l-66 2h-66q-16 0 -16 8q0 4 8 11t20 16.5t12 20.5v644q-7 1 -55 8.5t-83 7.5q-45 0 -63.5 -10.5t-18.5 -37.5q0 -5 4.5 -11.5t13.5 -8.5q4 -1 7 -1h4q10 0 17 5t11 1t1 -13q-2 -15 -16 -29.5t-38 -14.5q-22 0 -37 17t-15 41q0 53 70.5 88.5
t159.5 35.5q48 0 102 -12q116 -26 166 -26q76 0 76 36q0 14 -8.5 19t-20 3t-11.5 6q0 4 4 8q11 22 38 22q48 0 48 -44zM1122 924q0 30 -23 61q-17 23 -45 45q-25 -25 -36 -43q-16 -26 -16 -55q0 -36 16 -64t46 -28q26 0 42 25.5t16 58.5z" />
    <glyph glyph-name="partialdiff" unicode="&#x2202;" 
d="M1372 1162q0 -135 -110.5 -231.5t-265.5 -96.5q-151 0 -245 58q-105 65 -105 184q0 87 70.5 144.5t163.5 57.5q85 0 143 -32q69 -38 69 -108q0 -42 -35 -70q-27 -22 -48 -25t-23 -3q-8 0 -8 6l4 12q1 2 5.5 17t4.5 39q0 31 -31.5 53.5t-68.5 22.5q-62 0 -103 -38t-41 -94
q0 -84 83 -131q72 -41 173 -41q129 0 223 76q99 80 99 200q0 156 -149 250q-133 84 -317 84q-187 0 -321 -116q-139 -120 -139 -298q0 -97 43 -168q38 -63 121 -121q60 -42 180 -104q137 -70 192 -110q97 -70 144 -158q56 -106 56 -263q0 -203 -176 -344
q-169 -136 -394 -136q-208 0 -351 100q-159 112 -159 304q0 135 110.5 231.5t265.5 96.5q151 0 245 -58q105 -65 105 -184q0 -87 -70.5 -144.5t-163.5 -57.5q-85 0 -143 32q-69 38 -69 108q0 42 35 70q27 22 48 25t23 3q8 0 8 -6l-4 -12q-1 -2 -4 -12q-6 -20 -6 -44
q0 -31 31.5 -53.5t68.5 -22.5q62 0 103 38t41 94q0 84 -83 131q-72 41 -173 41q-129 0 -223 -76q-99 -80 -99 -200q0 -156 149 -250q133 -84 317 -84q187 0 321 116q139 120 139 298q0 95 -48 172q-43 68 -125 126q-64 45 -171 94q-123 56 -183 99q-97 69 -148 162
q-61 112 -61 271q0 210 176 349q166 131 394 131q208 0 351 -100q159 -112 159 -304z" />
    <glyph glyph-name="Delta" unicode="&#x2206;" 
d="M1372 1162q0 -135 -110.5 -231.5t-265.5 -96.5q-151 0 -245 58q-105 65 -105 184q0 87 70.5 144.5t163.5 57.5q85 0 143 -32q69 -38 69 -108q0 -42 -35 -70q-27 -22 -48 -25t-23 -3q-8 0 -8 6l4 12q1 2 5.5 17t4.5 39q0 31 -31.5 53.5t-68.5 22.5q-62 0 -103 -38t-41 -94
q0 -84 83 -131q72 -41 173 -41q129 0 223 76q99 80 99 200q0 156 -149 250q-133 84 -317 84q-187 0 -321 -116q-139 -120 -139 -298q0 -97 43 -168q38 -63 121 -121q60 -42 180 -104q137 -70 192 -110q97 -70 144 -158q56 -106 56 -263q0 -203 -176 -344
q-169 -136 -394 -136q-208 0 -351 100q-159 112 -159 304q0 135 110.5 231.5t265.5 96.5q151 0 245 -58q105 -65 105 -184q0 -87 -70.5 -144.5t-163.5 -57.5q-85 0 -143 32q-69 38 -69 108q0 42 35 70q27 22 48 25t23 3q8 0 8 -6l-4 -12q-1 -2 -4 -12q-6 -20 -6 -44
q0 -31 31.5 -53.5t68.5 -22.5q62 0 103 38t41 94q0 84 -83 131q-72 41 -173 41q-129 0 -223 -76q-99 -80 -99 -200q0 -156 149 -250q133 -84 317 -84q187 0 321 116q139 120 139 298q0 95 -48 172q-43 68 -125 126q-64 45 -171 94q-123 56 -183 99q-97 69 -148 162
q-61 112 -61 271q0 210 176 349q166 131 394 131q208 0 351 -100q159 -112 159 -304z" />
    <glyph glyph-name="product" unicode="&#x220f;" 
d="M1372 1162q0 -135 -110.5 -231.5t-265.5 -96.5q-151 0 -245 58q-105 65 -105 184q0 87 70.5 144.5t163.5 57.5q85 0 143 -32q69 -38 69 -108q0 -42 -35 -70q-27 -22 -48 -25t-23 -3q-8 0 -8 6l4 12q1 2 5.5 17t4.5 39q0 31 -31.5 53.5t-68.5 22.5q-62 0 -103 -38t-41 -94
q0 -84 83 -131q72 -41 173 -41q129 0 223 76q99 80 99 200q0 156 -149 250q-133 84 -317 84q-187 0 -321 -116q-139 -120 -139 -298q0 -97 43 -168q38 -63 121 -121q60 -42 180 -104q137 -70 192 -110q97 -70 144 -158q56 -106 56 -263q0 -203 -176 -344
q-169 -136 -394 -136q-208 0 -351 100q-159 112 -159 304q0 135 110.5 231.5t265.5 96.5q151 0 245 -58q105 -65 105 -184q0 -87 -70.5 -144.5t-163.5 -57.5q-85 0 -143 32q-69 38 -69 108q0 42 35 70q27 22 48 25t23 3q8 0 8 -6l-4 -12q-1 -2 -4 -12q-6 -20 -6 -44
q0 -31 31.5 -53.5t68.5 -22.5q62 0 103 38t41 94q0 84 -83 131q-72 41 -173 41q-129 0 -223 -76q-99 -80 -99 -200q0 -156 149 -250q133 -84 317 -84q187 0 321 116q139 120 139 298q0 95 -48 172q-43 68 -125 126q-64 45 -171 94q-123 56 -183 99q-97 69 -148 162
q-61 112 -61 271q0 210 176 349q166 131 394 131q208 0 351 -100q159 -112 159 -304z" />
    <glyph glyph-name="fraction" unicode="&#x2215;" horiz-adv-x="598" 
d="M902 1248q-51 -18 -91 -44q-47 -31 -93 -82q-55 -62 -137 -178q-40 -57 -145 -213q-90 -135 -138 -199q-97 -132 -157 -211q-76 -100 -127 -161q-61 -73 -102 -108q-73 -64 -145 -97q-54 -25 -95 -29q-15 0 -30.5 7t-15.5 15q0 5 8 8q49 20 99.5 54.5t84.5 71.5
q73 79 147 175q56 73 119 162q82 117 114 159.5t134.5 191t153.5 216.5q86 116 138 166q61 59 138 94q61 28 102 32q15 0 30.5 -7.5t15.5 -15.5q0 -4 -8 -7z" />
    <glyph glyph-name="radical" unicode="&#x221a;" horiz-adv-x="1138" 
d="M1082 1210q0 -94 -48 -215q-36 -91 -119 -237q-75 -128 -149 -256.5t-142 -265.5q-51 -102 -91 -189.5t-44 -95.5t-9 -8q-6 0 -12 9q-40 69 -112.5 178t-139.5 200q-58 79 -98 131q-52 67 -88 109q-9 10 21 36.5t75 52.5q76 44 120.5 63.5t63.5 19.5q12 0 12 -9
q0 -15 -31 -47.5t-67 -55.5q-8 -5 -8 -18q0 -32 68 -122q48 -61 69.5 -89.5t84.5 -116.5q43 -61 80 -106q27 70 65 151q43 91 87 173q68 123 136 247q73 138 108 237q44 124 44 228q0 113 -41 182q-51 86 -159 86q-59 0 -99.5 -29t-40.5 -81q0 -31 17 -52t48 -21q7 1 11 1
q24 3 38 19q10 12 13 27t9 15q4 0 10 -7q16 -20 16 -50q0 -40 -30 -68t-72 -28q-55 0 -89.5 41.5t-34.5 106.5q0 81 73 131.5t173 50.5q124 0 205 -100q77 -95 77 -228z" />
    <glyph glyph-name="infinity" unicode="&#x221e;" horiz-adv-x="1092" 
d="M960 614q0 -142 -42.5 -265t-135.5 -269q-30 -48 -52 -99q-28 -65 -28 -111q0 -54 28 -85q24 -27 58 -27q23 0 39 12q22 16 19 46q0 14 -6 26q-5 12 8 12q2 0 8 -2q16 -8 25 -21q13 -18 13 -43q0 -36 -32 -57t-72 -21q-62 0 -100 41t-38 113q0 44 16 95t46 109
q41 83 61 131q32 78 49.5 155t17.5 164q0 156 -70 255q-73 103 -198 103q-83 0 -151 -49q-58 -42 -99 -115v-614q0 -18 22 -37q19 -15 38 -29q14 -12 14 -21q0 -11 -26 -11q-18 0 -30 1q-62 5 -82 5q-38 0 -60.5 -2t-51.5 -4q-26 0 -26 9q0 7 14 21q25 20 37 31q23 20 23 37
v1070q0 29 -2 46t-24 14q-13 -2 -38.5 -19.5t-33.5 -20.5q-5 -2 -10 0q-6 3 -6 8q0 6 7.5 17t54.5 56q39 38 62 61q40 41 86 92q19 21 24.5 26.5t11.5 5.5q9 0 8 -16q-7 -66 -8 -75q-4 -55 -4 -105v-460q44 72 99 118q86 72 183 72q180 0 277 -135q77 -107 77 -239z" />
    <glyph glyph-name="integral" unicode="&#x222b;" 
d="M1372 1162q0 -135 -110.5 -231.5t-265.5 -96.5q-151 0 -245 58q-105 65 -105 184q0 87 70.5 144.5t163.5 57.5q85 0 143 -32q69 -38 69 -108q0 -42 -35 -70q-27 -22 -48 -25t-23 -3q-8 0 -8 6l4 12q1 2 5.5 17t4.5 39q0 31 -31.5 53.5t-68.5 22.5q-62 0 -103 -38t-41 -94
q0 -84 83 -131q72 -41 173 -41q129 0 223 76q99 80 99 200q0 156 -149 250q-133 84 -317 84q-187 0 -321 -116q-139 -120 -139 -298q0 -97 43 -168q38 -63 121 -121q60 -42 180 -104q137 -70 192 -110q97 -70 144 -158q56 -106 56 -263q0 -203 -176 -344
q-169 -136 -394 -136q-208 0 -351 100q-159 112 -159 304q0 135 110.5 231.5t265.5 96.5q151 0 245 -58q105 -65 105 -184q0 -87 -70.5 -144.5t-163.5 -57.5q-85 0 -143 32q-69 38 -69 108q0 42 35 70q27 22 48 25t23 3q8 0 8 -6l-4 -12q-1 -2 -4 -12q-6 -20 -6 -44
q0 -31 31.5 -53.5t68.5 -22.5q62 0 103 38t41 94q0 84 -83 131q-72 41 -173 41q-129 0 -223 -76q-99 -80 -99 -200q0 -156 149 -250q133 -84 317 -84q187 0 321 116q139 120 139 298q0 95 -48 172q-43 68 -125 126q-64 45 -171 94q-123 56 -183 99q-97 69 -148 162
q-61 112 -61 271q0 210 176 349q166 131 394 131q208 0 351 -100q159 -112 159 -304z" />
    <glyph glyph-name="approxequal" unicode="&#x2248;" 
d="M1372 1162q0 -135 -110.5 -231.5t-265.5 -96.5q-151 0 -245 58q-105 65 -105 184q0 87 70.5 144.5t163.5 57.5q85 0 143 -32q69 -38 69 -108q0 -42 -35 -70q-27 -22 -48 -25t-23 -3q-8 0 -8 6l4 12q1 2 5.5 17t4.5 39q0 31 -31.5 53.5t-68.5 22.5q-62 0 -103 -38t-41 -94
q0 -84 83 -131q72 -41 173 -41q129 0 223 76q99 80 99 200q0 156 -149 250q-133 84 -317 84q-187 0 -321 -116q-139 -120 -139 -298q0 -97 43 -168q38 -63 121 -121q60 -42 180 -104q137 -70 192 -110q97 -70 144 -158q56 -106 56 -263q0 -203 -176 -344
q-169 -136 -394 -136q-208 0 -351 100q-159 112 -159 304q0 135 110.5 231.5t265.5 96.5q151 0 245 -58q105 -65 105 -184q0 -87 -70.5 -144.5t-163.5 -57.5q-85 0 -143 32q-69 38 -69 108q0 42 35 70q27 22 48 25t23 3q8 0 8 -6l-4 -12q-1 -2 -4 -12q-6 -20 -6 -44
q0 -31 31.5 -53.5t68.5 -22.5q62 0 103 38t41 94q0 84 -83 131q-72 41 -173 41q-129 0 -223 -76q-99 -80 -99 -200q0 -156 149 -250q133 -84 317 -84q187 0 321 116q139 120 139 298q0 95 -48 172q-43 68 -125 126q-64 45 -171 94q-123 56 -183 99q-97 69 -148 162
q-61 112 -61 271q0 210 176 349q166 131 394 131q208 0 351 -100q159 -112 159 -304z" />
    <glyph glyph-name="notequal" unicode="&#x2260;" horiz-adv-x="1128" 
d="M988 26q7 -7 7 -15q0 -11 -23 -11q-11 0 -19 1q-40 5 -57 5t-35.5 -1.5t-38.5 -2.5q-24 0 -24 10q0 4 6 12q10 12 16 25t6 33v96q-39 -82 -129 -143q-100 -67 -209 -67q-154 0 -260 91q-112 96 -112 249q0 154 122 258q117 100 280 100q87 0 176.5 -39.5t131.5 -104.5
q0 151 -10 210q-18 103 -78 153q-72 59 -220 59q-71 0 -135 -27q-77 -33 -95 -89q-4 -11 -4 -22q0 -42 42 -42q28 0 32 32q0 14 -4 18q-3 5 2 10t18 2q16 -3 28 -19q16 -20 16 -49q0 -47 -37.5 -78.5t-86.5 -31.5q-52 0 -85 30q-36 33 -36 93q0 14 1 21q9 82 106 139t244 57
q245 0 351 -107q79 -79 79 -215v-562q0 -28 12 -49q5 -10 22 -29zM822 346q0 113 -83.5 180.5t-218.5 67.5q-110 0 -192 -72t-82 -178q0 -119 84 -195q80 -73 198 -73q133 0 213.5 75.5t80.5 194.5z" />
    <glyph glyph-name="lessequal" unicode="&#x2264;" horiz-adv-x="1510" 
d="M1384 614q0 -104 -30 -210q-24 -84 -71 -179q-30 -60 -81 -145q-45 -76 -63.5 -125t-18.5 -85q0 -54 28 -85q24 -27 58 -27q23 0 39 12q22 16 19 46q0 6 -2 15t-2 11q-3 5 -1 9t7 4q3 0 8 -3q15 -10 26.5 -25.5t11.5 -38.5q0 -36 -32 -57t-72 -21q-62 0 -100 41t-38 113
q0 40 19 97q14 41 43 107q51 115 86 232q42 142 42 238q0 157 -60 245q-64 93 -188 93q-67 0 -123 -35q-45 -28 -71 -71q0 -17 0.5 -51t1.5 -65v-556q0 -16 21 -34q18 -15 37 -30q12 -12 12 -21q0 -13 -24 -13q-18 0 -30 1q-61 5 -80 5q-36 0 -58.5 -2t-51.5 -4
q-24 0 -24 12q0 8 12 20q3 3 27 22q31 24 31 44v560q0 102 -36 156q-41 62 -126 62q-63 0 -122 -55q-51 -48 -74 -109v-614q0 -20 36.5 -48.5t33.5 -41.5q-1 -9 -21 -9q-33 3 -58 5t-55 2q-33 0 -83 -5q-20 -2 -31 -2q-19 0 -20 9q-3 14 33.5 42.5t36.5 47.5v592
q0 85 -53 139q-21 22 -77 53q-6 5 -6 10q0 6 6 12q13 12 22 19.5t22 20.5t23 25q3 3 13 17q4 7 11 7q6 0 13 -5q34 -28 75 -82q54 -71 63 -122q33 69 83 120q82 84 181 84q85 0 146 -54q43 -38 76 -108q32 60 85 103q72 59 155 59q180 0 270 -131q70 -102 70 -243z" />
    <glyph glyph-name="greaterequal" unicode="&#x2265;" horiz-adv-x="1092" 
d="M972 614q0 -141 -46 -275q-42 -122 -130 -259q-42 -66 -64 -125q-18 -49 -18 -85q0 -54 28 -85q24 -27 58 -27q23 0 39 12q22 16 19 46q0 18 -4 26q-2 6 2 9q5 4 12 1q14 -6 24 -20q14 -19 14 -44q0 -36 -32 -57t-72 -21q-62 0 -100 41t-38 113q0 42 18 98q15 46 44 106
q39 82 61 137q33 81 48 146q19 82 19 167q0 156 -70 255q-73 103 -198 103q-83 0 -151 -49q-59 -42 -101 -115v-614q0 -18 28 -41q13 -11 26 -21q15 -15 15 -24q0 -12 -23 -12q-18 0 -30 1q-61 5 -80 5q-35 0 -57 -2t-51 -4q-27 0 -27 11q0 8 15 23q5 5 26 22q30 24 30 42
v592q0 85 -53 138q-20 20 -77 52q-7 4 -7 10q0 7 7 14q13 12 22 19.5t20.5 19t22.5 24.5t13 15q9 10 15 10q5 0 13 -6q35 -24 77 -81q49 -67 59 -121q45 71 108 124q95 80 192 80q180 0 277 -135q77 -107 77 -239z" />
    <glyph glyph-name="lozenge" unicode="&#x25ca;" horiz-adv-x="1050" 
d="M975 748l-450 -748l-450 748l450 748zM903 748l-378 628l-378 -628l378 -628z" />
    <glyph glyph-name="apple" unicode="&#xf000;" 
d="M1372 1162q0 -135 -110.5 -231.5t-265.5 -96.5q-151 0 -245 58q-105 65 -105 184q0 87 70.5 144.5t163.5 57.5q85 0 143 -32q69 -38 69 -108q0 -42 -35 -70q-27 -22 -48 -25t-23 -3q-8 0 -8 6l4 12q1 2 5.5 17t4.5 39q0 31 -31.5 53.5t-68.5 22.5q-62 0 -103 -38t-41 -94
q0 -84 83 -131q72 -41 173 -41q129 0 223 76q99 80 99 200q0 156 -149 250q-133 84 -317 84q-187 0 -321 -116q-139 -120 -139 -298q0 -97 43 -168q38 -63 121 -121q60 -42 180 -104q137 -70 192 -110q97 -70 144 -158q56 -106 56 -263q0 -203 -176 -344
q-169 -136 -394 -136q-208 0 -351 100q-159 112 -159 304q0 135 110.5 231.5t265.5 96.5q151 0 245 -58q105 -65 105 -184q0 -87 -70.5 -144.5t-163.5 -57.5q-85 0 -143 32q-69 38 -69 108q0 42 35 70q27 22 48 25t23 3q8 0 8 -6l-4 -12q-1 -2 -4 -12q-6 -20 -6 -44
q0 -31 31.5 -53.5t68.5 -22.5q62 0 103 38t41 94q0 84 -83 131q-72 41 -173 41q-129 0 -223 -76q-99 -80 -99 -200q0 -156 149 -250q133 -84 317 -84q187 0 321 116q139 120 139 298q0 95 -48 172q-43 68 -125 126q-64 45 -171 94q-123 56 -183 99q-97 69 -148 162
q-61 112 -61 271q0 210 176 349q166 131 394 131q208 0 351 -100q159 -112 159 -304z" />
    <glyph glyph-name="fi" unicode="&#xf001;" horiz-adv-x="1088" 
d="M922 32q11 -13 11 -20q0 -12 -25 -12q-18 0 -30 1q-61 5 -80 5q-35 0 -57 -2t-51 -4q-27 0 -27 12q0 7 11 18q25 20 37 31q23 20 23 37v672q0 50 -24 68q-11 8 -33.5 12.5t-22.5 12.5q0 5 8 13q24 12 44 23q9 5 44 27q86 60 102 70q11 6 17 6q8 0 8 -11q0 -5 -1 -9
q-7 -50 -10.5 -99t-3.5 -91v-694q0 -17 23 -36q18 -15 37 -30zM886 1224q0 -62 -36 -93q-31 -27 -84 -27q-43 0 -70.5 25.5t-27.5 62.5q0 12 4.5 25t10.5 20.5t11 7.5q6 0 11 -11.5t12 -17.5q11 -10 31 -10q19 0 28.5 14t9.5 34q0 57 -57.5 88.5t-156.5 31.5
q-121 0 -181 -67q-51 -57 -51 -151v-204q33 0 65 1t67 3q14 0 14 -14v-34q0 -16 -14 -16q-5 0 -49 2t-83 2v-850q0 -170 -55 -289q-43 -93 -115 -147q-51 -39 -98 -46q-17 -3 -22 4q-3 9 -4.5 16.5t-2.5 19t-5 27t-9 28.5t-9.5 22t-4.5 13q0 9 13 9q6 0 15 -1.5t20 -1.5
q60 0 96 56q53 82 53 282v858q-32 0 -61 -1.5t-59 -2.5q-14 0 -14 16v32q0 16 18 16q5 0 44 -2t72 -2v120q0 145 78 240q97 118 288 118q151 0 235 -67q73 -58 73 -139z" />
    <glyph glyph-name="fl" unicode="&#xf002;" horiz-adv-x="1088" 
d="M920 32q11 -11 11 -21q0 -11 -17 -11q-5 0 -44 3t-72 3q-38 0 -60.5 -2t-51.5 -4q-22 0 -22 12q0 8 8 16q24 21 37 32q25 22 25 38v1070q0 92 -27 136q-43 70 -159 70q-113 0 -165 -67q-43 -56 -43 -151v-204q33 0 65 1t67 3q14 0 14 -14v-34q0 -16 -14 -16q-5 0 -49 2
t-83 2v-850q0 -171 -54 -288q-42 -92 -115 -147q-53 -40 -99 -47q-21 -3 -23.5 12l-4.5 27t-6.5 29.5t-9 30t-8.5 23.5q-3 8 -1 12q3 5 13 4q10 -3 13 -3q6 -1 17 -1q60 0 96 56q54 84 54 284v858q-32 0 -61 -1.5t-59 -2.5q-14 0 -14 16v32q0 16 18 16q5 0 44 -2t72 -2v120
q0 150 66 240q86 118 276 118q81 0 146 -26q46 -18 72 -42q40 44 53 59q33 37 45 31q4 -3 4 -9q-5 -27 -8.5 -76t-3.5 -109v-1160q0 -16 21 -35q18 -16 37 -31z" />
    <glyph glyph-name="plusminus" horiz-adv-x="1530" 
d="M1376 618q0 -131 -67 -279q-63 -139 -169 -259q3 0 10.5 -0.5t20.5 -0.5q31 0 57.5 3.5t51.5 20.5q25 20 32 25.5t12 5.5q13 0 8 -18q-3 -20 -4.5 -38t-1.5 -26q0 -22 1.5 -36.5t4.5 -33.5q1 -16 -8 -16q-6 0 -14 4q-23 17 -42 24t-40.5 10t-64.5 3q-29 0 -46 -1t-45 -6
q-12 -2 -19 -2q-10 0 -13 4q-4 6 -1.5 13t7.5 15q50 77 87 147q49 92 75 170q32 96 32 173q0 164 -47 255q-56 107 -175 107q-56 0 -112 -31.5t-88 -80.5q0 -17 0.5 -51t1.5 -65v-556q0 -18 29 -42q26 -21 27 -22q15 -12 15 -22q0 -12 -23 -12q-18 0 -30 1q-62 5 -82 5
q-36 0 -58.5 -2t-51.5 -4q-23 0 -23 13q0 8 11 19q18 15 27 22q31 25 31 44v560q0 102 -36 156q-41 62 -126 62q-63 0 -122 -55q-51 -48 -74 -109v-614q0 -18 22 -37q19 -16 38 -31q12 -12 12 -20q0 -10 -22 -10q-18 0 -31 1q-64 5 -83 5q-32 0 -70 -3t-44 -3q-19 0 -19 10
q0 5 9 18q24 20 36 31q24 21 24 39v592q0 85 -51 138q-22 23 -77 52q-8 4 -8 12t6 14l44 38q11 10 22 23q7 8 14 17q5 9 14 9q5 0 12 -7l74 -86q53 -68 62 -116q33 69 83 120q82 84 181 84q85 0 147 -57q44 -40 77 -111q36 60 99 108q78 60 151 60q172 0 257 -133
q63 -99 63 -237z" />
    <glyph glyph-name="mu" 
d="M1372 1162q0 -135 -110.5 -231.5t-265.5 -96.5q-151 0 -245 58q-105 65 -105 184q0 87 70.5 144.5t163.5 57.5q85 0 143 -32q69 -38 69 -108q0 -42 -35 -70q-27 -22 -48 -25t-23 -3q-8 0 -8 6l4 12q1 2 5.5 17t4.5 39q0 31 -31.5 53.5t-68.5 22.5q-62 0 -103 -38t-41 -94
q0 -84 83 -131q72 -41 173 -41q129 0 223 76q99 80 99 200q0 156 -149 250q-133 84 -317 84q-187 0 -321 -116q-139 -120 -139 -298q0 -97 43 -168q38 -63 121 -121q60 -42 180 -104q137 -70 192 -110q97 -70 144 -158q56 -106 56 -263q0 -203 -176 -344
q-169 -136 -394 -136q-208 0 -351 100q-159 112 -159 304q0 135 110.5 231.5t265.5 96.5q151 0 245 -58q105 -65 105 -184q0 -87 -70.5 -144.5t-163.5 -57.5q-85 0 -143 32q-69 38 -69 108q0 42 35 70q27 22 48 25t23 3q8 0 8 -6l-4 -12q-1 -2 -4 -12q-6 -20 -6 -44
q0 -31 31.5 -53.5t68.5 -22.5q62 0 103 38t41 94q0 84 -83 131q-72 41 -173 41q-129 0 -223 -76q-99 -80 -99 -200q0 -156 149 -250q133 -84 317 -84q187 0 321 116q139 120 139 298q0 95 -48 172q-43 68 -125 126q-64 45 -171 94q-123 56 -183 99q-97 69 -148 162
q-61 112 -61 271q0 210 176 349q166 131 394 131q208 0 351 -100q159 -112 159 -304z" />
    <glyph glyph-name="logicalnot" 
d="M1372 1162q0 -135 -110.5 -231.5t-265.5 -96.5q-151 0 -245 58q-105 65 -105 184q0 87 70.5 144.5t163.5 57.5q85 0 143 -32q69 -38 69 -108q0 -42 -35 -70q-27 -22 -48 -25t-23 -3q-8 0 -8 6l4 12q1 2 5.5 17t4.5 39q0 31 -31.5 53.5t-68.5 22.5q-62 0 -103 -38t-41 -94
q0 -84 83 -131q72 -41 173 -41q129 0 223 76q99 80 99 200q0 156 -149 250q-133 84 -317 84q-187 0 -321 -116q-139 -120 -139 -298q0 -97 43 -168q38 -63 121 -121q60 -42 180 -104q137 -70 192 -110q97 -70 144 -158q56 -106 56 -263q0 -203 -176 -344
q-169 -136 -394 -136q-208 0 -351 100q-159 112 -159 304q0 135 110.5 231.5t265.5 96.5q151 0 245 -58q105 -65 105 -184q0 -87 -70.5 -144.5t-163.5 -57.5q-85 0 -143 32q-69 38 -69 108q0 42 35 70q27 22 48 25t23 3q8 0 8 -6l-4 -12q-1 -2 -4 -12q-6 -20 -6 -44
q0 -31 31.5 -53.5t68.5 -22.5q62 0 103 38t41 94q0 84 -83 131q-72 41 -173 41q-129 0 -223 -76q-99 -80 -99 -200q0 -156 149 -250q133 -84 317 -84q187 0 321 116q139 120 139 298q0 95 -48 172q-43 68 -125 126q-64 45 -171 94q-123 56 -183 99q-97 69 -148 162
q-61 112 -61 271q0 210 176 349q166 131 394 131q208 0 351 -100q159 -112 159 -304z" />
    <glyph glyph-name="onesuperior" 
d="M1372 1162q0 -135 -110.5 -231.5t-265.5 -96.5q-151 0 -245 58q-105 65 -105 184q0 87 70.5 144.5t163.5 57.5q85 0 143 -32q69 -38 69 -108q0 -42 -35 -70q-27 -22 -48 -25t-23 -3q-8 0 -8 6l4 12q1 2 5.5 17t4.5 39q0 31 -31.5 53.5t-68.5 22.5q-62 0 -103 -38t-41 -94
q0 -84 83 -131q72 -41 173 -41q129 0 223 76q99 80 99 200q0 156 -149 250q-133 84 -317 84q-187 0 -321 -116q-139 -120 -139 -298q0 -97 43 -168q38 -63 121 -121q60 -42 180 -104q137 -70 192 -110q97 -70 144 -158q56 -106 56 -263q0 -203 -176 -344
q-169 -136 -394 -136q-208 0 -351 100q-159 112 -159 304q0 135 110.5 231.5t265.5 96.5q151 0 245 -58q105 -65 105 -184q0 -87 -70.5 -144.5t-163.5 -57.5q-85 0 -143 32q-69 38 -69 108q0 42 35 70q27 22 48 25t23 3q8 0 8 -6l-4 -12q-1 -2 -4 -12q-6 -20 -6 -44
q0 -31 31.5 -53.5t68.5 -22.5q62 0 103 38t41 94q0 84 -83 131q-72 41 -173 41q-129 0 -223 -76q-99 -80 -99 -200q0 -156 149 -250q133 -84 317 -84q187 0 321 116q139 120 139 298q0 95 -48 172q-43 68 -125 126q-64 45 -171 94q-123 56 -183 99q-97 69 -148 162
q-61 112 -61 271q0 210 176 349q166 131 394 131q208 0 351 -100q159 -112 159 -304z" />
    <glyph glyph-name="twosuperior" 
d="M1372 1162q0 -135 -110.5 -231.5t-265.5 -96.5q-151 0 -245 58q-105 65 -105 184q0 87 70.5 144.5t163.5 57.5q85 0 143 -32q69 -38 69 -108q0 -42 -35 -70q-27 -22 -48 -25t-23 -3q-8 0 -8 6l4 12q1 2 5.5 17t4.5 39q0 31 -31.5 53.5t-68.5 22.5q-62 0 -103 -38t-41 -94
q0 -84 83 -131q72 -41 173 -41q129 0 223 76q99 80 99 200q0 156 -149 250q-133 84 -317 84q-187 0 -321 -116q-139 -120 -139 -298q0 -97 43 -168q38 -63 121 -121q60 -42 180 -104q137 -70 192 -110q97 -70 144 -158q56 -106 56 -263q0 -203 -176 -344
q-169 -136 -394 -136q-208 0 -351 100q-159 112 -159 304q0 135 110.5 231.5t265.5 96.5q151 0 245 -58q105 -65 105 -184q0 -87 -70.5 -144.5t-163.5 -57.5q-85 0 -143 32q-69 38 -69 108q0 42 35 70q27 22 48 25t23 3q8 0 8 -6l-4 -12q-1 -2 -4 -12q-6 -20 -6 -44
q0 -31 31.5 -53.5t68.5 -22.5q62 0 103 38t41 94q0 84 -83 131q-72 41 -173 41q-129 0 -223 -76q-99 -80 -99 -200q0 -156 149 -250q133 -84 317 -84q187 0 321 116q139 120 139 298q0 95 -48 172q-43 68 -125 126q-64 45 -171 94q-123 56 -183 99q-97 69 -148 162
q-61 112 -61 271q0 210 176 349q166 131 394 131q208 0 351 -100q159 -112 159 -304z" />
    <glyph glyph-name="threesuperior" 
d="M1372 1162q0 -135 -110.5 -231.5t-265.5 -96.5q-151 0 -245 58q-105 65 -105 184q0 87 70.5 144.5t163.5 57.5q85 0 143 -32q69 -38 69 -108q0 -42 -35 -70q-27 -22 -48 -25t-23 -3q-8 0 -8 6l4 12q1 2 5.5 17t4.5 39q0 31 -31.5 53.5t-68.5 22.5q-62 0 -103 -38t-41 -94
q0 -84 83 -131q72 -41 173 -41q129 0 223 76q99 80 99 200q0 156 -149 250q-133 84 -317 84q-187 0 -321 -116q-139 -120 -139 -298q0 -97 43 -168q38 -63 121 -121q60 -42 180 -104q137 -70 192 -110q97 -70 144 -158q56 -106 56 -263q0 -203 -176 -344
q-169 -136 -394 -136q-208 0 -351 100q-159 112 -159 304q0 135 110.5 231.5t265.5 96.5q151 0 245 -58q105 -65 105 -184q0 -87 -70.5 -144.5t-163.5 -57.5q-85 0 -143 32q-69 38 -69 108q0 42 35 70q27 22 48 25t23 3q8 0 8 -6l-4 -12q-1 -2 -4 -12q-6 -20 -6 -44
q0 -31 31.5 -53.5t68.5 -22.5q62 0 103 38t41 94q0 84 -83 131q-72 41 -173 41q-129 0 -223 -76q-99 -80 -99 -200q0 -156 149 -250q133 -84 317 -84q187 0 321 116q139 120 139 298q0 95 -48 172q-43 68 -125 126q-64 45 -171 94q-123 56 -183 99q-97 69 -148 162
q-61 112 -61 271q0 210 176 349q166 131 394 131q208 0 351 -100q159 -112 159 -304z" />
    <glyph glyph-name="onehalf" 
d="M1372 1162q0 -135 -110.5 -231.5t-265.5 -96.5q-151 0 -245 58q-105 65 -105 184q0 87 70.5 144.5t163.5 57.5q85 0 143 -32q69 -38 69 -108q0 -42 -35 -70q-27 -22 -48 -25t-23 -3q-8 0 -8 6l4 12q1 2 5.5 17t4.5 39q0 31 -31.5 53.5t-68.5 22.5q-62 0 -103 -38t-41 -94
q0 -84 83 -131q72 -41 173 -41q129 0 223 76q99 80 99 200q0 156 -149 250q-133 84 -317 84q-187 0 -321 -116q-139 -120 -139 -298q0 -97 43 -168q38 -63 121 -121q60 -42 180 -104q137 -70 192 -110q97 -70 144 -158q56 -106 56 -263q0 -203 -176 -344
q-169 -136 -394 -136q-208 0 -351 100q-159 112 -159 304q0 135 110.5 231.5t265.5 96.5q151 0 245 -58q105 -65 105 -184q0 -87 -70.5 -144.5t-163.5 -57.5q-85 0 -143 32q-69 38 -69 108q0 42 35 70q27 22 48 25t23 3q8 0 8 -6l-4 -12q-1 -2 -4 -12q-6 -20 -6 -44
q0 -31 31.5 -53.5t68.5 -22.5q62 0 103 38t41 94q0 84 -83 131q-72 41 -173 41q-129 0 -223 -76q-99 -80 -99 -200q0 -156 149 -250q133 -84 317 -84q187 0 321 116q139 120 139 298q0 95 -48 172q-43 68 -125 126q-64 45 -171 94q-123 56 -183 99q-97 69 -148 162
q-61 112 -61 271q0 210 176 349q166 131 394 131q208 0 351 -100q159 -112 159 -304z" />
    <glyph glyph-name="onequarter" 
d="M1372 1162q0 -135 -110.5 -231.5t-265.5 -96.5q-151 0 -245 58q-105 65 -105 184q0 87 70.5 144.5t163.5 57.5q85 0 143 -32q69 -38 69 -108q0 -42 -35 -70q-27 -22 -48 -25t-23 -3q-8 0 -8 6l4 12q1 2 5.5 17t4.5 39q0 31 -31.5 53.5t-68.5 22.5q-62 0 -103 -38t-41 -94
q0 -84 83 -131q72 -41 173 -41q129 0 223 76q99 80 99 200q0 156 -149 250q-133 84 -317 84q-187 0 -321 -116q-139 -120 -139 -298q0 -97 43 -168q38 -63 121 -121q60 -42 180 -104q137 -70 192 -110q97 -70 144 -158q56 -106 56 -263q0 -203 -176 -344
q-169 -136 -394 -136q-208 0 -351 100q-159 112 -159 304q0 135 110.5 231.5t265.5 96.5q151 0 245 -58q105 -65 105 -184q0 -87 -70.5 -144.5t-163.5 -57.5q-85 0 -143 32q-69 38 -69 108q0 42 35 70q27 22 48 25t23 3q8 0 8 -6l-4 -12q-1 -2 -4 -12q-6 -20 -6 -44
q0 -31 31.5 -53.5t68.5 -22.5q62 0 103 38t41 94q0 84 -83 131q-72 41 -173 41q-129 0 -223 -76q-99 -80 -99 -200q0 -156 149 -250q133 -84 317 -84q187 0 321 116q139 120 139 298q0 95 -48 172q-43 68 -125 126q-64 45 -171 94q-123 56 -183 99q-97 69 -148 162
q-61 112 -61 271q0 210 176 349q166 131 394 131q208 0 351 -100q159 -112 159 -304z" />
    <glyph glyph-name="threequarters" 
d="M1372 1162q0 -135 -110.5 -231.5t-265.5 -96.5q-151 0 -245 58q-105 65 -105 184q0 87 70.5 144.5t163.5 57.5q85 0 143 -32q69 -38 69 -108q0 -42 -35 -70q-27 -22 -48 -25t-23 -3q-8 0 -8 6l4 12q1 2 5.5 17t4.5 39q0 31 -31.5 53.5t-68.5 22.5q-62 0 -103 -38t-41 -94
q0 -84 83 -131q72 -41 173 -41q129 0 223 76q99 80 99 200q0 156 -149 250q-133 84 -317 84q-187 0 -321 -116q-139 -120 -139 -298q0 -97 43 -168q38 -63 121 -121q60 -42 180 -104q137 -70 192 -110q97 -70 144 -158q56 -106 56 -263q0 -203 -176 -344
q-169 -136 -394 -136q-208 0 -351 100q-159 112 -159 304q0 135 110.5 231.5t265.5 96.5q151 0 245 -58q105 -65 105 -184q0 -87 -70.5 -144.5t-163.5 -57.5q-85 0 -143 32q-69 38 -69 108q0 42 35 70q27 22 48 25t23 3q8 0 8 -6l-4 -12q-1 -2 -4 -12q-6 -20 -6 -44
q0 -31 31.5 -53.5t68.5 -22.5q62 0 103 38t41 94q0 84 -83 131q-72 41 -173 41q-129 0 -223 -76q-99 -80 -99 -200q0 -156 149 -250q133 -84 317 -84q187 0 321 116q139 120 139 298q0 95 -48 172q-43 68 -125 126q-64 45 -171 94q-123 56 -183 99q-97 69 -148 162
q-61 112 -61 271q0 210 176 349q166 131 394 131q208 0 351 -100q159 -112 159 -304z" />
  </font>
</defs>
</svg>
