<?xml version="1.0" standalone="no"?>
<!DOCTYPE svg PUBLIC "-//W3C//DTD SVG 1.1//EN" "http://www.w3.org/Graphics/SVG/1.1/DTD/svg11.dtd" >
<svg xmlns="http://www.w3.org/2000/svg" xmlns:xlink="http://www.w3.org/1999/xlink" version="1.1">
<metadata>
Created by FontForge 20161003 at Thu Oct  5 09:00:17 2017
 By www-data
Copyright 2001 Superlooper
</metadata>
<defs>
<font id="SUPERG" horiz-adv-x="930" >
  <font-face 
    font-family="SUPERG"
    font-weight="400"
    font-stretch="normal"
    units-per-em="1000"
    panose-1="0 0 4 0 0 0 0 0 0 0"
    ascent="800"
    descent="-200"
    x-height="519"
    cap-height="652"
    bbox="-15 -178 874 859"
    underline-thickness="20"
    underline-position="-163"
    unicode-range="U+0020-00FC"
  />
<missing-glyph horiz-adv-x="500" 
d="M63 0v800h375v-800h-375zM125 63h250v675h-250v-675z" />
    <glyph glyph-name=".notdef" horiz-adv-x="500" 
d="M63 0v800h375v-800h-375zM125 63h250v675h-250v-675z" />
    <glyph glyph-name=".null" horiz-adv-x="0" 
 />
    <glyph glyph-name="nonmarkingreturn" horiz-adv-x="500" 
 />
    <glyph glyph-name="space" unicode=" " horiz-adv-x="500" 
 />
    <glyph glyph-name="exclam" unicode="!" horiz-adv-x="174" 
d="M74 133h-74v519h74v-519zM74 0h-74v74h74v-74z" />
    <glyph glyph-name="quotedbl" unicode="&#x22;" horiz-adv-x="323" 
d="M223 696h-74v163h74v-163zM74 696h-74v163h74v-163z" />
    <glyph glyph-name="numbersign" unicode="#" horiz-adv-x="708" 
d="M608 178h-178v-178h-74v178h-104v-178h-74v178h-178v74h178v104h-178v74h178v178h74v-178h104v178h74v-178h178v-74h-178v-104h178v-74zM356 252v104h-104v-104h104z" />
    <glyph glyph-name="dollar" unicode="$" 
d="M830 193q0 -80 -56.5 -136.5t-136.5 -56.5h-118v-44h-75v44h-103v-44h-74v44h-267v74h267v282h-119q-61 0 -104.5 43t-43.5 105q0 61 43.5 104.5t104.5 43.5h119v45h74v-45h103v45h75v-45h267v-74h-267v-148h118q80 0 136.5 -56.5t56.5 -136.5v-44zM444 430v148h-103
v-148h103zM755 193v44q0 49 -34.5 84t-83.5 35h-118v-282h118q49 0 83.5 35t34.5 84zM267 430v148h-119q-30 0 -52 -22t-22 -52q0 -31 22 -52.5t52 -21.5h119zM444 74v282h-103v-282h103z" />
    <glyph glyph-name="percent" unicode="%" horiz-adv-x="663" 
d="M563 148q0 -43 -30.5 -73.5t-73.5 -30.5t-73 30.5t-30 73.5t30 73.5t73 30.5t73.5 -30.5t30.5 -73.5zM519 474q0 -71 -43 -117t-105 -46q-31 0 -52.5 -21.5t-21.5 -52.5q0 -61 -43.5 -104.5t-105.5 -43.5q-31 0 -52 -24t-22 -65h-74q0 72 43 117.5t105 45.5q31 0 52.5 22
t21.5 52q0 62 43.5 105.5t105.5 43.5q31 0 52 24t21 64h75zM208 371q0 -43 -30.5 -73.5t-73.5 -30.5t-73.5 30.5t-30.5 73.5t30.5 73t73.5 30t73.5 -30t30.5 -73zM489 148q0 30 -30 30q-29 0 -29 -30q0 -29 29 -29q30 0 30 29zM133 371q0 29 -29 29q-30 0 -30 -29
q0 -30 30 -30q29 0 29 30z" />
    <glyph glyph-name="ampersand" unicode="&#x26;" 
d="M830 89h-74q0 75 -60 87q-6 -74 -61.5 -125t-130.5 -51h-311q-80 0 -136.5 56.5t-56.5 136.5v44q0 60 32.5 108t85.5 70q-29 40 -29 89q0 61 43.5 104.5t104.5 43.5h222q62 0 105.5 -43.5t43.5 -104.5q0 -49 -30 -89q50 -20 81.5 -63.5t36.5 -97.5q60 11 60 87h74
q0 -81 -51 -126q51 -44 51 -126zM533 504q0 30 -21.5 52t-52.5 22h-222q-30 0 -52 -22t-22 -52q0 -31 22 -52.5t52 -21.5h222q31 0 52.5 21.5t21.5 52.5zM622 193v44q0 49 -34.5 84t-83.5 35h-311q-49 0 -84 -35t-35 -84v-44q0 -49 35 -84t84 -35h311q49 0 83.5 35t34.5 84z
" />
    <glyph glyph-name="quotesingle" unicode="'" horiz-adv-x="174" 
d="M74 696h-74v163h74v-163z" />
    <glyph glyph-name="parenleft" unicode="(" horiz-adv-x="397" 
d="M297 637h-104q-49 0 -83.5 -35t-34.5 -84l-1 -400q0 -49 35 -83.5t84 -34.5h104v-74h-104q-80 0 -136.5 56t-56.5 136v400q0 80 56.5 136.5t136.5 56.5h104v-74z" />
    <glyph glyph-name="parenright" unicode=")" horiz-adv-x="397" 
d="M297 118q0 -80 -56.5 -136t-136.5 -56h-104v74h104q49 0 83.5 34.5t34.5 83.5v400q0 49 -34.5 84t-83.5 35h-104v74h104q80 0 136.5 -56.5t56.5 -136.5v-400z" />
    <glyph glyph-name="plus" unicode="+" horiz-adv-x="708" 
d="M608 267h-267v-267h-74v267h-267v74h267v267h74v-267h267v-74z" />
    <glyph glyph-name="comma" unicode="," horiz-adv-x="144" 
d="M74 -89h-74v163h74v-163z" />
    <glyph glyph-name="hyphen" unicode="-" 
d="M830 385h-830v74h830v-74z" />
    <glyph glyph-name="hyphen" unicode="&#x2010;" 
d="M830 385h-830v74h830v-74z" />
    <glyph glyph-name="period" unicode="." horiz-adv-x="174" 
d="M74 0h-74v74h74v-74z" />
    <glyph glyph-name="slash" unicode="/" horiz-adv-x="797" 
d="M697 667q-41 0 -65 -21.5t-24 -52.5q0 -62 -43.5 -105.5t-105.5 -43.5q-30 0 -51.5 -21.5t-21.5 -51.5q0 -62 -43.5 -105.5t-105.5 -43.5q-30 0 -52 -21.5t-22 -52.5q0 -62 -45.5 -105t-117.5 -43v74q41 0 65 21.5t24 52.5q0 62 43.5 105.5t104.5 43.5q31 0 52.5 21.5
t21.5 52.5q0 61 43.5 104.5t104.5 43.5q31 0 52.5 21.5t21.5 52.5q0 62 46 105t118 43v-74z" />
    <glyph glyph-name="zero" unicode="0" 
d="M830 459v-266q0 -80 -56.5 -136.5t-136.5 -56.5h-444q-80 0 -136.5 56.5t-56.5 136.5v266q0 80 56.5 136.5t136.5 56.5h444q80 0 136.5 -56.5t56.5 -136.5zM755 459q0 49 -34.5 84t-83.5 35h-444q-49 0 -83.5 -35t-34.5 -84l-1 -266q0 -49 35 -84t84 -35h444
q49 0 83.5 35t34.5 84v266z" />
    <glyph glyph-name="one" unicode="1" horiz-adv-x="397" 
d="M297 0h-75v464h1h-1q0 46 -34.5 80t-83.5 34h-104v74h104q80 0 136.5 -56.5t56.5 -136.5v-459z" />
    <glyph glyph-name="two" unicode="2" 
d="M830 0h-637q-80 0 -136.5 56.5t-56.5 136.5v44q0 80 56.5 136.5t136.5 56.5h489q30 0 52 21.5t22 52.5q0 30 -22 52t-52 22h-504v74h504q61 0 104.5 -43.5t43.5 -104.5q0 -62 -43.5 -105t-104.5 -43h-489q-49 0 -83.5 -35t-34.5 -84l-1 -44q0 -49 35 -84t84 -35h637v-74z
" />
    <glyph glyph-name="three" unicode="3" 
d="M0 74h637q49 0 83.5 35t34.5 84v44q0 49 -34.5 84t-83.5 35h-552v74h508q30 0 52 21.5t22 52.5q0 30 -22 52t-52 22h-593v74h593q61 0 104.5 -43.5t43.5 -104.5q0 -49 -29 -89q53 -22 85.5 -70t32.5 -108v-44q0 -80 -56.5 -136.5t-136.5 -56.5h-637v74z" />
    <glyph glyph-name="four" unicode="4" 
d="M830 415q0 -77 -52 -134.5t-126 -57.5v-223h-74v222h-385q-80 0 -136.5 56.5t-56.5 136.5v237h74v-237q0 -49 35 -83.5t84 -34.5h444q49 0 83.5 34.5t34.5 83.5v237h75v-237z" />
    <glyph glyph-name="five" unicode="5" 
d="M830 193q0 -80 -56.5 -136.5t-136.5 -56.5h-637v74h637q49 0 83.5 35t34.5 84v44q0 49 -34.5 84t-83.5 35h-489q-61 0 -104.5 43t-43.5 105q0 61 43.5 104.5t104.5 43.5h504v-74h-504q-30 0 -52 -22t-22 -52q0 -31 22 -52.5t52 -21.5h489q80 0 136.5 -56.5t56.5 -136.5
v-44z" />
    <glyph glyph-name="six" unicode="6" 
d="M830 193q0 -80 -56.5 -136.5t-136.5 -56.5h-444q-80 0 -136.5 56.5t-56.5 136.5v89q0 77 52.5 134.5t125.5 57.5q0 74 57.5 126t134.5 52h282v-74h-282q-45 0 -78 -30t-39 -74h384q80 0 136.5 -56t56.5 -136v-89zM755 193v89q0 49 -34.5 83.5t-83.5 34.5h-444
q-49 0 -84 -34.5t-35 -83.5v-89q0 -49 35 -84t84 -35h444q49 0 83.5 35t34.5 84z" />
    <glyph glyph-name="seven" unicode="7" 
d="M830 504q0 -62 -43.5 -105t-104.5 -43h-134q-49 0 -83.5 -35t-34.5 -84v-237h-74v237q0 80 56 136.5t136 56.5h134q30 0 52 21.5t22 52.5q0 30 -22 52t-52 22h-682v74h682q61 0 104.5 -43.5t43.5 -104.5z" />
    <glyph glyph-name="eight" unicode="8" 
d="M830 193q0 -80 -56.5 -136.5t-136.5 -56.5h-444q-80 0 -136.5 56.5t-56.5 136.5v44q0 60 32.5 108t85.5 70q-29 40 -29 89q0 61 43.5 104.5t104.5 43.5h356q61 0 104.5 -43.5t43.5 -104.5q0 -49 -29 -89q53 -22 85.5 -70t32.5 -108v-44zM667 504q0 30 -22 52t-52 22h-356
q-30 0 -52 -22t-22 -52q0 -31 22 -52.5t52 -21.5h356q30 0 52 21.5t22 52.5zM755 193v44q0 49 -34.5 84t-83.5 35h-444q-49 0 -84 -35t-35 -84v-44q0 -49 35 -84t84 -35h444q49 0 83.5 35t34.5 84z" />
    <glyph glyph-name="nine" unicode="9" 
d="M830 371q0 -78 -52 -135.5t-126 -57.5q0 -74 -57.5 -126t-135.5 -52h-281v74h281q45 0 78.5 30t39.5 74h-384q-80 0 -136.5 56.5t-56.5 136.5v88q0 80 56.5 136.5t136.5 56.5h444q80 0 136.5 -56.5t56.5 -136.5v-88zM755 371v88q0 49 -34.5 84t-83.5 35h-444
q-49 0 -84 -35t-35 -84v-88q0 -49 35 -84t84 -35h444q49 0 83.5 35t34.5 84z" />
    <glyph glyph-name="colon" unicode=":" horiz-adv-x="174" 
d="M74 372h-74v75h74v-75zM74 0h-74v74h74v-74z" />
    <glyph glyph-name="semicolon" unicode=";" horiz-adv-x="174" 
d="M74 372h-74v75h74v-75zM74 -89h-74v163h74v-163z" />
    <glyph glyph-name="less" unicode="&#x3c;" horiz-adv-x="486" 
d="M386 0q-72 0 -118 43t-46 105q0 31 -21.5 52.5t-52.5 21.5q-61 0 -104.5 43.5t-43.5 105.5q0 61 43.5 104.5t104.5 43.5q31 0 52.5 21.5t21.5 52.5q0 62 46 105t118 43v-74q-41 0 -65 -21.5t-24 -52.5q0 -62 -43.5 -105.5t-105.5 -43.5q-30 0 -52 -21.5t-22 -51.5
q0 -31 22 -52.5t52 -21.5q62 0 105.5 -43.5t43.5 -105.5q0 -31 24 -52.5t65 -21.5v-74z" />
    <glyph glyph-name="equal" unicode="=" 
d="M830 385h-830v74h830v-74zM830 207h-830v75h830v-75z" />
    <glyph glyph-name="greater" unicode="&#x3e;" horiz-adv-x="486" 
d="M386 371q0 -62 -43.5 -105.5t-105.5 -43.5q-30 0 -52 -21.5t-22 -52.5q0 -62 -45.5 -105t-117.5 -43v74q41 0 65 21.5t24 52.5q0 62 43.5 105.5t104.5 43.5q31 0 52.5 21.5t21.5 52.5q0 30 -21.5 51.5t-52.5 21.5q-61 0 -104.5 43.5t-43.5 105.5q0 31 -24 52.5t-65 21.5
v74q72 0 117.5 -43t45.5 -105q0 -31 22 -52.5t52 -21.5q62 0 105.5 -43.5t43.5 -104.5z" />
    <glyph glyph-name="question" unicode="?" 
d="M830 504q0 -62 -43.5 -105t-104.5 -43h-534q-30 0 -52 -22t-22 -52q0 -31 22 -52.5t52 -21.5h638v-75h-638q-61 0 -104.5 43.5t-43.5 105.5q0 61 43.5 104.5t104.5 43.5h534q30 0 52 21.5t22 52.5q0 30 -22 52t-52 22h-638v74h638q61 0 104.5 -43.5t43.5 -104.5zM452 0
h-74v74h74v-74z" />
    <glyph glyph-name="at" unicode="@" 
d="M830 296v-44q0 -80 -56.5 -136.5t-136.5 -56.5h-355q-62 0 -105.5 43.5t-43.5 104.5q0 62 43.5 105.5t105.5 43.5h415v-75h-415q-31 0 -52.5 -21.5t-21.5 -52.5q0 -30 21.5 -52t52.5 -22h355q49 0 83.5 35t34.5 84l1 44q0 49 -35 83.5t-84 34.5h-444q-49 0 -83.5 -34.5
t-34.5 -83.5l-1 -178q0 -49 35 -83.5t84 -34.5h593v-74h-593q-80 0 -136.5 56t-56.5 136v178q0 80 56.5 136.5t136.5 56.5h444q80 0 136.5 -56.5t56.5 -136.5z" />
    <glyph glyph-name="A" unicode="A" 
d="M830 0h-74v237q0 49 -35 84t-84 35h-444q-49 0 -84 -35t-35 -84v-237h-74v237q0 76 51.5 131.5t126.5 60.5v75q0 61 43.5 104.5t104.5 43.5h178q61 0 104.5 -43.5t43.5 -104.5v-75q75 -5 126.5 -60.5t51.5 -131.5v-237zM578 430v74q0 30 -22 52t-52 22h-178
q-30 0 -52 -22t-22 -52q0 -47 -4 -74h330z" />
    <glyph glyph-name="B" unicode="B" 
d="M830 193q0 -80 -56.5 -136.5t-136.5 -56.5h-444q-80 0 -136.5 56.5t-56.5 136.5v266q0 80 56.5 136.5t136.5 56.5h400q61 0 104.5 -43.5t43.5 -104.5q0 -49 -29 -89q53 -22 85.5 -70t32.5 -108v-44zM755 193v44q0 49 -34.5 84t-83.5 35h-504v74h460q30 0 52 21.5t22 52.5
q0 30 -22 52t-52 22h-400q-49 0 -83.5 -35t-34.5 -84l-1 -266q0 -49 35 -84t84 -35h444q49 0 83.5 35t34.5 84z" />
    <glyph glyph-name="C" unicode="C" horiz-adv-x="841" 
d="M741 0h-548q-80 0 -136.5 56.5t-56.5 136.5v266q0 80 56.5 136.5t136.5 56.5h548v-74h-548q-49 0 -83.5 -35t-34.5 -84l-1 -266q0 -49 35 -84t84 -35h548v-74z" />
    <glyph glyph-name="D" unicode="D" 
d="M830 193q0 -80 -56.5 -136.5t-136.5 -56.5h-459v74h459q49 0 83.5 35t34.5 84v266q0 49 -34.5 84t-83.5 35h-444q-49 0 -84 -35t-35 -84v-459h-74v459q0 80 56.5 136.5t136.5 56.5h444q80 0 136.5 -56.5t56.5 -136.5v-266z" />
    <glyph glyph-name="E" unicode="E" 
d="M830 0h-637q-80 0 -136.5 56.5t-56.5 136.5v44q0 60 32.5 108t85.5 70q-29 40 -29 89q0 61 43.5 104.5t104.5 43.5h593v-74h-593q-30 0 -52 -22t-22 -52q0 -31 22 -52.5t52 -21.5h489v-74h-533q-49 0 -84 -35t-35 -84v-44q0 -49 35 -84t84 -35h637v-74z" />
    <glyph glyph-name="F" unicode="F" horiz-adv-x="915" 
d="M815 578h-622q-49 0 -84 -35t-35 -84v-44q0 -49 35 -83.5t84 -34.5h533v-75h-474v-222h-74v223q-75 6 -126.5 61t-51.5 131v44q0 80 56.5 136.5t136.5 56.5h622v-74z" />
    <glyph glyph-name="G" unicode="G" 
d="M830 193q0 -80 -56.5 -136.5t-136.5 -56.5h-444q-80 0 -136.5 56.5t-56.5 136.5v266q0 80 56.5 136.5t136.5 56.5h593v-74h-593q-49 0 -83.5 -35t-34.5 -84l-1 -266q0 -49 35 -84t84 -35h444q49 0 83.5 35t34.5 84v44q0 49 -34.5 84t-83.5 35h-459v74h459
q80 0 136.5 -56.5t56.5 -136.5v-44z" />
    <glyph glyph-name="H" unicode="H" 
d="M830 0h-74v282q0 49 -35 83.5t-84 34.5h-444q-49 0 -84 -34.5t-35 -83.5v-282h-74v282q0 75 51.5 130.5t126.5 61.5v178h74v-178h326v178h74v-178q75 -6 126.5 -61.5t51.5 -130.5v-282z" />
    <glyph glyph-name="I" unicode="I" horiz-adv-x="174" 
d="M74 0h-74v652h74v-652z" />
    <glyph glyph-name="J" unicode="J" 
d="M830 193q0 -80 -56.5 -136.5t-136.5 -56.5h-444q-80 0 -136.5 56.5t-56.5 136.5v59h74v-59q0 -49 35 -84t84 -35l444 1q49 0 84 34.5t35 83.5v459h74v-459z" />
    <glyph glyph-name="K" unicode="K" 
d="M830 0h-74v104q0 49 -35 83.5t-84 34.5h-444q-74 0 -119 59v-281h-74v652h74v-192q45 59 119 59h355q51 0 85 37.5t34 98.5h74q0 -81 -57 -146t-136 -65h-355q-31 0 -52.5 -21.5t-21.5 -51.5q0 -31 21.5 -52.5t52.5 -21.5h444q80 0 136.5 -56.5t56.5 -136.5v-104z" />
    <glyph glyph-name="L" unicode="L" horiz-adv-x="841" 
d="M741 0h-548q-80 0 -136.5 56.5t-56.5 136.5v459h74v-459q0 -49 35 -84t84 -35h548v-74z" />
    <glyph glyph-name="M" unicode="M" horiz-adv-x="974" 
d="M874 0h-74v459q0 49 -34.5 84t-83.5 35h-89q-49 0 -84 -35t-35 -84v-459h-74v459q0 49 -34.5 84t-83.5 35h-89q-49 0 -84 -35t-35 -84v-459h-74v459q0 80 56.5 136.5t136.5 56.5h89q98 0 155 -79q58 79 156 79h89q79 0 135.5 -56.5t56.5 -136.5v-459z" />
    <glyph glyph-name="N" unicode="N" horiz-adv-x="886" 
d="M786 193q0 -80 -56.5 -136.5t-136.5 -56.5h-45q-79 0 -135.5 56.5t-56.5 136.5v266q0 49 -35 84t-84 35h-44q-49 0 -84 -34.5t-35 -84.5v-459h-74v459q0 80 56.5 136.5t136.5 56.5h44q80 0 136.5 -56.5t56.5 -136.5v-266q0 -49 34.5 -83.5t83.5 -34.5l45 -1q49 0 83.5 35
t34.5 84v459h75v-459z" />
    <glyph glyph-name="O" unicode="O" 
d="M830 459v-266q0 -80 -56.5 -136.5t-136.5 -56.5h-444q-80 0 -136.5 56.5t-56.5 136.5v266q0 80 56.5 136.5t136.5 56.5h444q80 0 136.5 -56.5t56.5 -136.5zM755 459q0 49 -34.5 84t-83.5 35h-444q-49 0 -83.5 -35t-34.5 -84l-1 -266q0 -49 35 -84t84 -35h444
q49 0 83.5 35t34.5 84v266z" />
    <glyph glyph-name="P" unicode="P" 
d="M830 326q0 -80 -56.5 -136.5t-136.5 -56.5h-385v-133h-74v134q-74 0 -126 57.5t-52 134.5v133q0 80 56.5 136.5t136.5 56.5h444q80 0 136.5 -56.5t56.5 -136.5v-133zM755 326v133q0 49 -34.5 84t-83.5 35h-444q-49 0 -84 -35t-35 -84v-133q0 -49 35 -83.5t84 -34.5h444
q49 0 83.5 34.5t34.5 83.5z" />
    <glyph glyph-name="Q" unicode="Q" 
d="M830 193q0 -78 -51.5 -135t-126.5 -57v-134h-74v133h-385q-80 0 -136.5 56.5t-56.5 136.5v266q0 80 56.5 136.5t136.5 56.5h444q80 0 136.5 -56.5t56.5 -136.5v-266zM755 193v266q0 49 -34.5 84t-83.5 35h-444q-49 0 -84 -35t-35 -84v-266q0 -49 35 -84t84 -35h444
q49 0 83.5 35t34.5 84z" />
    <glyph glyph-name="R" unicode="R" 
d="M830 415q0 -80 -56.5 -136.5t-136.5 -56.5h-355q-31 0 -52.5 -21.5t-21.5 -52.5q0 -30 21.5 -52t52.5 -22h504v-74h-504q-62 0 -105.5 43.5t-43.5 104.5q0 62 43.5 105.5t105.5 43.5h355q49 0 83.5 34.5t34.5 83.5v44q0 49 -34.5 84t-83.5 35h-444q-49 0 -83.5 -35
t-34.5 -84l-1 -459h-74v459q0 80 56.5 136.5t136.5 56.5h444q80 0 136.5 -56.5t56.5 -136.5v-44z" />
    <glyph glyph-name="S" unicode="S" 
d="M830 193q0 -80 -56.5 -136.5t-136.5 -56.5h-637v74h637q49 0 83.5 35t34.5 84v44q0 49 -34.5 84t-83.5 35h-489q-61 0 -104.5 43t-43.5 105q0 61 43.5 104.5t104.5 43.5h638v-74h-638q-30 0 -52 -22t-22 -52q0 -31 22 -52.5t52 -21.5h489q80 0 136.5 -56.5t56.5 -136.5
v-44z" />
    <glyph glyph-name="T" unicode="T" 
d="M830 578h-260q-49 0 -83.5 -35t-34.5 -84v-459h-74v459q0 49 -34.5 84t-83.5 35h-260v74h260q97 0 155 -79q58 79 155 79h260v-74z" />
    <glyph glyph-name="U" unicode="U" 
d="M830 193q0 -80 -56.5 -136.5t-136.5 -56.5h-444q-80 0 -136.5 56.5t-56.5 136.5v459h74v-459q0 -49 35 -84t84 -35h444q49 0 84 35t35 84v459h74v-459z" />
    <glyph glyph-name="V" unicode="V" 
d="M830 371q0 -62 -43.5 -105.5t-104.5 -43.5q-31 0 -52.5 -21.5t-21.5 -52.5q0 -61 -43.5 -104.5t-105.5 -43.5h-88q-62 0 -105.5 43.5t-43.5 104.5q0 31 -21.5 52.5t-52.5 21.5q-61 0 -104.5 43.5t-43.5 105.5v281h74v-281q0 -31 22 -52.5t52 -21.5q62 0 105.5 -43.5
t43.5 -105.5q0 -30 21.5 -52t52.5 -22h88q31 0 52.5 22t21.5 52q0 62 43.5 105.5t105.5 43.5q30 0 51.5 21.5t21.5 52.5l1 281h74v-281z" />
    <glyph glyph-name="W" unicode="W" horiz-adv-x="974" 
d="M874 193q0 -80 -56.5 -136.5t-135.5 -56.5h-89q-98 0 -156 79q-57 -79 -155 -79h-89q-80 0 -136.5 56.5t-56.5 136.5v459h74v-459q0 -49 35 -84t84 -35h89q49 0 83.5 35t34.5 84v459h74v-459q0 -49 35 -84t84 -35h89q49 0 83.5 35t34.5 84v459h74v-459z" />
    <glyph glyph-name="X" unicode="X" horiz-adv-x="886" 
d="M786 0h-238q-97 0 -155 79q-58 -79 -156 -79h-237v74h237q49 0 83.5 35t34.5 84v266q0 49 -34.5 84t-83.5 35h-237v74h237q98 0 156 -79q58 79 155 79h238v-74h-238q-49 0 -83.5 -35t-34.5 -84v-266q0 -49 34.5 -84t83.5 -35h238v-74z" />
    <glyph glyph-name="Y" unicode="Y" 
d="M830 415q0 -77 -52.5 -134.5t-125.5 -57.5v-223h-74v222h-385q-80 0 -136.5 56.5t-56.5 136.5v237h74v-237q0 -49 35 -83.5t84 -34.5h444q49 0 83.5 34.5t34.5 83.5v237h75v-237z" />
    <glyph glyph-name="Z" unicode="Z" 
d="M830 0h-637q-80 0 -136.5 56.5t-56.5 136.5v44q0 80 56.5 136.5t136.5 56.5h489q30 0 52 21.5t22 52.5q0 30 -22 52t-52 22h-638v74h638q61 0 104.5 -43.5t43.5 -104.5q0 -62 -43.5 -105t-104.5 -43h-489q-49 0 -83.5 -35t-34.5 -84l-1 -44q0 -49 35 -84t84 -35h637v-74z
" />
    <glyph glyph-name="bracketleft" unicode="[" horiz-adv-x="397" 
d="M297 637h-104q-49 0 -83.5 -35t-34.5 -84l-1 -400q0 -49 35 -83.5t84 -34.5h104v-74h-104q-80 0 -136.5 56t-56.5 136v400q0 80 56.5 136.5t136.5 56.5h104v-74z" />
    <glyph glyph-name="backslash" unicode="\" horiz-adv-x="797" 
d="M697 0q-72 0 -118 43t-46 105q0 31 -21.5 52.5t-52.5 21.5q-61 0 -104.5 43.5t-43.5 105.5q0 30 -21.5 51.5t-52.5 21.5q-61 0 -104.5 43.5t-43.5 105.5q0 31 -24 52.5t-65 21.5v74q72 0 117.5 -43t45.5 -105q0 -31 22 -52.5t52 -21.5q62 0 105.5 -43.5t43.5 -104.5
q0 -31 21.5 -52.5t51.5 -21.5q62 0 105.5 -43.5t43.5 -105.5q0 -31 24 -52.5t65 -21.5v-74z" />
    <glyph glyph-name="bracketright" unicode="]" horiz-adv-x="397" 
d="M297 118q0 -80 -56.5 -136t-136.5 -56h-104v74h104q49 0 83.5 34.5t34.5 83.5v400q0 49 -34.5 84t-83.5 35h-104v74h104q80 0 136.5 -56.5t56.5 -136.5v-400z" />
    <glyph glyph-name="underscore" unicode="_" 
d="M830 0h-830v74h830v-74z" />
    <glyph glyph-name="grave" unicode="`" horiz-adv-x="174" 
d="M74 696h-74v163h74v-163z" />
    <glyph glyph-name="a" unicode="a" 
d="M830 0h-74l-1 326q0 49 -34.5 83.5t-83.5 34.5h-444q-49 0 -83.5 -34.5t-34.5 -83.5l-1 -133q0 -49 35 -84t84 -35h459v-74h-459q-80 0 -136.5 56.5t-56.5 136.5v133q0 80 56.5 136.5t136.5 56.5h444q80 0 136.5 -56.5t56.5 -136.5v-326z" />
    <glyph glyph-name="b" unicode="b" 
d="M830 193q0 -80 -56.5 -136.5t-136.5 -56.5h-444q-80 0 -136.5 56.5t-56.5 136.5v133q0 76 51.5 131.5t126.5 60.5v134h74v-133h385q80 0 136.5 -56.5t56.5 -136.5v-133zM755 193v133q0 49 -34.5 83.5t-83.5 34.5h-444q-49 0 -84 -34.5t-35 -83.5v-133q0 -49 35 -84
t84 -35h444q49 0 83.5 35t34.5 84z" />
    <glyph glyph-name="c" unicode="c" horiz-adv-x="841" 
d="M741 0h-548q-80 0 -136.5 56.5t-56.5 136.5v133q0 80 56.5 136.5t136.5 56.5h548v-75h-548q-49 0 -83.5 -34.5t-34.5 -83.5l-1 -133q0 -49 35 -84t84 -35h548v-74z" />
    <glyph glyph-name="d" unicode="d" 
d="M830 193q0 -80 -56.5 -136.5t-136.5 -56.5h-444q-80 0 -136.5 56.5t-56.5 136.5v133q0 80 56.5 136.5t136.5 56.5h385v133h74v-134q75 -5 126.5 -60.5t51.5 -131.5v-133zM755 193v133q0 49 -34.5 83.5t-83.5 34.5h-444q-49 0 -84 -34.5t-35 -83.5v-133q0 -49 35 -84
t84 -35h444q49 0 83.5 35t34.5 84z" />
    <glyph glyph-name="e" unicode="e" 
d="M830 371q0 -62 -43.5 -105.5t-104.5 -43.5h-549v75h549q30 0 52 21.5t22 52.5q0 30 -22 51.5t-52 21.5h-489q-49 0 -83.5 -34.5t-34.5 -83.5l-1 -133q0 -49 35 -84t84 -35h593v-74h-593q-80 0 -136.5 56.5t-56.5 136.5v133q0 80 56.5 136.5t136.5 56.5h489
q61 0 104.5 -43.5t43.5 -104.5z" />
    <glyph glyph-name="f" unicode="f" horiz-adv-x="915" 
d="M815 444h-622q-49 0 -84 -34.5t-35 -83.5v-133q0 -49 35 -84t84 -35h533v-74h-474v-133h-74v134q-72 0 -125 57.5t-53 134.5v133q0 80 56.5 136.5t136.5 56.5h622v-75z" />
    <glyph glyph-name="g" unicode="g" 
d="M830 192q0 -77 -53 -134.5t-125 -57.5q0 -69 -58.5 -123.5t-133.5 -54.5h-282v74h282q46 0 81.5 30.5t35.5 72.5h-384q-80 0 -136.5 56.5t-56.5 136.5v134q0 79 56.5 135.5t136.5 56.5h444q80 0 136.5 -56.5t56.5 -135.5v-134zM755 192v134q0 49 -34.5 83.5t-83.5 34.5
h-444q-49 0 -84 -34.5t-35 -83.5v-134q0 -49 35 -83.5t84 -34.5h444q49 0 83.5 34.5t34.5 83.5z" />
    <glyph glyph-name="h" unicode="h" 
d="M830 0h-74v326q0 49 -35 83.5t-84 34.5h-444q-49 0 -84 -34.5t-35 -83.5v-326h-74v326q0 76 51.5 131.5t126.5 60.5v134h74v-133h385q80 0 136.5 -56.5t56.5 -136.5v-326z" />
    <glyph glyph-name="i" unicode="i" horiz-adv-x="174" 
d="M74 578h-74v74h74v-74zM74 0h-74v519h74v-519z" />
    <glyph glyph-name="j" unicode="j" horiz-adv-x="841" 
d="M741 578h-74v74h74v-74zM741 193q0 -80 -56.5 -136.5t-136.5 -56.5h-548v74h548q49 0 84 35t35 84v326h74v-326z" />
    <glyph glyph-name="k" unicode="k" 
d="M830 0h-74v104q0 49 -35 83.5t-84 34.5h-444q-74 0 -119 59v-281h-74v652h74v-192q45 59 119 59h548v-75h-548q-31 0 -52.5 -21.5t-21.5 -51.5q0 -31 21.5 -52.5t52.5 -21.5h444q80 0 136.5 -56.5t56.5 -136.5v-104z" />
    <glyph glyph-name="l" unicode="l" horiz-adv-x="841" 
d="M741 0h-548q-80 0 -136.5 56.5t-56.5 136.5v326h74v-326q0 -49 35 -84t84 -35h548v-74z" />
    <glyph glyph-name="m" unicode="m" horiz-adv-x="974" 
d="M874 0h-74v326q0 49 -34.5 83.5t-83.5 34.5h-89q-49 0 -84 -34.5t-35 -83.5v-326h-74v326q0 49 -34.5 83.5t-83.5 34.5h-89q-49 0 -84 -34.5t-35 -83.5v-326h-74v326q0 80 56.5 136.5t136.5 56.5h89q98 0 155 -79q58 79 156 79h89q79 0 135.5 -56.5t56.5 -136.5v-326z
" />
    <glyph glyph-name="n" unicode="n" 
d="M830 0h-74v326q0 49 -35 83.5t-84 34.5h-444q-49 0 -84 -34.5t-35 -83.5v-326h-74v326q0 80 56.5 136.5t136.5 56.5h444q80 0 136.5 -56.5t56.5 -136.5v-326z" />
    <glyph glyph-name="o" unicode="o" 
d="M830 326v-133q0 -80 -56.5 -136.5t-136.5 -56.5h-444q-80 0 -136.5 56.5t-56.5 136.5v133q0 80 56.5 136.5t136.5 56.5h444q80 0 136.5 -56.5t56.5 -136.5zM755 326q0 49 -34.5 83.5t-83.5 34.5h-444q-49 0 -83.5 -34.5t-34.5 -83.5l-1 -133q0 -49 35 -84t84 -35h444
q49 0 83.5 35t34.5 84v133z" />
    <glyph glyph-name="p" unicode="p" 
d="M830 193q0 -80 -56.5 -136.5t-136.5 -56.5h-385v-133h-74v134q-71 0 -124.5 58t-53.5 134v133q0 80 56.5 136.5t136.5 56.5h444q80 0 136.5 -56.5t56.5 -136.5v-133zM755 193v133q0 49 -34.5 83.5t-83.5 34.5h-444q-49 0 -84 -34.5t-35 -83.5v-133q0 -49 35 -84t84 -35
h444q49 0 83.5 35t34.5 84z" />
    <glyph glyph-name="q" unicode="q" 
d="M830 193q0 -77 -52.5 -134.5t-125.5 -57.5v-134h-74v133h-385q-80 0 -136.5 56.5t-56.5 136.5v133q0 80 56.5 136.5t136.5 56.5h444q80 0 136.5 -56.5t56.5 -136.5v-133zM755 193v133q0 49 -34.5 83.5t-83.5 34.5h-444q-49 0 -84 -34.5t-35 -83.5v-133q0 -49 35 -84
t84 -35h444q49 0 83.5 35t34.5 84z" />
    <glyph glyph-name="r" unicode="r" horiz-adv-x="841" 
d="M741 444h-548q-49 0 -84 -34.5t-35 -83.5v-326h-74v326q0 80 56.5 136.5t136.5 56.5h548v-75z" />
    <glyph glyph-name="s" unicode="s" 
d="M830 148q0 -61 -43.5 -104.5t-104.5 -43.5h-682v74h682q30 0 52 22t22 52q0 31 -22 52.5t-52 21.5h-534q-61 0 -104.5 43.5t-43.5 105.5q0 61 43.5 104.5t104.5 43.5h638v-75h-638q-30 0 -52 -21.5t-22 -51.5q0 -31 22 -52.5t52 -21.5h534q61 0 104.5 -43.5t43.5 -105.5z
" />
    <glyph glyph-name="t" unicode="t" horiz-adv-x="915" 
d="M815 0h-622q-80 0 -136.5 56.5t-56.5 136.5v133q0 78 51.5 135t126.5 57v134h74v-133h474v-75h-533q-49 0 -84 -34.5t-35 -83.5v-133q0 -49 35 -84t84 -35h622v-74z" />
    <glyph glyph-name="u" unicode="u" 
d="M830 193q0 -80 -56.5 -136.5t-136.5 -56.5h-444q-80 0 -136.5 56.5t-56.5 136.5v326h74v-326q0 -49 35 -84t84 -35h444q49 0 84 35t35 84v326h74v-326z" />
    <glyph glyph-name="v" unicode="v" 
d="M830 371q0 -62 -43.5 -105.5t-104.5 -43.5q-31 0 -52.5 -21.5t-21.5 -52.5q0 -61 -43.5 -104.5t-105.5 -43.5h-88q-62 0 -105.5 43.5t-43.5 104.5q0 31 -21.5 52.5t-52.5 21.5q-61 0 -104.5 43.5t-43.5 105.5v148h74v-148q0 -31 22 -52.5t52 -21.5q62 0 105.5 -43.5
t43.5 -105.5q0 -30 21.5 -52t52.5 -22h88q31 0 52.5 22t21.5 52q0 62 43.5 105.5t105.5 43.5q30 0 51.5 21.5t21.5 52.5l1 148h74v-148z" />
    <glyph glyph-name="w" unicode="w" horiz-adv-x="974" 
d="M874 193q0 -80 -56.5 -136.5t-135.5 -56.5h-89q-98 0 -156 79q-57 -79 -155 -79h-89q-80 0 -136.5 56.5t-56.5 136.5v326h74v-326q0 -49 35 -84t84 -35h89q49 0 83.5 35t34.5 84v326h74v-326q0 -49 35 -84t84 -35h89q49 0 83.5 35t34.5 84v326h74v-326z" />
    <glyph glyph-name="x" unicode="x" horiz-adv-x="886" 
d="M786 0h-238q-97 0 -155 79q-58 -79 -156 -79h-237v74h237q49 0 83.5 35t34.5 84v133q0 49 -34.5 83.5t-83.5 34.5h-237v75h237q98 0 156 -79q58 79 155 79h238v-75h-238q-49 0 -83.5 -34.5t-34.5 -83.5v-133q0 -49 34.5 -84t83.5 -35h238v-74z" />
    <glyph glyph-name="y" unicode="y" 
d="M830 193q0 -78 -52 -135t-126 -57q0 -74 -57.5 -126.5t-134.5 -52.5h-282v75h282q46 0 81.5 29.5t35.5 73.5h-384q-80 0 -136.5 56.5t-56.5 136.5v326h74v-326q0 -49 35 -84t84 -35h444q49 0 83.5 35t34.5 84v326h75v-326z" />
    <glyph glyph-name="z" unicode="z" 
d="M830 0h-682q-61 0 -104.5 43.5t-43.5 104.5q0 62 43.5 105.5t104.5 43.5h534q30 0 52 21.5t22 52.5q0 30 -22 51.5t-52 21.5h-638v75h638q61 0 104.5 -43.5t43.5 -104.5q0 -62 -43.5 -105.5t-104.5 -43.5h-534q-30 0 -52 -21.5t-22 -52.5q0 -30 22 -52t52 -22h682v-74z
" />
    <glyph glyph-name="braceleft" unicode="{" horiz-adv-x="486" 
d="M386 0q-72 0 -118 43t-46 105q0 31 -21.5 52.5t-52.5 21.5q-61 0 -104.5 43.5t-43.5 105.5q0 61 43.5 104.5t104.5 43.5q31 0 52.5 21.5t21.5 52.5q0 62 46 105t118 43v-74q-41 0 -65 -21.5t-24 -52.5q0 -62 -43.5 -105.5t-105.5 -43.5q-30 0 -52 -21.5t-22 -51.5
q0 -31 22 -52.5t52 -21.5q62 0 105.5 -43.5t43.5 -105.5q0 -31 24 -52.5t65 -21.5v-74z" />
    <glyph glyph-name="bar" unicode="|" horiz-adv-x="174" 
d="M74 0h-74v830h74v-830z" />
    <glyph glyph-name="braceright" unicode="}" horiz-adv-x="486" 
d="M386 371q0 -62 -43.5 -105.5t-105.5 -43.5q-30 0 -52 -21.5t-22 -52.5q0 -62 -45.5 -105t-117.5 -43v74q41 0 65 21.5t24 52.5q0 62 43.5 105.5t104.5 43.5q31 0 52.5 21.5t21.5 52.5q0 30 -21.5 51.5t-52.5 21.5q-61 0 -104.5 43.5t-43.5 105.5q0 31 -24 52.5t-65 21.5
v74q72 0 117.5 -43t45.5 -105q0 -31 22 -52.5t52 -21.5q62 0 105.5 -43.5t43.5 -104.5z" />
    <glyph glyph-name="minus" unicode="&#xad;" horiz-adv-x="900" 
d="M815 385h-830v74h830v-74z" />
    <glyph glyph-name="minus" unicode="&#x2212;" horiz-adv-x="900" 
d="M815 385h-830v74h830v-74z" />
    <glyph glyph-name="acute" unicode="&#xb4;" horiz-adv-x="144" 
d="M59 696h-74v163h74v-163z" />
    <glyph glyph-name="Adieresis" unicode="&#xc4;" 
d="M652 711h-74v75h74v-75zM252 711h-74v75h74v-75zM830 0h-74v237q0 49 -35 84t-84 35h-444q-49 0 -84 -35t-35 -84v-237h-74v237q0 77 52.5 134.5t125.5 57.5v75q0 61 43.5 104.5t104.5 43.5h178q61 0 104.5 -43.5t43.5 -104.5v-75q76 0 127 -57t51 -135v-237zM578 430v74
q0 30 -22 52t-52 22h-178q-30 0 -52 -22t-22 -52q0 -47 -4 -74h330z" />
    <glyph glyph-name="Odieresis" unicode="&#xd6;" 
d="M652 711h-74v75h74v-75zM252 711h-74v75h74v-75zM830 459v-266q0 -80 -56.5 -136.5t-136.5 -56.5h-444q-80 0 -136.5 56.5t-56.5 136.5v266q0 80 56.5 136.5t136.5 56.5h444q80 0 136.5 -56.5t56.5 -136.5zM755 459q0 49 -34.5 84t-83.5 35h-444q-49 0 -83.5 -35
t-34.5 -84l-1 -266q0 -49 35 -84t84 -35h444q49 0 83.5 35t34.5 84v266z" />
    <glyph glyph-name="Udieresis" unicode="&#xdc;" 
d="M652 711h-74v75h74v-75zM252 711h-74v75h74v-75zM830 193q0 -80 -56.5 -136.5t-136.5 -56.5h-444q-80 0 -136.5 56.5t-56.5 136.5v459h74v-459q0 -49 35 -84t84 -35h444q49 0 84 35t35 84v459h74v-459z" />
    <glyph glyph-name="germandbls" unicode="&#xdf;" 
d="M267 430h326q30 0 52 21.5t22 52.5q0 30 -22 52t-52 22h-400q-49 0 -84 -35t-35 -84v-459h-74v459q0 80 56.5 136.5t136.5 56.5h400q61 0 104.5 -43.5t43.5 -104.5q0 -49 -29 -89q53 -22 85.5 -70t32.5 -108v-44q0 -80 -56.5 -136.5t-136.5 -56.5h-453v74h453
q49 0 83.5 35t34.5 84v44q0 49 -34.5 84t-83.5 35h-370v74z" />
    <glyph glyph-name="adieresis" unicode="&#xe4;" 
d="M652 578h-74v74h74v-74zM252 578h-74v74h74v-74zM830 0h-74l-1 326q0 49 -34.5 83.5t-83.5 34.5h-444q-49 0 -83.5 -34.5t-34.5 -83.5l-1 -133q0 -49 35 -84t84 -35h459v-74h-459q-80 0 -136.5 56.5t-56.5 136.5v133q0 80 56.5 136.5t136.5 56.5h444q80 0 136.5 -56.5
t56.5 -136.5v-326z" />
    <glyph glyph-name="odieresis" unicode="&#xf6;" 
d="M652 578h-74v74h74v-74zM252 578h-74v74h74v-74zM830 326v-133q0 -80 -56.5 -136.5t-136.5 -56.5h-444q-80 0 -136.5 56.5t-56.5 136.5v133q0 80 56.5 136.5t136.5 56.5h444q80 0 136.5 -56.5t56.5 -136.5zM755 326q0 49 -34.5 83.5t-83.5 34.5h-444q-49 0 -83.5 -34.5
t-34.5 -83.5l-1 -133q0 -49 35 -84t84 -35h444q49 0 83.5 35t34.5 84v133z" />
    <glyph glyph-name="udieresis" unicode="&#xfc;" 
d="M652 578h-74v74h74v-74zM252 578h-74v74h74v-74zM830 193q0 -80 -56.5 -136.5t-136.5 -56.5h-444q-80 0 -136.5 56.5t-56.5 136.5v326h74v-326q0 -49 35 -84t84 -35h444q49 0 84 35t35 84v326h74v-326z" />
  </font>
</defs>
</svg>
