<?xml version="1.0" standalone="no"?>
<!DOCTYPE svg PUBLIC "-//W3C//DTD SVG 1.1//EN" "http://www.w3.org/Graphics/SVG/1.1/DTD/svg11.dtd" >
<svg xmlns="http://www.w3.org/2000/svg" xmlns:xlink="http://www.w3.org/1999/xlink" version="1.1">
<metadata>
Created by FontForge 20161003 at Thu Oct  5 08:41:47 2017
 By www-data
Digitized data copyright The Monotype Corporation 1991-1995. All rights reserved. CurlzTM is a trademark of The Monotype Corporation which may be registered in certain jurisdictions.
</metadata>
<defs>
<font id="CURLZ" horiz-adv-x="979" >
  <font-face 
    font-family="CURLZ"
    font-weight="400"
    font-stretch="normal"
    units-per-em="2048"
    panose-1="4 4 4 4 5 7 2 2 2 2"
    ascent="1638"
    descent="-410"
    x-height="924"
    cap-height="1372"
    bbox="-129 -614 1929 2103"
    underline-thickness="102"
    underline-position="-307"
    unicode-range="U+0020-F003"
  />
<missing-glyph horiz-adv-x="2048" 
d="M256 0v1536h1536v-1536h-1536zM384 128h1280v1280h-1280v-1280z" />
    <glyph glyph-name=".notdef" horiz-adv-x="2048" 
d="M256 0v1536h1536v-1536h-1536zM384 128h1280v1280h-1280v-1280z" />
    <glyph glyph-name="glyph1" horiz-adv-x="0" 
 />
    <glyph glyph-name="glyph2" horiz-adv-x="616" 
 />
    <glyph glyph-name="space" unicode=" " horiz-adv-x="616" 
 />
    <glyph glyph-name="exclam" unicode="!" horiz-adv-x="446" 
d="M377 1319q-44 -188 -87.5 -481t-43.5 -508q-37 12 -60 16q11 365 11 567q0 161 -23 375q155 20 203 31zM121 39q-25 5 -39 39t-14 55q0 40 53 73.5t98 33.5q156 0 156 -168q0 -55 -38.5 -87t-92.5 -32q-35 0 -60.5 41t-25.5 86q0 27 13 44t34 17q63 0 63 -84
q-10 5 -25.5 18t-29.5 13q-10 0 -18.5 -9.5t-8.5 -21.5q0 -34 58 -34q73 0 73 69q0 40 -40.5 74.5t-86.5 34.5q-32 0 -57 -36t-25 -78q0 -28 13 -48z" />
    <glyph glyph-name="quotedbl" unicode="&#x22;" horiz-adv-x="432" 
d="M362 1409q-55 -299 -55 -405l-57 -3q16 51 16 166q0 106 -12 234q12 -3 26 -3q17 0 44.5 5t37.5 6zM190 1374q-47 -221 -47 -349q0 -29 2 -50q-22 0 -45 -2q-7 298 -26 393q12 2 52 2.5t64 5.5z" />
    <glyph glyph-name="numbersign" unicode="#" horiz-adv-x="922" 
d="M928 1063q-4 -23 -23 -90q-53 0 -309 24l4 -196q177 8 231 16l-16 -80q-39 14 -213 25q6 -228 4 -295l-90 -8q26 119 31 303q-141 -3 -250 -10q-28 -261 -35 -357l-76 -2q34 113 56 355q-119 -11 -174 -11l-13 84q71 -4 193 -16l18 213q-154 4 -233 4l8 86
q97 -22 225 -39q0 88 -4 236q38 0 90 -5q-28 -160 -30 -237q113 -12 221 -19q-10 162 -37 279q81 33 121 33q-25 -137 -29 -314q197 -5 330 21zM549 799l-4 202q-80 7 -226 15l-18 -215q109 -8 170 -8q34 0 78 6z" />
    <glyph glyph-name="dollar" unicode="$" horiz-adv-x="674" 
d="M414 1206q103 -12 158 -66.5t55 -107.5t-37.5 -104t-85.5 -51q-51 0 -81 33.5t-30 68.5q0 34 26.5 57t51.5 23q16 0 33.5 -8t17.5 -23q-26 -4 -45.5 -24.5t-19.5 -42.5q0 -20 17.5 -39t41.5 -19q17 0 30 35t13 63q0 75 -53.5 127t-128.5 52q-67 0 -110.5 -61.5
t-43.5 -143.5q0 -68 35.5 -152t136 -210.5t133.5 -181.5t33 -114q0 -71 -56.5 -132t-152.5 -72q-16 -289 -16 -330l-64 -10q25 173 31 340q-94 12 -156.5 75.5t-62.5 122.5q0 57 43.5 100.5t89.5 43.5q38 0 78.5 -26t40.5 -58q0 -68 -51 -68q0 42 -16.5 78.5t-45.5 36.5
q-18 0 -38.5 -29.5t-20.5 -66.5q0 -78 50.5 -129.5t115.5 -51.5q67 0 124.5 48t57.5 112q0 44 -30 105.5t-162 193.5t-173 209.5t-41 142.5q0 101 76.5 176t194.5 80q8 95 8 135q0 63 -14 187l96 6q-13 -82 -27.5 -153t-25.5 -177z" />
    <glyph glyph-name="percent" unicode="%" horiz-adv-x="1083" 
d="M1081 1309q-72 -71 -253 -314t-323 -450t-293 -461l-85 -143q-33 10 -80 39q97 92 181 229l295 456q210 319 448 711q9 -14 55 -38t55 -29zM387 1083q43 0 43 -73q0 -27 -22.5 -51.5t-51.5 -24.5q-31 0 -55.5 27t-24.5 63q0 56 42.5 108t91.5 52q63 0 117.5 -60
t54.5 -108q0 -90 -75 -186.5t-159 -96.5q-111 0 -189.5 56t-78.5 143q0 101 55 174.5t154 97.5l10 -18q-65 -33 -98 -89t-33 -118q0 -219 172 -219q61 0 102 79t41 162q0 55 -22 104.5t-60 49.5q-28 0 -53.5 -36.5t-25.5 -76.5q0 -17 8 -46t16 -29q28 0 34.5 26.5t6.5 89.5z
M750 188q-76 8 -76 54q0 59 45.5 101t105.5 42q46 0 95 -50.5t49 -131.5q0 -97 -77 -159t-181 -62q-94 0 -166 71t-72 164q0 89 79 168.5t167 79.5q74 0 123 -25l-17 -22q-43 20 -71 20q-68 0 -121 -63t-53 -156q0 -104 36.5 -157.5t98.5 -53.5q57 0 111.5 54.5t54.5 115.5
q0 83 -22.5 127.5t-59.5 44.5q-58 0 -58 -94q0 -32 9 -68z" />
    <glyph glyph-name="ampersand" unicode="&#x26;" horiz-adv-x="1284" 
d="M1403 680q-257 -7 -518 -64q221 -88 221 -262q0 -107 -131.5 -244t-304.5 -137q-238 0 -409 112t-171 265q0 106 111.5 228t443.5 172q-188 44 -301 164.5t-113 232.5q0 103 108.5 199t235.5 96q118 0 196.5 -67t78.5 -111q0 -50 -64 -108t-133 -58q-28 0 -59 29.5
t-31 52.5q0 29 22 51.5t55 22.5q14 0 30 -5q-35 -32 -35 -82q0 -16 11.5 -29.5t27.5 -13.5q26 0 47.5 33t21.5 66q0 72 -51.5 127t-132.5 55q-97 0 -150 -67t-53 -160q0 -182 109.5 -293.5t304.5 -108.5l-4 -61q-260 0 -397.5 -79t-137.5 -233q0 -168 140.5 -281.5
t322.5 -113.5q112 0 192.5 95.5t80.5 227.5q0 33 -6.5 67.5t-19.5 67t-31 60.5t-46.5 51t-46.5 23q-74 0 -165 -52t-91 -97q0 -152 82 -152q26 0 39.5 40t13.5 93q60 0 60 -72q0 -26 -53.5 -62t-73.5 -36q-80 0 -124 40.5t-44 111.5q0 79 148 156t419 128.5t375 104.5v-123z
" />
    <glyph glyph-name="quotesingle" unicode="'" horiz-adv-x="246" 
d="M203 1346q-61 -296 -64 -418q-17 0 -53 4q0 131 -2 399q93 10 119 15z" />
    <glyph glyph-name="parenleft" unicode="(" horiz-adv-x="397" 
d="M440 1430q-26 -50 -103 -173.5t-117 -216t-62.5 -230t-22.5 -273.5q0 -167 31 -286.5t78.5 -208t179.5 -300.5l-94 -35q-262 519 -262 834q0 325 166 699q70 158 90 235q56 -42 116 -45z" />
    <glyph glyph-name="parenright" unicode=")" horiz-adv-x="397" 
d="M74 1475q262 -526 262 -834q0 -323 -165 -696q-72 -161 -91 -238q-56 42 -117 45q26 52 99 168.5t115 205t66.5 226t24.5 293.5q0 166 -30.5 286t-78 208.5t-179.5 300.5z" />
    <glyph glyph-name="asterisk" unicode="*" horiz-adv-x="823" 
d="M768 1032l-156 -25q-87 -14 -141 -28q251 -209 289 -201q-11 -13 -30 -30t-30 -33q-43 53 -131 129t-118 106q-12 -51 -12 -118l3 -173q-21 0 -37.5 2t-44.5 -6q26 111 52 303q-162 -64 -283 -147q-4 42 -24 71.5t-25 39.5q216 29 328 75l-141 105q-70 53 -87 69
q6 8 42 46.5t40 44.5q15 -20 71 -106.5t89 -125.5q14 118 27 289q13 -2 23 -2q12 0 73 4l-76 -299q225 95 281 137q1 -7 4.5 -59t13.5 -68z" />
    <glyph glyph-name="plus" unicode="+" horiz-adv-x="1264" 
d="M1161 520l-477 4q-14 -412 -14 -530l-72 -4q0 164 12 534q-385 0 -504 13l5 104q373 -45 493 -45q-8 366 -8 487l92 19l-8 -506q168 0 469 31z" />
    <glyph glyph-name="comma" unicode="," horiz-adv-x="328" 
d="M184 35q-20 -31 -53 -31q-23 0 -38 23t-15 45q0 24 32.5 46.5t63.5 22.5q43 0 71.5 -38.5t28.5 -86.5t-25.5 -97t-117.5 -126q0 29 -18 51q110 45 110 131q0 47 -39 60z" />
    <glyph glyph-name="hyphen" unicode="-" horiz-adv-x="653" 
d="M590 586q-15 -46 -15 -101q-69 25 -200 25q-80 0 -172.5 -9t-139.5 -12q0 54 -6 80q118 0 269 8.5t264 8.5z" />
    <glyph glyph-name="period" unicode="." horiz-adv-x="317" 
d="M145 131q37 0 62.5 -34t25.5 -77q0 -36 -65 -36q-74 0 -74 69q0 34 15 56t36 22z" />
    <glyph glyph-name="slash" unicode="/" horiz-adv-x="741" 
d="M821 1278q-95 -123 -331.5 -526.5t-499.5 -974.5q-36 7 -84 30q27 31 65.5 105t61.5 111q109 171 251 464l418 846q11 -13 60 -32t59 -23z" />
    <glyph glyph-name="zero" unicode="0" horiz-adv-x="1100" 
d="M559 1004q-49 25 -49 61q0 28 30.5 52t47.5 24q72 0 109.5 -34t37.5 -87q0 -34 -56 -81.5t-106 -47.5q-51 0 -99 50.5t-48 119.5q0 91 70.5 157t136.5 66q161 0 284 -190.5t123 -345.5q0 -142 -74.5 -331t-186.5 -308t-224 -119q-109 0 -233 99t-187 251.5t-63 280.5
q0 243 144 467.5t327 297.5l16 -26q-334 -170 -334 -692q0 -251 60.5 -393t142 -197t145.5 -55q75 0 163 97.5t130.5 248t42.5 231.5q0 135 -26 258q-23 110 -74 240q-24 62 -71 100q-58 47 -105 47q-77 0 -126.5 -54t-49.5 -116q0 -69 33.5 -111t82.5 -42q31 0 56.5 26.5
t25.5 55.5q0 49 -13.5 77.5t-33.5 28.5q-35 0 -49 -106z" />
    <glyph glyph-name="one" unicode="1" horiz-adv-x="662" 
d="M621 109l-7 -64q-344 -15 -524 -98v57q145 38 272 66l-27 344l-45 663q-8 116 -16 162q-44 -30 -118.5 -53t-118.5 -23q-24 0 -62 19.5t-38 38.5q0 49 27 88t59 39q67 0 67 -50q0 -47 -49 -45q0 64 -31 64q-8 0 -14 -13t-6 -22q0 -35 19 -56.5t50 -21.5q40 0 95.5 20
t159 81t137.5 77q0 -264 -18.5 -509t-18.5 -543q0 -122 8 -258q19 2 92 18t107 19z" />
    <glyph glyph-name="two" unicode="2" horiz-adv-x="877" 
d="M698 281q39 4 39 -45q0 -27 -27 -49.5t-53 -22.5q-33 0 -65.5 21t-32.5 53q0 58 37 111.5t98 53.5q58 0 107 -62t49 -148q0 -63 -74.5 -128t-140.5 -65q-39 0 -170.5 36t-231.5 36q-89 0 -115.5 -14t-33.5 -42q-45 52 -45 117q0 56 52.5 162.5t176.5 211.5
q238 202 308.5 325.5t70.5 236.5q0 101 -63.5 192t-155.5 91q-96 0 -159.5 -70.5t-63.5 -144.5q0 -68 40 -115t85 -47q39 0 62.5 30t23.5 68q0 19 -12 44.5t-23 25.5q-15 0 -32 -17.5t-17 -38.5q0 -13 18 -34q-21 -13 -35 -13q-16 0 -30.5 13.5t-14.5 29.5q0 40 25.5 67.5
t54.5 27.5q129 0 129 -91q0 -47 -56 -99t-138 -52q-59 0 -113.5 57t-54.5 113q0 111 114.5 197t237.5 86q126 0 221.5 -106.5t95.5 -209.5q0 -80 -56.5 -193t-129.5 -165q-354 -255 -431 -370.5t-77 -201.5q68 54 174 54q88 0 261 -96q98 -54 126 -54q63 0 107.5 51.5
t44.5 124.5q0 46 -40 83.5t-89 37.5q-78 0 -78 -72q0 -21 16 -42t35 -21q49 0 49 72z" />
    <glyph glyph-name="three" unicode="3" horiz-adv-x="870" 
d="M291 1038q-10 0 -27.5 23t-17.5 35q0 29 36.5 53.5t69.5 24.5q23 0 61 -34.5t38 -60.5q0 -50 -61 -90.5t-124 -40.5q-78 0 -128 62.5t-50 146.5q0 78 129.5 132t233.5 54q141 0 249.5 -95.5t108.5 -231.5q0 -82 -124.5 -210.5t-276.5 -193.5q169 -33 263.5 -117
t94.5 -188q0 -140 -136 -254t-278 -114q-111 0 -195.5 61t-84.5 147q0 48 63 107t129 59q64 0 106 -29t42 -65q0 -59 -43.5 -99t-110.5 -40q-48 0 -68 90q52 -23 112 -23q44 0 44 29q0 24 -32 53t-62 29q-45 0 -86 -26t-41 -70q0 -73 62 -126.5t175 -53.5q248 0 248 297
q0 153 -78 226t-262 73q-21 0 -88 -5l6 99q80 -31 111 -31q157 0 255.5 128t98.5 296q0 103 -80.5 170.5t-185.5 67.5q-80 0 -151.5 -74t-71.5 -150q0 -28 33.5 -62t58.5 -34q42 0 76.5 27.5t34.5 66.5q0 66 -23 66q-57 0 -57 -57z" />
    <glyph glyph-name="four" unicode="4" horiz-adv-x="1047" 
d="M1004 606l-19 -100h-229q-2 -132 -2 -195q0 -84 10 -233l205 6q0 -2 -3 -25t-3 -24q-332 0 -588 -78l-10 57q164 31 340 60q0 77 -11.5 209t-11.5 219q-460 -9 -637 -15q6 51 148 232q168 213 221 314.5t53 164.5q0 76 -29 109.5t-96 33.5t-134 -46t-67 -99
q0 -32 35.5 -79.5t59.5 -47.5q18 0 35.5 20t17.5 48q0 30 -74 30q0 18 21.5 36t37.5 18q30 0 51 -20t21 -50q0 -48 -51.5 -83.5t-106.5 -35.5q-62 0 -98.5 50.5t-36.5 113.5q0 64 98.5 124t198.5 60q109 0 176.5 -55.5t67.5 -155.5q0 -73 -54 -167.5t-212 -251.5t-164 -191
q113 -16 235 -16q138 0 277 22q-5 361 24 826q94 -21 170 -31l-46 -239q-35 -173 -49 -300t-19 -250q142 0 248 35z" />
    <glyph glyph-name="five" unicode="5" horiz-adv-x="1030" 
d="M260 870q44 11 123 11q221 0 343.5 -59t196.5 -159t74 -206q0 -85 -76.5 -202t-189 -195t-215.5 -78q-140 0 -263.5 84.5t-123.5 216.5q0 84 94 159.5t168 75.5q39 0 82 -27.5t43 -58.5q0 -54 -44.5 -106t-94.5 -52q-26 0 -44 16.5t-18 43.5q0 13 13 37q45 -17 75 -17
q70 0 70 56q0 33 -30.5 51t-69.5 18q-31 0 -75 -56t-44 -93q0 -160 67 -230.5t216 -70.5q105 0 201 133t96 270q0 86 -38.5 170.5t-117 144.5t-148 74.5t-188.5 14.5q-93 0 -201 -62q0 314 -37 537l449 -9q231 0 231 97q0 24 -25 38.5t-59 14.5q-51 0 -51 -41q0 -17 37 -41
q-42 -21 -74 -21q-20 0 -33.5 22t-13.5 28q0 27 56 59.5t112 32.5q48 0 88.5 -26.5t40.5 -51.5q0 -20 -59 -86t-144 -98.5t-133 -32.5q-91 0 -210.5 24t-153.5 29q65 -231 98 -379z" />
    <glyph glyph-name="six" unicode="6" horiz-adv-x="1044" 
d="M524 569q86 0 86 -65q0 -24 -54 -60t-110 -36q-36 0 -79 45.5t-43 85.5q0 81 77 147t148 66q172 0 305 -97t133 -243q0 -118 -150.5 -274t-232.5 -156q-220 0 -377 176t-157 460q0 55 41.5 176t89.5 193t130.5 169t188 151.5t230.5 54.5q72 0 142.5 -79.5t70.5 -160.5
q0 -41 -31 -73.5t-64 -32.5q-45 0 -77 35q41 27 69 73.5t28 77.5q0 30 -60.5 63t-182.5 33q-90 0 -192.5 -84.5t-164 -252t-61.5 -361.5q0 -241 118 -407t247 -166q112 0 170.5 110.5t58.5 300.5q0 113 -97 190t-220 77q-39 0 -71 -43t-32 -84q0 -34 30.5 -77.5t62.5 -43.5
q45 0 45 63q0 21 -15 49z" />
    <glyph glyph-name="seven" unicode="7" horiz-adv-x="803" 
d="M813 1303q-50 -147 -186 -394.5t-171 -320t-77.5 -188t-42.5 -167.5q0 -64 43 -125t86 -61q48 0 86.5 54.5t38.5 103.5q0 42 -33 73t-78 31q-17 0 -29.5 -16t-12.5 -36q0 -48 59 -48q0 -49 -45 -49q-11 0 -34.5 20.5t-23.5 46.5q0 44 39.5 96t77.5 52q42 0 77.5 -47
t35.5 -101q0 -102 -54 -169.5t-145 -67.5q-97 0 -163 65t-66 131q0 93 84.5 255.5t189.5 314.5q190 274 252 448q-114 -47 -199 -47q-93 0 -230 14.5t-204 14.5q14 -218 14 -238h-51l-2 385q40 2 57 2q73 0 219 -34.5t261 -34.5q122 0 227 37z" />
    <glyph glyph-name="eight" unicode="8" horiz-adv-x="895" 
d="M459 676q21 -11 71 -30q306 -116 306 -341q0 -118 -105.5 -220.5t-238.5 -102.5q-137 0 -247 92t-110 194q0 130 71.5 222.5t186.5 181.5q-125 68 -217 160t-92 227q0 128 129 229t291 101q131 0 228 -82.5t97 -167.5q0 -63 -47.5 -131t-128.5 -99q-59 -99 -194 -233z
M670 950q80 60 80 166q0 88 -80 162t-199 74q-87 0 -166.5 -82.5t-79.5 -214.5q0 -62 11 -115.5t54 -117t130 -124.5q124 117 178 203q-78 0 -126 51.5t-48 122.5q0 46 43 91.5t84 45.5q23 0 63.5 -21.5t40.5 -51.5q0 -53 -75 -64q0 25 -15 56.5t-33 31.5q-30 0 -50.5 -24.5
t-20.5 -44.5q0 -44 52 -93t108 -59q22 40 30 88l41 -8q-9 -49 -22 -72zM430 647q-89 -90 -124.5 -160t-35.5 -168q0 -148 73 -229.5t183 -81.5q64 0 119 72.5t55 155.5t-17 140t-52.5 100t-98 91t-102.5 80z" />
    <glyph glyph-name="nine" unicode="9" horiz-adv-x="1006" 
d="M502 608q-20 -12 -39 -12q-22 0 -36.5 18t-14.5 45q0 57 48 113.5t111 56.5q34 0 67.5 -52t33.5 -95q0 -92 -72 -156.5t-147 -64.5q-153 0 -277.5 115t-124.5 253q0 186 130.5 341t260.5 155q184 0 335 -181.5t151 -459.5q0 -144 -74 -324.5t-193.5 -290.5t-257.5 -110
q-110 0 -173.5 54.5t-63.5 115.5q0 31 27 57t61 26q17 0 33 -7q-19 -31 -19 -66q0 -50 44 -97.5t116 -47.5q143 0 241.5 216t98.5 499q0 257 -97 419t-222 162q-101 0 -172.5 -128.5t-71.5 -327.5q0 -133 75.5 -233.5t180.5 -100.5q63 0 114.5 48.5t51.5 100.5
q0 31 -33 63.5t-66 32.5q-71 0 -71 -51q0 -23 21 -51t24 -35z" />
    <glyph glyph-name="colon" unicode=":" horiz-adv-x="342" 
d="M201 897q34 0 56 -21.5t22 -56.5q0 -74 -60 -74q-33 0 -73 27t-40 59q0 30 29.5 48t65.5 18zM141 129q31 0 72 -39t41 -70q0 -28 -13.5 -41.5t-54.5 -13.5q-94 0 -94 47q0 32 14.5 74.5t34.5 42.5z" />
    <glyph glyph-name="semicolon" unicode=";" horiz-adv-x="313" 
d="M183 930q17 0 38 -24t21 -50q0 -51 -54 -51q-33 0 -65.5 24t-32.5 54q0 47 93 47zM172 80q-20 -31 -53 -31q-23 0 -38 23t-15 45q0 24 32.5 46.5t63.5 22.5q43 0 71.5 -38.5t28.5 -86.5t-26 -97t-117 -126q0 29 -19 51q111 45 111 131q0 47 -39 60z" />
    <glyph glyph-name="less" unicode="&#x3c;" horiz-adv-x="1264" 
d="M1227 1053q-137 -69 -490.5 -228.5t-500.5 -251.5q307 -205 923 -491l-41 -94q-677 420 -1007 577l-9 31q756 350 1035 551z" />
    <glyph glyph-name="equal" unicode="=" horiz-adv-x="1264" 
d="M1186 807l-4 -102l-449 16q-317 14 -493 14q-64 0 -129 -4l-9 76q268 -12 600 -12q365 0 484 12zM1176 403l-21 -63q-168 0 -542.5 -11.5t-510.5 -11.5l-10 97q439 -15 716 -15q185 0 368 4z" />
    <glyph glyph-name="greater" unicode="&#x3e;" horiz-adv-x="1264" 
d="M1184 582l-8 -31q-331 -158 -1008 -578l-41 95q616 285 924 491q-151 94 -490 246.5t-502 232.5l91 95q279 -201 1034 -551z" />
    <glyph glyph-name="question" unicode="?" horiz-adv-x="827" 
d="M266 1012q-41 0 -69.5 25.5t-28.5 60.5q0 43 43.5 69.5t99.5 26.5q35 0 72 -46.5t37 -96.5q0 -59 -63 -99.5t-136 -40.5q-72 0 -131 55t-59 124q0 115 102 195.5t270 80.5q136 0 247.5 -106t111.5 -236q0 -49 -13.5 -98t-40.5 -93t-66.5 -80t-100.5 -65t-103 -29l-47 13
q-3 -184 15 -355l-99 -16q15 129 15 152q0 64 8 155t8 154q90 -41 151 -41q63 0 108.5 53t45.5 215q0 163 -80 258.5t-205 95.5q-94 0 -173 -82t-79 -169q0 -54 40.5 -107t84.5 -53q42 0 77.5 51t35.5 86q0 94 -68 94q-40 0 -40 -73q0 -33 30 -78zM373 172q19 0 39 -24
t20 -54q0 -29 -25 -51.5t-59 -22.5q-33 0 -33 56q0 34 18 65t40 31z" />
    <glyph glyph-name="at" unicode="@" horiz-adv-x="1128" 
d="M696 342q49 5 81 -20t32 -72q0 -60 -73.5 -97.5t-182.5 -37.5q-203 0 -347.5 157t-144.5 367q0 217 152 385t371 168q226 0 344.5 -115t118.5 -313q0 -84 -78 -182.5t-224 -143.5q-8 -2 -45 -19.5t-63 -21.5q68 212 68 308q0 153 -134 153q-56 0 -95.5 -55t-39.5 -135
q0 -70 30 -114t85 -44q26 0 50 17t24 44q0 16 -12.5 33t-20.5 17q-32 0 -66 -48q-18 19 -18 48q0 23 17 41t40 18q90 0 90 -98q0 -23 -41 -72t-84 -49q-76 0 -139 58.5t-63 129.5q0 85 73.5 160.5t163.5 75.5q81 0 115 -25t43 -102q26 100 39 196q4 -5 52 -17.5t54 -14.5
q-141 -327 -172 -453q106 -2 191.5 88.5t85.5 204.5q0 193 -106 298t-302 105q-159 0 -276 -157t-117 -324q0 -132 20.5 -222t79.5 -170.5t150.5 -112.5t130.5 -32q71 0 116.5 35t45.5 86q0 39 -19 74z" />
    <glyph glyph-name="A" unicode="A" horiz-adv-x="1278" 
d="M1298 23q-91 -44 -251 -58q-67 292 -82 604q-42 -4 -136 -4q-159 0 -274 19q-54 -282 -155.5 -432t-239.5 -150q-69 0 -122.5 65.5t-53.5 139.5q0 60 48 129.5t103 69.5q29 0 58.5 -31.5t29.5 -61.5q0 -35 -21 -72.5t-50 -37.5q-4 0 -15 6q29 22 29 55q0 21 -15 41.5
t-34 20.5q-94 0 -94 -84q0 -77 42 -113.5t142 -36.5q143 0 198.5 167.5t55.5 346.5q-336 76 -336 230q0 44 27.5 80t66.5 36h21q-35 -42 -35 -96q0 -76 68 -132t186 -83q-6 77 -6 154q0 154 39 254.5t131 179t207 117t235 38.5q72 0 84 -2q-88 -410 -98 -727q18 4 55 17
l4 -88q-43 -4 -59 -6v-72q0 -318 39 -481q74 2 196 51zM997 1335q-171 6 -281.5 -114t-142.5 -502q-5 -67 -10 -96q83 -9 131 -9q107 0 267 23q-5 119 -5 186q0 272 41 512z" />
    <glyph glyph-name="B" unicode="B" horiz-adv-x="1149" 
d="M541 1333q249 -23 368 -127t119 -227q0 -120 -118.5 -230t-288.5 -143q139 -20 229 -93.5t90 -158.5q0 -43 -34 -100t-93 -102.5t-144.5 -72t-149.5 -35t-223 -8.5q-71 0 -120 3l12 57q80 -16 179 -16q45 347 45 682q0 268 -19 532q-354 -23 -354 -252q0 -94 108 -94
q20 0 54.5 21t34.5 43q0 7 -12.5 12.5t-22.5 5.5q-19 0 -39 -26q-17 5 -17 28q0 39 64 39q22 0 37.5 -20t15.5 -45q0 -48 -36 -77.5t-81 -29.5q-58 0 -122 52.5t-64 113.5q0 92 109 168t321 96q0 113 -14 193q113 0 168 -15q0 -121 -2 -174zM532 631q184 0 266.5 104.5
t82.5 196.5q0 143 -59.5 216.5t-115 102t-167.5 43.5q0 -138 -30.5 -495t-84.5 -713q116 -7 245.5 53.5t129.5 188.5q0 254 -267 254v49z" />
    <glyph glyph-name="C" unicode="C" horiz-adv-x="1065" 
d="M1038 389q-10 -214 -119.5 -332t-297.5 -118q-208 0 -389 200.5t-181 442.5q0 150 81.5 338t217.5 301.5t299 113.5q152 0 243 -79.5t91 -176.5q0 -93 -86.5 -168t-187.5 -75q-60 0 -120.5 47t-60.5 116q0 66 40.5 101t101.5 35q45 0 79.5 -28.5t34.5 -57.5
q0 -47 -20.5 -77t-48.5 -30q-32 0 -45 31q20 0 46.5 18.5t26.5 36.5q0 64 -38 64q-45 0 -84 -36t-39 -85q0 -34 39 -71.5t88 -37.5q68 0 115.5 67t47.5 150q0 84 -60 151.5t-161 67.5q-210 0 -334 -182.5t-124 -447.5q0 -289 142.5 -484.5t346.5 -195.5q124 0 189 75.5
t65 196.5q0 44 -8 137z" />
    <glyph glyph-name="D" unicode="D" horiz-adv-x="1339" 
d="M471 1239q40 4 82 4q213 0 389 -77.5t258 -209t82 -272.5q0 -237 -261.5 -466t-703.5 -241l-12 52l178 10q-41 627 -153 1141q-116 -33 -186 -102t-70 -163q0 -28 19 -53.5t38 -25.5q31 0 62.5 23.5t31.5 60.5q0 28 -10.5 49.5t-24.5 21.5q-24 0 -24 -33q0 -13 14 -24
l-8 -12q-49 0 -49 41q0 28 23.5 46.5t54.5 18.5q35 0 62.5 -29t27.5 -61q0 -48 -56.5 -89.5t-113.5 -41.5t-98 42t-41 83q0 76 95 159.5t242 120.5l-28 123l166 25zM526 43q277 42 436.5 208t159.5 433q0 233 -162 375.5t-399 142.5q-44 0 -82 -4q47 -667 47 -1155z" />
    <glyph glyph-name="E" unicode="E" horiz-adv-x="1090" 
d="M883 266q45 -12 45 -37q0 -37 -20 -64.5t-52 -27.5q-35 0 -58.5 31t-23.5 68q0 57 52.5 110t91.5 53q87 0 137.5 -36.5t50.5 -106.5q0 -57 -37.5 -123.5t-86 -106.5t-96.5 -49.5t-136 -9.5q-39 0 -176 17.5t-220 17.5q-59 0 -166 -20v53l115 8q-32 420 -67.5 658
t-108.5 516l-107 -9v52q343 11 613 65l225 45q-35 -188 -27 -330h-49l6 226l-466 -31q32 -461 32 -631q293 13 463 72v-80q-209 -41 -463 -47q4 -102 4 -263q0 -118 -2 -239l389 -12q180 0 229.5 41t49.5 123q0 141 -143 141q-21 0 -43.5 -25.5t-22.5 -60.5q0 -25 21 -40
t38 -15q21 0 21 22q0 21 -21 33z" />
    <glyph glyph-name="F" unicode="F" horiz-adv-x="936" 
d="M4 1253q114 -8 213 -8q95 0 269.5 36t254.5 36q78 0 123 -40t45 -116q0 -79 -68.5 -170.5t-144.5 -91.5q-69 0 -109 36.5t-40 82.5q0 37 47 81t84 44q27 0 49.5 -24t22.5 -46q0 -59 -50 -59q-15 80 -57 80q-18 0 -32.5 -13.5t-14.5 -31.5q0 -30 37 -72.5t74 -42.5
q59 0 94 57t35 131q0 45 -38 79t-108 34q-116 0 -383 -29q21 -462 21 -655q274 0 473 49l-6 -78q-271 -33 -465 -33l8 -491q139 0 270 49v-70q-180 -24 -293 -24q-51 0 -145 -21v60l119 4q-44 728 -164 1208l-121 4v45z" />
    <glyph glyph-name="G" unicode="G" horiz-adv-x="1247" 
d="M1255 475q-62 -12 -145 -18q0 -128 18.5 -310.5t18.5 -273.5q0 -110 -67.5 -189t-168.5 -79q-69 0 -135.5 45t-66.5 102q0 55 46.5 103.5t104.5 48.5q43 0 72 -28.5t29 -57.5q0 -24 -22.5 -41t-43.5 -17q-35 0 -35 39q15 -10 27 -10q20 0 20 33q0 49 -43 49
q-22 0 -39.5 -33.5t-17.5 -66.5q0 -58 29.5 -93.5t76.5 -35.5q83 0 136 63.5t53 134.5q0 68 -28.5 172t-35.5 152q-115 -193 -342 -193q-238 0 -427 174t-189 414q0 301 175 531.5t421 230.5q159 0 255.5 -84.5t96.5 -179.5q0 -93 -80.5 -165.5t-179.5 -72.5q-59 0 -101 42
t-42 106q0 47 37.5 90t76.5 43q29 0 63 -29t34 -47q0 -37 -19 -60.5t-45 -19.5q6 43 -16.5 59.5t-40.5 16.5q-23 0 -37 -23.5t-14 -48.5q0 -20 31.5 -56t72.5 -36q70 0 112 53.5t42 145.5q0 94 -70.5 163.5t-177.5 69.5q-207 0 -329 -185.5t-122 -496.5q0 -255 148.5 -424.5
t361.5 -169.5q129 0 196.5 124t67.5 317q-72 0 -256 -23v59q183 10 266.5 13t145.5 12.5t102 20.5v-60z" />
    <glyph glyph-name="H" unicode="H" horiz-adv-x="1374" 
d="M969 741q-41 310 -41 430q0 139 79 228.5t195 89.5q79 0 139 -59.5t60 -139.5q0 -43 -50 -88t-100 -45q-40 0 -80.5 29.5t-40.5 54.5q0 30 30 59t54 29q36 0 45 -9.5t9 -25.5q0 -13 -13 -37q-24 37 -45 37q-18 0 -18 -41q0 -29 20 -50t37 -21q23 0 44.5 48.5t21.5 98.5
q0 42 -30 83.5t-79 41.5q-66 0 -108.5 -99t-42.5 -233q0 -151 29 -493t67 -570q69 0 174 45l16 -55q-125 -31 -205 -41.5t-198 -56.5l-4 67l162 35q-104 500 -117 639q-149 -50 -324.5 -81t-287.5 -31q0 -486 -14 -613.5t-67 -220t-151 -92.5q-52 0 -102.5 44.5t-50.5 111.5
q0 36 53 76t92 40q51 0 78.5 -27t27.5 -59q0 -24 -18.5 -42.5t-40.5 -18.5q-36 0 -45 47l10 8q19 -18 25 -18q20 0 20 34q0 15 -14 30.5t-29 15.5q-25 0 -45 -26t-20 -58q0 -49 18.5 -84t48.5 -35q80 0 123 91t43 255q0 236 -43.5 572.5t-111.5 643.5q-14 -2 -35 -2
q-41 0 -99 7v45q326 -7 465 24v-53q-90 -9 -147 -16q24 -445 24 -617q53 -3 94 -3q118 0 229.5 24t283.5 77z" />
    <glyph glyph-name="I" unicode="I" horiz-adv-x="551" 
d="M526 49l-4 -55q-107 10 -227 10q-52 0 -205 -20v57l178 4q-71 514 -75 1237l-148 -4l2 47q184 -2 253 8t171 39l10 -51l-133 -27q-37 -469 -37 -816q0 -212 11 -431q85 0 204 2z" />
    <glyph glyph-name="J" unicode="J" horiz-adv-x="905" 
d="M829 1266q-80 -5 -137 -13q4 -112 18.5 -307t14.5 -364q0 -184 -43 -363.5t-142 -266.5t-227 -87q-118 0 -213.5 88t-95.5 201q0 115 91 205t179 90q84 0 144.5 -61.5t60.5 -143.5q0 -54 -54.5 -100t-109.5 -46q-44 0 -82 36.5t-38 80.5q0 35 22 57.5t57 22.5
q62 0 62 -53q-26 6 -39 6t-23 -12.5t-10 -26.5q0 -33 15 -55.5t30 -22.5q34 0 55 43t21 84q0 68 -28 111t-76 43q-67 0 -113.5 -74t-46.5 -176q0 -116 51.5 -188t140.5 -72q151 0 232.5 130.5t81.5 454.5q0 146 -38 369t-85 379q-41 -6 -217 -14v51q276 9 370 21.5t172 33.5
v-61z" />
    <glyph glyph-name="K" unicode="K" horiz-adv-x="1276" 
d="M1128 305q27 0 27 -37q0 -16 -20 -28.5t-50 -12.5q-33 0 -63.5 26t-30.5 60q0 33 36.5 59.5t86.5 26.5q59 0 108.5 -41t49.5 -94q0 -64 -60 -106.5t-125 -42.5q-164 0 -317.5 113t-353.5 415l-117 -96l-4 -502q86 0 203 37v-53q-113 -25 -226 -25q-51 0 -204 -20v55
l178 4l-76 1202l-147 -4v47q161 3 231 9.5t195 41.5v-55l-123 -27q-22 -284 -27 -651q234 199 350.5 369.5t181.5 363.5l-88 58l23 35q98 -62 164.5 -86.5t144.5 -45.5l-24 -38l-105 26q-193 -316 -432 -551l148 -235q72 -114 135.5 -189.5t138.5 -122.5t160 -47q40 0 71 38
t31 89q0 46 -22.5 76.5t-59.5 30.5q-61 0 -61 -58q0 -22 12 -43.5t27 -21.5q30 0 34 51z" />
    <glyph glyph-name="L" unicode="L" horiz-adv-x="936" 
d="M752 250q15 16 34 16q41 0 41 -69q0 -26 -30.5 -59.5t-59.5 -33.5q-47 0 -77.5 37t-30.5 103q0 51 35 91t75 40q67 0 127 -75.5t60 -168.5q0 -184 -199 -184q-81 0 -237 31.5t-238 31.5q-76 0 -201 -14l4 47l174 8q11 79 11 406q0 371 -62 800q-57 0 -166 -6l4 54
q128 -5 245 -5q97 0 216 19v-57h-145q12 -235 12 -416q0 -301 -59 -789q55 0 201 -13t196 -13q82 0 142.5 36.5t60.5 86.5q0 63 -26 105t-73 42q-54 0 -92.5 -22t-38.5 -62q0 -38 18.5 -47.5t59.5 -9.5q60 0 60 37q0 23 -41 53z" />
    <glyph glyph-name="M" unicode="M" horiz-adv-x="1708" 
d="M1524 147q26 -9 26 -30q0 -49 -69 -49q-31 0 -64 28t-33 58q0 44 50 83t108 39q44 0 78.5 -38.5t34.5 -98.5q0 -66 -67 -142.5t-122 -76.5q-105 0 -154.5 65.5t-61 157t-11.5 237.5l13 545q0 82 -5 169q-263 -524 -317 -754l-58 -4q-86 189 -213 438t-163 387
q-13 -158 -13 -368q0 -347 37 -738q71 0 189 -12l-7 -39q-420 13 -432 16l4 50q132 -18 201 -15q-79 503 -72 1188q-163 0 -225.5 -9t-103.5 -54t-41 -119q0 -55 41.5 -90t91.5 -35q29 0 53.5 15t24.5 34q0 11 -13 25t-22 14q-48 0 -82 -39q-21 14 -21 33q0 26 25.5 45.5
t44.5 19.5q35 0 74 -29.5t39 -64.5q0 -47 -36.5 -86t-78.5 -39q-67 0 -119.5 56t-52.5 153q0 76 63 141.5t148 65.5q74 0 216 8.5t196 18.5l14 -43q-74 -9 -111 -9q97 -287 408 -723q121 301 193.5 449t119.5 283q-15 4 -137 22l12 41q34 -11 204.5 -31.5t289.5 -25.5
l-10 -43q-75 0 -199 18q-8 -35 -46 -456.5t-38 -620.5q0 -217 117 -217q57 0 98 47.5t41 118.5q0 131 -63 131q-22 0 -47 -20.5t-25 -45.5q0 -33 16 -59.5t35 -26.5q27 0 27 51z" />
    <glyph glyph-name="N" unicode="N" horiz-adv-x="1585" 
d="M1118 285q-12 472 -12 544q0 211 21.5 310t109.5 158t217 59q79 0 127.5 -31t48.5 -84q0 -40 -62 -84.5t-147 -44.5q-38 0 -83.5 28.5t-45.5 53.5q0 34 20 54t52 20q27 0 41 -23q-29 -31 -29 -47q0 -57 68 -57q43 0 65.5 22t22.5 54q0 49 -39.5 74.5t-103.5 25.5
q-115 0 -176.5 -125t-61.5 -524q0 -388 45 -664l-37 -6q-405 793 -649 1139q23 -239 23 -542q0 -205 -13.5 -321t-67 -204t-165.5 -88q-118 0 -209.5 67t-91.5 166q0 71 73 135t156 64q44 0 77.5 -22t33.5 -56q0 -43 -38 -75t-95 -32q-16 0 -26.5 11t-10.5 26q0 16 16 33
q6 -4 21.5 -21.5t29.5 -17.5q43 0 43 45q0 26 -34.5 48t-69.5 22q-39 0 -67.5 -39.5t-28.5 -79.5q0 -84 43.5 -153.5t111.5 -69.5q133 0 202 146.5t69 398.5q0 171 -23.5 397t-40.5 293l-264 -11v46q257 0 424 26q233 -540 530 -1044z" />
    <glyph glyph-name="O" unicode="O" horiz-adv-x="1411" 
d="M668 942q-16 -24 -41 -24q-17 0 -33 26t-16 45q0 22 28.5 49t59.5 27q30 0 65 -39t35 -72q0 -76 -48.5 -128t-103.5 -52q-63 0 -110 57.5t-47 126.5q0 99 96 188t240 89q212 0 381 -177t169 -386q0 -263 -183 -476.5t-423 -213.5q-277 0 -470 182.5t-193 431.5
q0 242 155.5 441t382.5 255l13 -30q-184 -36 -296 -216t-112 -423q0 -255 151 -431t386 -176q190 0 313 186t123 429q0 241 -119 398t-307 157q-115 0 -193.5 -70.5t-78.5 -154.5q0 -45 37 -75t77 -30q51 0 87 24.5t36 59.5q0 29 -21 48.5t-46 19.5q-58 0 -58 -19
q0 -17 64 -47z" />
    <glyph glyph-name="P" unicode="P" horiz-adv-x="1128" 
d="M545 1366q240 0 400.5 -119t160.5 -280q0 -200 -128 -344t-290 -144q-52 0 -93.5 42.5t-41.5 94.5q0 32 54.5 61.5t97.5 29.5q45 0 45 -60q0 -17 -37 -49q-4 6 -20.5 35t-37.5 29q-45 0 -45 -72q0 -36 27.5 -59t67.5 -23q105 0 184.5 114t79.5 269q0 182 -107 300
t-321 128q-21 -218 -21 -676q0 -119 24 -325.5t27 -290.5l250 -21l-14 -59q-110 19 -293 30.5t-287 8.5l-6 59q89 1 185.5 -7t113.5 -5q-6 89 -33 280q-63 444 -63 777q0 185 4 231q-152 -6 -264.5 -70t-112.5 -157q0 -44 38.5 -70.5t88.5 -26.5q123 0 123 45
q0 12 -12.5 20.5t-26.5 8.5q-33 0 -33 -37q-31 5 -31 36q0 48 58 48q27 0 51.5 -21t24.5 -42q0 -51 -47 -87t-115 -36q-73 0 -124.5 43.5t-51.5 105.5q0 80 93 163.5t343 117.5q0 40 2 203q134 -11 152 -11q-38 -157 -39 -188z" />
    <glyph glyph-name="Q" unicode="Q" horiz-adv-x="1468" 
d="M1343 -119q10 -10 10 -23q0 -24 -37.5 -39.5t-53.5 -15.5q-86 0 -86 82q0 36 48 94t137 58q75 0 129 -40t54 -99q0 -98 -80 -168t-192 -70q-175 0 -225 180q-26 98 -62 191q-121 -56 -266 -56q-265 0 -459 197t-194 479q0 247 173.5 459t381.5 276l10 -32
q-92 -16 -199.5 -113t-162 -260t-54.5 -334q0 -274 142 -455.5t376 -181.5q121 0 232 70q-46 100 -102.5 144t-139.5 44q-67 0 -114.5 -49.5t-45.5 -128.5l-45 14q27 125 87.5 191.5t142.5 66.5q166 0 258 -251q108 87 168.5 222.5t60.5 282.5q0 235 -142.5 409.5
t-334.5 174.5q-137 0 -211 -57t-74 -129q0 -70 39 -117t94 -47q41 0 78 25t37 51q0 31 -20 56.5t-44 25.5q-34 0 -34 -37q0 -17 47 -41q-12 -29 -37 -29q-30 0 -48 16t-18 41q0 29 34.5 52.5t68.5 23.5t72 -26t38 -56q0 -57 -52 -96t-126 -39q-86 0 -150.5 53t-64.5 109
q0 96 109 175t278 79q237 0 424.5 -171t187.5 -419q0 -160 -98.5 -322t-259.5 -264q37 -154 89 -239.5t216 -85.5q66 0 110 30t44 86q0 44 -40 93t-97 49q-46 0 -82.5 -18t-36.5 -46q0 -57 47 -57q31 0 65 12z" />
    <glyph glyph-name="R" unicode="R" horiz-adv-x="1251" 
d="M1081 -45q48 -3 48 -26q0 -27 -30 -54t-63 -27q-39 0 -74.5 24t-35.5 56q0 46 44 88.5t93 42.5q79 0 132.5 -41t53.5 -100q0 -69 -73 -130.5t-175 -61.5q-96 0 -154.5 57.5t-58.5 148.5q0 51 17.5 162.5t17.5 227.5q0 307 -362 307l-4 30q329 83 329 365q0 113 -99 184.5
t-220 71.5q-42 0 -98 -6q-25 -272 -25 -813q0 -52 6 -359q86 0 203 37v-55q-113 -25 -225 -25q-52 0 -205 -20v57l178 4q-73 774 -92 1157l-148 -24v47q306 45 455 45q185 0 307.5 -87t122.5 -187q0 -99 -94.5 -207t-263.5 -176q181 -23 270.5 -84t89.5 -195q0 -74 -56 -224
t-56 -241q0 -74 47 -120t129 -46q70 0 117 43.5t47 98.5q0 129 -111 129q-23 0 -43.5 -22t-20.5 -50q0 -32 14.5 -53t33.5 -21q34 0 32 72z" />
    <glyph glyph-name="S" unicode="S" horiz-adv-x="985" 
d="M569 1139q-24 12 -45 12q-28 0 -28 -64q0 -21 19.5 -39t43.5 -18q92 0 92 162q0 65 -51.5 112.5t-120.5 47.5q-92 0 -159.5 -69.5t-67.5 -156.5q0 -71 53 -139.5t213 -155.5t228 -133t115.5 -112t47.5 -152q0 -161 -145.5 -307.5t-321.5 -146.5q-128 0 -223.5 99
t-95.5 230q0 105 92.5 190t190.5 85q91 0 146.5 -43.5t55.5 -116.5q0 -77 -62.5 -134t-142.5 -57q-34 0 -56.5 24.5t-22.5 55.5t23 50.5t59 19.5q28 0 40 -23q-53 -16 -53 -38q0 -56 51 -56q40 0 65.5 42.5t25.5 90.5q0 61 -42 105.5t-102 44.5q-79 0 -121.5 -73t-42.5 -191
q0 -107 67.5 -184.5t166.5 -77.5q154 0 263.5 107.5t109.5 283.5q0 81 -47.5 137.5t-117 93.5t-190.5 86t-195.5 88.5t-126 103.5t-51.5 156q0 127 113.5 215t265.5 88q98 0 166 -47.5t68 -124.5q0 -87 -45.5 -149t-120.5 -62q-58 0 -100 25.5t-42 68.5q0 36 25.5 65.5
t65.5 29.5q67 0 67 -49z" />
    <glyph glyph-name="T" unicode="T" horiz-adv-x="973" 
d="M696 1438q-6 10 -6 21q0 19 16.5 33.5t34.5 14.5q34 0 61 -24.5t27 -48.5q0 -47 -41.5 -84t-97.5 -37q-60 0 -103.5 40.5t-43.5 96.5q0 55 68.5 106.5t164.5 51.5q97 0 179.5 -57t82.5 -138q0 -129 -106.5 -194.5t-388.5 -96.5q8 -235 8 -397q0 -210 -19 -670
q161 0 261 41v-63q-141 -21 -293 -25q-52 -2 -146 -22v55l125 8q0 201 -32 549.5t-72 501.5q-127 -26 -377 -51l14 -189l-53 -6q-7 178 -29 272l52 9l8 -41q275 24 526 69t339.5 103.5t88.5 167.5q0 63 -46.5 104t-125.5 41q-56 0 -106 -39.5t-50 -89.5q0 -39 25.5 -74
t58.5 -35q36 0 57 21t21 51q0 15 -11 30t-28 15q-15 0 -43 -20z" />
    <glyph glyph-name="U" unicode="U" horiz-adv-x="1350" 
d="M948 1040q0 -12 -15 -22t-28 -10q-19 0 -34 15.5t-15 31.5q0 22 22 47.5t46 25.5q39 0 74.5 -28t35.5 -62q0 -52 -45.5 -87.5t-101.5 -35.5q-62 0 -112 53.5t-50 112.5q0 90 65 152.5t144 62.5q122 0 206.5 -168.5t84.5 -445.5q0 -303 -139.5 -517t-383.5 -214
q-212 0 -369 164t-157 385q0 107 10 193.5t37 269.5l35 231h-117v39q153 3 219.5 9t184.5 40v-49l-117 -27q-19 -52 -60 -215t-55 -274t-14 -260q0 -187 116.5 -326t286.5 -139q221 0 345 194t124 490q0 264 -60.5 401t-174.5 137q-59 0 -102 -46.5t-43 -108.5
q0 -52 34.5 -85.5t73.5 -33.5q28 0 53 23t25 49q0 31 -18 62.5t-33 31.5q-29 0 -29 -25q0 -19 51 -41z" />
    <glyph glyph-name="V" unicode="V" horiz-adv-x="1282" 
d="M643 94q62 90 112.5 251t53.5 296q6 311 44.5 417t121.5 175.5t194 69.5q86 0 141.5 -48.5t55.5 -124.5q0 -47 -57 -95t-115 -48q-31 0 -65.5 21.5t-34.5 42.5q0 43 28 70.5t72 27.5q28 0 40.5 -10t12.5 -41q-38 20 -78 20q-9 0 -22.5 -8.5t-13.5 -17.5q0 -50 98 -50
q86 0 86 52q0 63 -62 103t-145 40q-105 0 -152.5 -85.5t-65.5 -263.5t-20 -239q-11 -314 -260 -672h-37q-9 99 -46 226t-123.5 390.5t-151.5 385.5t-131 254l-195 -21l-10 48q381 18 569 65q13 -36 13 -51l-207 -23q129 -230 350 -1157z" />
    <glyph glyph-name="W" unicode="W" horiz-adv-x="1847" 
d="M1561 1184q65 0 65 -58q0 -37 -48 -72.5t-105 -35.5q-40 0 -69.5 34.5t-29.5 73.5q0 77 70 146t145 69q77 0 124.5 -53.5t47.5 -148.5q0 -92 -28.5 -197.5t-138.5 -293t-195.5 -407t-91.5 -321.5l-41 -2l-91 203q-86 190 -148 380.5t-105 358.5q-186 -369 -289 -876
l-72 -25q-48 293 -182 682.5t-260 595.5q-46 -10 -168 -49l-12 41q212 79 559 137l16 -49q-62 -5 -207 -37q139 -358 293 -1176l100 351q23 78 96 285t140 343l131 -53q18 -408 221 -995q67 400 260 686q97 143 129.5 216.5t32.5 180.5q0 62 -56.5 111t-105.5 49
q-102 0 -102 -113q0 -31 22 -62.5t50 -31.5q55 0 55 51q0 29 -12 62z" />
    <glyph glyph-name="X" unicode="X" horiz-adv-x="1243" 
d="M1270 33q-240 -35 -496 -139l-22 51q89 32 215 69q-79 195 -285 492q-28 -50 -93.5 -186t-119 -203t-140.5 -121.5t-155 -54.5q-84 0 -128 62.5t-44 174.5q0 57 44 111.5t91 54.5q99 0 99 -121q0 -26 -27 -51t-53 -25q-25 0 -35 15t-10 57q35 -12 45 -12q45 0 45 31
q0 47 -56 47q-43 0 -76.5 -33t-33.5 -86q0 -72 45.5 -107.5t159.5 -35.5q107 0 204 145.5t203 388.5q-113 158 -245.5 391t-170.5 344q-24 -3 -137 6l17 56q207 -32 471 -43l-13 -45q-107 10 -145 10q52 -231 281 -594q158 340 282 631q-47 27 -149 57l34 49
q145 -63 340 -106l-16 -64q-98 37 -145 47q-254 -537 -312 -673q125 -221 295 -592l219 53z" />
    <glyph glyph-name="Y" unicode="Y" horiz-adv-x="1491" 
d="M1542 1253l-8 -47l-148 19l-114 -195l-167 -317l-177 -346q-69 -122 -147 -231q-45 -65 -78.5 -100.5t-72.5 -66.5t-83.5 -51t-87.5 -20q-123 0 -186.5 55t-63.5 153q0 67 62 132t137 65q95 0 126 -29.5t31 -91.5q0 -33 -49 -70.5t-76 -37.5q-29 0 -48 18t-19 49
q53 -14 76 -14q31 0 55 17.5t24 33.5q0 53 -71 53q-84 0 -142.5 -27.5t-58.5 -66.5q0 -53 65 -89t166 -36q114 0 224.5 117.5t197.5 310.5q-136 133 -280 504q-67 169 -160 265t-186 96q-69 0 -129 -48t-60 -122q0 -68 40 -104t106 -36q60 0 95.5 27.5t35.5 71.5
q0 53 -76 53q-43 0 -43 -43q0 -21 12 -47q-30 0 -48.5 19.5t-18.5 39.5q0 40 32 73.5t82 33.5q42 0 67 -43.5t25 -102.5q0 -51 -42.5 -109.5t-100.5 -58.5q-73 0 -141 66t-68 137q0 116 89.5 202.5t219.5 86.5q51 0 125 -38.5t144.5 -143.5t158.5 -376q105 -324 150 -360
q342 704 377 752q-40 8 -146 22l17 52q84 -29 356 -56z" />
    <glyph glyph-name="Z" unicode="Z" horiz-adv-x="1120" 
d="M913 358q37 0 37 -49q0 -23 -31.5 -41t-62.5 -18q-39 0 -70.5 38.5t-31.5 59.5q0 64 54 117t107 53q50 0 103 -49t53 -133q0 -113 -104 -220.5t-260 -107.5q-44 0 -196.5 16.5t-240.5 16.5q-153 0 -207 -29l-12 25q350 407 494 660t282 593q-230 -108 -567 -108
q-15 -139 -35 -234l-59 6q47 170 47 250q0 69 -16 193q5 1 45 6l18 -115q67 -2 126 -2q210 0 355.5 28.5t176.5 67.5q14 -21 69 -65q-88 -188 -201 -392.5t-211.5 -329t-252 -302.5t-172.5 -205q48 24 146 41.5t167 17.5q42 0 172 -27.5t217 -27.5q60 0 108 64.5t48 134.5
q0 49 -39 101t-82 52q-49 0 -76 -24t-27 -49q0 -72 80 -72q14 0 31.5 20t17.5 39z" />
    <glyph glyph-name="bracketleft" unicode="[" horiz-adv-x="438" 
d="M432 1450l-12 -86q-134 24 -236 29q11 -148 11 -459q0 -313 -39 -977q61 -15 149 -15q33 0 57 3l-12 -58q-135 30 -237 27q4 94 4 241q0 660 -60 1295q108 -7 215 -7q104 0 160 7z" />
    <glyph glyph-name="backslash" unicode="\" horiz-adv-x="741" 
d="M795 -193q-49 -23 -84 -30q-254 551 -489.5 956t-342.5 545q10 4 59 23t60 32l419 -847q141 -292 251 -463q22 -37 60.5 -111t66.5 -105z" />
    <glyph glyph-name="bracketright" unicode="]" horiz-adv-x="438" 
d="M412 1456q-58 -600 -58 -1293q0 -147 4 -241q-104 3 -239 -26l-13 55q125 -5 207 14q-37 629 -37 1035q0 288 9 401q-119 -6 -234 -31l-12 86q49 -6 145 -6q100 0 228 6z" />
    <glyph glyph-name="asciicircum" unicode="^" horiz-adv-x="1264" 
d="M1126 395l-114 -82q-237 618 -355 842l-192 -389q-105 -214 -182 -420l-123 64q359 591 454 856l48 26q216 -513 464 -897z" />
    <glyph glyph-name="underscore" unicode="_" horiz-adv-x="1024" 
d="M1024 -614h-1024v102h1024v-102z" />
    <glyph glyph-name="grave" unicode="`" horiz-adv-x="434" 
d="M399 1067q-18 -27 -20 -35q-12 5 -96 54t-137 68.5t-121 49.5q7 5 22 41t19 43q196 -156 333 -221z" />
    <glyph glyph-name="a" unicode="a" horiz-adv-x="739" 
d="M328 655q-7 -41 -47 -41q-22 0 -36 15.5t-14 40.5q0 29 25.5 54.5t54.5 25.5q135 0 135 -78q0 -65 -69 -119.5t-119 -54.5q-59 0 -100 33.5t-41 89.5q0 116 109 236t227 120q97 0 163 -83.5t66 -205.5q0 -87 -24.5 -149t-74.5 -146q-128 -212 -128 -389q0 -20 2 -41h-41
l2 133q-125 -82 -180 -82q-68 0 -112 41.5t-44 108.5q0 63 65.5 111.5t145.5 48.5q57 0 182 12q74 161 74 287q0 290 -133 290q-122 0 -175 -78.5t-53 -216.5q0 -38 22.5 -65t55.5 -27q41 0 78 38t37 83q0 25 -23 43.5t-51 18.5q-12 0 -21.5 -12t-9.5 -25q0 -25 21 -25
q17 0 31 8zM461 301q-84 -5 -135.5 -13.5t-83 -47t-31.5 -80.5q0 -40 21.5 -66t56.5 -26q61 0 137 77z" />
    <glyph glyph-name="b" unicode="b" horiz-adv-x="901" 
d="M416 565q-51 2 -51 43q0 29 21 51.5t48 22.5q32 0 56 -29.5t24 -70.5q0 -54 -36 -84.5t-81 -30.5q-52 0 -87.5 39t-35.5 100q0 88 77 162t167 74q127 0 230.5 -120.5t103.5 -258.5q0 -179 -131.5 -322t-288.5 -143q-96 0 -178.5 64.5t-97.5 160.5q-50 -85 -93 -121
l-32 19q37 37 65 84t41 89.5t30.5 188.5t32.5 356.5t15 420.5q0 74 -8 204l-121 -6l2 37q181 0 365 66l6 -35l-84 -27q-38 -314 -109 -681.5t-71 -471.5q0 -138 70.5 -221.5t170.5 -83.5q113 0 196 126.5t83 283.5q0 126 -68 234t-155 108q-72 0 -128.5 -52.5t-56.5 -126.5
q0 -30 29.5 -58t60.5 -28q29 0 56.5 18.5t27.5 39.5q0 39 -55 39q-21 0 -21 -23q0 -8 11 -37z" />
    <glyph glyph-name="c" unicode="c" horiz-adv-x="834" 
d="M655 49q-108 -29 -178 -29q-167 0 -282 147t-115 343q0 180 140 322.5t319 142.5q82 0 167 -51.5t85 -122.5q0 -60 -56.5 -115t-120.5 -55q-57 0 -102 30.5t-45 79.5q0 46 29 71.5t79 25.5q29 0 52.5 -14.5t23.5 -37.5q0 -14 -18.5 -28.5t-34.5 -14.5h-12q10 33 10 43
q0 25 -31 25q-18 0 -31.5 -21t-13.5 -42q0 -80 74 -80q50 0 81.5 36.5t31.5 88.5q0 62 -52.5 105.5t-117.5 43.5q-136 0 -227 -141t-91 -299q0 -174 71 -312.5t187 -138.5q91 0 135 76z" />
    <glyph glyph-name="d" unicode="d" horiz-adv-x="901" 
d="M922 1479l-68 -15q-36 -121 -88.5 -560t-52.5 -693q0 -160 86 -199l-29 -41q-63 19 -91 119t-28 537q-90 159 -198 159q-96 0 -162 -106.5t-66 -230.5q0 -175 60.5 -283.5t171.5 -108.5q49 0 92 42t43 94q0 46 -42 81t-91 35q-15 0 -41.5 -19t-26.5 -42q0 -43 51 -43
q15 0 24 18.5t9 38.5q47 0 47 -45q0 -29 -25.5 -49.5t-47.5 -20.5q-30 0 -60.5 28t-30.5 69q0 60 39 98.5t90 38.5q63 0 101.5 -52t38.5 -136q0 -62 -54.5 -115t-115.5 -53q-165 0 -270 117.5t-105 281.5q0 158 122 281.5t249 123.5q48 0 103.5 -37t98.5 -104l37 760h-102
v37q137 0 330 28z" />
    <glyph glyph-name="e" unicode="e" horiz-adv-x="862" 
d="M598 215q47 0 47 -45q0 -29 -25.5 -49.5t-48.5 -20.5q-29 0 -59.5 28t-30.5 69q0 57 37 89.5t92 32.5q66 0 110 -46.5t44 -118.5q0 -85 -74.5 -135t-163.5 -50q-162 0 -301 134.5t-139 326.5q0 181 135 329t287 148q114 0 211.5 -75.5t97.5 -157.5q0 -102 -83.5 -167
t-209.5 -65q-122 0 -188 34t-66 95q0 55 41 90t86 35q40 0 72.5 -20.5t32.5 -48.5q0 -30 -22.5 -56t-43.5 -26q-41 0 -41 28q47 13 47 45q0 25 -18 39.5t-43 14.5q-18 0 -34 -29.5t-16 -60.5q0 -44 62.5 -75.5t151.5 -31.5q76 0 118 46t42 124q0 81 -61 155t-150 74
q-111 0 -189 -124.5t-78 -337.5q0 -176 89.5 -291t220.5 -115q61 0 121.5 42.5t60.5 107.5q0 44 -43 75t-94 31q-28 0 -48 -18t-20 -43q0 -43 51 -43q15 0 24 18.5t9 38.5z" />
    <glyph glyph-name="f" unicode="f" horiz-adv-x="590" 
d="M231 616q-9 61 -62.5 252.5t-53.5 276.5q0 132 98.5 225.5t218.5 93.5q96 0 156.5 -54t60.5 -153q0 -48 -50.5 -94.5t-113.5 -46.5q-114 0 -114 101q0 25 30 48t54 23q23 0 44 -14t21 -35q0 -7 -9 -19.5t-22 -15.5q-3 60 -30 60q-11 0 -22 -16t-11 -40q0 -28 19 -48.5
t47 -20.5q35 0 60.5 36t25.5 82q0 78 -42 132.5t-108 54.5q-72 0 -129 -78t-57 -188q0 -94 25.5 -292t29.5 -261q157 7 297 53l2 -57q-143 -26 -293 -41q25 -317 25 -568q98 12 178 39l6 -51q-89 -15 -174.5 -21.5t-177.5 -23.5v51l119 4q0 309 -43 561l-166 -22v53z" />
    <glyph glyph-name="g" unicode="g" horiz-adv-x="907" 
d="M336 43q103 51 143 74.5t128.5 57.5t166.5 34q74 0 120 -59.5t46 -149.5q0 -150 -145.5 -270.5t-372.5 -120.5q-139 0 -240.5 72t-101.5 172q0 124 174 215l12 -21q-78 -57 -78 -166q0 -98 64.5 -170.5t173.5 -72.5q197 0 319.5 110t122.5 221q0 50 -33.5 82.5
t-86.5 32.5q-78 0 -149.5 -20t-158.5 -63.5t-147 -84.5l-27 16q27 50 39.5 169t20.5 180q-115 28 -184.5 110.5t-69.5 188.5q0 160 111 277.5t243 117.5q84 0 139 -41q-47 69 -47 141q0 60 45.5 101t114.5 41q52 0 87.5 -30t35.5 -67q0 -32 -27.5 -58t-66.5 -26
q-23 0 -35 35q25 -6 33 -6q30 0 30 51q0 31 -15 52.5t-40 21.5q-47 0 -72.5 -37t-25.5 -98q0 -102 22 -142l-29 -18q-51 47 -143 47q-112 0 -183 -97.5t-71 -230.5q0 -144 55 -225.5t136 -81.5q98 0 168.5 98.5t70.5 221.5q0 82 -51.5 149.5t-120.5 67.5q-29 0 -53.5 -27
t-24.5 -61q0 -42 15 -71.5t41 -29.5q11 0 27 14.5t16 37.5q0 24 -15 24q-19 0 -34 -16q0 25 12 41t26 16q60 0 60 -55q0 -31 -32 -57.5t-66 -26.5q-50 0 -82.5 33t-32.5 84q0 33 45.5 73.5t95.5 40.5q106 0 186 -73.5t80 -178.5q0 -134 -110 -235t-228 -101
q-14 -168 -26 -233z" />
    <glyph glyph-name="h" unicode="h" horiz-adv-x="928" 
d="M752 43q-54 -4 -54 50q0 26 27 49.5t56 23.5q20 0 59 -17t39 -65q0 -85 -50.5 -143t-115.5 -58q-43 0 -86 52.5t-43 107.5q0 84 53 216t53 230q0 324 -241 324q-83 0 -152.5 -84t-69.5 -131q8 -309 17 -618q56 3 149 2l-4 -54q-56 6 -142 6q-140 0 -218 -14l-2 47
q99 0 166 8q6 185 -52.5 685.5t-126.5 791.5q-43 -7 -141 -12l-2 41q136 1 418 55l2 -39q-74 -15 -119 -22q15 -115 27 -346l24 -447q44 96 124 153.5t165 57.5q134 0 220.5 -96.5t86.5 -208.5q0 -149 -125 -333q-37 -55 -53.5 -91.5t-16.5 -87.5q0 -66 50.5 -93.5
t87.5 -27.5q33 0 51.5 22t18.5 57q0 36 -18.5 68.5t-41.5 32.5q-29 0 -29 -56q0 -27 9 -36z" />
    <glyph glyph-name="i" unicode="i" horiz-adv-x="436" 
d="M385 1182l-12 -2q-38 61 -113 61q-57 0 -104 -34t-47 -79q0 -54 40 -86t78 -32q76 0 76 67q0 76 -59 76q-11 0 -24 -8.5t-13 -20.5q0 -24 29 -24q13 0 32 12q-11 -51 -47 -51q-16 0 -28.5 19t-12.5 32q0 25 21 43.5t51 18.5q40 0 74 -22t34 -62q0 -42 -42.5 -71.5
t-92.5 -29.5q-59 0 -103 41t-44 103q0 65 46 115t99 50q133 0 162 -116zM457 -23q-231 0 -288 -7.5t-99 -16.5v55l129 4q0 434 -45 830l-111 4v37q103 -2 143 -2q71 0 191 37v-46l-90 -22l-21 -322l-24 -508q114 0 215 13v-56z" />
    <glyph glyph-name="j" unicode="j" horiz-adv-x="479" 
d="M250 1260q-55 10 -55 47q0 15 21 28t34 13q28 0 47.5 -21t19.5 -51t-24 -65t-60 -35q-47 0 -82.5 39.5t-35.5 87.5q0 44 50.5 95.5t106.5 51.5q73 0 128 -46t55 -99q0 -62 -37 -109.5t-99 -58.5l-4 12q31 15 53.5 50t22.5 69q0 57 -37 104t-86 47q-42 0 -86.5 -39
t-44.5 -80q0 -75 76 -75q82 0 82 59q0 11 -9 24t-22 13q-26 0 -26 -29q0 -13 12 -32zM473 903l-139 -4q-13 -168 -13 -337q0 -146 27 -399t27 -286q0 -142 -49 -213.5t-168 -71.5q-102 0 -178 49.5t-76 133.5q0 88 65.5 171t136.5 83q56 0 105 -37t49 -98q0 -45 -27.5 -83
t-64.5 -38q-90 0 -90 98q0 53 53 53q17 0 21 -26q-15 8 -23 8q-16 0 -16 -29q0 -13 10 -22t20 -9q45 0 45 68q0 28 -26.5 56t-55.5 28q-31 0 -64.5 -72t-33.5 -143q0 -74 40.5 -118t109.5 -44q74 0 122 62t48 170q0 78 -38.5 263.5t-53.5 295.5t-37 477l-148 2l-4 45
q146 -2 186 -2q77 0 240 14v-45z" />
    <glyph glyph-name="k" unicode="k" horiz-adv-x="866" 
d="M846 821l-4 -30q-80 15 -129 49q-407 -296 -445 -326q79 -6 133 -32.5t81 -65.5t29.5 -68.5t2.5 -126.5q0 -79 15.5 -113.5t50 -51.5t73.5 -17q61 0 98 47.5t37 99.5q0 74 -79 74q-26 0 -38 -5t-12 -26q0 -24 39 -24q7 0 19.5 5t17.5 5q3 -8 3 -16q0 -18 -13.5 -30.5
t-34.5 -12.5q-30 0 -45.5 22.5t-15.5 54.5q0 29 37 64t73 35q42 0 66 -40t24 -91q0 -97 -67 -153t-182 -56q-65 0 -110.5 50.5t-47.5 104.5q0 77 -29 182.5t-174 151.5l-53 -415l162 -9l-9 -47q-193 28 -350 23l6 47l160 -6q18 210 29.5 732.5t11.5 676.5q-51 0 -141 10
l4 37q92 -8 214 -8q139 0 220 10v-29q-99 -4 -151 -12q-9 -200 -93 -959l420 340q-6 7 -47.5 38t-58.5 53l26 30q140 -134 277 -172z" />
    <glyph glyph-name="l" unicode="l" horiz-adv-x="496" 
d="M373 195q-14 -68 -56 -68q-67 0 -67 70q0 51 42 89t95 38q45 0 79 -41t34 -93q0 -100 -98 -171.5t-193 -71.5q-39 0 -79 39.5t-40 93.5q0 125 36 334t51.5 419t15.5 607l-123 -4l2 34q188 0 370 54v-35l-84 -27q-61 -495 -89.5 -668.5t-86 -385.5t-57.5 -291
q0 -42 32.5 -88.5t67.5 -46.5q84 0 143.5 52.5t59.5 139.5q0 32 -19.5 58t-50.5 26q-79 0 -79 -63q0 -23 28 -23q31 0 53 27z" />
    <glyph glyph-name="m" unicode="m" horiz-adv-x="1458" 
d="M793 727q36 98 105.5 164.5t141.5 66.5q147 0 226.5 -104t79.5 -289q0 -235 -86 -405t-195 -170q-57 0 -92 38t-35 87q0 46 29.5 82t70.5 36q76 0 76 -75q0 -17 -17 -40.5t-40 -33.5l-17 14q29 21 29 45q0 25 -37 25q-53 0 -53 -73q0 -31 26 -49.5t68 -18.5
q73 0 113.5 121t40.5 352q0 164 -65 270.5t-181 106.5q-72 0 -125 -83t-53 -106l5 -46q5 -48 5 -83q0 -207 -64.5 -341t-150.5 -134q-39 0 -72.5 27.5t-33.5 70.5q0 48 24.5 78.5t69.5 30.5q31 0 51 -17.5t20 -37.5q0 -26 -14 -48t-39 -22l-12 14q24 9 24 23q0 20 -43 20
q-12 0 -24 -13t-12 -32q0 -27 19 -45t48 -18q51 0 79 91.5t28 344.5q0 101 -64 192t-151 91q-45 0 -89 -26.5t-77.5 -77.5t-34.5 -107l-6 -321q-4 -239 -4 -273l133 6v-49q-185 0 -299 -33l-13 43l132 27q0 458 -109 845l-133 -14l-2 43q166 4 323 53q-14 -38 -24 -235
q22 65 98.5 125.5t153.5 60.5q86 0 154.5 -46.5t93.5 -127.5z" />
    <glyph glyph-name="n" unicode="n" horiz-adv-x="1059" 
d="M272 623q106 299 316 299q149 0 268 -125.5t119 -294.5q0 -185 -110 -356t-232 -171q-53 0 -103.5 47t-50.5 99q0 42 43 75t88 33q105 0 105 -65q0 -62 -76 -62q-35 0 -41 15l8 10q13 -4 23 -4q20 0 20 37q0 41 -39 41q-21 0 -38 -31.5t-17 -63.5q0 -96 86 -96
q195 0 195 520q0 126 -76 236.5t-176 110.5q-84 0 -153.5 -66.5t-109.5 -156t-40 -101.5l-39 -526l108 26l12 -45q-106 -26 -157 -26q-50 0 -144 6l9 45l133 -10q2 39 2 93q0 408 -76 775l-113 -19l-12 37q139 17 287 88z" />
    <glyph glyph-name="o" unicode="o" 
d="M516 672q-14 -23 -35 -23q-13 0 -24 12.5t-11 32.5q0 24 22 40t48 16q29 0 54.5 -24.5t25.5 -51.5q0 -64 -36 -101.5t-93 -37.5q-41 0 -70.5 42.5t-29.5 104.5q0 72 63 132t129 60q135 0 247 -120t112 -271q0 -187 -128.5 -337t-275.5 -150q-167 0 -300.5 135.5
t-133.5 319.5q0 155 122.5 295t289.5 178l12 -25q-128 -23 -211.5 -148t-83.5 -272q0 -201 83.5 -326.5t219.5 -125.5q104 0 191.5 127t87.5 297q0 162 -76 272.5t-185 110.5q-59 0 -98 -46.5t-39 -101.5q0 -35 27 -60.5t51 -25.5q32 0 64 24.5t32 47.5q0 49 -55 49
q-23 0 -23 -25q0 -11 27 -24z" />
    <glyph glyph-name="p" unicode="p" 
d="M487 713q0 21 8 29t35 8q21 0 50.5 -33t29.5 -49q0 -42 -50 -78.5t-99 -36.5q-57 0 -89 36t-32 95q0 52 71.5 117t139.5 65q168 0 271.5 -110t103.5 -283q0 -138 -133 -265.5t-322 -127.5q-109 0 -219 113q-19 -240 -19 -384q0 -89 7 -155q64 5 143 35l6 -58
q-108 -24 -172 -24q-42 0 -174 -10l2 43q123 8 156 8q-39 288 -39 700q0 359 33 535q-48 -7 -181 -45l-8 43q184 38 340 100q-39 -125 -63.5 -379.5t-24.5 -339.5q98 -137 246 -137q108 0 195 108.5t87 247.5q0 149 -68 251t-159 102q-59 0 -102 -45t-43 -111q0 -36 22 -65
t45 -29q28 0 45 22.5t17 52.5q0 54 -56 54z" />
    <glyph glyph-name="q" unicode="q" horiz-adv-x="1018" 
d="M987 1120q-102 -291 -159.5 -661.5t-57.5 -696.5v-73l209 -27l-12 -43q-99 7 -221.5 19t-227.5 16l4 49q92 -14 197 -14q-10 165 -10 293q0 189 25 448l26 250q0 19 -27.5 80t-96 114.5t-138.5 53.5q-132 0 -213.5 -111t-81.5 -260q0 -147 71.5 -265t190.5 -118
q61 0 114.5 56t53.5 118q0 59 -34.5 100t-88.5 41q-30 0 -52 -13.5t-22 -37.5q0 -28 86 -28l10 -7q0 -59 -43 -59q-49 0 -69.5 20t-20.5 74q0 44 42.5 84.5t86.5 40.5q63 0 97 -60.5t34 -148.5q0 -79 -66 -148t-144 -69q-154 0 -268.5 111t-114.5 262q0 168 139.5 310.5
t306.5 142.5q114 0 174.5 -49t91.5 -158q36 226 90 393z" />
    <glyph glyph-name="r" unicode="r" horiz-adv-x="758" 
d="M274 674q41 138 115.5 211t151.5 73q74 0 127 -60.5t53 -147.5q0 -102 -60 -166t-155 -64q-49 0 -83 38t-34 91q0 26 44.5 64.5t72.5 38.5q40 0 69 -19t29 -53q0 -38 -67 -53q12 30 12 49q0 39 -27 39q-23 0 -39 -28t-16 -56q0 -26 22.5 -51t47.5 -25q68 0 107.5 48.5
t39.5 121.5q0 52 -47 89.5t-107 37.5q-62 0 -113 -32.5t-94.5 -115.5t-43.5 -104q0 -16 38 -561q122 37 222 100l12 -49q-112 -56 -208 -88t-245 -51v51q88 0 170 23q0 106 -47.5 366t-101.5 438l-142 -51l-10 33q194 50 309 156q-6 -85 -6 -117q0 -88 4 -176z" />
    <glyph glyph-name="s" unicode="s" horiz-adv-x="629" 
d="M291 137q-43 41 -74 41q-17 0 -41.5 -27t-24.5 -43q0 -49 57.5 -92t145.5 -43q42 0 90 52t48 112q0 51 -38.5 109.5t-217.5 202.5q-77 61 -107 102.5t-46.5 94.5t-16.5 106q0 96 78 178t190 82q88 0 154.5 -42.5t66.5 -116.5q0 -60 -45.5 -111.5t-103.5 -51.5
q-47 0 -79 47.5t-32 91.5q0 55 63 55q20 0 37 -7q-2 -4 -9 -12q-36 -40 -36 -73q0 -24 36 -38.5t60 -14.5q20 0 36 21.5t16 41.5q0 68 -49.5 121.5t-118.5 53.5q-64 0 -107 -49.5t-43 -105.5q0 -195 178 -330q189 -146 189 -287q0 -82 -34 -141.5t-82 -98t-76 -47t-87 -8.5
q-63 0 -108 62t-45 133q0 51 38 92t80 41q30 0 52.5 -16t22.5 -40q0 -21 -17 -45z" />
    <glyph glyph-name="t" unicode="t" horiz-adv-x="618" 
d="M625 963q-82 -15 -135.5 -21.5t-155.5 -38.5q-5 -64 -59 -314.5t-54 -338.5q0 -114 46.5 -175t131.5 -61q62 0 95.5 55.5t33.5 143.5q0 34 -24 70t-53 36q-26 0 -42 -25t-16 -58q0 -29 27 -29t39 43l12 -8q0 -31 -17.5 -51.5t-37.5 -20.5q-33 0 -62.5 21.5t-29.5 54.5
q0 43 37.5 76.5t80.5 33.5q55 0 109.5 -38t54.5 -80q0 -95 -58 -175.5t-134 -80.5q-116 0 -185 72.5t-69 191.5q0 59 23.5 317.5t21.5 300.5l-185 -53v55l185 43q2 30 2 70q0 119 -17 231l172 29q3 -125 -24 -289q125 40 169 48.5t103 25.5z" />
    <glyph glyph-name="u" unicode="u" 
d="M979 -6q-115 -34 -186 -70l-23 236q-126 -183 -303 -183q-135 0 -248 107.5t-113 261.5q0 63 37 140t84.5 124.5t82 108.5t34.5 96q0 107 -92 107q-40 0 -76.5 -23t-36.5 -57q0 -23 19 -40.5t41 -17.5q26 0 32.5 5t6.5 16q0 25 -43 33q21 24 34 24q18 0 32.5 -16.5
t14.5 -38.5q0 -33 -27.5 -61.5t-60.5 -28.5q-31 0 -57.5 30.5t-26.5 63.5q0 62 46 120t98 58q57 0 94 -47.5t37 -114.5q0 -92 -49 -178q-107 -189 -107 -293q0 -155 74.5 -244t200.5 -89q154 0 264 206q-36 318 -105 629l-106 -6l4 43q178 3 332 55l10 -41l-102 -28
q0 -338 36 -885q72 15 134 45z" />
    <glyph glyph-name="v" unicode="v" horiz-adv-x="903" 
d="M582 764q-47 0 -47 41q0 19 24 41t47 22q80 0 80 -108q0 -61 -52.5 -110.5t-109.5 -49.5q-40 0 -80.5 52.5t-40.5 99.5q0 100 76.5 176t175.5 76q70 0 129.5 -83t59.5 -206q0 -346 -418 -776q-77 223 -205.5 482t-200.5 339l-98 -39l-14 47q119 41 181 74.5t159 101.5
l26 -41l-106 -65l89 -213l69 -193q60 -171 131 -387q150 143 246 326.5t96 345.5q0 86 -54 148.5t-129 62.5q-66 0 -109.5 -35t-43.5 -90q0 -52 22.5 -84.5t61.5 -32.5q43 0 79 21t36 53q0 21 -18.5 37t-39.5 16q-22 0 -22 -49z" />
    <glyph glyph-name="w" unicode="w" horiz-adv-x="1368" 
d="M1155 940q23 0 23 -41q0 -16 -28.5 -46t-53.5 -30q-29 0 -58.5 33t-29.5 59q0 75 47 129t94 54q54 0 93.5 -61.5t39.5 -164.5q0 -116 -35 -240t-161.5 -328.5t-157.5 -266.5q-197 466 -254 680q-144 -429 -234 -717l-57 -10q-105 305 -124.5 366.5t-83 229.5t-107.5 225
q-30 -11 -79 -46t-73 -48q-18 22 -25 41q103 48 322 200q48 -124 112.5 -434.5t98.5 -423.5q171 472 213 801l-121 -6l-4 43q80 0 206 13t191 32l6 -59q-109 -11 -139 -13q65 -382 107 -522.5t69 -195.5l98 137q50 71 91.5 152t67.5 169t26 172q0 92 -35.5 148.5t-85.5 56.5
q-53 0 -53 -49q0 -25 17 -54.5t36 -29.5q47 0 41 45z" />
    <glyph glyph-name="x" unicode="x" horiz-adv-x="897" 
d="M756 254q12 -11 12 -23q0 -23 -23.5 -38t-46.5 -15q-30 0 -49.5 21.5t-19.5 50.5q0 28 37.5 60t64.5 32q59 0 104.5 -46.5t45.5 -101.5q0 -57 -60.5 -107t-126.5 -50q-103 0 -176 83t-158 277q-173 -164 -221 -372l137 -19l-8 -43q-223 35 -319 70l4 43q87 -29 125 -35
q28 94 77.5 175.5t184.5 215.5q-145 364 -182 424l-115 -41l-14 41q215 59 256 96q32 -172 127 -454q162 184 186 364q-18 4 -80 -8l-2 47q22 -2 49 -2q149 0 201 39l12 -43q-17 -4 -54.5 -11t-51.5 -14q0 -20 -46.5 -134.5t-199.5 -282.5q83 -243 130 -310t134 -67
q51 0 86 50.5t35 103.5q0 83 -53 83q-64 0 -64 -59q0 -33 23 -33q19 0 39 33z" />
    <glyph glyph-name="y" unicode="y" horiz-adv-x="809" 
d="M610 918q6 -9 6 -18q0 -18 -17.5 -34t-31.5 -16q-30 0 -55 32t-25 60q0 46 40 90.5t77 44.5q56 0 102 -46.5t46 -100.5q0 -56 -25.5 -135.5t-126.5 -277.5t-147 -308t-73 -223q-55 -229 -137 -274.5t-128 -45.5q-78 0 -126 36t-48 85q0 52 54 89.5t124 37.5q30 0 54 -21
t24 -53q0 -26 -33 -49t-63 -23q-25 0 -25 21q12 0 30 17t18 42q0 37 -26 37q-40 0 -66 -19.5t-26 -53.5q0 -45 36 -82t83 -37q51 0 105 82t79.5 168t83.5 239q-181 510 -352 723q-45 -12 -141 -45l-11 39q103 23 269 102q54 -70 100.5 -184.5t88.5 -262.5l83 -294l156 314
q65 131 86.5 204.5t21.5 122.5q0 48 -30.5 77.5t-79.5 29.5q-23 0 -38.5 -12.5t-15.5 -30.5q0 -60 33 -60q19 0 47 13z" />
    <glyph glyph-name="z" unicode="z" horiz-adv-x="803" 
d="M731 920q-84 -191 -276 -440t-349 -365q120 16 187 16q213 0 364 -72q13 80 17 189l49 -4q-40 -181 -37 -350l-39 2q-2 34 -2 40q0 28 10 76q-151 58 -284 58q-162 0 -361 -60l-33 58q164 92 344.5 346t233.5 454q-213 -53 -287 -53q-80 0 -150.5 41.5t-70.5 108.5
q0 56 57 91.5t125 35.5q53 0 95.5 -22.5t42.5 -61.5q0 -33 -49 -54.5t-93 -21.5q-55 0 -55 47q0 21 43 27q0 -43 47 -43q14 0 27.5 6t13.5 16q0 28 -36 49t-70 21q-38 0 -71.5 -23.5t-33.5 -56.5q0 -43 47.5 -66.5t171.5 -23.5q233 0 400 61z" />
    <glyph glyph-name="braceleft" unicode="{" horiz-adv-x="504" 
d="M594 1266q-8 -12 -32 -33.5t-32 -32.5q-65 107 -155 107q-137 0 -137 -140q0 -47 19 -138.5t19 -137.5q0 -127 -37.5 -202t-109.5 -75q84 -21 84 -180q0 -49 -30.5 -137.5t-30.5 -136.5q0 -52 38 -88.5t91 -36.5q55 0 118 41l17 -29q-23 -36 -63 -62t-74 -26
q-81 0 -136 101.5t-55 201.5q0 44 32 126.5t32 127.5q0 86 -113 86q-9 0 -47 -10q9 41 28 84q43 -25 80 -25q46 0 82.5 37t36.5 82q0 55 -45 157.5t-45 159.5q0 102 69.5 183.5t166.5 81.5q53 0 121 -24.5t108 -61.5z" />
    <glyph glyph-name="bar" unicode="|" horiz-adv-x="311" 
d="M205 -287l-103 -41q21 613 21 994q0 297 -21 890l103 9q-17 -836 -17 -1352q0 -227 17 -500z" />
    <glyph glyph-name="braceright" unicode="}" horiz-adv-x="504" 
d="M492 541q-25 2 -42 2q-128 0 -128 -123q0 -50 34.5 -148t34.5 -149q0 -79 -67 -153t-144 -74q-49 0 -141 38l22 66q57 -59 136 -59q59 0 99 38t40 97q0 47 -49 134t-49 144q0 150 114 224q-54 5 -82 56.5t-28 121.5q0 59 33.5 172t33.5 174q0 70 -36 114t-99 44
q-53 0 -108 -86q-11 17 -43 53q83 55 188 55q188 0 188 -227q0 -93 -65 -216q-49 -92 -49 -145q0 -38 31.5 -61t76.5 -23q30 0 92 25q7 -37 7 -60v-34z" />
    <glyph glyph-name="asciitilde" unicode="~" horiz-adv-x="1264" 
d="M1163 623q-18 -152 -118.5 -240t-194.5 -88q-73 0 -143 48.5t-113.5 129.5t-90.5 115.5t-106 34.5t-127.5 -98t-68.5 -199l-131 14q32 120 137 226t201 106q194 0 282 -182q34 -72 70 -107t112 -35q72 0 120.5 82t45.5 205z" />
    <glyph glyph-name="nonbreakingspace" unicode="&#xa0;" horiz-adv-x="616" 
 />
    <glyph glyph-name="exclamdown" unicode="&#xa1;" horiz-adv-x="446" 
d="M322 1061q53 -12 53 -94q0 -46 -50.5 -76.5t-101.5 -30.5q-155 0 -155 168q0 55 38 87t93 32q34 0 60 -41t26 -86q0 -27 -13.5 -44.5t-33.5 -17.5q-30 0 -47 25t-17 59q0 -6 19 -18t36 -12q11 0 19 9.5t8 20.5q0 35 -57 35q-74 0 -74 -69q0 -41 40.5 -75t86.5 -34
q33 0 57.5 35.5t24.5 78.5q0 28 -12 48zM268 -188q-154 -20 -202 -31q122 551 131 989q36 -12 59 -16q-10 -202 -10 -568q0 -160 22 -374z" />
    <glyph glyph-name="cent" unicode="&#xa2;" horiz-adv-x="842" 
d="M778 197q-149 -223 -325 -234q0 -211 28 -362q-47 -3 -82 -13q0 128 13 377q-176 16 -280.5 165.5t-104.5 344.5q0 161 129.5 320.5t308.5 171.5q18 293 18 405q8 0 90 -12q-62 -296 -73 -393q123 -7 185.5 -63.5t62.5 -115.5q0 -50 -50 -108.5t-104 -58.5
q-87 0 -134.5 36.5t-47.5 85.5q0 34 36 61t82 27q17 0 38.5 -12t21.5 -26q0 -20 -15.5 -37.5t-42.5 -20.5q0 66 -24 66q-18 0 -30.5 -18t-12.5 -42t31 -60t57 -36q54 0 83.5 38.5t29.5 92.5q0 58 -49.5 104t-129.5 46q-146 0 -240.5 -108t-94.5 -277q0 -240 72.5 -387.5
t211.5 -147.5q186 0 289 232z" />
    <glyph glyph-name="sterling" unicode="&#xa3;" horiz-adv-x="1092" 
d="M942 133q-59 184 -59 275q0 54 36.5 93.5t79.5 39.5q33 0 59.5 -25.5t26.5 -64.5q0 -25 -17.5 -46.5t-37.5 -21.5q-23 0 -37 31q33 18 33 43q0 24 -35 24q-24 0 -39.5 -25t-15.5 -59q0 -103 39 -244t51 -196q-436 74 -764 74q-116 0 -256 -11l14 56q349 48 349 379
q0 21 -9 67q-143 -8 -231 -10l6 55l217 -14q-10 35 -53 106q-115 -12 -170 -16l4 59q40 0 143 -4q-96 148 -96 256q0 118 91.5 224t205.5 106q91 0 162.5 -59t71.5 -146q0 -65 -48.5 -129.5t-109.5 -64.5q-36 0 -67 35t-31 71q0 31 23 58.5t52 27.5q20 0 38 -13.5t18 -31.5
q0 -14 -7.5 -33.5t-17.5 -19.5q-6 0 -18 19.5t-21 19.5q-12 0 -20 -17.5t-8 -33.5q0 -54 61 -54q32 0 60 33.5t28 67.5q0 67 -42 150t-97 83q-89 0 -152 -93t-63 -193q0 -127 55 -261q193 20 367 64l4 -70q-106 -1 -355 -28q29 -73 41 -113q188 11 306 33l18 -74
q-47 10 -291 10h-22q37 -108 37 -147q0 -95 -114 -185t-163 -104h70q359 0 700 47z" />
    <glyph glyph-name="currency" unicode="&#xa4;" horiz-adv-x="819" 
d="M162 647l-154 156l51 51l152 -156q85 70 195 70q102 0 186 -61l151 149l52 -51l-150 -150q68 -86 68 -195q0 -108 -66 -190l156 -161l-51 -50l-150 164q-87 -70 -196 -70q-108 0 -195 70l-156 -155l-51 51l156 160q-62 78 -62 182q0 103 64 186zM632 462q0 91 -66 157.5
t-159 66.5q-91 0 -159 -65t-68 -160t66.5 -160t159.5 -65q94 0 160 66t66 160z" />
    <glyph glyph-name="yen" unicode="&#xa5;" horiz-adv-x="1276" 
d="M1325 1233q-5 -16 -8 -55q-39 10 -170 32q-193 -258 -447 -495l-12 -97l475 -6l-8 -61l-471 29q-10 -105 -10 -156q162 2 418 14l-15 -69q-122 8 -407 12q-13 -301 -13 -328q65 -4 173 -4t171 4v-63q-392 33 -487 33q-81 0 -152 -15l9 60q59 0 243 -7l-16 316
q-360 -21 -420 -21q2 16 -12 72q131 -8 182 -8q173 0 250 2l-12 164l-439 24l15 56q222 -30 424 -43l-13 88q-88 169 -145 311.5t-116.5 202t-125.5 59.5q-35 0 -75.5 -30t-40.5 -60q0 -49 19.5 -89t49.5 -40t58 13.5t28 35.5q0 31 -41 31q-19 0 -37 -23q-20 10 -20 37
q0 19 20.5 32t40.5 13q23 0 50.5 -23t27.5 -44q0 -30 -42.5 -67.5t-82.5 -37.5q-51 0 -96 63.5t-45 121.5q0 51 63.5 98t122.5 47q84 0 150.5 -31t105 -97.5t90 -261.5t101.5 -263q148 139 411 514q-38 0 -190 37q8 24 18 47q217 -62 453 -74z" />
    <glyph glyph-name="brokenbar" unicode="&#xa6;" horiz-adv-x="311" 
d="M205 1565q-12 -403 -12 -750l-72 -8q0 291 -19 749zM205 -287l-103 -41q21 385 21 766l65 8q0 -226 17 -733z" />
    <glyph glyph-name="section" unicode="&#xa7;" horiz-adv-x="686" 
d="M229 942q-106 106 -106 250q0 96 78 178t190 82q89 0 155.5 -42t66.5 -116q0 -61 -46.5 -112.5t-105.5 -51.5q-47 0 -78 47.5t-31 89.5q0 26 18 46t38 20q26 0 45 -16q-46 -46 -46 -85q0 -52 97 -52q19 0 35 22t16 43q0 54 -53.5 113t-114.5 59q-64 0 -107 -48.5
t-43 -105.5q0 -197 179 -331q79 -59 133.5 -139.5t54.5 -171.5q0 -65 -46 -140t-142 -121q108 -93 108 -278q0 -79 -61 -133.5t-106.5 -75t-112.5 -20.5q-63 0 -108.5 62t-45.5 133q0 51 37 91.5t80 40.5q59 0 59 -100q-47 33 -73 33q-27 0 -46.5 -16.5t-19.5 -47.5
q0 -34 58.5 -83.5t144.5 -49.5q42 0 91.5 49t49.5 109q0 69 -64.5 155t-198.5 191.5t-134 249.5q0 97 155 272zM354 418q39 -4 58 -4q41 0 89 51.5t48 112.5q0 54 -43.5 116.5t-243.5 218.5q-46 -15 -72 -70.5t-26 -109.5q0 -86 30 -128t160 -187z" />
    <glyph glyph-name="dieresis" unicode="&#xa8;" horiz-adv-x="532" 
d="M428 1231q66 0 66 -39q0 -48 -16.5 -66t-49.5 -18q-49 0 -49 72q0 29 10.5 40t38.5 11zM125 1217q21 0 38 -24t17 -48q0 -51 -78 -51q-20 0 -44.5 23t-24.5 44q0 27 26.5 41.5t65.5 14.5z" />
    <glyph glyph-name="copyright" unicode="&#xa9;" horiz-adv-x="1065" 
d="M553 1145q180 0 326.5 -161.5t146.5 -397.5q0 -203 -162.5 -330t-384.5 -127q-139 0 -244.5 71t-154.5 189.5t-49 224.5q0 111 33.5 196.5t122.5 168t174 124.5t192 42zM569 178q185 0 283 120.5t98 336.5q0 203 -110.5 333t-268.5 130q-460 0 -460 -504
q0 -180 133.5 -298t324.5 -118zM780 518q-44 -120 -96 -174.5t-125 -54.5q-116 0 -217.5 111t-101.5 229q0 121 98.5 236.5t216.5 115.5q89 0 150 -34.5t61 -98.5q0 -53 -31 -91t-80 -38q-39 0 -74.5 24.5t-35.5 59.5q0 29 18.5 48t46.5 19q25 0 43.5 -13.5t18.5 -35.5
q0 -15 -31 -26q-2 2 -7 24.5t-16 22.5q-24 0 -24 -35q0 -59 45 -59q31 0 48.5 21.5t17.5 55.5q0 41 -49 81t-91 40q-99 0 -154 -76.5t-55 -195.5q0 -111 67 -225.5t161 -114.5q105 0 153 205z" />
    <glyph glyph-name="ordfeminine" unicode="&#xaa;" horiz-adv-x="725" 
d="M633 1288q-64 -250 -64 -451q0 -72 9 -135q-43 0 -62 -4l-6 244q-5 184 -51 240.5t-148 56.5q-67 0 -105 -47t-38 -211q0 -93 39.5 -157t77.5 -64q52 0 81 30.5t29 86.5q0 98 -59 98q-18 0 -18 -20q0 -8 4.5 -29.5t3.5 -28.5q-58 0 -58 49q0 24 25.5 41t56.5 17
q54 0 86.5 -37t32.5 -97q0 -44 -56 -92.5t-118 -48.5q-92 0 -156.5 79t-64.5 181q0 92 86.5 197.5t173.5 105.5q132 0 190 -174q-1 64 -8 110t-8 79q100 -5 125 -19z" />
    <glyph glyph-name="guillemotleft" unicode="&#xab;" horiz-adv-x="670" 
d="M344 375q-53 -24 -78 -47q-209 154 -250 209q59 35 130.5 124t105.5 162q33 -42 78 -80q-81 -50 -256 -206q32 -28 130.5 -75.5t139.5 -86.5zM645 383q-34 -53 -57 -78q-20 34 -121 112.5t-127 110.5q159 171 217 258q44 -33 86 -53l-242 -184q130 -120 244 -166z" />
    <glyph glyph-name="logicalnot" unicode="&#xac;" horiz-adv-x="1264" 
d="M1188 199l-131 2q35 180 35 528q-168 0 -990 -16l7 104q312 -26 712 -26q230 0 338 8q-4 -78 12 -307t17 -293z" />
    <glyph glyph-name="sfthyphen" unicode="&#xad;" horiz-adv-x="653" 
d="M590 586q-15 -46 -15 -101q-69 25 -200 25q-80 0 -172.5 -9t-139.5 -12q0 54 -6 80q118 0 269 8.5t264 8.5z" />
    <glyph glyph-name="registered" unicode="&#xae;" horiz-adv-x="831" 
d="M428 1323q107 0 191 -51.5t125.5 -160t41.5 -171.5q0 -90 -23.5 -175.5t-119 -159t-172.5 -73.5q-195 0 -312.5 100t-117.5 271q0 115 60.5 224t164 152.5t162.5 43.5zM473 598q137 0 210 83.5t73 233.5q0 96 -81 225.5t-265 129.5q-108 0 -220 -90t-112 -199
q0 -153 117 -268t278 -115zM606 788q-39 6 -39 31q0 11 18 22t36 11q65 0 65 -59q0 -38 -38 -66.5t-83 -28.5q-30 0 -62 31t-72 108.5t-50 90.5q40 0 77.5 25t37.5 61q0 78 -80 78q-21 0 -62 -15l19 -334h63l-10 -26q-83 0 -150 -17v35h54q-10 142 -19.5 177.5t-25.5 131.5
q-24 -11 -52 -28l-12 31q46 24 60 30q-3 16 -10 45t-9 37q6 1 37 15.5t43 15.5q1 -11 4.5 -38t3.5 -42q30 18 94 18q125 0 125 -98q0 -34 -39 -68.5t-96 -43.5q53 -17 80.5 -92t40 -87t27.5 -12q17 0 38 30t21 52q0 11 -10 18q-25 0 -25 -39z" />
    <glyph glyph-name="overscore" unicode="&#xaf;" horiz-adv-x="1024" 
d="M1024 2001h-1024v102h1024v-102z" />
    <glyph glyph-name="degree" unicode="&#xb0;" horiz-adv-x="504" 
d="M250 1303q77 0 129.5 -44.5t52.5 -113.5q0 -73 -56.5 -128.5t-129.5 -55.5q-65 0 -116.5 57t-51.5 104q0 76 50.5 128.5t121.5 52.5zM256 1014q43 0 77 40t34 89q0 45 -28 71.5t-73 26.5q-41 0 -85 -31t-44 -63q0 -133 119 -133z" />
    <glyph glyph-name="plusminus" unicode="&#xb1;" horiz-adv-x="1264" 
d="M1161 627l-477 4q-14 -412 -14 -531l-72 -4q0 164 12 535q-385 0 -504 12l5 105q373 -46 493 -46q-8 366 -8 488l92 18l-8 -506q168 0 469 31zM1133 -20q-718 0 -994 -19l6 98q661 0 975 39z" />
    <glyph glyph-name="twosuperior" unicode="&#xb2;" horiz-adv-x="684" 
d="M150 608q45 33 108 33q53 0 140.5 -37t105.5 -37q88 0 88 90q0 28 -25 51t-55 23q-21 0 -35 -14t-14 -29q0 -31 76 -31q3 0 3 -4q0 -6 -10.5 -25.5t-39.5 -19.5q-17 0 -38.5 22t-21.5 40q0 32 28 62t68 30q45 0 76 -26.5t31 -73.5q0 -51 -50.5 -97.5t-99.5 -46.5
q-23 0 -106.5 18.5t-145.5 18.5q-26 0 -62.5 -10.5t-49.5 -28.5q-15 36 -15 84q0 27 28 96t131 155q144 120 186.5 192.5t42.5 138.5q0 61 -38.5 112.5t-95.5 51.5q-60 0 -100.5 -39t-40.5 -82q0 -41 22.5 -65.5t51.5 -24.5q25 0 41 14.5t16 34.5q0 11 -8.5 26t-15.5 15
q-33 0 -33 -39q-31 7 -31 24q0 23 19 37.5t38 14.5q70 0 70 -68q0 -30 -34.5 -62t-86.5 -32q-36 0 -70 35t-34 69q0 69 71.5 122.5t147.5 53.5q84 0 144.5 -57.5t60.5 -132.5q0 -64 -36.5 -132t-86.5 -104q-178 -126 -242 -200.5t-73 -145.5z" />
    <glyph glyph-name="threesuperior" unicode="&#xb3;" horiz-adv-x="653" 
d="M172 934q55 -19 74 -19q99 0 159 71.5t60 174.5q0 64 -52 104t-120 40q-51 0 -93 -43.5t-42 -92.5q0 -16 22.5 -36.5t38.5 -20.5q74 0 74 47q0 41 -23 41q-14 0 -20.5 -19.5t-16.5 -19.5q-26 0 -26 33q0 35 67 35q17 0 41.5 -18.5t24.5 -39.5q0 -32 -40.5 -61t-78.5 -29
q-50 0 -85.5 36t-35.5 85q0 41 70 87t166 46q89 0 157 -59.5t68 -145.5q0 -50 -76.5 -129.5t-171.5 -119.5q105 -21 163.5 -75t58.5 -120q0 -91 -82.5 -161t-176.5 -70q-70 0 -127 39.5t-57 93.5q0 32 37.5 70t87.5 38q37 0 57.5 -17.5t20.5 -43.5q0 -90 -80 -90
q-21 0 -31 51q34 -12 45 -12q14 0 25.5 10t11.5 20q0 13 -17 23t-38 10q-78 0 -78 -53q0 -43 38 -72.5t110 -29.5q66 0 110.5 49.5t44.5 126.5q0 97 -48.5 142.5t-164.5 45.5q-13 0 -55 6z" />
    <glyph glyph-name="acute" unicode="&#xb4;" horiz-adv-x="434" 
d="M401 1204q-68 -30 -121 -49.5t-128 -63.5t-105 -59q-2 8 -20 35q137 65 333 221q4 -7 19 -43t22 -41z" />
    <glyph glyph-name="mu" unicode="&#xb5;" 
d="M979 -6q-115 -34 -186 -70l-23 236q-121 -176 -303 -176q-85 0 -178.5 51t-136.5 141q-12 -245 -22 -373.5t-19.5 -145t-47.5 -16.5q-36 0 -36 58q0 42 48 293l48 246l-8 33q-9 36 -9 75q0 63 37 140t84.5 124.5t82 108.5t34.5 96q0 107 -92 107q-40 0 -76.5 -23
t-36.5 -57q0 -23 19 -40.5t41 -17.5q26 0 32.5 5t6.5 16q0 25 -43 33q21 24 34 24q18 0 32.5 -16.5t14.5 -38.5q0 -33 -27.5 -61.5t-60.5 -28.5q-31 0 -57.5 30.5t-26.5 63.5q0 62 46 120t98 58q57 0 94 -47.5t37 -114.5q0 -92 -49 -178q-107 -189 -107 -293
q0 -155 74.5 -244t200.5 -89q154 0 264 206q-36 318 -105 629l-106 -6l4 43q178 3 332 55l10 -41l-102 -28q0 -338 36 -885q72 15 134 45z" />
    <glyph glyph-name="paragraph" unicode="&#xb6;" horiz-adv-x="926" 
d="M797 1458l-9 -74l-81 -8q-9 -204 -9 -647q0 -267 41 -688l-131 -74q17 126 17 456q0 517 -25 937l-117 -8q-14 -728 -14 -1049q0 -227 16 -360l-102 -41q20 298 20 680q0 116 -24 221q-81 -39 -178 -39q-102 0 -155.5 56t-53.5 270q0 17 4 38q4 23 13 46q10 27 24 52
q17 27 38 51q23 27 51 48q32 23 69 39q40 18 86 27l106 10z" />
    <glyph glyph-name="periodcentered" unicode="&#xb7;" horiz-adv-x="406" 
d="M184 596q37 0 62.5 -34.5t25.5 -76.5q0 -36 -65 -36q-74 0 -74 69q0 34 15 56t36 22z" />
    <glyph glyph-name="periodcentered" unicode="&#x2219;" horiz-adv-x="406" 
d="M184 596q37 0 62.5 -34.5t25.5 -76.5q0 -36 -65 -36q-74 0 -74 69q0 34 15 56t36 22z" />
    <glyph glyph-name="cedilla" unicode="&#xb8;" horiz-adv-x="326" 
d="M137 -86q57 4 115.5 -30.5t58.5 -86.5q0 -37 -54 -72.5t-101 -35.5q-26 0 -63.5 14.5t-45.5 15.5q12 24 19 48q41 -41 92 -41q69 0 69 63q0 42 -36.5 73.5t-94.5 28.5q29 71 33 125h57q-11 -18 -25 -52t-24 -50z" />
    <glyph glyph-name="onesuperior" unicode="&#xb9;" horiz-adv-x="594" 
d="M483 514q-223 -13 -325 -61l-4 43q55 11 153 36q-31 585 -55 717q-59 -39 -135 -39q-14 0 -42 18.5t-28 31.5q0 29 20 54t39 25t36.5 -12t17.5 -27q0 -31 -35 -28q0 39 -21 39q-4 0 -9 -6.5t-5 -10.5q0 -21 14 -35t33 -14q43 0 109 35t133 72q0 -134 -11.5 -302.5
t-11.5 -349.5q0 -76 4 -161q27 0 67.5 10.5t55.5 11.5v-47z" />
    <glyph glyph-name="ordmasculine" unicode="&#xba;" horiz-adv-x="760" 
d="M428 1260q-108 -23 -178 -101.5t-70 -173.5q0 -101 52.5 -189.5t134.5 -88.5q101 0 158 73t57 189q0 74 -38 125t-102 51q-36 0 -55.5 -35t-19.5 -86q0 -61 39 -61q20 0 28 6.5t8 29.5q0 12 -4 33t-4 31q0 24 12 24q26 0 43 -16t17 -43q0 -37 -30 -66.5t-66 -29.5
q-40 0 -74.5 25t-34.5 61q0 63 53.5 114.5t116.5 51.5q82 0 149.5 -62t67.5 -141q0 -64 -27 -120.5t-75 -99t-92 -64t-127 -21.5q-108 0 -196.5 91.5t-88.5 199.5q0 109 101.5 205.5t232.5 113.5z" />
    <glyph glyph-name="guillemotright" unicode="&#xbb;" horiz-adv-x="670" 
d="M332 512q-169 -185 -217 -260q-27 20 -86 55l241 185q-133 119 -243 163q39 61 57 80q20 -35 121 -113.5t127 -109.5zM655 504q-58 -35 -129.5 -124.5t-105.5 -162.5q-33 43 -78 80q81 50 256 207q-33 27 -131 74.5t-139 87.5q53 24 78 47q208 -155 249 -209z" />
    <glyph glyph-name="onequarter" unicode="&#xbc;" horiz-adv-x="1358" 
d="M1176 1309q-108 -107 -414 -511t-594 -878q-31 11 -80 41q30 27 77 95t75 102q153 187 383.5 548t441.5 672q2 -10 111 -69zM451 516q-213 -8 -326 -61l-4 45l153 35q-30 557 -53 708q-103 -31 -137 -31q-14 0 -42 18.5t-28 31.5q0 29 19.5 54t40.5 25q18 0 35.5 -12
t17.5 -26t-12 -22.5t-25 -6.5q0 39 -18 39q-15 0 -15 -17q0 -21 13.5 -35t33.5 -14q52 0 136 48.5t104 58.5q0 -133 -10 -311.5t-10 -340.5q0 -49 2 -161q22 0 63.5 11t59.5 11zM1305 350q0 -4 -13 -69h-129v-246h119q0 -2 -2 -37q-197 0 -340 -47q-6 17 -6 43l190 35
q-6 171 -12 250q-243 0 -371 -5q4 24 49 85l88 117q40 54 75.5 119t35.5 105q0 84 -78 84q-38 0 -72 -26.5t-34 -59.5q0 -20 17.5 -44.5t31.5 -24.5q9 0 18 8.5t9 17.5q0 27 -23 31q0 25 35 25q29 0 29 -39q0 -30 -29 -53t-59 -23q-36 0 -56 27.5t-20 64.5q0 41 54 83
t110 42q62 0 109.5 -37.5t47.5 -97.5q0 -44 -31 -99t-121 -144t-93 -109q127 0 274 6q-3 300 12 479q18 -4 107 -16q-47 -214 -66 -465q80 0 144 20z" />
    <glyph glyph-name="onehalf" unicode="&#xbd;" horiz-adv-x="1364" 
d="M489 530q-223 -12 -325 -61l-4 43q56 11 153 37q-30 585 -55 717q-59 -39 -135 -39q-14 0 -42 18t-28 31q0 29 20 54.5t40 25.5q18 0 35.5 -12.5t17.5 -26.5q0 -32 -35 -29q0 39 -20 39q-5 0 -10 -6.5t-5 -9.5q0 -22 14 -35.5t33 -13.5q43 0 109 34.5t133 71.5
q0 -134 -11.5 -302.5t-11.5 -348.5q0 -76 5 -162q14 2 58.5 11.5t63.5 11.5v-48zM1190 1296q-88 -84 -391.5 -480.5t-616.5 -907.5q-27 8 -80 41q30 26 77 94.5t75 101.5q140 172 277 387l548 834q17 -24 111 -70zM815 70q41 32 109 32q53 0 140.5 -36.5t104.5 -36.5
q88 0 88 90q0 29 -24.5 52.5t-54.5 23.5q-20 0 -35 -15.5t-15 -29.5q0 -31 76 -31q3 0 3 -5t-10 -24.5t-40 -19.5q-16 0 -37.5 21.5t-21.5 39.5q0 32 28 62t68 30q45 0 75.5 -26t30.5 -74q0 -50 -50 -96.5t-99 -46.5q-23 0 -106.5 18t-145.5 18q-28 0 -64 -9.5t-49 -26.5
q-14 35 -14 81q0 31 29.5 99.5t122.5 145.5q148 122 191.5 196.5t43.5 142.5q0 61 -38 111.5t-95 50.5q-61 0 -101 -38.5t-40 -82.5q0 -41 22 -65.5t51 -24.5q26 0 42 15t16 36q0 11 -8.5 25t-16.5 14t-15 -10.5t-7 -22.5q-27 0 -34 2.5t-7 16.5q0 23 18 37t39 14
q70 0 70 -68q0 -29 -35 -61.5t-86 -32.5q-36 0 -70.5 35.5t-34.5 71.5q0 68 72 121t148 53q83 0 143.5 -58t60.5 -133q0 -63 -36 -130.5t-87 -104.5q-186 -132 -246 -207t-69 -139z" />
    <glyph glyph-name="threequarters" unicode="&#xbe;" horiz-adv-x="1352" 
d="M1155 1294q-107 -106 -413 -510t-595 -878q-31 11 -79 41q30 26 77 94.5t74 101.5q154 188 384.5 549t440.5 672q2 -10 111 -70zM133 930q55 -19 74 -19q99 0 158 71t59 175q0 64 -51 103.5t-119 39.5q-51 0 -94 -43t-43 -92q0 -16 23.5 -36.5t39.5 -20.5q74 0 74 47
q0 41 -23 41q-14 0 -20.5 -19.5t-15.5 -19.5q-27 0 -27 33q0 35 68 35q16 0 40.5 -18.5t24.5 -39.5q0 -32 -40 -61t-79 -29q-50 0 -85.5 36t-35.5 85q0 41 70 87t166 46q88 0 156.5 -60t68.5 -145q0 -50 -76.5 -129.5t-171.5 -119.5q104 -21 163 -75.5t59 -119.5
q0 -91 -83.5 -161t-174.5 -70q-70 0 -127.5 39.5t-57.5 93.5q0 32 38 70t87 38q37 0 57.5 -17.5t20.5 -43.5q0 -41 -19 -69t-52 -28q-31 0 -40 62q23 -21 45 -21q11 0 24 12.5t13 22.5q0 13 -17 23t-38 10q-78 0 -78 -53q0 -43 38 -73t110 -30q66 0 110.5 50t44.5 127
q0 97 -48.5 142.5t-164.5 45.5q-21 0 -59 -10zM1294 344q0 -4 -10 -70h-129q-4 -49 -4 -114q0 -68 4 -131h119q0 -2 -2 -37q-196 0 -342 -47l-4 43q95 35 190 35q0 46 -7 121.5t-7 127.5q-256 -4 -369 -4q4 24 65 106t87.5 118.5t60 98.5t33.5 103q0 84 -76 84
q-38 0 -72 -27.5t-34 -60.5q0 -18 17.5 -42.5t31.5 -24.5q9 0 17.5 8.5t8.5 17.5q0 29 -22 29q12 27 35 27q28 0 28 -41q0 -30 -28.5 -53t-59.5 -23q-35 0 -55 28t-20 66q0 41 54 83t109 42q63 0 110.5 -38t47.5 -99q0 -44 -30.5 -98.5t-121 -146t-94.5 -112.5q117 0 275 13
q-3 300 12 479q67 -17 105 -17q-45 -224 -66 -464q83 0 143 20z" />
    <glyph glyph-name="questiondown" unicode="&#xbf;" horiz-adv-x="850" 
d="M479 1153q33 0 33 -55q0 -41 -15 -72t-38 -31q-21 0 -38.5 17.5t-17.5 60.5q0 31 23 55.5t53 24.5zM571 162q40 4 64 -22t24 -64q0 -44 -43.5 -70t-99.5 -26q-34 0 -71 46t-37 97q0 59 62.5 99t135.5 40q72 0 131.5 -54.5t59.5 -123.5q0 -116 -102.5 -196.5t-270.5 -80.5
q-135 0 -246.5 106t-111.5 237q0 130 98 247t225 117l47 -12q4 183 -14 354l98 16q-14 -128 -14 -151q0 -65 -8.5 -155.5t-8.5 -153.5q-90 41 -151 41q-63 0 -108.5 -53t-45.5 -216t80 -258.5t205 -95.5q94 0 173 82t79 170q0 54 -40.5 107t-84.5 53q-42 0 -77.5 -51.5
t-35.5 -86.5q0 -94 68 -94q37 0 37 82q0 16 -8.5 28t-8.5 42z" />
    <glyph glyph-name="Agrave" unicode="&#xc0;" horiz-adv-x="1278" 
d="M1298 23q-91 -44 -251 -58q-67 292 -82 604q-42 -4 -136 -4q-159 0 -274 19q-54 -282 -155.5 -432t-239.5 -150q-69 0 -122.5 65.5t-53.5 139.5q0 60 48 129.5t103 69.5q29 0 58.5 -31.5t29.5 -61.5q0 -35 -21 -72.5t-50 -37.5q-4 0 -15 6q29 22 29 55q0 21 -15 41.5
t-34 20.5q-94 0 -94 -84q0 -77 42 -113.5t142 -36.5q143 0 198.5 167.5t55.5 346.5q-336 76 -336 230q0 44 27.5 80t66.5 36h21q-35 -42 -35 -96q0 -76 68 -132t186 -83q-6 77 -6 154q0 154 39 254.5t131 179t207 117t235 38.5q72 0 84 -2q-88 -410 -98 -727q18 4 55 17
l4 -88q-43 -4 -59 -6v-72q0 -318 39 -481q74 2 196 51zM997 1335q-171 6 -281.5 -114t-142.5 -502q-5 -67 -10 -96q83 -9 131 -9q107 0 267 23q-5 119 -5 186q0 272 41 512zM1085 1542q-18 -27 -20 -35q-12 5 -96 54t-137 68.5t-121 49.5q7 5 22 41t19 43q196 -156 333 -221
z" />
    <glyph glyph-name="Aacute" unicode="&#xc1;" horiz-adv-x="1278" 
d="M1298 23q-91 -44 -251 -58q-67 292 -82 604q-42 -4 -136 -4q-159 0 -274 19q-54 -282 -155.5 -432t-239.5 -150q-69 0 -122.5 65.5t-53.5 139.5q0 60 48 129.5t103 69.5q29 0 58.5 -31.5t29.5 -61.5q0 -35 -21 -72.5t-50 -37.5q-4 0 -15 6q29 22 29 55q0 21 -15 41.5
t-34 20.5q-94 0 -94 -84q0 -77 42 -113.5t142 -36.5q143 0 198.5 167.5t55.5 346.5q-336 76 -336 230q0 44 27.5 80t66.5 36h21q-35 -42 -35 -96q0 -76 68 -132t186 -83q-6 77 -6 154q0 154 39 254.5t131 179t207 117t235 38.5q72 0 84 -2q-88 -410 -98 -727q18 4 55 17
l4 -88q-43 -4 -59 -6v-72q0 -318 39 -481q74 2 196 51zM997 1335q-171 6 -281.5 -114t-142.5 -502q-5 -67 -10 -96q83 -9 131 -9q107 0 267 23q-5 119 -5 186q0 272 41 512zM1107 1696q-68 -30 -121 -49.5t-128 -63.5t-105 -59q-2 8 -20 35q137 65 333 221q4 -7 19 -43
t22 -41z" />
    <glyph glyph-name="Acircumflex" unicode="&#xc2;" horiz-adv-x="1278" 
d="M1298 23q-91 -44 -251 -58q-67 292 -82 604q-42 -4 -136 -4q-159 0 -274 19q-54 -282 -155.5 -432t-239.5 -150q-69 0 -122.5 65.5t-53.5 139.5q0 60 48 129.5t103 69.5q29 0 58.5 -31.5t29.5 -61.5q0 -35 -21 -72.5t-50 -37.5q-4 0 -15 6q29 22 29 55q0 21 -15 41.5
t-34 20.5q-94 0 -94 -84q0 -77 42 -113.5t142 -36.5q143 0 198.5 167.5t55.5 346.5q-336 76 -336 230q0 44 27.5 80t66.5 36h21q-35 -42 -35 -96q0 -76 68 -132t186 -83q-6 77 -6 154q0 154 39 254.5t131 179t207 117t235 38.5q72 0 84 -2q-88 -410 -98 -727q18 4 55 17
l4 -88q-43 -4 -59 -6v-72q0 -318 39 -481q74 2 196 51zM997 1335q-171 6 -281.5 -114t-142.5 -502q-5 -67 -10 -96q83 -9 131 -9q107 0 267 23q-5 119 -5 186q0 272 41 512zM1084 1540q-58 -33 -90 -45q-39 78 -113 180q-97 -157 -111 -190q-68 31 -88 49q20 22 95 87.5
t110 110.5q36 -54 197 -192z" />
    <glyph glyph-name="Atilde" unicode="&#xc3;" horiz-adv-x="1278" 
d="M1298 23q-91 -44 -251 -58q-67 292 -82 604q-42 -4 -136 -4q-159 0 -274 19q-54 -282 -155.5 -432t-239.5 -150q-69 0 -122.5 65.5t-53.5 139.5q0 60 48 129.5t103 69.5q29 0 58.5 -31.5t29.5 -61.5q0 -35 -21 -72.5t-50 -37.5q-4 0 -15 6q29 22 29 55q0 21 -15 41.5
t-34 20.5q-94 0 -94 -84q0 -77 42 -113.5t142 -36.5q143 0 198.5 167.5t55.5 346.5q-336 76 -336 230q0 44 27.5 80t66.5 36h21q-35 -42 -35 -96q0 -76 68 -132t186 -83q-6 77 -6 154q0 154 39 254.5t131 179t207 117t235 38.5q72 0 84 -2q-88 -410 -98 -727q18 4 55 17
l4 -88q-43 -4 -59 -6v-72q0 -318 39 -481q74 2 196 51zM997 1335q-171 6 -281.5 -114t-142.5 -502q-5 -67 -10 -96q83 -9 131 -9q107 0 267 23q-5 119 -5 186q0 272 41 512zM1194 1735q-85 -151 -137.5 -183t-105.5 -32q-28 0 -52.5 15.5t-59.5 82t-75 66.5q-42 0 -55 -135
q-45 22 -72 16q40 97 80.5 127.5t102.5 30.5q38 0 88 -76q45 -65 90 -65q22 0 50 13t35 30t21 129q40 0 90 -19z" />
    <glyph glyph-name="Adieresis" unicode="&#xc4;" horiz-adv-x="1278" 
d="M1298 23q-91 -44 -251 -58q-67 292 -82 604q-42 -4 -136 -4q-159 0 -274 19q-54 -282 -155.5 -432t-239.5 -150q-69 0 -122.5 65.5t-53.5 139.5q0 60 48 129.5t103 69.5q29 0 58.5 -31.5t29.5 -61.5q0 -35 -21 -72.5t-50 -37.5q-4 0 -15 6q29 22 29 55q0 21 -15 41.5
t-34 20.5q-94 0 -94 -84q0 -77 42 -113.5t142 -36.5q143 0 198.5 167.5t55.5 346.5q-336 76 -336 230q0 44 27.5 80t66.5 36h21q-35 -42 -35 -96q0 -76 68 -132t186 -83q-6 77 -6 154q0 154 39 254.5t131 179t207 117t235 38.5q72 0 84 -2q-88 -410 -98 -727q18 4 55 17
l4 -88q-43 -4 -59 -6v-72q0 -318 39 -481q74 2 196 51zM997 1335q-171 6 -281.5 -114t-142.5 -502q-5 -67 -10 -96q83 -9 131 -9q107 0 267 23q-5 119 -5 186q0 272 41 512zM1116 1640q66 0 66 -39q0 -48 -16.5 -66t-49.5 -18q-49 0 -49 72q0 29 10.5 40t38.5 11zM813 1626
q21 0 38 -24t17 -48q0 -51 -78 -51q-20 0 -44.5 23t-24.5 44q0 27 26.5 41.5t65.5 14.5z" />
    <glyph glyph-name="Aring" unicode="&#xc5;" horiz-adv-x="1278" 
d="M1298 23q-91 -44 -251 -58q-67 292 -82 604q-42 -4 -136 -4q-159 0 -274 19q-54 -282 -155.5 -432t-239.5 -150q-69 0 -122.5 65.5t-53.5 139.5q0 60 48 129.5t103 69.5q29 0 58.5 -31.5t29.5 -61.5q0 -35 -21 -72.5t-50 -37.5q-4 0 -15 6q29 22 29 55q0 21 -15 41.5
t-34 20.5q-94 0 -94 -84q0 -77 42 -113.5t142 -36.5q143 0 198.5 167.5t55.5 346.5q-336 76 -336 230q0 44 27.5 80t66.5 36h21q-35 -42 -35 -96q0 -76 68 -132t186 -83q-6 77 -6 154q0 154 39 254.5t131 179t207 117t235 38.5q72 0 84 -2q-88 -410 -98 -727q18 4 55 17
l4 -88q-43 -4 -59 -6v-72q0 -318 39 -481q74 2 196 51zM997 1335q-171 6 -281.5 -114t-142.5 -502q-5 -67 -10 -96q83 -9 131 -9q107 0 267 23q-5 119 -5 186q0 272 41 512zM918 1870q63 0 124.5 -49t61.5 -115q0 -78 -56.5 -145.5t-107.5 -67.5q-57 0 -117.5 62t-60.5 126
q0 82 44 135.5t112 53.5zM922 1573q48 0 82 25t34 67q0 154 -86 154q-50 0 -94.5 -48t-44.5 -90q0 -52 29.5 -80t79.5 -28z" />
    <glyph glyph-name="AE" unicode="&#xc6;" horiz-adv-x="1800" 
d="M1573 291q43 -16 43 -39q0 -36 -21 -63t-53 -27q-34 0 -57 31.5t-23 68.5q0 48 51.5 104t98.5 56q83 0 133.5 -39t50.5 -111q0 -69 -78 -173.5t-229 -104.5q-78 0 -232.5 25.5t-232.5 25.5q-66 0 -156 -14l2 53l127 2q-43 260 -51 483q-87 -4 -135 -4q-151 0 -256 19
q-54 -282 -155.5 -432t-239.5 -150q-69 0 -122.5 65.5t-53.5 139.5q0 60 48 129.5t103 69.5q29 0 58.5 -31.5t29.5 -61.5q0 -35 -21 -72.5t-50 -37.5q-4 0 -15 6q29 22 29 55q0 21 -15 41.5t-34 20.5q-94 0 -94 -84q0 -77 42 -113.5t142 -36.5q238 0 254 514
q-336 76 -336 230q0 41 32 78.5t72 37.5h11q-39 -46 -39 -98q0 -69 75 -128.5t183 -84.5q-6 77 -6 154q0 181 59 296t165 180t230.5 87.5t356.5 32t327 30.5q-41 -175 -39 -327l-49 2l15 225l-381 6q-69 -381 -82 -694q275 30 430 80v-80q-238 -45 -434 -55v-240
q0 -147 10 -248q63 -2 205 -15.5t233 -13.5q213 0 213 154q0 62 -40 106t-99 44q-26 0 -47 -28.5t-21 -55.5q0 -22 17.5 -40t40.5 -18q20 0 20 21q0 25 -18 35zM997 1335q-171 6 -281.5 -114t-142.5 -502q-5 -67 -10 -96q84 -11 205 -11q91 0 180 6q-3 66 -3 132
q0 286 52 585z" />
    <glyph glyph-name="Ccedilla" unicode="&#xc7;" horiz-adv-x="1065" 
d="M1038 389q-10 -213 -119.5 -331.5t-295.5 -118.5q-9 -15 -21.5 -45.5t-21.5 -45.5q56 4 115 -30t59 -86q0 -38 -54 -73.5t-102 -35.5q-25 0 -62.5 14.5t-46.5 16.5q12 23 19 47q32 -33 92 -33q70 0 70 56q0 39 -38 67.5t-97 26.5q29 68 36 125q-213 34 -366.5 228
t-153.5 411q0 150 81.5 338t217.5 301.5t299 113.5q152 0 243 -79.5t91 -176.5q0 -93 -86.5 -168t-187.5 -75q-60 0 -120.5 47t-60.5 116q0 66 40.5 101t101.5 35q45 0 79.5 -28.5t34.5 -57.5q0 -47 -20.5 -77t-48.5 -30q-32 0 -45 31q20 0 46.5 18.5t26.5 36.5q0 64 -38 64
q-45 0 -84 -36t-39 -85q0 -34 39 -71.5t88 -37.5q68 0 115.5 67t47.5 150q0 84 -60 151.5t-161 67.5q-210 0 -334 -182.5t-124 -447.5q0 -289 142.5 -484.5t346.5 -195.5q124 0 189 75.5t65 196.5q0 44 -8 137z" />
    <glyph glyph-name="Egrave" unicode="&#xc8;" horiz-adv-x="1090" 
d="M883 266q45 -12 45 -37q0 -37 -20 -64.5t-52 -27.5q-35 0 -58.5 31t-23.5 68q0 57 52.5 110t91.5 53q87 0 137.5 -36.5t50.5 -106.5q0 -57 -37.5 -123.5t-86 -106.5t-96.5 -49.5t-136 -9.5q-39 0 -176 17.5t-220 17.5q-59 0 -166 -20v53l115 8q-32 420 -67.5 658
t-108.5 516l-107 -9v52q343 11 613 65l225 45q-35 -188 -27 -330h-49l6 226l-466 -31q32 -461 32 -631q293 13 463 72v-80q-209 -41 -463 -47q4 -102 4 -263q0 -118 -2 -239l389 -12q180 0 229.5 41t49.5 123q0 141 -143 141q-21 0 -43.5 -25.5t-22.5 -60.5q0 -25 21 -40
t38 -15q21 0 21 22q0 21 -21 33zM683 1477q-18 -27 -20 -35q-12 5 -96 54t-137 68.5t-121 49.5q7 5 22 41t19 43q196 -156 333 -221z" />
    <glyph glyph-name="Eacute" unicode="&#xc9;" horiz-adv-x="1090" 
d="M883 266q45 -12 45 -37q0 -37 -20 -64.5t-52 -27.5q-35 0 -58.5 31t-23.5 68q0 57 52.5 110t91.5 53q87 0 137.5 -36.5t50.5 -106.5q0 -57 -37.5 -123.5t-86 -106.5t-96.5 -49.5t-136 -9.5q-39 0 -176 17.5t-220 17.5q-59 0 -166 -20v53l115 8q-32 420 -67.5 658
t-108.5 516l-107 -9v52q343 11 613 65l225 45q-35 -188 -27 -330h-49l6 226l-466 -31q32 -461 32 -631q293 13 463 72v-80q-209 -41 -463 -47q4 -102 4 -263q0 -118 -2 -239l389 -12q180 0 229.5 41t49.5 123q0 141 -143 141q-21 0 -43.5 -25.5t-22.5 -60.5q0 -25 21 -40
t38 -15q21 0 21 22q0 21 -21 33zM689 1630q-68 -30 -121 -49.5t-128 -63.5t-105 -59q-2 8 -20 35q137 65 333 221q4 -7 19 -43t22 -41z" />
    <glyph glyph-name="Ecircumflex" unicode="&#xca;" horiz-adv-x="1090" 
d="M883 266q45 -12 45 -37q0 -37 -20 -64.5t-52 -27.5q-35 0 -58.5 31t-23.5 68q0 57 52.5 110t91.5 53q87 0 137.5 -36.5t50.5 -106.5q0 -57 -37.5 -123.5t-86 -106.5t-96.5 -49.5t-136 -9.5q-39 0 -176 17.5t-220 17.5q-59 0 -166 -20v53l115 8q-32 420 -67.5 658
t-108.5 516l-107 -9v52q343 11 613 65l225 45q-35 -188 -27 -330h-49l6 226l-466 -31q32 -461 32 -631q293 13 463 72v-80q-209 -41 -463 -47q4 -102 4 -263q0 -118 -2 -239l389 -12q180 0 229.5 41t49.5 123q0 141 -143 141q-21 0 -43.5 -25.5t-22.5 -60.5q0 -25 21 -40
t38 -15q21 0 21 22q0 21 -21 33zM683 1499q-58 -33 -90 -45q-39 78 -113 180q-97 -157 -111 -190q-68 31 -88 49q20 22 95 87.5t110 110.5q36 -54 197 -192z" />
    <glyph glyph-name="Edieresis" unicode="&#xcb;" horiz-adv-x="1090" 
d="M883 266q45 -12 45 -37q0 -37 -20 -64.5t-52 -27.5q-35 0 -58.5 31t-23.5 68q0 57 52.5 110t91.5 53q87 0 137.5 -36.5t50.5 -106.5q0 -57 -37.5 -123.5t-86 -106.5t-96.5 -49.5t-136 -9.5q-39 0 -176 17.5t-220 17.5q-59 0 -166 -20v53l115 8q-32 420 -67.5 658
t-108.5 516l-107 -9v52q343 11 613 65l225 45q-35 -188 -27 -330h-49l6 226l-466 -31q32 -461 32 -631q293 13 463 72v-80q-209 -41 -463 -47q4 -102 4 -263q0 -118 -2 -239l389 -12q180 0 229.5 41t49.5 123q0 141 -143 141q-21 0 -43.5 -25.5t-22.5 -60.5q0 -25 21 -40
t38 -15q21 0 21 22q0 21 -21 33zM641 1591q66 0 66 -39q0 -48 -16.5 -66t-49.5 -18q-49 0 -49 72q0 29 10.5 40t38.5 11zM338 1577q21 0 38 -24t17 -48q0 -51 -78 -51q-20 0 -44.5 23t-24.5 44q0 27 26.5 41.5t65.5 14.5z" />
    <glyph glyph-name="Igrave" unicode="&#xcc;" horiz-adv-x="551" 
d="M526 49l-4 -55q-107 10 -227 10q-52 0 -205 -20v57l178 4q-71 514 -75 1237l-148 -4l2 47q184 -2 253 8t171 39l10 -51l-133 -27q-37 -469 -37 -816q0 -212 11 -431q85 0 204 2zM429 1501q-18 -27 -20 -35q-12 5 -96 54t-137 68.5t-121 49.5q7 5 22 41t19 43
q196 -156 333 -221z" />
    <glyph glyph-name="Iacute" unicode="&#xcd;" horiz-adv-x="551" 
d="M526 49l-4 -55q-107 10 -227 10q-52 0 -205 -20v57l178 4q-71 514 -75 1237l-148 -4l2 47q184 -2 253 8t171 39l10 -51l-133 -27q-37 -469 -37 -816q0 -212 11 -431q85 0 204 2zM476 1647q-68 -30 -121 -49.5t-128 -63.5t-105 -59q-2 8 -20 35q137 65 333 221
q4 -7 19 -43t22 -41z" />
    <glyph glyph-name="Icircumflex" unicode="&#xce;" horiz-adv-x="551" 
d="M526 49l-4 -55q-107 10 -227 10q-52 0 -205 -20v57l178 4q-71 514 -75 1237l-148 -4l2 47q184 -2 253 8t171 39l10 -51l-133 -27q-37 -469 -37 -816q0 -212 11 -431q85 0 204 2zM461 1507q-58 -33 -90 -45q-39 78 -113 180q-97 -157 -111 -190q-68 31 -88 49
q20 22 95 87.5t110 110.5q36 -54 197 -192z" />
    <glyph glyph-name="Idieresis" unicode="&#xcf;" horiz-adv-x="551" 
d="M526 49l-4 -55q-107 10 -227 10q-52 0 -205 -20v57l178 4q-71 514 -75 1237l-148 -4l2 47q184 -2 253 8t171 39l10 -51l-133 -27q-37 -469 -37 -816q0 -212 11 -431q85 0 204 2zM436 1632q66 0 66 -39q0 -48 -16.5 -66t-49.5 -18q-49 0 -49 72q0 29 10.5 40t38.5 11z
M133 1618q21 0 38 -24t17 -48q0 -51 -78 -51q-20 0 -44.5 23t-24.5 44q0 27 26.5 41.5t65.5 14.5z" />
    <glyph glyph-name="Eth" unicode="&#xd0;" horiz-adv-x="1298" 
d="M487 1239q40 4 82 4q329 0 524 -146.5t195 -385.5q0 -295 -260 -508.5t-694 -225.5l-12 52l178 10q-15 252 -54 553q-217 -95 -290 -125l-19 68q149 44 303 100q-42 315 -94 545q-115 -33 -185.5 -102t-70.5 -163q0 -28 19.5 -53.5t37.5 -25.5q31 0 63 23.5t32 60.5
q0 28 -11 49.5t-24 21.5q-25 0 -25 -33q0 -13 15 -24l-9 -12q-49 0 -49 41q0 28 24 46.5t54 18.5q35 0 62.5 -29t27.5 -61q0 -48 -56.5 -89.5t-113.5 -41.5t-98 42t-41 83q0 76 95 159.5t243 120.5l-29 123l166 25zM543 43q291 40 444.5 211.5t153.5 452.5q0 227 -153.5 361
t-409.5 134q-44 0 -82 -4l30 -530q194 77 283 120l27 -45q-67 -18 -308 -116q15 -324 15 -584z" />
    <glyph glyph-name="Ntilde" unicode="&#xd1;" horiz-adv-x="1585" 
d="M1118 285q-12 472 -12 544q0 211 21.5 310t109.5 158t217 59q79 0 127.5 -31t48.5 -84q0 -40 -62 -84.5t-147 -44.5q-38 0 -83.5 28.5t-45.5 53.5q0 34 20 54t52 20q27 0 41 -23q-29 -31 -29 -47q0 -57 68 -57q43 0 65.5 22t22.5 54q0 49 -39.5 74.5t-103.5 25.5
q-115 0 -176.5 -125t-61.5 -524q0 -388 45 -664l-37 -6q-405 793 -649 1139q23 -239 23 -542q0 -205 -13.5 -321t-67 -204t-165.5 -88q-118 0 -209.5 67t-91.5 166q0 71 73 135t156 64q44 0 77.5 -22t33.5 -56q0 -43 -38 -75t-95 -32q-16 0 -26.5 11t-10.5 26q0 16 16 33
q6 -4 21.5 -21.5t29.5 -17.5q43 0 43 45q0 26 -34.5 48t-69.5 22q-39 0 -67.5 -39.5t-28.5 -79.5q0 -84 43.5 -153.5t111.5 -69.5q133 0 202 146.5t69 398.5q0 171 -23.5 397t-40.5 293l-264 -11v46q257 0 424 26q233 -540 530 -1044zM1153 1669q-85 -151 -137.5 -183
t-105.5 -32q-28 0 -52.5 15.5t-59.5 82t-75 66.5q-42 0 -55 -135q-45 22 -72 16q40 97 80.5 127.5t102.5 30.5q38 0 88 -76q45 -65 90 -65q22 0 50 13t35 30t21 129q40 0 90 -19z" />
    <glyph glyph-name="Ograve" unicode="&#xd2;" horiz-adv-x="1411" 
d="M668 942q-16 -24 -41 -24q-17 0 -33 26t-16 45q0 22 28.5 49t59.5 27q30 0 65 -39t35 -72q0 -76 -48.5 -128t-103.5 -52q-63 0 -110 57.5t-47 126.5q0 99 96 188t240 89q212 0 381 -177t169 -386q0 -263 -183 -476.5t-423 -213.5q-277 0 -470 182.5t-193 431.5
q0 242 155.5 441t382.5 255l13 -30q-184 -36 -296 -216t-112 -423q0 -255 151 -431t386 -176q190 0 313 186t123 429q0 241 -119 398t-307 157q-115 0 -193.5 -70.5t-78.5 -154.5q0 -45 37 -75t77 -30q51 0 87 24.5t36 59.5q0 29 -21 48.5t-46 19.5q-58 0 -58 -19
q0 -17 64 -47zM904 1444q-18 -27 -20 -35q-12 5 -96 54t-137 68.5t-121 49.5q7 5 22 41t19 43q196 -156 333 -221z" />
    <glyph glyph-name="Oacute" unicode="&#xd3;" horiz-adv-x="1411" 
d="M668 942q-16 -24 -41 -24q-17 0 -33 26t-16 45q0 22 28.5 49t59.5 27q30 0 65 -39t35 -72q0 -76 -48.5 -128t-103.5 -52q-63 0 -110 57.5t-47 126.5q0 99 96 188t240 89q212 0 381 -177t169 -386q0 -263 -183 -476.5t-423 -213.5q-277 0 -470 182.5t-193 431.5
q0 242 155.5 441t382.5 255l13 -30q-184 -36 -296 -216t-112 -423q0 -255 151 -431t386 -176q190 0 313 186t123 429q0 241 -119 398t-307 157q-115 0 -193.5 -70.5t-78.5 -154.5q0 -45 37 -75t77 -30q51 0 87 24.5t36 59.5q0 29 -21 48.5t-46 19.5q-58 0 -58 -19
q0 -17 64 -47zM911 1597q-68 -30 -121 -49.5t-128 -63.5t-105 -59q-2 8 -20 35q137 65 333 221q4 -7 19 -43t22 -41z" />
    <glyph glyph-name="Ocircumflex" unicode="&#xd4;" horiz-adv-x="1411" 
d="M668 942q-16 -24 -41 -24q-17 0 -33 26t-16 45q0 22 28.5 49t59.5 27q30 0 65 -39t35 -72q0 -76 -48.5 -128t-103.5 -52q-63 0 -110 57.5t-47 126.5q0 99 96 188t240 89q212 0 381 -177t169 -386q0 -263 -183 -476.5t-423 -213.5q-277 0 -470 182.5t-193 431.5
q0 242 155.5 441t382.5 255l13 -30q-184 -36 -296 -216t-112 -423q0 -255 151 -431t386 -176q190 0 313 186t123 429q0 241 -119 398t-307 157q-115 0 -193.5 -70.5t-78.5 -154.5q0 -45 37 -75t77 -30q51 0 87 24.5t36 59.5q0 29 -21 48.5t-46 19.5q-58 0 -58 -19
q0 -17 64 -47zM928 1450q-58 -33 -90 -45q-39 78 -113 180q-97 -157 -111 -190q-68 31 -88 49q20 22 95 87.5t110 110.5q36 -54 197 -192z" />
    <glyph glyph-name="Otilde" unicode="&#xd5;" horiz-adv-x="1411" 
d="M668 942q-16 -24 -41 -24q-17 0 -33 26t-16 45q0 22 28.5 49t59.5 27q30 0 65 -39t35 -72q0 -76 -48.5 -128t-103.5 -52q-63 0 -110 57.5t-47 126.5q0 99 96 188t240 89q212 0 381 -177t169 -386q0 -263 -183 -476.5t-423 -213.5q-277 0 -470 182.5t-193 431.5
q0 242 155.5 441t382.5 255l13 -30q-184 -36 -296 -216t-112 -423q0 -255 151 -431t386 -176q190 0 313 186t123 429q0 241 -119 398t-307 157q-115 0 -193.5 -70.5t-78.5 -154.5q0 -45 37 -75t77 -30q51 0 87 24.5t36 59.5q0 29 -21 48.5t-46 19.5q-58 0 -58 -19
q0 -17 64 -47zM997 1620q-85 -151 -137.5 -183t-105.5 -32q-28 0 -52.5 15.5t-59.5 82t-75 66.5q-42 0 -55 -135q-45 22 -72 16q40 97 80.5 127.5t102.5 30.5q38 0 88 -76q45 -65 90 -65q22 0 50 13t35 30t21 129q40 0 90 -19z" />
    <glyph glyph-name="Odieresis" unicode="&#xd6;" horiz-adv-x="1411" 
d="M668 942q-16 -24 -41 -24q-17 0 -33 26t-16 45q0 22 28.5 49t59.5 27q30 0 65 -39t35 -72q0 -76 -48.5 -128t-103.5 -52q-63 0 -110 57.5t-47 126.5q0 99 96 188t240 89q212 0 381 -177t169 -386q0 -263 -183 -476.5t-423 -213.5q-277 0 -470 182.5t-193 431.5
q0 242 155.5 441t382.5 255l13 -30q-184 -36 -296 -216t-112 -423q0 -255 151 -431t386 -176q190 0 313 186t123 429q0 241 -119 398t-307 157q-115 0 -193.5 -70.5t-78.5 -154.5q0 -45 37 -75t77 -30q51 0 87 24.5t36 59.5q0 29 -21 48.5t-46 19.5q-58 0 -58 -19
q0 -17 64 -47zM903 1567q66 0 66 -39q0 -48 -16.5 -66t-49.5 -18q-49 0 -49 72q0 29 10.5 40t38.5 11zM600 1553q21 0 38 -24t17 -48q0 -51 -78 -51q-20 0 -44.5 23t-24.5 44q0 27 26.5 41.5t65.5 14.5z" />
    <glyph glyph-name="multiply" unicode="&#xd7;" horiz-adv-x="1217" 
d="M1120 1014l-276 -247q-143 -128 -201 -194q335 -345 467 -452l-86 -94q-45 46 -224.5 256.5t-209.5 236.5q-18 -1 -373 -467l-98 58q379 399 444 458q-71 78 -240 233t-221 206l95 98q196 -281 411 -494q107 108 237.5 270.5t174.5 211.5z" />
    <glyph glyph-name="Oslash" unicode="&#xd8;" horiz-adv-x="1411" 
d="M1393 1327l-234 -252q180 -177 180 -395q0 -296 -178 -497t-424 -201q-241 0 -418 133q-109 -130 -184 -234q-13 6 -52.5 19t-51.5 24q93 71 245 226q-196 179 -196 446q0 247 152 443t380 253l13 -30q-183 -36 -293.5 -212t-110.5 -427q0 -238 119 -402q221 246 696 856
q-116 109 -272 109q-115 0 -193.5 -70.5t-78.5 -154.5q0 -45 37 -75t77 -30q51 0 87 24.5t36 59.5q0 29 -21 48.5t-46 19.5q-58 0 -58 -19q0 -17 64 -47q-16 -24 -41 -24q-17 0 -33 26t-16 45q0 22 28.5 49t59.5 27q30 0 65 -39t35 -72q0 -76 -48.5 -128t-103.5 -52
q-63 0 -110 57.5t-47 126.5q0 99 96 188t240 89q152 0 292 -96q81 102 203 268q8 -16 51.5 -44.5t53.5 -35.5zM373 178q150 -162 381 -162q197 0 324.5 181t127.5 436q0 219 -108 375q-314 -334 -401.5 -444t-323.5 -386z" />
    <glyph glyph-name="Ugrave" unicode="&#xd9;" horiz-adv-x="1350" 
d="M948 1040q0 -12 -15 -22t-28 -10q-19 0 -34 15.5t-15 31.5q0 22 22 47.5t46 25.5q39 0 74.5 -28t35.5 -62q0 -52 -45.5 -87.5t-101.5 -35.5q-62 0 -112 53.5t-50 112.5q0 90 65 152.5t144 62.5q122 0 206.5 -168.5t84.5 -445.5q0 -303 -139.5 -517t-383.5 -214
q-212 0 -369 164t-157 385q0 107 10 193.5t37 269.5l35 231h-117v39q153 3 219.5 9t184.5 40v-49l-117 -27q-19 -52 -60 -215t-55 -274t-14 -260q0 -187 116.5 -326t286.5 -139q221 0 345 194t124 490q0 264 -60.5 401t-174.5 137q-59 0 -102 -46.5t-43 -108.5
q0 -52 34.5 -85.5t73.5 -33.5q28 0 53 23t25 49q0 31 -18 62.5t-33 31.5q-29 0 -29 -25q0 -19 51 -41zM896 1436q-18 -27 -20 -35q-12 5 -96 54t-137 68.5t-121 49.5q7 5 22 41t19 43q196 -156 333 -221z" />
    <glyph glyph-name="Uacute" unicode="&#xda;" horiz-adv-x="1350" 
d="M948 1040q0 -12 -15 -22t-28 -10q-19 0 -34 15.5t-15 31.5q0 22 22 47.5t46 25.5q39 0 74.5 -28t35.5 -62q0 -52 -45.5 -87.5t-101.5 -35.5q-62 0 -112 53.5t-50 112.5q0 90 65 152.5t144 62.5q122 0 206.5 -168.5t84.5 -445.5q0 -303 -139.5 -517t-383.5 -214
q-212 0 -369 164t-157 385q0 107 10 193.5t37 269.5l35 231h-117v39q153 3 219.5 9t184.5 40v-49l-117 -27q-19 -52 -60 -215t-55 -274t-14 -260q0 -187 116.5 -326t286.5 -139q221 0 345 194t124 490q0 264 -60.5 401t-174.5 137q-59 0 -102 -46.5t-43 -108.5
q0 -52 34.5 -85.5t73.5 -33.5q28 0 53 23t25 49q0 31 -18 62.5t-33 31.5q-29 0 -29 -25q0 -19 51 -41zM968 1606q-68 -30 -121 -49.5t-128 -63.5t-105 -59q-2 8 -20 35q137 65 333 221q4 -7 19 -43t22 -41z" />
    <glyph glyph-name="Ucircumflex" unicode="&#xdb;" horiz-adv-x="1350" 
d="M948 1040q0 -12 -15 -22t-28 -10q-19 0 -34 15.5t-15 31.5q0 22 22 47.5t46 25.5q39 0 74.5 -28t35.5 -62q0 -52 -45.5 -87.5t-101.5 -35.5q-62 0 -112 53.5t-50 112.5q0 90 65 152.5t144 62.5q122 0 206.5 -168.5t84.5 -445.5q0 -303 -139.5 -517t-383.5 -214
q-212 0 -369 164t-157 385q0 107 10 193.5t37 269.5l35 231h-117v39q153 3 219.5 9t184.5 40v-49l-117 -27q-19 -52 -60 -215t-55 -274t-14 -260q0 -187 116.5 -326t286.5 -139q221 0 345 194t124 490q0 264 -60.5 401t-174.5 137q-59 0 -102 -46.5t-43 -108.5
q0 -52 34.5 -85.5t73.5 -33.5q28 0 53 23t25 49q0 31 -18 62.5t-33 31.5q-29 0 -29 -25q0 -19 51 -41zM920 1474q-58 -33 -90 -45q-39 78 -113 180q-97 -157 -111 -190q-68 31 -88 49q20 22 95 87.5t110 110.5q36 -54 197 -192z" />
    <glyph glyph-name="Udieresis" unicode="&#xdc;" horiz-adv-x="1350" 
d="M948 1040q0 -12 -15 -22t-28 -10q-19 0 -34 15.5t-15 31.5q0 22 22 47.5t46 25.5q39 0 74.5 -28t35.5 -62q0 -52 -45.5 -87.5t-101.5 -35.5q-62 0 -112 53.5t-50 112.5q0 90 65 152.5t144 62.5q122 0 206.5 -168.5t84.5 -445.5q0 -303 -139.5 -517t-383.5 -214
q-212 0 -369 164t-157 385q0 107 10 193.5t37 269.5l35 231h-117v39q153 3 219.5 9t184.5 40v-49l-117 -27q-19 -52 -60 -215t-55 -274t-14 -260q0 -187 116.5 -326t286.5 -139q221 0 345 194t124 490q0 264 -60.5 401t-174.5 137q-59 0 -102 -46.5t-43 -108.5
q0 -52 34.5 -85.5t73.5 -33.5q28 0 53 23t25 49q0 31 -18 62.5t-33 31.5q-29 0 -29 -25q0 -19 51 -41zM919 1567q66 0 66 -39q0 -48 -16.5 -66t-49.5 -18q-49 0 -49 72q0 29 10.5 40t38.5 11zM616 1553q21 0 38 -24t17 -48q0 -51 -78 -51q-20 0 -44.5 23t-24.5 44
q0 27 26.5 41.5t65.5 14.5z" />
    <glyph glyph-name="Yacute" unicode="&#xdd;" horiz-adv-x="1491" 
d="M1542 1253l-8 -47l-148 19l-114 -195l-167 -317l-177 -346q-69 -122 -147 -231q-45 -65 -78.5 -100.5t-72.5 -66.5t-83.5 -51t-87.5 -20q-123 0 -186.5 55t-63.5 153q0 67 62 132t137 65q95 0 126 -29.5t31 -91.5q0 -33 -49 -70.5t-76 -37.5q-29 0 -48 18t-19 49
q53 -14 76 -14q31 0 55 17.5t24 33.5q0 53 -71 53q-84 0 -142.5 -27.5t-58.5 -66.5q0 -53 65 -89t166 -36q114 0 224.5 117.5t197.5 310.5q-136 133 -280 504q-67 169 -160 265t-186 96q-69 0 -129 -48t-60 -122q0 -68 40 -104t106 -36q60 0 95.5 27.5t35.5 71.5
q0 53 -76 53q-43 0 -43 -43q0 -21 12 -47q-30 0 -48.5 19.5t-18.5 39.5q0 40 32 73.5t82 33.5q42 0 67 -43.5t25 -102.5q0 -51 -42.5 -109.5t-100.5 -58.5q-73 0 -141 66t-68 137q0 116 89.5 202.5t219.5 86.5q51 0 125 -38.5t144.5 -143.5t158.5 -376q105 -324 150 -360
q342 704 377 752q-40 8 -146 22l17 52q84 -29 356 -56zM1099 1614q-68 -30 -121 -49.5t-128 -63.5t-105 -59q-2 8 -20 35q137 65 333 221q4 -7 19 -43t22 -41z" />
    <glyph glyph-name="Thorn" unicode="&#xde;" horiz-adv-x="1096" 
d="M508 1087q213 0 382 -107.5t169 -279.5q0 -190 -125 -309t-297 -119q-52 0 -93.5 42.5t-41.5 95.5q0 31 54.5 60.5t96.5 29.5q45 0 45 -60q0 -38 -36 -49q-5 6 -21 35t-37 29q-45 0 -45 -72q0 -35 27.5 -58.5t66.5 -23.5q101 0 187 101t86 231q0 202 -103 301.5
t-319 112.5q0 -386 -33 -1043l250 -20l-14 -45q-110 19 -293.5 30.5t-286.5 7.5l-6 46q82 1 185.5 -8t117.5 -7l10 277q0 425 -33 762q-146 -4 -233.5 -57t-87.5 -144q0 -33 26.5 -63.5t63.5 -30.5q43 0 74.5 14.5t31.5 40.5q0 11 -12.5 20t-25.5 9q-33 0 -33 -37
q-31 5 -31 36q0 19 15 33.5t37 14.5q29 0 55 -21t26 -43q0 -55 -40.5 -94t-104.5 -39q-54 0 -96.5 45.5t-42.5 81.5q0 100 86.5 177t285.5 97q2 42 -12 154.5t-14 128.5l-119 8v45q158 -20 333 -20q46 0 76 2l-6 -53l-133 8q-12 -218 -12 -273z" />
    <glyph glyph-name="germandbls" unicode="&#xdf;" horiz-adv-x="995" 
d="M252 31l-96 540q-36 200 -36 372q0 311 117 440.5t255 129.5q118 0 217.5 -65t99.5 -158q0 -56 -40 -124t-116.5 -145t-90 -111t-13.5 -79q0 -51 44 -95t171 -89q211 -70 211 -280q0 -109 -105.5 -211.5t-199.5 -102.5q-258 0 -258 211q0 68 61 128.5t115 60.5
q47 0 100 -41t53 -80q0 -50 -23.5 -85.5t-53.5 -35.5q-33 0 -52 35q31 18 37 28.5t6 51.5q0 25 -20 59.5t-43 34.5q-48 0 -75.5 -30t-27.5 -71q0 -84 47.5 -161.5t145.5 -77.5q69 0 120.5 61t51.5 144q0 121 -14.5 186t-65 108.5t-154.5 72t-146 67.5t-42 112q0 36 40.5 88
t100 85.5t101 97.5t41.5 117q0 88 -66 175t-153 87q-136 0 -200.5 -230.5t-64.5 -513.5q0 -356 72 -743l-254 -6l2 61q50 -18 201 -18z" />
    <glyph glyph-name="agrave" unicode="&#xe0;" horiz-adv-x="739" 
d="M328 655q-7 -41 -47 -41q-22 0 -36 15.5t-14 40.5q0 29 25.5 54.5t54.5 25.5q135 0 135 -78q0 -65 -69 -119.5t-119 -54.5q-59 0 -100 33.5t-41 89.5q0 116 109 236t227 120q97 0 163 -83.5t66 -205.5q0 -87 -24.5 -149t-74.5 -146q-128 -212 -128 -389q0 -20 2 -41h-41
l2 133q-125 -82 -180 -82q-68 0 -112 41.5t-44 108.5q0 63 65.5 111.5t145.5 48.5q57 0 182 12q74 161 74 287q0 290 -133 290q-122 0 -175 -78.5t-53 -216.5q0 -38 22.5 -65t55.5 -27q41 0 78 38t37 83q0 25 -23 43.5t-51 18.5q-12 0 -21.5 -12t-9.5 -25q0 -25 21 -25
q17 0 31 8zM461 301q-84 -5 -135.5 -13.5t-83 -47t-31.5 -80.5q0 -40 21.5 -66t56.5 -26q61 0 137 77zM642 1141q-18 -27 -20 -35q-12 5 -96 54t-137 68.5t-121 49.5q7 5 22 41t19 43q196 -156 333 -221z" />
    <glyph glyph-name="aacute" unicode="&#xe1;" horiz-adv-x="739" 
d="M328 655q-7 -41 -47 -41q-22 0 -36 15.5t-14 40.5q0 29 25.5 54.5t54.5 25.5q135 0 135 -78q0 -65 -69 -119.5t-119 -54.5q-59 0 -100 33.5t-41 89.5q0 116 109 236t227 120q97 0 163 -83.5t66 -205.5q0 -87 -24.5 -149t-74.5 -146q-128 -212 -128 -389q0 -20 2 -41h-41
l2 133q-125 -82 -180 -82q-68 0 -112 41.5t-44 108.5q0 63 65.5 111.5t145.5 48.5q57 0 182 12q74 161 74 287q0 290 -133 290q-122 0 -175 -78.5t-53 -216.5q0 -38 22.5 -65t55.5 -27q41 0 78 38t37 83q0 25 -23 43.5t-51 18.5q-12 0 -21.5 -12t-9.5 -25q0 -25 21 -25
q17 0 31 8zM461 301q-84 -5 -135.5 -13.5t-83 -47t-31.5 -80.5q0 -40 21.5 -66t56.5 -26q61 0 137 77zM648 1270q-68 -30 -121 -49.5t-128 -63.5t-105 -59q-2 8 -20 35q137 65 333 221q4 -7 19 -43t22 -41z" />
    <glyph glyph-name="acircumflex" unicode="&#xe2;" horiz-adv-x="739" 
d="M328 655q-7 -41 -47 -41q-22 0 -36 15.5t-14 40.5q0 29 25.5 54.5t54.5 25.5q135 0 135 -78q0 -65 -69 -119.5t-119 -54.5q-59 0 -100 33.5t-41 89.5q0 116 109 236t227 120q97 0 163 -83.5t66 -205.5q0 -87 -24.5 -149t-74.5 -146q-128 -212 -128 -389q0 -20 2 -41h-41
l2 133q-125 -82 -180 -82q-68 0 -112 41.5t-44 108.5q0 63 65.5 111.5t145.5 48.5q57 0 182 12q74 161 74 287q0 290 -133 290q-122 0 -175 -78.5t-53 -216.5q0 -38 22.5 -65t55.5 -27q41 0 78 38t37 83q0 25 -23 43.5t-51 18.5q-12 0 -21.5 -12t-9.5 -25q0 -25 21 -25
q17 0 31 8zM461 301q-84 -5 -135.5 -13.5t-83 -47t-31.5 -80.5q0 -40 21.5 -66t56.5 -26q61 0 137 77zM658 1122q-58 -33 -90 -45q-39 78 -113 180q-97 -157 -111 -190q-68 31 -88 49q20 22 95 87.5t110 110.5q36 -54 197 -192z" />
    <glyph glyph-name="atilde" unicode="&#xe3;" horiz-adv-x="739" 
d="M328 655q-7 -41 -47 -41q-22 0 -36 15.5t-14 40.5q0 29 25.5 54.5t54.5 25.5q135 0 135 -78q0 -65 -69 -119.5t-119 -54.5q-59 0 -100 33.5t-41 89.5q0 116 109 236t227 120q97 0 163 -83.5t66 -205.5q0 -87 -24.5 -149t-74.5 -146q-128 -212 -128 -389q0 -20 2 -41h-41
l2 133q-125 -82 -180 -82q-68 0 -112 41.5t-44 108.5q0 63 65.5 111.5t145.5 48.5q57 0 182 12q74 161 74 287q0 290 -133 290q-122 0 -175 -78.5t-53 -216.5q0 -38 22.5 -65t55.5 -27q41 0 78 38t37 83q0 25 -23 43.5t-51 18.5q-12 0 -21.5 -12t-9.5 -25q0 -25 21 -25
q17 0 31 8zM461 301q-84 -5 -135.5 -13.5t-83 -47t-31.5 -80.5q0 -40 21.5 -66t56.5 -26q61 0 137 77zM694 1309q-85 -151 -137.5 -183t-105.5 -32q-28 0 -52.5 15.5t-59.5 82t-75 66.5q-42 0 -55 -135q-45 22 -72 16q40 97 80.5 127.5t102.5 30.5q38 0 88 -76
q45 -65 90 -65q22 0 50 13t35 30t21 129q40 0 90 -19z" />
    <glyph glyph-name="adieresis" unicode="&#xe4;" horiz-adv-x="739" 
d="M328 655q-7 -41 -47 -41q-22 0 -36 15.5t-14 40.5q0 29 25.5 54.5t54.5 25.5q135 0 135 -78q0 -65 -69 -119.5t-119 -54.5q-59 0 -100 33.5t-41 89.5q0 116 109 236t227 120q97 0 163 -83.5t66 -205.5q0 -87 -24.5 -149t-74.5 -146q-128 -212 -128 -389q0 -20 2 -41h-41
l2 133q-125 -82 -180 -82q-68 0 -112 41.5t-44 108.5q0 63 65.5 111.5t145.5 48.5q57 0 182 12q74 161 74 287q0 290 -133 290q-122 0 -175 -78.5t-53 -216.5q0 -38 22.5 -65t55.5 -27q41 0 78 38t37 83q0 25 -23 43.5t-51 18.5q-12 0 -21.5 -12t-9.5 -25q0 -25 21 -25
q17 0 31 8zM461 301q-84 -5 -135.5 -13.5t-83 -47t-31.5 -80.5q0 -40 21.5 -66t56.5 -26q61 0 137 77zM592 1231q66 0 66 -39q0 -48 -16.5 -66t-49.5 -18q-49 0 -49 72q0 29 10.5 40t38.5 11zM289 1217q21 0 38 -24t17 -48q0 -51 -78 -51q-20 0 -44.5 23t-24.5 44
q0 27 26.5 41.5t65.5 14.5z" />
    <glyph glyph-name="aring" unicode="&#xe5;" horiz-adv-x="739" 
d="M328 655q-7 -41 -47 -41q-22 0 -36 15.5t-14 40.5q0 29 25.5 54.5t54.5 25.5q135 0 135 -78q0 -65 -69 -119.5t-119 -54.5q-59 0 -100 33.5t-41 89.5q0 116 109 236t227 120q97 0 163 -83.5t66 -205.5q0 -87 -24.5 -149t-74.5 -146q-128 -212 -128 -389q0 -20 2 -41h-41
l2 133q-125 -82 -180 -82q-68 0 -112 41.5t-44 108.5q0 63 65.5 111.5t145.5 48.5q57 0 182 12q74 161 74 287q0 290 -133 290q-122 0 -175 -78.5t-53 -216.5q0 -38 22.5 -65t55.5 -27q41 0 78 38t37 83q0 25 -23 43.5t-51 18.5q-12 0 -21.5 -12t-9.5 -25q0 -25 21 -25
q17 0 31 8zM461 301q-84 -5 -135.5 -13.5t-83 -47t-31.5 -80.5q0 -40 21.5 -66t56.5 -26q61 0 137 77zM435 1460q63 0 124.5 -49t61.5 -115q0 -78 -56.5 -145.5t-107.5 -67.5q-57 0 -117.5 62t-60.5 126q0 82 44 135.5t112 53.5zM439 1163q48 0 82 25t34 67q0 154 -86 154
q-50 0 -94.5 -48t-44.5 -90q0 -52 29.5 -80t79.5 -28z" />
    <glyph glyph-name="ae" unicode="&#xe6;" horiz-adv-x="1270" 
d="M651 774q127 135 275 135q115 0 208 -86.5t93 -179.5q0 -107 -90 -186.5t-209 -79.5q-110 0 -180 47t-70 106q0 61 44 103.5t89 42.5q39 0 74 -27.5t35 -58.5t-23.5 -59.5t-44.5 -28.5q-43 0 -43 24q0 2 24.5 15t24.5 41q0 27 -20 47t-43 20q-19 0 -36.5 -36.5
t-17.5 -71.5q0 -48 58.5 -87.5t148.5 -39.5q64 0 113 63.5t49 134.5q0 98 -54.5 182.5t-144.5 84.5q-113 0 -203 -140t-90 -360q0 -176 77 -292t198 -116q170 0 170 107q0 25 -16 55t-36 30q-40 0 -55 -81q-33 12 -33 47q0 26 20.5 46.5t64.5 20.5q53 0 83.5 -29.5
t30.5 -71.5q0 -59 -67.5 -111t-167.5 -52q-277 0 -375 269q-54 -105 -155 -173.5t-175 -68.5q-139 0 -139 135q0 70 66.5 127t183.5 80q22 4 104 25.5t95 21.5q1 66 19.5 174t18.5 176q0 90 -42.5 150.5t-108.5 60.5q-56 0 -89 -12t-69 -59t-46.5 -100.5t-10.5 -119.5
q0 -38 22.5 -65t55.5 -27q40 0 77 38t37 83q0 25 -23 43.5t-50 18.5q-13 0 -22 -12t-9 -25q0 -25 20 -25q18 0 31 8q-7 -41 -47 -41q-22 0 -35.5 15.5t-13.5 40.5q0 29 25.5 54.5t54.5 25.5q135 0 135 -78q0 -65 -69.5 -119.5t-119.5 -54.5q-59 0 -100 33.5t-41 89.5
q0 116 109 236t227 120q76 0 139.5 -53.5t83.5 -149.5zM483 305l-192 -43q-42 -10 -77.5 -48t-35.5 -79q0 -37 27 -63.5t63 -26.5q86 0 150.5 87t64.5 173z" />
    <glyph glyph-name="ccedilla" unicode="&#xe7;" horiz-adv-x="834" 
d="M449 23q-164 16 -266.5 161t-102.5 326q0 180 140 322.5t319 142.5q82 0 167 -51.5t85 -122.5q0 -60 -56.5 -115t-120.5 -55q-57 0 -102 30.5t-45 79.5q0 46 29 71.5t79 25.5q29 0 52.5 -14.5t23.5 -37.5q0 -14 -18.5 -28.5t-34.5 -14.5h-12q10 33 10 43q0 25 -31 25
q-18 0 -31.5 -21t-13.5 -42q0 -80 74 -80q50 0 81.5 36.5t31.5 88.5q0 62 -52.5 105.5t-117.5 43.5q-136 0 -227 -141t-91 -299q0 -174 71 -312.5t187 -138.5q91 0 135 76l43 -78q-90 -24 -153 -29q-8 -15 -22 -46t-23 -48q56 4 115 -30.5t59 -85.5q0 -38 -54 -73.5
t-102 -35.5q-25 0 -62.5 14.5t-45.5 16.5q11 23 18 47q32 -33 92 -33q70 0 70 55q0 41 -36.5 69t-94.5 26q24 56 33 127z" />
    <glyph glyph-name="egrave" unicode="&#xe8;" horiz-adv-x="862" 
d="M598 215q47 0 47 -45q0 -29 -25.5 -49.5t-48.5 -20.5q-29 0 -59.5 28t-30.5 69q0 57 37 89.5t92 32.5q66 0 110 -46.5t44 -118.5q0 -85 -74.5 -135t-163.5 -50q-162 0 -301 134.5t-139 326.5q0 181 135 329t287 148q114 0 211.5 -75.5t97.5 -157.5q0 -102 -83.5 -167
t-209.5 -65q-122 0 -188 34t-66 95q0 55 41 90t86 35q40 0 72.5 -20.5t32.5 -48.5q0 -30 -22.5 -56t-43.5 -26q-41 0 -41 28q47 13 47 45q0 25 -18 39.5t-43 14.5q-18 0 -34 -29.5t-16 -60.5q0 -44 62.5 -75.5t151.5 -31.5q76 0 118 46t42 124q0 81 -61 155t-150 74
q-111 0 -189 -124.5t-78 -337.5q0 -176 89.5 -291t220.5 -115q61 0 121.5 42.5t60.5 107.5q0 44 -43 75t-94 31q-28 0 -48 -18t-20 -43q0 -43 51 -43q15 0 24 18.5t9 38.5zM724 1075q-18 -27 -20 -35q-12 5 -96 54t-137 68.5t-121 49.5q7 5 22 41t19 43q196 -156 333 -221z
" />
    <glyph glyph-name="eacute" unicode="&#xe9;" horiz-adv-x="862" 
d="M598 215q47 0 47 -45q0 -29 -25.5 -49.5t-48.5 -20.5q-29 0 -59.5 28t-30.5 69q0 57 37 89.5t92 32.5q66 0 110 -46.5t44 -118.5q0 -85 -74.5 -135t-163.5 -50q-162 0 -301 134.5t-139 326.5q0 181 135 329t287 148q114 0 211.5 -75.5t97.5 -157.5q0 -102 -83.5 -167
t-209.5 -65q-122 0 -188 34t-66 95q0 55 41 90t86 35q40 0 72.5 -20.5t32.5 -48.5q0 -30 -22.5 -56t-43.5 -26q-41 0 -41 28q47 13 47 45q0 25 -18 39.5t-43 14.5q-18 0 -34 -29.5t-16 -60.5q0 -44 62.5 -75.5t151.5 -31.5q76 0 118 46t42 124q0 81 -61 155t-150 74
q-111 0 -189 -124.5t-78 -337.5q0 -176 89.5 -291t220.5 -115q61 0 121.5 42.5t60.5 107.5q0 44 -43 75t-94 31q-28 0 -48 -18t-20 -43q0 -43 51 -43q15 0 24 18.5t9 38.5zM738 1204q-68 -30 -121 -49.5t-128 -63.5t-105 -59q-2 8 -20 35q137 65 333 221q4 -7 19 -43t22 -41
z" />
    <glyph glyph-name="ecircumflex" unicode="&#xea;" horiz-adv-x="862" 
d="M598 215q47 0 47 -45q0 -29 -25.5 -49.5t-48.5 -20.5q-29 0 -59.5 28t-30.5 69q0 57 37 89.5t92 32.5q66 0 110 -46.5t44 -118.5q0 -85 -74.5 -135t-163.5 -50q-162 0 -301 134.5t-139 326.5q0 181 135 329t287 148q114 0 211.5 -75.5t97.5 -157.5q0 -102 -83.5 -167
t-209.5 -65q-122 0 -188 34t-66 95q0 55 41 90t86 35q40 0 72.5 -20.5t32.5 -48.5q0 -30 -22.5 -56t-43.5 -26q-41 0 -41 28q47 13 47 45q0 25 -18 39.5t-43 14.5q-18 0 -34 -29.5t-16 -60.5q0 -44 62.5 -75.5t151.5 -31.5q76 0 118 46t42 124q0 81 -61 155t-150 74
q-111 0 -189 -124.5t-78 -337.5q0 -176 89.5 -291t220.5 -115q61 0 121.5 42.5t60.5 107.5q0 44 -43 75t-94 31q-28 0 -48 -18t-20 -43q0 -43 51 -43q15 0 24 18.5t9 38.5zM728 1106q-58 -33 -90 -45q-39 78 -113 180q-97 -157 -111 -190q-68 31 -88 49q20 22 95 87.5
t110 110.5q36 -54 197 -192z" />
    <glyph glyph-name="edieresis" unicode="&#xeb;" horiz-adv-x="862" 
d="M598 215q47 0 47 -45q0 -29 -25.5 -49.5t-48.5 -20.5q-29 0 -59.5 28t-30.5 69q0 57 37 89.5t92 32.5q66 0 110 -46.5t44 -118.5q0 -85 -74.5 -135t-163.5 -50q-162 0 -301 134.5t-139 326.5q0 181 135 329t287 148q114 0 211.5 -75.5t97.5 -157.5q0 -102 -83.5 -167
t-209.5 -65q-122 0 -188 34t-66 95q0 55 41 90t86 35q40 0 72.5 -20.5t32.5 -48.5q0 -30 -22.5 -56t-43.5 -26q-41 0 -41 28q47 13 47 45q0 25 -18 39.5t-43 14.5q-18 0 -34 -29.5t-16 -60.5q0 -44 62.5 -75.5t151.5 -31.5q76 0 118 46t42 124q0 81 -61 155t-150 74
q-111 0 -189 -124.5t-78 -337.5q0 -176 89.5 -291t220.5 -115q61 0 121.5 42.5t60.5 107.5q0 44 -43 75t-94 31q-28 0 -48 -18t-20 -43q0 -43 51 -43q15 0 24 18.5t9 38.5zM682 1173q66 0 66 -39q0 -48 -16.5 -66t-49.5 -18q-49 0 -49 72q0 29 10.5 40t38.5 11zM379 1159
q21 0 38 -24t17 -48q0 -51 -78 -51q-20 0 -44.5 23t-24.5 44q0 27 26.5 41.5t65.5 14.5z" />
    <glyph glyph-name="igrave" unicode="&#xec;" horiz-adv-x="457" 
d="M457 -23q-231 0 -288 -7.5t-99 -16.5v55l129 4q0 434 -45 830l-111 4v37q103 -2 143 -2q71 0 191 37v-46l-90 -22l-21 -322l-24 -508q114 0 215 13v-56zM397 1067q-18 -27 -20 -35q-12 5 -96 54t-137 68.5t-121 49.5q7 5 22 41t19 43q196 -156 333 -221z" />
    <glyph glyph-name="iacute" unicode="&#xed;" horiz-adv-x="457" 
d="M457 -23q-231 0 -288 -7.5t-99 -16.5v55l129 4q0 434 -45 830l-111 4v37q103 -2 143 -2q71 0 191 37v-46l-90 -22l-21 -322l-24 -508q114 0 215 13v-56zM403 1204q-68 -30 -121 -49.5t-128 -63.5t-105 -59q-2 8 -20 35q137 65 333 221q4 -7 19 -43t22 -41z" />
    <glyph glyph-name="icircumflex" unicode="&#xee;" horiz-adv-x="457" 
d="M457 -23q-231 0 -288 -7.5t-99 -16.5v55l129 4q0 434 -45 830l-111 4v37q103 -2 143 -2q71 0 191 37v-46l-90 -22l-21 -322l-24 -508q114 0 215 13v-56zM420 1106q-58 -33 -90 -45q-39 78 -113 180q-97 -157 -111 -190q-68 31 -88 49q20 22 95 87.5t110 110.5
q36 -54 197 -192z" />
    <glyph glyph-name="idieresis" unicode="&#xef;" horiz-adv-x="457" 
d="M457 -23q-231 0 -288 -7.5t-99 -16.5v55l129 4q0 434 -45 830l-111 4v37q103 -2 143 -2q71 0 191 37v-46l-90 -22l-21 -322l-24 -508q114 0 215 13v-56zM395 1239q66 0 66 -39q0 -48 -16.5 -66t-49.5 -18q-49 0 -49 72q0 29 10.5 40t38.5 11zM92 1225q21 0 38 -24t17 -48
q0 -51 -78 -51q-20 0 -44.5 23t-24.5 44q0 27 26.5 41.5t65.5 14.5z" />
    <glyph glyph-name="eth" unicode="&#xf0;" horiz-adv-x="963" 
d="M465 1085l225 -267q69 -81 116 -154t73 -143.5t26 -131.5q0 -148 -129.5 -266.5t-277.5 -118.5q-160 0 -289 131t-129 242q0 155 135 294.5t264 139.5q62 0 107 -41.5t45 -87.5q0 -39 -41 -81t-80 -42q-40 0 -74.5 31t-34.5 67q0 18 25 36t45 18q-1 -5 -7.5 -24.5
t-6.5 -37.5q0 -61 47 -61q22 0 38.5 25.5t16.5 50.5q0 41 -24.5 77.5t-59.5 36.5q-106 0 -183 -120.5t-77 -235.5q0 -167 82 -274t199 -107q106 0 197 110.5t91 260.5q0 162 -93 312t-283 323l-181 -144l-41 51l185 125q-36 43 -57 60t-154 143q12 14 43 45t49 53
q85 -133 182 -254q140 102 236 199l45 -90q-76 -37 -250 -150z" />
    <glyph glyph-name="ntilde" unicode="&#xf1;" horiz-adv-x="1059" 
d="M272 623q106 299 316 299q149 0 268 -125.5t119 -294.5q0 -185 -110 -356t-232 -171q-53 0 -103.5 47t-50.5 99q0 42 43 75t88 33q105 0 105 -65q0 -62 -76 -62q-35 0 -41 15l8 10q13 -4 23 -4q20 0 20 37q0 41 -39 41q-21 0 -38 -31.5t-17 -63.5q0 -96 86 -96
q195 0 195 520q0 126 -76 236.5t-176 110.5q-84 0 -153.5 -66.5t-109.5 -156t-40 -101.5l-39 -526l108 26l12 -45q-106 -26 -157 -26q-50 0 -144 6l9 45l133 -10q2 39 2 93q0 408 -76 775l-113 -19l-12 37q139 17 287 88zM842 1366q-85 -151 -137.5 -183t-105.5 -32
q-28 0 -52.5 15.5t-59.5 82t-75 66.5q-42 0 -55 -135q-45 22 -72 16q40 97 80.5 127.5t102.5 30.5q38 0 88 -76q45 -65 90 -65q22 0 50 13t35 30t21 129q40 0 90 -19z" />
    <glyph glyph-name="ograve" unicode="&#xf2;" 
d="M516 672q-14 -23 -35 -23q-13 0 -24 12.5t-11 32.5q0 24 22 40t48 16q29 0 54.5 -24.5t25.5 -51.5q0 -64 -36 -101.5t-93 -37.5q-41 0 -70.5 42.5t-29.5 104.5q0 72 63 132t129 60q135 0 247 -120t112 -271q0 -187 -128.5 -337t-275.5 -150q-167 0 -300.5 135.5
t-133.5 319.5q0 155 122.5 295t289.5 178l12 -25q-128 -23 -211.5 -148t-83.5 -272q0 -201 83.5 -326.5t219.5 -125.5q104 0 191.5 127t87.5 297q0 162 -76 272.5t-185 110.5q-59 0 -98 -46.5t-39 -101.5q0 -35 27 -60.5t51 -25.5q32 0 64 24.5t32 47.5q0 49 -55 49
q-23 0 -23 -25q0 -11 27 -24zM716 1100q-18 -27 -20 -35q-12 5 -96 54t-137 68.5t-121 49.5q7 5 22 41t19 43q196 -156 333 -221z" />
    <glyph glyph-name="oacute" unicode="&#xf3;" 
d="M516 672q-14 -23 -35 -23q-13 0 -24 12.5t-11 32.5q0 24 22 40t48 16q29 0 54.5 -24.5t25.5 -51.5q0 -64 -36 -101.5t-93 -37.5q-41 0 -70.5 42.5t-29.5 104.5q0 72 63 132t129 60q135 0 247 -120t112 -271q0 -187 -128.5 -337t-275.5 -150q-167 0 -300.5 135.5
t-133.5 319.5q0 155 122.5 295t289.5 178l12 -25q-128 -23 -211.5 -148t-83.5 -272q0 -201 83.5 -326.5t219.5 -125.5q104 0 191.5 127t87.5 297q0 162 -76 272.5t-185 110.5q-59 0 -98 -46.5t-39 -101.5q0 -35 27 -60.5t51 -25.5q32 0 64 24.5t32 47.5q0 49 -55 49
q-23 0 -23 -25q0 -11 27 -24zM681 1212q-68 -30 -121 -49.5t-128 -63.5t-105 -59q-2 8 -20 35q137 65 333 221q4 -7 19 -43t22 -41z" />
    <glyph glyph-name="ocircumflex" unicode="&#xf4;" 
d="M516 672q-14 -23 -35 -23q-13 0 -24 12.5t-11 32.5q0 24 22 40t48 16q29 0 54.5 -24.5t25.5 -51.5q0 -64 -36 -101.5t-93 -37.5q-41 0 -70.5 42.5t-29.5 104.5q0 72 63 132t129 60q135 0 247 -120t112 -271q0 -187 -128.5 -337t-275.5 -150q-167 0 -300.5 135.5
t-133.5 319.5q0 155 122.5 295t289.5 178l12 -25q-128 -23 -211.5 -148t-83.5 -272q0 -201 83.5 -326.5t219.5 -125.5q104 0 191.5 127t87.5 297q0 162 -76 272.5t-185 110.5q-59 0 -98 -46.5t-39 -101.5q0 -35 27 -60.5t51 -25.5q32 0 64 24.5t32 47.5q0 49 -55 49
q-23 0 -23 -25q0 -11 27 -24zM715 1106q-58 -33 -90 -45q-39 78 -113 180q-97 -157 -111 -190q-68 31 -88 49q20 22 95 87.5t110 110.5q36 -54 197 -192z" />
    <glyph glyph-name="otilde" unicode="&#xf5;" 
d="M516 672q-14 -23 -35 -23q-13 0 -24 12.5t-11 32.5q0 24 22 40t48 16q29 0 54.5 -24.5t25.5 -51.5q0 -64 -36 -101.5t-93 -37.5q-41 0 -70.5 42.5t-29.5 104.5q0 72 63 132t129 60q135 0 247 -120t112 -271q0 -187 -128.5 -337t-275.5 -150q-167 0 -300.5 135.5
t-133.5 319.5q0 155 122.5 295t289.5 178l12 -25q-128 -23 -211.5 -148t-83.5 -272q0 -201 83.5 -326.5t219.5 -125.5q104 0 191.5 127t87.5 297q0 162 -76 272.5t-185 110.5q-59 0 -98 -46.5t-39 -101.5q0 -35 27 -60.5t51 -25.5q32 0 64 24.5t32 47.5q0 49 -55 49
q-23 0 -23 -25q0 -11 27 -24zM784 1243q-85 -151 -137.5 -183t-105.5 -32q-28 0 -52.5 15.5t-59.5 82t-75 66.5q-42 0 -55 -135q-45 22 -72 16q40 97 80.5 127.5t102.5 30.5q38 0 88 -76q45 -65 90 -65q22 0 50 13t35 30t21 129q40 0 90 -19z" />
    <glyph glyph-name="odieresis" unicode="&#xf6;" 
d="M516 672q-14 -23 -35 -23q-13 0 -24 12.5t-11 32.5q0 24 22 40t48 16q29 0 54.5 -24.5t25.5 -51.5q0 -64 -36 -101.5t-93 -37.5q-41 0 -70.5 42.5t-29.5 104.5q0 72 63 132t129 60q135 0 247 -120t112 -271q0 -187 -128.5 -337t-275.5 -150q-167 0 -300.5 135.5
t-133.5 319.5q0 155 122.5 295t289.5 178l12 -25q-128 -23 -211.5 -148t-83.5 -272q0 -201 83.5 -326.5t219.5 -125.5q104 0 191.5 127t87.5 297q0 162 -76 272.5t-185 110.5q-59 0 -98 -46.5t-39 -101.5q0 -35 27 -60.5t51 -25.5q32 0 64 24.5t32 47.5q0 49 -55 49
q-23 0 -23 -25q0 -11 27 -24zM674 1214q66 0 66 -39q0 -48 -16.5 -66t-49.5 -18q-49 0 -49 72q0 29 10.5 40t38.5 11zM371 1200q21 0 38 -24t17 -48q0 -51 -78 -51q-20 0 -44.5 23t-24.5 44q0 27 26.5 41.5t65.5 14.5z" />
    <glyph glyph-name="divide" unicode="&#xf7;" horiz-adv-x="975" 
d="M498 975q36 0 62 -34.5t26 -76.5q0 -37 -66 -37q-74 0 -74 70q0 34 15 56t37 22zM893 586q-14 -46 -14 -101q-85 25 -504 25q-80 0 -172.5 -9t-139.5 -12q0 54 -6 80zM440 303q37 0 62.5 -34t25.5 -76q0 -37 -65 -37q-74 0 -74 69q0 34 15 56t36 22z" />
    <glyph glyph-name="oslash" unicode="&#xf8;" horiz-adv-x="1038" 
d="M1012 958q-40 -26 -176 -172q125 -128 125 -292q0 -217 -134 -373t-297 -156q-165 0 -305 127q-95 -114 -184 -233q-39 21 -70 47q147 146 215 225q-118 144 -118 320q0 156 102.5 286t275.5 201l13 -25q-120 -43 -190 -162t-70 -272q0 -155 51 -274q93 107 205 244
l270 331q-77 86 -172 86q-44 0 -81.5 -40t-37.5 -76q0 -74 49 -74q32 0 50 17.5t18 43.5q0 28 -25 70q21 8 37 8q25 0 39 -17.5t14 -43.5q0 -44 -42 -74.5t-105 -30.5q-45 0 -76 32t-31 77q0 44 69.5 93.5t148.5 49.5q102 0 192 -63q102 122 154 182q8 -16 43 -36t43 -26z
M274 154q95 -156 254 -156q121 0 212 124.5t91 328.5q0 146 -63 268q-157 -164 -494 -565z" />
    <glyph glyph-name="ugrave" unicode="&#xf9;" 
d="M979 -6q-115 -34 -186 -70l-23 236q-126 -183 -303 -183q-135 0 -248 107.5t-113 261.5q0 63 37 140t84.5 124.5t82 108.5t34.5 96q0 107 -92 107q-40 0 -76.5 -23t-36.5 -57q0 -23 19 -40.5t41 -17.5q26 0 32.5 5t6.5 16q0 25 -43 33q21 24 34 24q18 0 32.5 -16.5
t14.5 -38.5q0 -33 -27.5 -61.5t-60.5 -28.5q-31 0 -57.5 30.5t-26.5 63.5q0 62 46 120t98 58q57 0 94 -47.5t37 -114.5q0 -92 -49 -178q-107 -189 -107 -293q0 -155 74.5 -244t200.5 -89q154 0 264 206q-36 318 -105 629l-106 -6l4 43q178 3 332 55l10 -41l-102 -28
q0 -338 36 -885q72 15 134 45zM708 1125q-18 -27 -20 -35q-12 5 -96 54t-137 68.5t-121 49.5q7 5 22 41t19 43q196 -156 333 -221z" />
    <glyph glyph-name="uacute" unicode="&#xfa;" 
d="M979 -6q-115 -34 -186 -70l-23 236q-126 -183 -303 -183q-135 0 -248 107.5t-113 261.5q0 63 37 140t84.5 124.5t82 108.5t34.5 96q0 107 -92 107q-40 0 -76.5 -23t-36.5 -57q0 -23 19 -40.5t41 -17.5q26 0 32.5 5t6.5 16q0 25 -43 33q21 24 34 24q18 0 32.5 -16.5
t14.5 -38.5q0 -33 -27.5 -61.5t-60.5 -28.5q-31 0 -57.5 30.5t-26.5 63.5q0 62 46 120t98 58q57 0 94 -47.5t37 -114.5q0 -92 -49 -178q-107 -189 -107 -293q0 -155 74.5 -244t200.5 -89q154 0 264 206q-36 318 -105 629l-106 -6l4 43q178 3 332 55l10 -41l-102 -28
q0 -338 36 -885q72 15 134 45zM714 1245q-68 -30 -121 -49.5t-128 -63.5t-105 -59q-2 8 -20 35q137 65 333 221q4 -7 19 -43t22 -41z" />
    <glyph glyph-name="ucircumflex" unicode="&#xfb;" 
d="M979 -6q-115 -34 -186 -70l-23 236q-126 -183 -303 -183q-135 0 -248 107.5t-113 261.5q0 63 37 140t84.5 124.5t82 108.5t34.5 96q0 107 -92 107q-40 0 -76.5 -23t-36.5 -57q0 -23 19 -40.5t41 -17.5q26 0 32.5 5t6.5 16q0 25 -43 33q21 24 34 24q18 0 32.5 -16.5
t14.5 -38.5q0 -33 -27.5 -61.5t-60.5 -28.5q-31 0 -57.5 30.5t-26.5 63.5q0 62 46 120t98 58q57 0 94 -47.5t37 -114.5q0 -92 -49 -178q-107 -189 -107 -293q0 -155 74.5 -244t200.5 -89q154 0 264 206q-36 318 -105 629l-106 -6l4 43q178 3 332 55l10 -41l-102 -28
q0 -338 36 -885q72 15 134 45zM724 1106q-58 -33 -90 -45q-39 78 -113 180q-97 -157 -111 -190q-68 31 -88 49q20 22 95 87.5t110 110.5q36 -54 197 -192z" />
    <glyph glyph-name="udieresis" unicode="&#xfc;" 
d="M979 -6q-115 -34 -186 -70l-23 236q-126 -183 -303 -183q-135 0 -248 107.5t-113 261.5q0 63 37 140t84.5 124.5t82 108.5t34.5 96q0 107 -92 107q-40 0 -76.5 -23t-36.5 -57q0 -23 19 -40.5t41 -17.5q26 0 32.5 5t6.5 16q0 25 -43 33q21 24 34 24q18 0 32.5 -16.5
t14.5 -38.5q0 -33 -27.5 -61.5t-60.5 -28.5q-31 0 -57.5 30.5t-26.5 63.5q0 62 46 120t98 58q57 0 94 -47.5t37 -114.5q0 -92 -49 -178q-107 -189 -107 -293q0 -155 74.5 -244t200.5 -89q154 0 264 206q-36 318 -105 629l-106 -6l4 43q178 3 332 55l10 -41l-102 -28
q0 -338 36 -885q72 15 134 45zM690 1231q66 0 66 -39q0 -48 -16.5 -66t-49.5 -18q-49 0 -49 72q0 29 10.5 40t38.5 11zM387 1217q21 0 38 -24t17 -48q0 -51 -78 -51q-20 0 -44.5 23t-24.5 44q0 27 26.5 41.5t65.5 14.5z" />
    <glyph glyph-name="yacute" unicode="&#xfd;" horiz-adv-x="809" 
d="M610 918q6 -9 6 -18q0 -18 -17.5 -34t-31.5 -16q-30 0 -55 32t-25 60q0 46 40 90.5t77 44.5q56 0 102 -46.5t46 -100.5q0 -56 -25.5 -135.5t-126.5 -277.5t-147 -308t-73 -223q-55 -229 -137 -274.5t-128 -45.5q-78 0 -126 36t-48 85q0 52 54 89.5t124 37.5q30 0 54 -21
t24 -53q0 -26 -33 -49t-63 -23q-25 0 -25 21q12 0 30 17t18 42q0 37 -26 37q-40 0 -66 -19.5t-26 -53.5q0 -45 36 -82t83 -37q51 0 105 82t79.5 168t83.5 239q-181 510 -352 723q-45 -12 -141 -45l-11 39q103 23 269 102q54 -70 100.5 -184.5t88.5 -262.5l83 -294l156 314
q65 131 86.5 204.5t21.5 122.5q0 48 -30.5 77.5t-79.5 29.5q-23 0 -38.5 -12.5t-15.5 -30.5q0 -60 33 -60q19 0 47 13zM607 1368q-68 -30 -121 -49.5t-128 -63.5t-105 -59q-2 8 -20 35q137 65 333 221q4 -7 19 -43t22 -41z" />
    <glyph glyph-name="thorn" unicode="&#xfe;" horiz-adv-x="874" 
d="M399 569q-43 18 -43 39q0 58 66 58q34 0 58 -23.5t24 -62.5q0 -54 -36 -84.5t-81 -30.5q-47 0 -90 51.5t-43 101.5q0 103 76 166.5t168 63.5q124 0 232 -119t108 -262q0 -176 -132 -311.5t-292 -135.5q-62 0 -134 36t-106 87q-6 -187 -6 -286q0 -205 6 -258q65 4 143 34
l-12 -45q-90 -20 -158 -20q-32 0 -170 -14v30l156 10q-18 122 -18 381q0 251 14 385q55 518 55 900q0 74 -10 217l-115 -2l2 36q224 0 373 31l2 -35l-104 -22q-12 -98 -23.5 -230.5t-34.5 -261.5q-90 -505 -90 -686q0 -79 70.5 -161.5t163.5 -82.5q116 0 204.5 119.5
t88.5 270.5q0 143 -76.5 244.5t-163.5 101.5q-78 0 -128 -45.5t-50 -120.5q0 -32 32 -69.5t62 -37.5q29 0 56.5 18.5t27.5 39.5q0 39 -55 39q-29 0 -29 -23q0 -10 23 -20z" />
    <glyph glyph-name="ydieresis" unicode="&#xff;" horiz-adv-x="809" 
d="M610 918q6 -9 6 -18q0 -18 -17.5 -34t-31.5 -16q-30 0 -55 32t-25 60q0 46 40 90.5t77 44.5q56 0 102 -46.5t46 -100.5q0 -56 -25.5 -135.5t-126.5 -277.5t-147 -308t-73 -223q-55 -229 -137 -274.5t-128 -45.5q-78 0 -126 36t-48 85q0 52 54 89.5t124 37.5q30 0 54 -21
t24 -53q0 -26 -33 -49t-63 -23q-25 0 -25 21q12 0 30 17t18 42q0 37 -26 37q-40 0 -66 -19.5t-26 -53.5q0 -45 36 -82t83 -37q51 0 105 82t79.5 168t83.5 239q-181 510 -352 723q-45 -12 -141 -45l-11 39q103 23 269 102q54 -70 100.5 -184.5t88.5 -262.5l83 -294l156 314
q65 131 86.5 204.5t21.5 122.5q0 48 -30.5 77.5t-79.5 29.5q-23 0 -38.5 -12.5t-15.5 -30.5q0 -60 33 -60q19 0 47 13zM542 1337q66 0 66 -39q0 -48 -16.5 -66t-49.5 -18q-49 0 -49 72q0 29 10.5 40t38.5 11zM239 1323q21 0 38 -24t17 -48q0 -51 -78 -51q-20 0 -44.5 23
t-24.5 44q0 27 26.5 41.5t65.5 14.5z" />
    <glyph glyph-name="dotlessi" unicode="&#x131;" horiz-adv-x="457" 
d="M457 -23q-231 0 -288 -7.5t-99 -16.5v55l129 4q0 434 -45 830l-111 4v37q103 -2 143 -2q71 0 191 37v-46l-90 -22l-21 -322l-24 -508q114 0 215 13v-56z" />
    <glyph glyph-name="Lslash" unicode="&#x141;" horiz-adv-x="985" 
d="M819 285q13 15 27 15t24.5 -18.5t10.5 -48.5q0 -26 -29 -59t-57 -33q-48 0 -78.5 37t-30.5 103q0 51 35.5 91t75.5 40q67 0 126.5 -75.5t59.5 -168.5q0 -184 -199 -184q-80 0 -236.5 31.5t-238.5 31.5q-75 0 -200 -14l4 47l174 8q10 79 10 406q0 50 -4 129l-199 -142
q-27 43 -43 54q111 61 238 139q-5 318 -49 606q-58 0 -166 -6l4 47q128 -5 245 -5q97 0 216 19v-51h-152q6 -119 6 -328q0 -34 -4 -217q181 118 295 219q18 -33 53 -92q-117 -38 -348 -182q-26 -376 -61 -598l411 -18q82 0 142.5 36.5t60.5 85.5q0 64 -26 106t-72 42
q-54 0 -92.5 -22t-38.5 -62q0 -38 18 -47.5t60 -9.5q59 0 59 36q0 18 -31 52z" />
    <glyph glyph-name="lslash" unicode="&#x142;" horiz-adv-x="518" 
d="M526 762q-92 -30 -264 -127q-18 -104 -72.5 -289.5t-54.5 -255.5q0 -37 38.5 -69.5t78.5 -32.5q85 0 141 50t56 136q0 32 -20 58t-50 26q-80 0 -80 -63q0 -23 29 -23q30 0 53 27l12 -4q-13 -68 -55 -68q-68 0 -68 70q0 51 42.5 89t95.5 38q44 0 78 -41t34 -93
q0 -99 -94 -167t-190 -68q-62 0 -98 29.5t-36 81.5q0 128 28 274.5t42 239.5q-149 -106 -176 -119q-10 27 -39 57q77 37 223 123q16 130 25.5 307t9.5 240l-2 252l-123 -4l2 34q189 0 371 54v-35l-84 -27q-76 -623 -107 -764q116 74 211 146q9 -25 43 -82z" />
    <glyph glyph-name="OE" unicode="&#x152;" horiz-adv-x="1942" 
d="M1706 242q45 -12 45 -37q0 -37 -20 -64.5t-52 -27.5q-34 0 -58 30.5t-24 67.5q0 58 53 111t91 53q87 0 137.5 -37t50.5 -107q0 -56 -37.5 -123t-86 -107t-96.5 -49t-136 -9q-39 0 -175.5 17t-219.5 17q-60 0 -166 -20v53l123 8l-21 230q-42 -115 -158.5 -195t-244.5 -80
q-272 0 -454.5 184.5t-182.5 438.5q0 242 155.5 441t382.5 255l13 -30q-184 -36 -297 -218t-113 -421q0 -254 145.5 -434.5t366.5 -180.5q162 0 265.5 127.5t103.5 301.5q0 152 -44.5 406.5t-103.5 375.5q-43 18 -162 18q-113 0 -203.5 -94.5t-90.5 -181.5q0 -45 37 -75
t77 -30q51 0 87 24.5t36 59.5q0 29 -21 48.5t-46 19.5q-22 0 -39 -10t-17 -23q0 -18 68 -21q-22 -41 -47 -41q-17 0 -33 28.5t-16 47.5q0 22 28.5 49t59.5 27q30 0 65 -39t35 -72q0 -76 -48.5 -128t-103.5 -52q-63 0 -110 57.5t-47 126.5q0 98 102.5 206t241.5 114
q243 8 359 20.5t278 42.5t241 48q-34 -189 -26 -330h-49l6 225l-467 -31q33 -461 33 -630q333 12 503 71v-80q-249 -40 -503 -47l8 -544l385 -13q186 0 232.5 45.5t46.5 110.5q0 50 -35 99.5t-109 49.5q-21 0 -43.5 -25.5t-22.5 -60.5q0 -25 21 -40t39 -15q20 0 20 23
q0 21 -20 32z" />
    <glyph glyph-name="oe" unicode="&#x153;" horiz-adv-x="1608" 
d="M881 694q70 108 171.5 173t194.5 65q121 0 223.5 -79.5t102.5 -168.5q0 -115 -90 -203t-213 -88q-118 0 -193.5 55t-75.5 127q0 61 44.5 103.5t89.5 42.5q39 0 73.5 -27.5t34.5 -58.5t-23.5 -59.5t-43.5 -28.5q-25 0 -43 24q49 19 49 56q0 27 -20.5 47t-43.5 20
q-18 0 -35.5 -36.5t-17.5 -71.5q0 -49 67.5 -102.5t157.5 -53.5q76 0 121 66t45 157q0 88 -64 167t-157 79q-116 0 -199.5 -134t-83.5 -362q0 -178 102.5 -305t221.5 -127q75 0 125.5 32t50.5 85q0 22 -11.5 39.5t-29.5 17.5q-29 0 -29 -26q0 -33 25 -45q-11 -13 -23 -13
q-14 0 -27.5 22t-13.5 50q0 35 21.5 60.5t52.5 25.5q33 0 63.5 -30t30.5 -85q0 -20 -22 -61t-90 -76t-129 -35q-113 0 -236 72.5t-180 192.5q-55 -107 -144 -169.5t-180 -62.5q-180 0 -321 144.5t-141 341.5q0 166 130.5 314t309.5 187l12 -24q-139 -27 -230 -160t-91 -289
q0 -213 91 -347t238 -134q120 0 209.5 127t89.5 332q0 169 -79.5 278t-198.5 109q-66 0 -108 -43.5t-42 -100.5q0 -38 29.5 -65t56.5 -27q35 0 70 26.5t35 49.5q0 53 -62 53q-24 0 -24 -26q0 -12 31 -27q-16 -22 -39 -22q-37 0 -37 47q0 25 23 42t53 17t58 -25.5t28 -54.5
q0 -68 -39 -108.5t-101 -40.5q-46 0 -83.5 47.5t-37.5 111.5q0 75 71 134t144 59q95 0 178 -52.5t128 -144.5z" />
    <glyph glyph-name="Scaron" unicode="&#x160;" horiz-adv-x="985" 
d="M569 1139q-24 12 -45 12q-28 0 -28 -64q0 -21 19.5 -39t43.5 -18q92 0 92 162q0 65 -51.5 112.5t-120.5 47.5q-92 0 -159.5 -69.5t-67.5 -156.5q0 -71 53 -139.5t213 -155.5t228 -133t115.5 -112t47.5 -152q0 -161 -145.5 -307.5t-321.5 -146.5q-128 0 -223.5 99
t-95.5 230q0 105 92.5 190t190.5 85q91 0 146.5 -43.5t55.5 -116.5q0 -77 -62.5 -134t-142.5 -57q-34 0 -56.5 24.5t-22.5 55.5t23 50.5t59 19.5q28 0 40 -23q-53 -16 -53 -38q0 -56 51 -56q40 0 65.5 42.5t25.5 90.5q0 61 -42 105.5t-102 44.5q-79 0 -121.5 -73t-42.5 -191
q0 -107 67.5 -184.5t166.5 -77.5q154 0 263.5 107.5t109.5 283.5q0 81 -47.5 137.5t-117 93.5t-190.5 86t-195.5 88.5t-126 103.5t-51.5 156q0 127 113.5 215t265.5 88q98 0 166 -47.5t68 -124.5q0 -87 -45.5 -149t-120.5 -62q-58 0 -100 25.5t-42 68.5q0 36 25.5 65.5
t65.5 29.5q67 0 67 -49zM660 1685q-25 -34 -95 -107t-94 -108q-37 60 -102.5 126.5t-81.5 86.5l53 34q46 -35 81.5 -102.5t53.5 -93.5q57 62 84.5 123.5t36.5 76.5q4 -3 31.5 -14t32.5 -22z" />
    <glyph glyph-name="scaron" unicode="&#x161;" horiz-adv-x="629" 
d="M291 137q-43 41 -74 41q-17 0 -41.5 -27t-24.5 -43q0 -49 57.5 -92t145.5 -43q42 0 90 52t48 112q0 51 -38.5 109.5t-217.5 202.5q-77 61 -107 102.5t-46.5 94.5t-16.5 106q0 96 78 178t190 82q88 0 154.5 -42.5t66.5 -116.5q0 -60 -45.5 -111.5t-103.5 -51.5
q-47 0 -79 47.5t-32 91.5q0 55 63 55q20 0 37 -7q-2 -4 -9 -12q-36 -40 -36 -73q0 -24 36 -38.5t60 -14.5q20 0 36 21.5t16 41.5q0 68 -49.5 121.5t-118.5 53.5q-64 0 -107 -49.5t-43 -105.5q0 -195 178 -330q189 -146 189 -287q0 -82 -34 -141.5t-82 -98t-76 -47t-87 -8.5
q-63 0 -108 62t-45 133q0 51 38 92t80 41q30 0 52.5 -16t22.5 -40q0 -21 -17 -45zM537 1309q-25 -34 -95 -107t-94 -108q-37 60 -102.5 126.5t-81.5 86.5l53 34q46 -35 81.5 -102.5t53.5 -93.5q57 62 84.5 123.5t36.5 76.5q4 -3 31.5 -14t32.5 -22z" />
    <glyph glyph-name="Ydieresis" unicode="&#x178;" horiz-adv-x="1491" 
d="M1542 1253l-8 -47l-148 19l-114 -195l-167 -317l-177 -346q-69 -122 -147 -231q-45 -65 -78.5 -100.5t-72.5 -66.5t-83.5 -51t-87.5 -20q-123 0 -186.5 55t-63.5 153q0 67 62 132t137 65q95 0 126 -29.5t31 -91.5q0 -33 -49 -70.5t-76 -37.5q-29 0 -48 18t-19 49
q53 -14 76 -14q31 0 55 17.5t24 33.5q0 53 -71 53q-84 0 -142.5 -27.5t-58.5 -66.5q0 -53 65 -89t166 -36q114 0 224.5 117.5t197.5 310.5q-136 133 -280 504q-67 169 -160 265t-186 96q-69 0 -129 -48t-60 -122q0 -68 40 -104t106 -36q60 0 95.5 27.5t35.5 71.5
q0 53 -76 53q-43 0 -43 -43q0 -21 12 -47q-30 0 -48.5 19.5t-18.5 39.5q0 40 32 73.5t82 33.5q42 0 67 -43.5t25 -102.5q0 -51 -42.5 -109.5t-100.5 -58.5q-73 0 -141 66t-68 137q0 116 89.5 202.5t219.5 86.5q51 0 125 -38.5t144.5 -143.5t158.5 -376q105 -324 150 -360
q342 704 377 752q-40 8 -146 22l17 52q84 -29 356 -56zM1026 1607q66 0 66 -39q0 -48 -16.5 -66t-49.5 -18q-49 0 -49 72q0 29 10.5 40t38.5 11zM723 1593q21 0 38 -24t17 -48q0 -51 -78 -51q-20 0 -44.5 23t-24.5 44q0 27 26.5 41.5t65.5 14.5z" />
    <glyph glyph-name="Zcaron" unicode="&#x17d;" horiz-adv-x="1120" 
d="M913 358q37 0 37 -49q0 -23 -31.5 -41t-62.5 -18q-39 0 -70.5 38.5t-31.5 59.5q0 64 54 117t107 53q50 0 103 -49t53 -133q0 -113 -104 -220.5t-260 -107.5q-44 0 -196.5 16.5t-240.5 16.5q-153 0 -207 -29l-12 25q350 407 494 660t282 593q-230 -108 -567 -108
q-15 -139 -35 -234l-59 6q47 170 47 250q0 69 -16 193q5 1 45 6l18 -115q67 -2 126 -2q210 0 355.5 28.5t176.5 67.5q14 -21 69 -65q-88 -188 -201 -392.5t-211.5 -329t-252 -302.5t-172.5 -205q48 24 146 41.5t167 17.5q42 0 172 -27.5t217 -27.5q60 0 108 64.5t48 134.5
q0 49 -39 101t-82 52q-49 0 -76 -24t-27 -49q0 -72 80 -72q14 0 31.5 20t17.5 39zM758 1653q-25 -34 -95 -107t-94 -108q-37 60 -102.5 126.5t-81.5 86.5l53 34q46 -35 81.5 -102.5t53.5 -93.5q57 62 84.5 123.5t36.5 76.5q4 -3 31.5 -14t32.5 -22z" />
    <glyph glyph-name="zcaron" unicode="&#x17e;" horiz-adv-x="803" 
d="M731 920q-84 -191 -276 -440t-349 -365q120 16 187 16q213 0 364 -72q13 80 17 189l49 -4q-40 -181 -37 -350l-39 2q-2 34 -2 40q0 28 10 76q-151 58 -284 58q-162 0 -361 -60l-33 58q164 92 344.5 346t233.5 454q-213 -53 -287 -53q-80 0 -150.5 41.5t-70.5 108.5
q0 56 57 91.5t125 35.5q53 0 95.5 -22.5t42.5 -61.5q0 -33 -49 -54.5t-93 -21.5q-55 0 -55 47q0 21 43 27q0 -43 47 -43q14 0 27.5 6t13.5 16q0 28 -36 49t-70 21q-38 0 -71.5 -23.5t-33.5 -56.5q0 -43 47.5 -66.5t171.5 -23.5q233 0 400 61zM627 1382q-25 -34 -95 -107
t-94 -108q-37 60 -102.5 126.5t-81.5 86.5l53 34q46 -35 81.5 -102.5t53.5 -93.5q57 62 84.5 123.5t36.5 76.5q4 -3 31.5 -14t32.5 -22z" />
    <glyph glyph-name="florin" unicode="&#x192;" horiz-adv-x="881" 
d="M379 809l23 176q13 98 67 182t116 131.5t109 47.5q67 0 119.5 -44t52.5 -104q0 -54 -41 -105t-92 -51q-50 0 -80 30t-30 81q0 29 18.5 46.5t32.5 17.5q39 0 45 -62l-60 8q-4 -11 -4 -25q0 -27 12 -48t29 -21q35 0 63.5 39.5t28.5 77.5q0 133 -94 133q-40 0 -78 -47
t-61 -122t-74 -345q140 4 197 10l-8 -57q-64 8 -119 8q-27 0 -78 2q-81 -449 -118.5 -609.5t-109.5 -284.5t-147 -124q-44 0 -75 36t-31 93q0 55 36 93t89 38q19 0 37 -17.5t18 -39.5q0 -17 -11.5 -33t-29.5 -16q-9 37 -57 37q-51 0 -51 -37q0 -35 31.5 -64.5t68.5 -29.5
q82 0 147.5 214.5t104.5 739.5l-144 -4q11 54 11 67q41 -7 137 -18z" />
    <glyph glyph-name="circumflex" unicode="&#x2c6;" horiz-adv-x="469" 
d="M420 1106q-58 -33 -90 -45q-39 78 -113 180q-97 -157 -111 -190q-68 31 -88 49q20 22 95 87.5t110 110.5q36 -54 197 -192z" />
    <glyph glyph-name="caron" unicode="&#x2c7;" horiz-adv-x="461" 
d="M406 1178q-25 -34 -95 -107t-94 -108q-37 60 -102.5 126.5t-81.5 86.5l53 34q46 -35 81.5 -102.5t53.5 -93.5q57 62 84.5 123.5t36.5 76.5q4 -3 31.5 -14t32.5 -22z" />
    <glyph glyph-name="macron" unicode="&#x2c9;" horiz-adv-x="473" 
d="M428 1147q-4 -11 -4 -55q-75 8 -203 8q-90 0 -155 -4l-13 59q157 -13 261 -13q64 0 114 5z" />
    <glyph glyph-name="breve" unicode="&#x2d8;" horiz-adv-x="455" 
d="M410 1200q-63 -196 -154 -196q-84 0 -127.5 28t-77.5 160q49 11 86 35q4 -199 80 -199q50 0 72 18t27.5 78t7.5 80h48q23 0 38 -4z" />
    <glyph glyph-name="dotaccent" unicode="&#x2d9;" horiz-adv-x="295" 
d="M178 1227q14 0 27.5 -25t13.5 -39q0 -23 -20.5 -42t-44.5 -19q-23 0 -42.5 18t-19.5 39q0 25 28.5 46.5t57.5 21.5z" />
    <glyph glyph-name="ring" unicode="&#x2da;" horiz-adv-x="416" 
d="M197 1354q63 0 124.5 -49t61.5 -115q0 -78 -56.5 -145.5t-107.5 -67.5q-57 0 -117.5 62t-60.5 126q0 82 44 135.5t112 53.5zM201 1057q48 0 82 25t34 67q0 154 -86 154q-50 0 -94.5 -48t-44.5 -90q0 -52 29.5 -80t79.5 -28z" />
    <glyph glyph-name="ogonek" unicode="&#x2db;" horiz-adv-x="362" 
d="M295 -256q-25 -53 -67 -89t-76 -36q-44 0 -78.5 29.5t-34.5 64.5q0 61 18.5 92.5t98.5 107t80 110.5l40 -11q-11 -47 -38 -86.5t-86.5 -81t-59.5 -65.5q0 -39 27 -66.5t47 -27.5q62 0 106 69z" />
    <glyph glyph-name="tilde" unicode="&#x2dc;" horiz-adv-x="567" 
d="M571 1243q-85 -151 -137.5 -183t-105.5 -32q-28 0 -52.5 15.5t-59.5 82t-75 66.5q-42 0 -55 -135q-45 22 -72 16q40 97 80.5 127.5t102.5 30.5q38 0 88 -76q45 -65 90 -65q22 0 50 13t35 30t21 129q40 0 90 -19z" />
    <glyph glyph-name="hungarumlaut" unicode="&#x2dd;" horiz-adv-x="532" 
d="M45 1032q22 13 106.5 108t128.5 95q14 0 24 -11.5t10 -26.5q0 -21 -24 -39.5t-110 -67t-119 -82.5q-11 20 -16 24zM236 993q52 94 111.5 155t101.5 61q43 0 43 -27q0 -25 -47 -51.5t-108 -74t-77 -85.5q-5 7 -24 22z" />
    <glyph glyph-name="pi" unicode="&#x3c0;" horiz-adv-x="1124" 
d="M1085 309q-5 -155 -75.5 -248.5t-167.5 -93.5q-79 0 -138.5 91.5t-59.5 281.5q0 42 2 80t5 72l35 329h-231q-60 -624 -98.5 -742.5t-130.5 -118.5q-39 0 -74 31t-35 82q0 46 72.5 128.5t80.5 150.5l60 469h-97q-40 0 -78.5 -19.5t-56.5 -45.5l-43 -64h-35
q49 152 120.5 228.5t164.5 76.5h764v-176h-258q-12 -120 -18.5 -240t-6.5 -241q0 -82 38 -133t95 -51q35 0 73.5 28.5t43.5 74.5q3 22 4.5 34.5t1.5 15.5h43z" />
    <glyph glyph-name="endash" unicode="&#x2013;" horiz-adv-x="989" 
d="M928 598q-19 -46 -23 -100q-333 36 -844 45q3 34 3 51q0 19 -3 29q398 -33 662 -33q88 0 205 8z" />
    <glyph glyph-name="emdash" unicode="&#x2014;" horiz-adv-x="1470" 
d="M1403 602l-4 -92q-495 21 -681 21q-136 0 -339 -11t-289 -12q2 35 2 59t-2 33q337 -12 690 -12q373 0 623 14z" />
    <glyph glyph-name="quoteleft" unicode="&#x2018;" horiz-adv-x="297" 
d="M139 1108q20 31 54 31q22 0 37.5 -23t15.5 -45q0 -24 -33 -47t-63 -23q-31 0 -61 42.5t-30 84.5q0 105 129 207q0 -21 19 -41q-96 -37 -96 -125q0 -52 28 -61z" />
    <glyph glyph-name="quoteright" unicode="&#x2019;" horiz-adv-x="264" 
d="M147 1122q-20 -30 -53 -30q-22 0 -37.5 22.5t-15.5 44.5q0 25 32.5 47.5t63.5 22.5t60.5 -42.5t29.5 -84.5q0 -104 -129 -207q0 22 -18 41q96 37 96 125q0 53 -29 61z" />
    <glyph glyph-name="quotesinglbase" unicode="&#x201a;" horiz-adv-x="297" 
d="M154 63q-20 -30 -54 -30q-22 0 -37.5 23t-15.5 44q0 25 32.5 47.5t63.5 22.5t60.5 -42t29.5 -85q0 -104 -129 -207q0 22 -18 41q96 38 96 125q0 53 -28 61z" />
    <glyph glyph-name="quotedblleft" unicode="&#x201c;" horiz-adv-x="549" 
d="M133 1065q20 31 53 31q23 0 38.5 -18.5t15.5 -39.5q0 -80 -97 -80q-31 0 -58.5 38.5t-27.5 80.5q0 129 148 248q0 -22 18 -41q-117 -49 -117 -156q0 -55 27 -63zM393 1075q20 31 53 31q23 0 38.5 -23t15.5 -45q0 -24 -33 -46.5t-64 -22.5t-60.5 42t-29.5 85
q0 104 129 207q0 -22 19 -41q-90 -36 -90 -129q0 -54 22 -58z" />
    <glyph glyph-name="quotedblright" unicode="&#x201d;" horiz-adv-x="549" 
d="M164 1122q-20 -30 -53 -30q-23 0 -38.5 22.5t-15.5 44.5q0 25 33 47.5t64 22.5t60.5 -42.5t29.5 -84.5q0 -104 -129 -207q0 22 -19 41q97 37 97 125q0 53 -29 61zM428 1114q-20 -31 -53 -31q-23 0 -38 18.5t-15 39.5q0 80 96 80q31 0 58.5 -38.5t27.5 -80.5
q0 -129 -148 -248q0 22 -18 41q117 49 117 156q0 55 -27 63z" />
    <glyph glyph-name="quotedblbase" unicode="&#x201e;" horiz-adv-x="549" 
d="M420 82q-20 -31 -53 -31q-23 0 -38.5 18.5t-15.5 39.5q0 79 97 79q31 0 58.5 -38t27.5 -80q0 -129 -148 -248q0 22 -18 41q116 49 116 155q0 56 -26 64zM164 63q-20 -30 -53 -30q-23 0 -38.5 23t-15.5 44q0 25 33 47.5t64 22.5t60.5 -42t29.5 -85q0 -104 -129 -207
q0 22 -19 41q97 38 97 125q0 53 -29 61z" />
    <glyph glyph-name="dagger" unicode="&#x2020;" horiz-adv-x="676" 
d="M647 989l-8 -106q-216 26 -272 26q-7 -36 -7 -55q0 -66 21.5 -128t21.5 -126q0 -20 -24.5 -232t-24.5 -356l-82 4q20 81 32.5 203t12.5 184q0 49 -21.5 133t-21.5 132q0 45 22.5 111.5t22.5 131.5q-166 -17 -262 -28l-6 121q65 -19 154.5 -34.5t120.5 -15.5q0 44 -35 273
l125 18q-41 -234 -41 -291q56 0 272 35z" />
    <glyph glyph-name="daggerdbl" unicode="&#x2021;" horiz-adv-x="676" 
d="M643 371q-198 14 -276 14l20 -438l-129 14q25 136 55 428q-46 0 -239 -24q2 22 2 104q187 -21 241 -31l13 432q-46 0 -269 -18q2 16 2 56q0 37 3 46q185 -39 262 -39q0 64 -29 334q29 0 117 19q-39 -282 -39 -353q59 0 241 43l-10 -106q-174 18 -239 18q-7 -94 -7 -434
q80 6 277 37q4 -30 4 -102z" />
    <glyph glyph-name="bullet" unicode="&#x2022;" horiz-adv-x="483" 
d="M250 758q115 0 115 -142q0 -53 -40 -92t-94 -39q-31 0 -70.5 43.5t-39.5 69.5q0 67 36.5 113.5t92.5 46.5z" />
    <glyph glyph-name="ellipsis" unicode="&#x2026;" horiz-adv-x="1231" 
d="M1020 137q63 0 63 -84q0 -59 -59 -59q-36 0 -61 21t-25 55q0 24 28.5 45.5t53.5 21.5zM197 131q39 0 66.5 -28.5t27.5 -67.5q0 -22 -23 -36.5t-49 -14.5q-74 0 -74 69q0 30 14 54t38 24zM623 119q31 0 53 -21t22 -51q0 -33 -25 -54.5t-61 -21.5q-25 0 -44 24.5t-19 51.5
q0 32 20.5 52t53.5 20z" />
    <glyph glyph-name="perthousand" unicode="&#x2030;" horiz-adv-x="1614" 
d="M1081 1309q-72 -71 -253 -314t-323 -450t-293 -461l-85 -143q-33 10 -80 39q97 92 181 229l295 456q210 319 448 711q9 -14 55 -38t55 -29zM387 1083q43 0 43 -73q0 -27 -22.5 -51.5t-51.5 -24.5q-31 0 -55.5 27t-24.5 63q0 56 42.5 108t91.5 52q63 0 117.5 -60
t54.5 -108q0 -90 -75 -186.5t-159 -96.5q-111 0 -189.5 56t-78.5 143q0 101 55 174.5t154 97.5l10 -18q-65 -33 -98 -89t-33 -118q0 -219 172 -219q61 0 102 79t41 162q0 55 -22 104.5t-60 49.5q-28 0 -53.5 -36.5t-25.5 -76.5q0 -17 8 -46t16 -29q28 0 34.5 26.5t6.5 89.5z
M1339 205q-75 7 -75 53q0 59 45.5 101t105.5 42q46 0 95 -50t49 -132q0 -97 -77.5 -159t-181.5 -62q-93 0 -165 71.5t-72 163.5q0 90 79 169t167 79q74 0 123 -24l-17 -23q-43 21 -72 21q-68 0 -121 -63t-53 -156q0 -105 37 -158t99 -53q57 0 111 54t54 116q0 82 -22 127
t-59 45q-58 0 -58 -95q0 -32 8 -67zM750 188q-76 8 -76 54q0 59 45.5 101t105.5 42q46 0 95 -50.5t49 -131.5q0 -97 -77 -159t-181 -62q-94 0 -166 71t-72 164q0 89 79 168.5t167 79.5q74 0 123 -25l-17 -22q-43 20 -71 20q-68 0 -121 -63t-53 -156q0 -104 36.5 -157.5
t98.5 -53.5q57 0 111.5 54.5t54.5 115.5q0 83 -22.5 127.5t-59.5 44.5q-58 0 -58 -94q0 -32 9 -68z" />
    <glyph glyph-name="guilsinglleft" unicode="&#x2039;" horiz-adv-x="375" 
d="M344 375q-53 -24 -78 -47q-209 154 -250 209q59 35 130.5 124t105.5 162q33 -42 78 -80q-81 -50 -256 -206q32 -28 130.5 -75.5t139.5 -86.5z" />
    <glyph glyph-name="guilsinglright" unicode="&#x203a;" horiz-adv-x="348" 
d="M330 530q-159 -171 -217 -258q-45 34 -86 54l241 184q-129 120 -243 166q34 52 57 78q20 -34 120.5 -112.5t127.5 -111.5z" />
    <glyph glyph-name="Euro" unicode="&#x20ac;" horiz-adv-x="1100" 
d="M1068 369q-9 -194 -118.5 -312t-298.5 -118q-208 0 -389 201q-133 147 -168 317h-52l-10 97l50 -2q-1 21 -1 30q0 46 9 101q-16 -1 -49 -2l-9 76l72 -3q19 73 59 166q77 178 199 287q143 128 317 128q153 0 243 -79q81 -71 81 -167q0 -97 -90 -172q-85 -71 -184 -71
q-66 0 -122 48q-59 50 -59 115q0 63 39 99.5t103 36.5q38 0 74 -23q40 -27 40 -63q0 -107 -69 -107q-32 0 -45 31q20 0 46.5 18t26.5 37q0 64 -38 64q-48 0 -85.5 -37t-37.5 -84q0 -41 44 -76q41 -33 83 -33q74 0 121 74q42 65 42 143q0 86 -50 142q-60 67 -161 67
q-210 0 -334 -182q-105 -154 -121 -367q119 -4 276 -4q265 0 384 12l-4 -102l-349 16q-115 6 -310 14v-17q0 -56 7 -121q232 -8 388 -8q85 0 268 4l-21 -63q-84 0 -442 -11q-68 -3 -180 -7q33 -154 123 -278q143 -196 346 -196q122 0 189 76q65 73 65 196q0 24 -8 117z" />
    <glyph glyph-name="trademark" unicode="&#x2122;" horiz-adv-x="1073" 
d="M829 1274q207 -7 207 -113q0 -35 -28 -57.5t-66 -22.5q-17 0 -32 14.5t-15 30.5q0 31 33 31q7 -49 18 -49q15 0 25 14.5t10 28.5q0 77 -123 94q0 -222 43 -387q34 14 100 14l-6 -38q-64 6 -215 -17l-4 27q56 2 80 8q-18 79 -47 287q-33 -59 -70 -211l-45 -13
q-27 69 -114 222q0 -69 -15 -359l84 -8l-4 -25q-138 7 -196 25l2 33l65 -15q37 225 37 359q0 82 -14 108q57 0 84 9l100 -234q46 96 106 244zM395 1155q-37 9 -37 41q0 15 18.5 25t33.5 10q30 0 52.5 -29.5t22.5 -60.5q0 -28 -31 -48t-65 -20q-28 0 -63.5 12.5t-51.5 14.5
q0 -98 10 -189t11 -135h67l5 -35l-205 13v39l90 -15q-68 301 -66 355l-90 22q2 -25 -14 -117h-41q32 113 27 152q43 5 166 -38.5t167 -43.5q18 0 33 18t15 31q0 14 -10.5 23.5t-24.5 9.5q-9 0 -14.5 -12t-4.5 -23z" />
    <glyph glyph-name="Ohm" unicode="&#x2126;" horiz-adv-x="1573" 
d="M1506 0h-604l33 311q161 59 226 200t65 313q0 227 -107 373t-331 146t-331 -146t-107 -373q0 -172 65 -313t226 -200l33 -311h-604v332h30q16 -66 40 -95.5t96 -29.5h323l-4 57q-238 65 -341 221t-103 332q0 259 192 425.5t485 166.5t485 -166.5t192 -425.5
q0 -176 -103 -332t-341 -221l-4 -57h323q72 0 96 29.5t40 95.5h30v-332z" />
    <glyph glyph-name="partialdiff" unicode="&#x2202;" horiz-adv-x="1012" 
d="M295 1120h-45q131 303 379 303q161 0 263.5 -127t102.5 -376q0 -358 -164.5 -654.5t-427.5 -296.5q-155 0 -246 91t-91 245q0 239 166.5 420.5t383.5 181.5q222 0 312 -190h4q10 144 10 186q0 175 -92.5 276t-253.5 101q-194 0 -301 -160zM911 629q-81 225 -284 225
q-178 0 -286 -190.5t-108 -399.5q0 -108 54 -172.5t143 -64.5q136 0 279.5 162.5t201.5 439.5z" />
    <glyph glyph-name="Delta" unicode="&#x2206;" horiz-adv-x="1253" 
d="M668 1409l577 -1409h-1233zM594 1059l-447 -959h844z" />
    <glyph glyph-name="product" unicode="&#x220f;" horiz-adv-x="1686" 
d="M1645 -207h-629v47q120 0 159.5 41t39.5 125v1419h-734v-1419q0 -84 39.5 -125t159.5 -41v-47h-629v47q122 0 160.5 41t38.5 125v1282q0 101 -48.5 152t-146.5 51v47h1586v-47q-98 0 -146.5 -51t-48.5 -152v-1282q0 -84 38.5 -125t160.5 -41v-47z" />
    <glyph glyph-name="summation" unicode="&#x2211;" horiz-adv-x="1460" 
d="M1423 238q-32 -125 -54 -240t-34 -219q-63 11 -102.5 16.5t-54.5 5.5h-1031q-20 0 -59 -3t-59 -3l714 815l-710 930q70 -7 123 -10.5t90 -3.5h1018l12 -326h-41q-31 102 -52.5 141t-81.5 66q-30 13 -74.5 20t-104.5 7h-539l559 -734l-602 -694h760q127 0 177.5 52
t98.5 180h47z" />
    <glyph glyph-name="minus" unicode="&#x2212;" horiz-adv-x="1069" 
d="M1034 643q-717 0 -993 -18l6 98q661 0 975 39z" />
    <glyph glyph-name="fraction" unicode="&#x2215;" horiz-adv-x="860" 
d="M965 985q-118 -95 -411.5 -431t-535.5 -683q-23 10 -75 45q29 20 73.5 76t99 112t143.5 170l287 378q198 264 314 411q2 -12 105 -78z" />
    <glyph glyph-name="radical" unicode="&#x221a;" horiz-adv-x="1124" 
d="M1055 1868l-307 -1946l-498 1028l-197 -96l-33 68l299 147l404 -825l260 1634z" />
    <glyph glyph-name="infinity" unicode="&#x221e;" horiz-adv-x="1460" 
d="M653 668q71 169 159 222.5t212 53.5q161 0 272 -116.5t111 -301.5q0 -186 -111.5 -303t-238.5 -117q-95 0 -170.5 63t-165.5 224q-117 -233 -324 -233q-149 0 -246.5 104.5t-97.5 263.5q0 157 89 262t218 105q80 0 149 -42t144 -185zM750 465q64 -138 134.5 -201
t176.5 -63q126 0 207.5 91t81.5 234q0 140 -84 240t-199 100q-55 0 -97.5 -21.5t-74.5 -62t-64 -116.5zM614 557l11 33q-96 215 -267 215q-110 0 -179.5 -76.5t-69.5 -198.5q0 -123 66.5 -207.5t162.5 -84.5q82 0 149.5 65t126.5 254z" />
    <glyph glyph-name="integral" unicode="&#x222b;" horiz-adv-x="561" 
d="M602 1760q0 -39 -29.5 -64t-75.5 -25q-37 0 -60 25t-44 25q-18 0 -27.5 -14.5t-9.5 -43.5q0 -34 19.5 -256t19.5 -551q0 -505 -30 -709.5t-79 -282.5q-26 -41 -67.5 -62t-85.5 -21q-49 0 -86 35t-37 85q0 38 25.5 65t64.5 27q34 0 65.5 -33t44.5 -33q25 0 39.5 44.5
t14.5 153.5q0 37 -6 197t-6 562q0 481 17 638.5t41 215.5q29 70 69 104t84 34q57 0 98 -32.5t41 -83.5z" />
    <glyph glyph-name="approxequal" unicode="&#x2248;" horiz-adv-x="1124" 
d="M1022 874h51q-21 -155 -95.5 -238t-186.5 -83q-97 0 -304 117q-139 78 -211 78q-149 0 -178 -187h-47q20 154 93.5 238t181.5 84q47 0 107 -19.5t224 -107.5q118 -62 193 -62q144 0 172 180zM1022 487h51q-21 -155 -95.5 -238t-186.5 -83q-96 0 -268.5 97t-246.5 97
q-149 0 -178 -186h-47q20 153 93.5 236.5t181.5 83.5q47 0 112 -21.5t219 -103.5q118 -62 193 -62q144 0 172 180z" />
    <glyph glyph-name="notequal" unicode="&#x2260;" horiz-adv-x="1124" 
d="M1106 279h-621l-184 -330l-100 57l151 273h-321v112h385l157 285h-542v112h606l186 336l101 -57l-156 -279h338v-112h-399l-160 -285h559v-112z" />
    <glyph glyph-name="lessequal" unicode="&#x2264;" horiz-adv-x="1124" 
d="M1077 240l-1018 471v127l1018 471v-127l-887 -408l887 -407v-127zM1077 0h-1018v112h1018v-112z" />
    <glyph glyph-name="greaterequal" unicode="&#x2265;" horiz-adv-x="1124" 
d="M1077 711l-1018 -471v127l887 407l-887 408v127l1018 -471v-127zM1077 0h-1018v112h1018v-112z" />
    <glyph glyph-name="lozenge" unicode="&#x25ca;" horiz-adv-x="1012" 
d="M962 763l-397 -763h-122l-397 763l397 763h122zM839 763l-335 652l-335 -652l335 -652z" />
    <glyph glyph-name="apple" unicode="&#xf000;" horiz-adv-x="618" 
 />
    <glyph glyph-name="fi" unicode="&#xf001;" horiz-adv-x="1178" 
d="M868 1198q37 -6 37 -29q0 -22 -18.5 -49.5t-38.5 -27.5q-24 0 -57 32.5t-33 57.5q0 50 38.5 85.5t86.5 35.5q55 0 93 -44.5t38 -103.5q0 -68 -48.5 -117t-121.5 -49q-63 0 -120.5 51.5t-100 147.5t-80 129t-88.5 33q-72 0 -109 -71.5t-37 -186.5q0 -90 15.5 -277.5
t13.5 -284.5q176 0 287 29l-2 -57q-83 -9 -283 -17q0 -145 -27 -469q125 12 181 27l4 -57l-357 -21l4 58l119 -5q12 241 12 310q0 76 -4 153l-178 -14l2 53l174 6q0 79 -41 254t-41 254q0 150 77.5 250t199.5 100q124 0 186 -172q29 -81 78.5 -125.5t104.5 -44.5
q45 0 92 36.5t47 80.5q0 38 -39.5 63t-85.5 25q-26 0 -45 -14.5t-19 -36.5q0 -41 52 -41q21 0 32 43zM1147 -6q-259 -11 -385 -45l-4 59l129 10q-22 421 -88 822h-111l-2 34q211 5 332 54l2 -45l-90 -27q-2 -130 -2 -418q0 -280 2 -409q131 7 213 24z" />
    <glyph glyph-name="fl" unicode="&#xf002;" horiz-adv-x="1182" 
d="M975 195q-14 -68 -55 -68q-68 0 -68 70q0 51 42 89t95 38q45 0 79 -41t34 -93q0 -99 -100.5 -167t-198.5 -68q-38 0 -78.5 33.5t-40.5 77.5q0 123 39.5 336t55.5 420.5t16 617.5l-123 -4l2 34q188 0 370 54v-35l-83 -27q-67 -533 -95.5 -695.5t-88.5 -387t-60 -303.5
q0 -38 28.5 -65t67.5 -27q87 0 152 52.5t65 137.5q0 32 -19.5 58t-49.5 26q-80 0 -80 -63q0 -23 28 -23q31 0 54 27zM213 616q-9 61 -63 252.5t-54 276.5q0 132 99 225.5t219 93.5q95 0 156 -54t61 -153q0 -48 -50.5 -94.5t-113.5 -46.5q-115 0 -115 101q0 25 30 48t54 23
t45 -14t21 -35q0 -7 -9 -19.5t-22 -15.5q-4 60 -31 60q-10 0 -21 -16t-11 -40q0 -28 18.5 -48.5t46.5 -20.5q36 0 61 36t25 82q0 78 -42 132.5t-107 54.5q-72 0 -129.5 -78t-57.5 -188q0 -94 25.5 -292t30.5 -261q156 7 296 53l3 -57q-143 -26 -293 -41q24 -315 24 -560
q99 12 178 39l7 -59q-89 -15 -175 -21.5t-178 -23.5v59l119 4q0 302 -43 553l-166 -22v53z" />
    <glyph glyph-name="foursuperior" unicode="&#xf003;" horiz-adv-x="594" 
d="M580 856q0 -4 -13 -70h-129v-245h119q0 -2 -2 -37q-197 0 -340 -47q-6 16 -6 43l190 35q-6 171 -12 249q-243 0 -371 -4q4 24 49 85l88 117q40 54 75.5 119t35.5 105q0 84 -78 84q-38 0 -72 -26.5t-34 -59.5q0 -20 17.5 -44.5t31.5 -24.5q9 0 18 8.5t9 17.5q0 26 -23 31
q0 25 35 25q29 0 29 -39q0 -30 -29 -53t-59 -23q-36 0 -56 27t-20 65q0 41 54 83t110 42q62 0 109.5 -38t47.5 -97q0 -45 -31 -100t-121 -143.5t-93 -109.5q127 0 274 7q-3 300 12 479q18 -4 107 -17q-47 -213 -66 -464q80 0 144 20z" />
    </font>
</defs>
</svg>
