<?xml version="1.0" standalone="no"?>
<!DOCTYPE svg PUBLIC "-//W3C//DTD SVG 1.1//EN" "http://www.w3.org/Graphics/SVG/1.1/DTD/svg11.dtd" >
<svg xmlns="http://www.w3.org/2000/svg" xmlns:xlink="http://www.w3.org/1999/xlink" version="1.1">
<metadata>
Created by FontForge 20161003 at Thu Oct  5 08:56:41 2017
 By www-data
Copyright (c) Andreas M. Nylin, 2001. All rights reserved.
</metadata>
<defs>
<font id="trancefm" horiz-adv-x="750" >
  <font-face 
    font-family="trancefm"
    font-weight="400"
    font-stretch="normal"
    units-per-em="1000"
    panose-1="0 0 0 0 0 0 0 0 0 0"
    ascent="800"
    descent="-200"
    x-height="575"
    cap-height="575"
    bbox="0 -150 875 875"
    underline-thickness="50"
    underline-position="-175"
    unicode-range="U+0020-2014"
  />
<missing-glyph horiz-adv-x="500" 
 />
    <glyph glyph-name=".notdef" horiz-adv-x="500" 
 />
    <glyph glyph-name=".null" horiz-adv-x="0" 
 />
    <glyph glyph-name="nonmarkingreturn" horiz-adv-x="500" 
 />
    <glyph glyph-name="space" unicode=" " horiz-adv-x="450" 
 />
    <glyph glyph-name="space" unicode="&#xa0;" horiz-adv-x="450" 
 />
    <glyph glyph-name="exclam" unicode="!" horiz-adv-x="300" 
d="M0 0h125v125h-125v-125zM0 600h125v125h-125v-125zM0 300h125v125h-125v-125zM0 450h125v125h-125v-125z" />
    <glyph glyph-name="quotedbl" unicode="&#x22;" horiz-adv-x="450" 
d="M0 450l125 125h-125v-125zM150 450l125 125h-125v-125zM0 600h125v125h-125v-125zM150 600h125v125h-125v-125z" />
    <glyph glyph-name="dollar" unicode="$" 
d="M0 0h125v125h-125v-125zM125 300v125h-125zM0 450h125v125zM150 450h125v125h-125v-125zM150 300h125v125h-125v-125zM150 0h125v125h-125v-125zM150 -150h125v125h-125v-125zM300 0h125v125h-125v-125zM300 300h125v125h-125v-125zM300 450h125v125h-125v-125zM450 450
h125v125h-125v-125zM450 300h125l-125 125v-125zM450 150h125v125h-125v-125zM450 0l125 125h-125v-125zM150 600h125v125h-125v-125z" />
    <glyph glyph-name="percent" unicode="%" horiz-adv-x="900" 
d="M0 150h125v125zM300 300h125v125zM450 300h125v125h-125v-125zM300 150l125 125h-125v-125zM0 0h125v125h-125v-125zM600 300l125 125h-125v-125zM600 450h125v125h-125v-125zM125 300v125h-125zM150 300l125 125h-125v-125zM0 450h125v125zM150 450h125l-125 125v-125z
M150 150h125v125h-125v-125zM575 0v125h-125zM600 0l125 125h-125v-125zM450 150h125v125zM600 150h125l-125 125v-125z" />
    <glyph glyph-name="ampersand" unicode="&#x26;" 
d="M125 0v125h-125zM0 150h125v125h-125v-125zM0 300h125v125zM0 450h125v125h-125v-125zM150 300h125v125h-125v-125zM150 0h125v125h-125v-125zM300 0l125 125h-125v-125zM300 150h125v125h-125v-125zM300 300h125v125h-125v-125zM450 300h125v125h-125v-125zM450 0h125
v125h-125v-125zM0 600h125v125zM150 600h125v125h-125v-125zM300 600h125v125h-125v-125z" />
    <glyph glyph-name="quotesingle" unicode="'" horiz-adv-x="300" 
d="M0 450l125 125h-125v-125zM0 600h125v125h-125v-125z" />
    <glyph glyph-name="parenleft" unicode="(" horiz-adv-x="450" 
d="M0 0h125v125h-125v-125zM0 150h125v125h-125v-125zM0 300h125v125h-125v-125zM0 450h125v125h-125v-125zM125 -150v125h-125zM150 -150h125v125h-125v-125zM0 600h125v125zM150 600h125v125h-125v-125z" />
    <glyph glyph-name="parenright" unicode=")" horiz-adv-x="450" 
d="M150 450h125v125h-125v-125zM150 300h125v125h-125v-125zM150 150h125v125h-125v-125zM150 0h125v125h-125v-125zM0 -150h125v125h-125v-125zM150 -150l125 125h-125v-125zM0 600h125v125h-125v-125zM150 600h125l-125 125v-125z" />
    <glyph glyph-name="plus" unicode="+" horiz-adv-x="600" 
d="M0 300h125v125h-125v-125zM150 450h125v125h-125v-125zM150 300h125v125h-125v-125zM150 150h125v125h-125v-125zM300 300h125v125h-125v-125z" />
    <glyph glyph-name="comma" unicode="," horiz-adv-x="300" 
d="M0 -150l125 125h-125v-125zM0 0h125v125h-125v-125z" />
    <glyph glyph-name="hyphen" unicode="-" horiz-adv-x="600" 
d="M0 150h125v125h-125v-125zM150 150h125v125h-125v-125zM300 150h125v125h-125v-125z" />
    <glyph glyph-name="period" unicode="." horiz-adv-x="300" 
d="M0 0h125v125h-125v-125z" />
    <glyph glyph-name="slash" unicode="/" horiz-adv-x="600" 
d="M0 0h125v125zM150 450h125v125zM150 300h125v125h-125v-125zM150 150h125v125h-125v-125zM150 0l125 125h-125v-125zM0 -150h125v125h-125v-125zM300 450l125 125h-125v-125zM300 600h125v125h-125v-125z" />
    <glyph glyph-name="zero" unicode="0" 
d="M125 0v125h-125zM0 150h125v125h-125v-125zM0 300h125v125h-125v-125zM0 450h125v125zM150 450h125v125h-125v-125zM150 0h125v125h-125v-125zM300 0h125v125h-125v-125zM300 450h125v125h-125v-125zM450 450h125l-125 125v-125zM450 300h125v125h-125v-125zM450 150h125
v125h-125v-125zM450 0l125 125h-125v-125z" />
    <glyph glyph-name="one" unicode="1" horiz-adv-x="450" 
d="M150 0h125v125h-125v-125zM150 150h125v125h-125v-125zM150 300h125v125h-125v-125zM150 450h125l-125 125v-125zM0 450h125v125h-125v-125z" />
    <glyph glyph-name="two" unicode="2" 
d="M125 0v125h-125zM0 150h125v125h-125v-125zM0 300h125v125zM0 450h125v125h-125v-125zM150 450h125v125h-125v-125zM150 300h125v125h-125v-125zM150 0h125v125h-125v-125zM300 0h125v125h-125v-125zM300 300h125v125h-125v-125zM300 450h125v125h-125v-125zM450 450h125
l-125 125v-125zM450 300l125 125h-125v-125zM450 0h125v125h-125v-125z" />
    <glyph glyph-name="three" unicode="3" 
d="M0 450h125v125h-125v-125zM150 450h125v125h-125v-125zM150 150h125v125h-125v-125zM0 -150h125v125h-125v-125zM150 -150h125v125h-125v-125zM300 150h125v125h-125v-125zM300 450h125v125h-125v-125zM450 450h125l-125 125v-125zM450 300l125 125h-125v-125zM450 150
h125l-125 125v-125zM450 0h125v125h-125v-125zM300 -150h125v125h-125v-125zM450 -150l125 125h-125v-125zM300 300h125v125z" />
    <glyph glyph-name="four" unicode="4" 
d="M125 150v125h-125zM0 300h125v125h-125v-125zM0 450h125v125h-125v-125zM150 150h125v125h-125v-125zM300 150h125v125h-125v-125zM450 450h125v125h-125v-125zM450 300h125v125h-125v-125zM450 150h125v125h-125v-125zM450 0h125v125h-125v-125z" />
    <glyph glyph-name="five" unicode="5" 
d="M0 0h125v125h-125v-125zM125 300v125h-125zM0 450h125v125zM150 450h125v125h-125v-125zM150 300h125v125h-125v-125zM150 0h125v125h-125v-125zM300 0h125v125h-125v-125zM300 300h125v125h-125v-125zM300 450h125v125h-125v-125zM450 450h125v125h-125v-125zM450 300
h125l-125 125v-125zM450 150h125v125h-125v-125zM450 0l125 125h-125v-125z" />
    <glyph glyph-name="six" unicode="6" 
d="M125 0v125h-125zM0 150h125v125h-125v-125zM0 300h125v125h-125v-125zM150 300h125v125h-125v-125zM150 0h125v125h-125v-125zM300 0h125v125h-125v-125zM300 300h125v125h-125v-125zM450 300h125l-125 125v-125zM450 150h125v125h-125v-125zM450 0l125 125h-125v-125z
M0 450h125v125h-125v-125z" />
    <glyph glyph-name="seven" unicode="7" 
d="M0 450h125v125h-125v-125zM150 450h125v125h-125v-125zM150 150h125v125h-125v-125zM300 150h125v125h-125v-125zM300 450h125v125h-125v-125zM450 450h125l-125 125v-125zM450 300h125v125h-125v-125zM450 150h125v125h-125v-125zM450 0h125v125h-125v-125z" />
    <glyph glyph-name="eight" unicode="8" 
d="M0 0h125v125h-125v-125zM0 150h125v125zM125 300v125h-125zM0 450h125v125zM150 450h125v125h-125v-125zM150 300h125l-125 125v-125zM150 150l125 125h-125v-125zM125 -150v125h-125zM150 -150h125v125h-125v-125zM425 150v125h-125zM300 300h125v125zM300 450h125v125
h-125v-125zM450 450h125l-125 125v-125zM450 300l125 125h-125v-125zM450 150h125l-125 125v-125zM450 0h125v125h-125v-125zM300 -150h125v125h-125v-125zM450 -150l125 125h-125v-125z" />
    <glyph glyph-name="nine" unicode="9" 
d="M125 150v125h-125zM0 300h125v125h-125v-125zM0 450h125v125zM150 450h125v125h-125v-125zM150 150h125v125h-125v-125zM300 150h125v125h-125v-125zM300 450h125v125h-125v-125zM450 450h125l-125 125v-125zM450 300h125v125h-125v-125zM450 0h125v125h-125v-125z
M450 150h125v125h-125v-125z" />
    <glyph glyph-name="colon" unicode=":" horiz-adv-x="300" 
d="M0 0h125v125h-125v-125zM0 450h125v125h-125v-125z" />
    <glyph glyph-name="semicolon" unicode=";" horiz-adv-x="300" 
d="M0 0h125v125h-125v-125zM0 450h125v125h-125v-125zM0 -150l125 125h-125v-125z" />
    <glyph glyph-name="less" unicode="&#x3c;" horiz-adv-x="600" 
d="M125 150v125h-125zM0 300h125v125zM150 450h125v125zM150 300l125 125h-125v-125zM150 150h125l-125 125v-125zM275 0v125h-125zM300 0h125v125h-125v-125zM300 450h125v125h-125v-125z" />
    <glyph glyph-name="equal" unicode="=" horiz-adv-x="600" 
d="M0 300h125v125h-125v-125zM150 300h125v125h-125v-125zM300 300h125v125h-125v-125zM0 0h125v125h-125v-125zM150 0h125v125h-125v-125zM300 0h125v125h-125v-125z" />
    <glyph glyph-name="greater" unicode="&#x3e;" horiz-adv-x="600" 
d="M0 450h125v125h-125v-125zM0 0h125v125h-125v-125zM150 0l125 125h-125v-125zM150 150h125v125zM275 300v125h-125zM150 450h125l-125 125v-125zM300 300h125l-125 125v-125zM300 150l125 125h-125v-125z" />
    <glyph glyph-name="question" unicode="?" 
d="M150 300h125v125zM150 0h125v125h-125v-125zM300 300h125v125h-125v-125zM450 450h125v125h-125v-125zM450 300l125 125h-125v-125zM0 600h125v125h-125v-125zM150 600h125v125h-125v-125zM300 600h125v125h-125v-125zM450 600h125l-125 125v-125z" />
    <glyph glyph-name="at" unicode="@" horiz-adv-x="900" 
d="M0 0h125v125h-125v-125zM0 150h125v125h-125v-125zM0 300h125v125h-125v-125zM0 450h125v125h-125v-125zM125 -150v125h-125zM150 -150h125v125h-125v-125zM450 150h125v125h-125v-125zM450 300h125v125h-125v-125zM600 150h125v125h-125v-125zM450 -150h125v125h-125
v-125zM600 -150h125v125h-125v-125zM0 600h125v125zM150 600h125v125h-125v-125zM450 600h125v125h-125v-125zM600 600h125v125h-125v-125zM750 450h125v125h-125v-125zM750 300h125v125h-125v-125zM750 150l125 125h-125v-125zM750 -150h125v125h-125v-125zM750 600h125
l-125 125v-125zM300 150h125v125h-125v-125zM300 300h125v125h-125v-125zM300 -150h125v125h-125v-125zM300 600h125v125h-125v-125z" />
    <glyph glyph-name="A" unicode="A" 
d="M0 0h125v125h-125v-125zM0 150h125v125h-125v-125zM0 300h125v125h-125v-125zM0 450h125v125zM150 450h125v125h-125v-125zM150 150h125v125h-125v-125zM300 150h125v125h-125v-125zM300 450h125v125h-125v-125zM450 450h125l-125 125v-125zM450 300h125v125h-125v-125z
M450 150h125v125h-125v-125zM450 0h125v125h-125v-125z" />
    <glyph glyph-name="B" unicode="B" 
d="M125 0v125h-125zM0 150h125v125h-125v-125zM0 300h125v125h-125v-125zM0 450h125v125h-125v-125zM150 450h125v125h-125v-125zM150 0h125v125h-125v-125zM300 0h125v125h-125v-125zM300 450h125v125h-125v-125zM450 450h125l-125 125v-125zM450 300h125v125h-125v-125z
M450 150h125v125h-125v-125zM450 0l125 125h-125v-125zM0 600h125v125h-125v-125z" />
    <glyph glyph-name="C" unicode="C" 
d="M125 0v125h-125zM0 150h125v125h-125v-125zM0 300h125v125h-125v-125zM0 450h125v125zM150 450h125v125h-125v-125zM150 0h125v125h-125v-125zM300 0h125v125h-125v-125zM300 450h125v125h-125v-125zM450 450h125v125h-125v-125zM450 0h125v125h-125v-125z" />
    <glyph glyph-name="D" unicode="D" 
d="M125 0v125h-125zM0 150h125v125h-125v-125zM0 300h125v125h-125v-125zM0 450h125v125zM150 450h125v125h-125v-125zM150 0h125v125h-125v-125zM300 0h125v125h-125v-125zM300 450h125v125h-125v-125zM450 450h125v125h-125v-125zM450 300h125v125h-125v-125zM450 150h125
v125h-125v-125zM450 0l125 125h-125v-125zM450 600h125v125h-125v-125z" />
    <glyph glyph-name="E" unicode="E" 
d="M125 0v125h-125zM0 150h125v125h-125v-125zM0 300h125v125h-125v-125zM0 450h125v125zM150 450h125v125h-125v-125zM150 0h125v125h-125v-125zM300 0h125v125h-125v-125zM300 150h125v125zM300 450h125v125h-125v-125zM450 450h125l-125 125v-125zM450 300h125v125h-125
v-125zM450 150l125 125h-125v-125zM450 0h125v125h-125v-125z" />
    <glyph glyph-name="F" unicode="F" 
d="M0 -150h125v125h-125v-125zM0 0h125v125h-125v-125zM0 300h125v125h-125v-125zM0 450h125v125zM150 450h125v125h-125v-125zM150 0h125v125h-125v-125zM300 0h125v125h-125v-125zM300 450h125v125h-125v-125zM450 450h125v125h-125v-125zM450 0h125v125h-125v-125zM0 150
h125v125h-125v-125z" />
    <glyph glyph-name="G" unicode="G" 
d="M125 150v125h-125zM0 300h125v125h-125v-125zM0 450h125v125zM150 450h125v125h-125v-125zM150 150h125v125h-125v-125zM150 -150h125v125h-125v-125zM300 0h125v125h-125v-125zM300 150h125v125h-125v-125zM300 450h125v125h-125v-125zM450 450h125l-125 125v-125z
M450 300h125v125h-125v-125zM450 150l125 125h-125v-125zM300 -150l125 125h-125v-125z" />
    <glyph glyph-name="H" unicode="H" 
d="M0 0h125v125h-125v-125zM0 150h125v125h-125v-125zM0 300h125v125h-125v-125zM0 450h125v125h-125v-125zM150 450h125v125h-125v-125zM300 450h125v125h-125v-125zM450 450h125l-125 125v-125zM450 300h125v125h-125v-125zM450 150h125v125h-125v-125zM450 0h125v125
h-125v-125zM0 600h125v125h-125v-125z" />
    <glyph glyph-name="I" unicode="I" horiz-adv-x="300" 
d="M0 0h125v125h-125v-125zM0 150h125v125h-125v-125zM0 300h125v125h-125v-125zM0 450h125v125h-125v-125z" />
    <glyph glyph-name="J" unicode="J" horiz-adv-x="450" 
d="M150 450h125v125h-125v-125zM150 300h125v125h-125v-125zM150 150h125v125h-125v-125zM150 0h125v125h-125v-125zM0 -150h125v125h-125v-125zM150 -150l125 125h-125v-125z" />
    <glyph glyph-name="K" unicode="K" 
d="M0 0h125v125h-125v-125zM0 150h125v125h-125v-125zM0 300h125v125h-125v-125zM0 450h125v125h-125v-125zM150 450h125v125zM150 300h125v125h-125v-125zM275 150v125h-125zM300 150h125v125h-125v-125zM300 450h125v125h-125v-125zM450 450h125v125h-125v-125zM450 150
h125l-125 125v-125zM450 0h125v125h-125v-125zM0 600h125v125h-125v-125z" />
    <glyph glyph-name="L" unicode="L" 
d="M125 0v125h-125zM0 150h125v125h-125v-125zM0 300h125v125h-125v-125zM0 450h125v125h-125v-125zM150 0h125v125h-125v-125zM300 0h125v125h-125v-125zM450 0h125v125h-125v-125z" />
    <glyph glyph-name="M" unicode="M" horiz-adv-x="900" 
d="M0 0h125v125h-125v-125zM0 150h125v125h-125v-125zM0 300h125v125h-125v-125zM0 450h125v125zM150 450h125v125h-125v-125zM300 0h125v125h-125v-125zM300 150h125v125h-125v-125zM300 300h125v125h-125v-125zM300 450h125v125h-125v-125zM450 450h125v125h-125v-125z
M600 0h125v125h-125v-125zM600 150h125v125h-125v-125zM600 300h125v125h-125v-125zM600 450h125l-125 125v-125z" />
    <glyph glyph-name="N" unicode="N" 
d="M0 0h125v125h-125v-125zM0 150h125v125h-125v-125zM0 300h125v125h-125v-125zM0 450h125v125zM150 450h125v125h-125v-125zM300 450h125v125h-125v-125zM450 450h125l-125 125v-125zM450 300h125v125h-125v-125zM450 150h125v125h-125v-125zM450 0h125v125h-125v-125z
" />
    <glyph glyph-name="O" unicode="O" 
d="M125 0v125h-125zM0 150h125v125h-125v-125zM0 300h125v125h-125v-125zM0 450h125v125zM150 450h125v125h-125v-125zM150 0h125v125h-125v-125zM300 0h125v125h-125v-125zM300 450h125v125h-125v-125zM450 450h125l-125 125v-125zM450 300h125v125h-125v-125zM450 150h125
v125h-125v-125zM450 0l125 125h-125v-125z" />
    <glyph glyph-name="P" unicode="P" 
d="M0 0h125v125h-125v-125zM0 150h125v125h-125v-125zM0 300h125v125h-125v-125zM0 450h125v125zM150 450h125v125h-125v-125zM150 0h125v125h-125v-125zM0 -150h125v125h-125v-125zM300 0h125v125h-125v-125zM300 450h125v125h-125v-125zM450 450h125l-125 125v-125z
M450 300h125v125h-125v-125zM450 150h125v125h-125v-125zM450 0l125 125h-125v-125z" />
    <glyph glyph-name="Q" unicode="Q" 
d="M125 0v125h-125zM0 150h125v125h-125v-125zM0 300h125v125h-125v-125zM0 450h125v125zM150 450h125v125h-125v-125zM150 0h125v125h-125v-125zM300 0h125v125h-125v-125zM300 450h125v125h-125v-125zM450 450h125l-125 125v-125zM450 300h125v125h-125v-125zM450 150h125
v125h-125v-125zM450 0l125 125h-125v-125zM425 -150v125h-125zM450 -150h125v125h-125v-125z" />
    <glyph glyph-name="R" unicode="R" 
d="M0 0h125v125h-125v-125zM0 150h125v125h-125v-125zM0 300h125v125h-125v-125zM0 450h125v125zM150 450h125v125h-125v-125zM150 150h125v125h-125v-125zM300 0h125v125h-125v-125zM300 150h125v125h-125v-125zM300 450h125v125h-125v-125zM450 450h125l-125 125v-125z
M450 300h125v125h-125v-125zM450 150l125 125h-125v-125zM425 -150v125h-125zM450 -150h125v125h-125v-125z" />
    <glyph glyph-name="S" unicode="S" 
d="M0 0h125v125h-125v-125zM125 300v125h-125zM0 450h125v125zM150 450h125v125h-125v-125zM150 300h125v125h-125v-125zM150 0h125v125h-125v-125zM300 0h125v125h-125v-125zM300 300h125v125h-125v-125zM300 450h125v125h-125v-125zM450 450h125v125h-125v-125zM450 300
h125l-125 125v-125zM450 150h125v125h-125v-125zM450 0l125 125h-125v-125z" />
    <glyph glyph-name="T" unicode="T" 
d="M125 0v125h-125zM0 150h125v125h-125v-125zM0 300h125v125h-125v-125zM0 450h125v125h-125v-125zM150 450h125v125h-125v-125zM150 0h125v125h-125v-125zM300 0h125v125h-125v-125zM300 450h125v125h-125v-125zM450 450h125v125h-125v-125zM450 150h125v125h-125v-125z
M450 0l125 125h-125v-125zM0 600h125v125h-125v-125z" />
    <glyph glyph-name="U" unicode="U" 
d="M125 0v125h-125zM0 150h125v125h-125v-125zM0 300h125v125h-125v-125zM0 450h125v125h-125v-125zM150 0h125v125h-125v-125zM300 0h125v125h-125v-125zM450 450h125v125h-125v-125zM450 300h125v125h-125v-125zM450 150h125v125h-125v-125zM450 0l125 125h-125v-125z" />
    <glyph glyph-name="V" unicode="V" 
d="M125 0v125h-125zM0 150h125v125h-125v-125zM0 300h125v125h-125v-125zM0 450h125v125h-125v-125zM150 0h125v125h-125v-125zM300 0l125 125h-125v-125zM300 150h125v125zM450 450h125v125h-125v-125zM450 300h125v125h-125v-125zM450 150l125 125h-125v-125z" />
    <glyph glyph-name="W" unicode="W" horiz-adv-x="900" 
d="M125 0v125h-125zM0 150h125v125h-125v-125zM0 300h125v125h-125v-125zM0 450h125v125h-125v-125zM150 0l125 125h-125v-125zM300 150h125v125h-125v-125zM300 300h125v125h-125v-125zM300 450h125v125h-125v-125zM575 0v125h-125zM600 450h125v125h-125v-125zM600 300
h125v125h-125v-125zM600 150h125v125h-125v-125zM600 0l125 125h-125v-125zM150 150h125v125zM450 150h125l-125 125v-125z" />
    <glyph glyph-name="X" unicode="X" 
d="M0 0h125v125h-125v-125zM0 150h125v125zM125 300v125h-125zM0 450h125v125h-125v-125zM150 300h125l-125 125v-125zM150 150l125 125h-125v-125zM425 150v125h-125zM300 300h125v125zM450 450h125v125h-125v-125zM450 300l125 125h-125v-125zM450 150h125l-125 125v-125z
M450 0h125v125h-125v-125z" />
    <glyph glyph-name="Y" unicode="Y" 
d="M125 150v125h-125zM0 300h125v125h-125v-125zM0 450h125v125h-125v-125zM150 150h125v125h-125v-125zM300 150h125v125h-125v-125zM450 450h125v125h-125v-125zM450 300h125v125h-125v-125zM450 150l125 125h-125v-125zM300 0h125v125h-125v-125zM150 -150h125v125h-125
v-125zM300 -150l125 125h-125v-125z" />
    <glyph glyph-name="Z" unicode="Z" 
d="M125 0v125h-125zM0 150h125v125h-125v-125zM0 300h125v125zM0 450h125v125h-125v-125zM150 450h125v125h-125v-125zM150 300h125v125h-125v-125zM150 0h125v125h-125v-125zM300 0h125v125h-125v-125zM300 300h125v125h-125v-125zM300 450h125v125h-125v-125zM450 450h125
l-125 125v-125zM450 300l125 125h-125v-125zM450 0h125v125h-125v-125z" />
    <glyph glyph-name="bracketleft" unicode="[" horiz-adv-x="450" 
d="M0 0h125v125h-125v-125zM0 150h125v125h-125v-125zM0 300h125v125h-125v-125zM0 450h125v125h-125v-125zM0 -150h125v125h-125v-125zM150 -150h125v125h-125v-125zM0 600h125v125h-125v-125zM150 600h125v125h-125v-125z" />
    <glyph glyph-name="backslash" unicode="\" horiz-adv-x="600" 
d="M125 450v125h-125zM150 450h125l-125 125v-125zM150 300h125v125h-125v-125zM150 150h125v125h-125v-125zM275 0v125h-125zM300 0h125l-125 125v-125zM300 -150h125v125h-125v-125zM0 600h125v125h-125v-125z" />
    <glyph glyph-name="bracketright" unicode="]" horiz-adv-x="450" 
d="M150 450h125v125h-125v-125zM150 300h125v125h-125v-125zM150 150h125v125h-125v-125zM150 0h125v125h-125v-125zM0 -150h125v125h-125v-125zM150 -150h125v125h-125v-125zM0 600h125v125h-125v-125zM150 600h125v125h-125v-125z" />
    <glyph glyph-name="asciicircum" unicode="^" horiz-adv-x="425" 
d="M0 300l125 125h-125v-125zM275 300v125h-125zM0 450h125v125zM150 450h125l-125 125v-125z" />
    <glyph glyph-name="underscore" unicode="_" horiz-adv-x="600" 
d="M0 0h125v125h-125v-125zM150 0h125v125h-125v-125zM300 0h125v125h-125v-125z" />
    <glyph glyph-name="grave" unicode="`" horiz-adv-x="300" 
d="M125 450v125h-125zM0 600h125v125h-125v-125z" />
    <glyph glyph-name="a" unicode="a" 
d="M125 0v125h-125zM0 150h125v125h-125v-125zM0 300h125v125h-125v-125zM0 450h125v125zM150 450h125v125h-125v-125zM150 0h125v125h-125v-125zM300 0l125 125h-125v-125zM300 450h125v125h-125v-125zM450 450h125l-125 125v-125zM450 300h125v125h-125v-125zM450 150h125
v125h-125v-125zM450 0h125v125h-125v-125z" />
    <glyph glyph-name="b" unicode="b" 
d="M125 0v125h-125zM0 150h125v125h-125v-125zM0 300h125v125h-125v-125zM0 450h125v125h-125v-125zM150 450h125v125h-125v-125zM150 0h125v125h-125v-125zM300 0h125v125h-125v-125zM300 450h125v125h-125v-125zM450 450h125l-125 125v-125zM450 300h125v125h-125v-125z
M450 150h125v125h-125v-125zM450 0l125 125h-125v-125zM0 600h125v125h-125v-125z" />
    <glyph glyph-name="c" unicode="c" 
d="M125 0v125h-125zM0 150h125v125h-125v-125zM0 300h125v125h-125v-125zM0 450h125v125zM150 450h125v125h-125v-125zM150 0h125v125h-125v-125zM300 0h125v125h-125v-125zM300 450h125v125h-125v-125zM450 450h125v125h-125v-125zM450 0h125v125h-125v-125z" />
    <glyph glyph-name="d" unicode="d" 
d="M125 0v125h-125zM0 150h125v125h-125v-125zM0 300h125v125h-125v-125zM0 450h125v125zM150 450h125v125h-125v-125zM150 0h125v125h-125v-125zM300 0h125v125h-125v-125zM300 450h125v125h-125v-125zM450 450h125v125h-125v-125zM450 300h125v125h-125v-125zM450 150h125
v125h-125v-125zM450 0l125 125h-125v-125zM450 600h125v125h-125v-125z" />
    <glyph glyph-name="e" unicode="e" 
d="M125 0v125h-125zM0 150h125v125h-125v-125zM0 300h125v125h-125v-125zM0 450h125v125zM150 450h125v125h-125v-125zM150 0h125v125h-125v-125zM300 0h125v125h-125v-125zM300 150h125v125zM300 450h125v125h-125v-125zM450 450h125l-125 125v-125zM450 300h125v125h-125
v-125zM450 150l125 125h-125v-125zM450 0h125v125h-125v-125z" />
    <glyph glyph-name="f" unicode="f" 
d="M0 0h125v125h-125v-125zM0 150h125v125h-125v-125zM0 300h125v125h-125v-125zM0 450h125v125zM150 450h125v125h-125v-125zM150 150h125v125h-125v-125zM300 150h125v125h-125v-125zM300 450h125v125h-125v-125zM450 450h125v125h-125v-125zM450 150h125v125h-125v-125z
" />
    <glyph glyph-name="g" unicode="g" 
d="M125 150v125h-125zM0 300h125v125h-125v-125zM0 450h125v125zM150 450h125v125h-125v-125zM150 150h125v125h-125v-125zM150 -150h125v125h-125v-125zM300 0h125v125h-125v-125zM300 150h125v125h-125v-125zM300 450h125v125h-125v-125zM450 450h125l-125 125v-125z
M450 300h125v125h-125v-125zM450 150l125 125h-125v-125zM300 -150l125 125h-125v-125z" />
    <glyph glyph-name="h" unicode="h" 
d="M0 0h125v125h-125v-125zM0 150h125v125h-125v-125zM0 300h125v125h-125v-125zM0 450h125v125h-125v-125zM150 150h125v125h-125v-125zM300 150h125v125h-125v-125zM450 300h125v125h-125v-125zM450 150h125v125h-125v-125zM450 0h125v125h-125v-125zM450 450h125v125
h-125v-125z" />
    <glyph glyph-name="i" unicode="i" horiz-adv-x="300" 
d="M0 0h125v125h-125v-125zM0 150h125v125h-125v-125zM0 300h125v125h-125v-125zM0 450h125v125h-125v-125z" />
    <glyph glyph-name="j" unicode="j" 
d="M125 0v125h-125zM0 150h125v125h-125v-125zM150 0h125v125h-125v-125zM300 0h125v125h-125v-125zM450 450h125v125h-125v-125zM450 300h125v125h-125v-125zM450 150h125v125h-125v-125zM450 0l125 125h-125v-125z" />
    <glyph glyph-name="k" unicode="k" 
d="M0 0h125v125h-125v-125zM0 150h125v125h-125v-125zM0 300h125v125h-125v-125zM0 450h125v125h-125v-125zM150 450h125v125zM150 300h125v125h-125v-125zM275 150v125h-125zM300 150h125v125h-125v-125zM300 450h125v125h-125v-125zM450 450h125v125h-125v-125zM450 150
h125l-125 125v-125zM450 0h125v125h-125v-125zM0 600h125v125h-125v-125z" />
    <glyph glyph-name="l" unicode="l" 
d="M125 0v125h-125zM0 150h125v125h-125v-125zM0 300h125v125h-125v-125zM0 450h125v125h-125v-125zM150 0h125v125h-125v-125zM300 0h125v125h-125v-125zM450 0h125v125h-125v-125z" />
    <glyph glyph-name="m" unicode="m" horiz-adv-x="900" 
d="M0 0h125v125h-125v-125zM0 150h125v125h-125v-125zM0 300h125v125h-125v-125zM0 450h125v125zM150 450h125v125h-125v-125zM300 0h125v125h-125v-125zM300 150h125v125h-125v-125zM300 300h125v125h-125v-125zM300 450h125v125h-125v-125zM450 450h125v125h-125v-125z
M600 0h125v125h-125v-125zM600 150h125v125h-125v-125zM600 300h125v125h-125v-125zM600 450h125l-125 125v-125z" />
    <glyph glyph-name="n" unicode="n" 
d="M0 0h125v125h-125v-125zM0 150h125v125h-125v-125zM0 300h125v125h-125v-125zM0 450h125v125zM150 450h125v125h-125v-125zM300 450h125v125h-125v-125zM450 450h125l-125 125v-125zM450 300h125v125h-125v-125zM450 150h125v125h-125v-125zM450 0h125v125h-125v-125z
" />
    <glyph glyph-name="o" unicode="o" 
d="M125 0v125h-125zM0 150h125v125h-125v-125zM0 300h125v125h-125v-125zM0 450h125v125zM150 450h125v125h-125v-125zM150 0h125v125h-125v-125zM300 0h125v125h-125v-125zM300 450h125v125h-125v-125zM450 450h125l-125 125v-125zM450 300h125v125h-125v-125zM450 150h125
v125h-125v-125zM450 0l125 125h-125v-125z" />
    <glyph glyph-name="p" unicode="p" 
d="M0 0h125v125h-125v-125zM0 150h125v125h-125v-125zM0 300h125v125h-125v-125zM0 450h125v125zM150 450h125v125h-125v-125zM150 0h125v125h-125v-125zM0 -150h125v125h-125v-125zM300 0h125v125h-125v-125zM300 450h125v125h-125v-125zM450 450h125l-125 125v-125z
M450 300h125v125h-125v-125zM450 150h125v125h-125v-125zM450 0l125 125h-125v-125z" />
    <glyph glyph-name="q" unicode="q" 
d="M125 0v125h-125zM0 150h125v125h-125v-125zM0 300h125v125h-125v-125zM0 450h125v125zM150 450h125v125h-125v-125zM150 0h125v125h-125v-125zM300 0h125v125h-125v-125zM300 450h125v125h-125v-125zM450 450h125l-125 125v-125zM450 300h125v125h-125v-125zM450 150h125
v125h-125v-125zM450 -150h125v125h-125v-125zM450 0h125v125h-125v-125z" />
    <glyph glyph-name="r" unicode="r" 
d="M0 0h125v125h-125v-125zM0 150h125v125h-125v-125zM0 300h125v125h-125v-125zM0 450h125v125zM150 450h125v125h-125v-125zM300 450h125v125h-125v-125zM450 450h125l-125 125v-125zM450 300h125v125h-125v-125z" />
    <glyph glyph-name="s" unicode="s" 
d="M0 0h125v125h-125v-125zM125 300v125h-125zM0 450h125v125zM150 450h125v125h-125v-125zM150 300h125v125h-125v-125zM150 0h125v125h-125v-125zM300 0h125v125h-125v-125zM300 300h125v125h-125v-125zM300 450h125v125h-125v-125zM450 450h125v125h-125v-125zM450 300
h125l-125 125v-125zM450 150h125v125h-125v-125zM450 0l125 125h-125v-125z" />
    <glyph glyph-name="t" unicode="t" 
d="M125 0v125h-125zM0 150h125v125h-125v-125zM0 300h125v125h-125v-125zM0 450h125v125h-125v-125zM150 450h125v125h-125v-125zM150 0h125v125h-125v-125zM300 0h125v125h-125v-125zM300 450h125v125h-125v-125zM450 450h125v125h-125v-125zM450 150h125v125h-125v-125z
M450 0l125 125h-125v-125zM0 600h125v125h-125v-125z" />
    <glyph glyph-name="u" unicode="u" 
d="M125 0v125h-125zM0 150h125v125h-125v-125zM0 300h125v125h-125v-125zM0 450h125v125h-125v-125zM150 0h125v125h-125v-125zM300 0h125v125h-125v-125zM450 450h125v125h-125v-125zM450 300h125v125h-125v-125zM450 150h125v125h-125v-125zM450 0l125 125h-125v-125z" />
    <glyph glyph-name="v" unicode="v" 
d="M125 0v125h-125zM0 150h125v125h-125v-125zM0 300h125v125h-125v-125zM0 450h125v125h-125v-125zM150 0h125v125h-125v-125zM300 0l125 125h-125v-125zM300 150h125v125zM450 450h125v125h-125v-125zM450 300h125v125h-125v-125zM450 150l125 125h-125v-125z" />
    <glyph glyph-name="w" unicode="w" horiz-adv-x="900" 
d="M125 0v125h-125zM0 150h125v125h-125v-125zM0 300h125v125h-125v-125zM0 450h125v125h-125v-125zM150 0l125 125h-125v-125zM300 150h125v125h-125v-125zM300 300h125v125h-125v-125zM300 450h125v125h-125v-125zM575 0v125h-125zM600 450h125v125h-125v-125zM600 300
h125v125h-125v-125zM600 150h125v125h-125v-125zM600 0l125 125h-125v-125zM150 150h125v125zM450 150h125l-125 125v-125z" />
    <glyph glyph-name="x" unicode="x" 
d="M0 0h125v125h-125v-125zM0 150h125v125zM125 300v125h-125zM0 450h125v125h-125v-125zM150 300h125l-125 125v-125zM150 150l125 125h-125v-125zM425 150v125h-125zM300 300h125v125zM450 450h125v125h-125v-125zM450 300l125 125h-125v-125zM450 150h125l-125 125v-125z
M450 0h125v125h-125v-125z" />
    <glyph glyph-name="y" unicode="y" 
d="M125 150v125h-125zM0 300h125v125h-125v-125zM0 450h125v125h-125v-125zM150 150h125v125h-125v-125zM300 150h125v125h-125v-125zM450 450h125v125h-125v-125zM450 300h125v125h-125v-125zM450 150l125 125h-125v-125zM300 0h125v125h-125v-125zM150 -150h125v125h-125
v-125zM300 -150l125 125h-125v-125z" />
    <glyph glyph-name="z" unicode="z" 
d="M125 0v125h-125zM0 150h125v125h-125v-125zM0 300h125v125zM0 450h125v125h-125v-125zM150 450h125v125h-125v-125zM150 300h125v125h-125v-125zM150 0h125v125h-125v-125zM300 0h125v125h-125v-125zM300 300h125v125h-125v-125zM300 450h125v125h-125v-125zM450 450h125
l-125 125v-125zM450 300l125 125h-125v-125zM450 0h125v125h-125v-125z" />
    <glyph glyph-name="braceleft" unicode="{" horiz-adv-x="450" 
d="M125 150v125h-125zM0 300h125v125zM150 450h125v125h-125v-125zM150 300l125 125h-125v-125zM150 150h125l-125 125v-125zM150 0h125v125h-125v-125zM275 -150v125h-125zM300 -150h125v125h-125v-125zM150 600h125v125zM300 600h125v125h-125v-125z" />
    <glyph glyph-name="bar" unicode="|" horiz-adv-x="300" 
d="M0 0h125v125h-125v-125zM0 150h125v125h-125v-125zM0 300h125v125h-125v-125zM0 450h125v125h-125v-125zM0 600h125v125h-125v-125zM0 -150h125v125h-125v-125z" />
    <glyph glyph-name="braceright" unicode="}" horiz-adv-x="450" 
d="M150 450h125v125h-125v-125zM275 300v125h-125zM150 150h125v125zM150 0h125v125h-125v-125zM0 -150h125v125h-125v-125zM150 -150l125 125h-125v-125zM300 150l125 125h-125v-125zM300 300h125l-125 125v-125zM0 600h125v125h-125v-125zM150 600h125l-125 125v-125z" />
    <glyph glyph-name="asciitilde" unicode="~" 
d="M150 300l125 125h-125v-125zM425 300v125h-125zM450 300l125 125h-125v-125zM150 450h125v125zM300 450h125l-125 125v-125zM450 450h125v125zM0 300h125v125z" />
    <glyph glyph-name="exclamdown" unicode="&#xa1;" horiz-adv-x="300" 
d="M0 0h125v125h-125v-125zM0 150h125v125h-125v-125zM0 300h125v125h-125v-125zM0 600h125v125h-125v-125z" />
    <glyph glyph-name="acute" unicode="&#xb4;" horiz-adv-x="300" 
d="M0 450l125 125h-125v-125zM0 600h125v125h-125v-125z" />
    <glyph glyph-name="questiondown" unicode="&#xbf;" 
d="M150 450h125v125h-125v-125zM275 150v125h-125zM0 -150h125v125h-125v-125zM150 -150h125v125h-125v-125zM300 150h125v125h-125v-125zM450 150h125l-125 125v-125zM450 0h125v125h-125v-125zM300 -150h125v125h-125v-125zM450 -150l125 125h-125v-125z" />
    <glyph glyph-name="Agrave" unicode="&#xc0;" 
d="M0 150h125v125h-125v-125zM0 300h125v125h-125v-125zM0 450h125v125zM275 600v125h-125zM150 450h125v125h-125v-125zM150 150h125v125h-125v-125zM0 0h125v125h-125v-125zM300 150h125v125h-125v-125zM300 450h125v125h-125v-125zM450 450h125l-125 125v-125zM450 300
h125v125h-125v-125zM450 150h125v125h-125v-125zM450 0h125v125h-125v-125zM150 750h125v125h-125v-125z" />
    <glyph glyph-name="Aacute" unicode="&#xc1;" 
d="M0 150h125v125h-125v-125zM0 300h125v125h-125v-125zM0 450h125v125zM150 450h125v125h-125v-125zM150 150h125v125h-125v-125zM0 0h125v125h-125v-125zM300 150h125v125h-125v-125zM300 450h125v125h-125v-125zM300 600l125 125h-125v-125zM450 450h125l-125 125v-125z
M450 300h125v125h-125v-125zM450 150h125v125h-125v-125zM450 0h125v125h-125v-125zM300 750h125v125h-125v-125z" />
    <glyph glyph-name="Acircumflex" unicode="&#xc2;" 
d="M0 150h125v125h-125v-125zM0 300h125v125h-125v-125zM0 450h125v125zM150 600l125 125h-125v-125zM150 450h125v125h-125v-125zM150 150h125v125h-125v-125zM0 0h125v125h-125v-125zM300 150h125v125h-125v-125zM300 450h125v125h-125v-125zM425 600v125h-125zM450 450
h125l-125 125v-125zM450 300h125v125h-125v-125zM450 150h125v125h-125v-125zM450 0h125v125h-125v-125zM150 750h125v125zM300 750h125l-125 125v-125z" />
    <glyph glyph-name="Atilde" unicode="&#xc3;" 
d="M0 150h125v125h-125v-125zM0 300h125v125h-125v-125zM0 450h125v125zM150 600l125 125h-125v-125zM425 600v125h-125zM150 450h125v125h-125v-125zM150 150h125v125h-125v-125zM0 0h125v125h-125v-125zM300 150h125v125h-125v-125zM300 450h125v125h-125v-125zM450 600
l125 125h-125v-125zM450 450h125l-125 125v-125zM450 300h125v125h-125v-125zM450 150h125v125h-125v-125zM450 0h125v125h-125v-125zM150 750h125v125zM300 750h125l-125 125v-125zM450 750h125v125zM0 600h125v125z" />
    <glyph glyph-name="Adieresis" unicode="&#xc4;" 
d="M0 150h125v125h-125v-125zM0 300h125v125h-125v-125zM0 450h125v125zM0 600h125v125h-125v-125zM150 450h125v125h-125v-125zM150 150h125v125h-125v-125zM0 0h125v125h-125v-125zM300 150h125v125h-125v-125zM300 450h125v125h-125v-125zM450 600h125v125h-125v-125z
M450 450h125l-125 125v-125zM450 300h125v125h-125v-125zM450 150h125v125h-125v-125zM450 0h125v125h-125v-125z" />
    <glyph glyph-name="Aring" unicode="&#xc5;" 
d="M0 150h125v125h-125v-125zM0 300h125v125h-125v-125zM0 450h125v125zM275 600v125h-125zM150 450h125v125h-125v-125zM150 150h125v125h-125v-125zM0 0h125v125h-125v-125zM300 150h125v125h-125v-125zM300 450h125v125h-125v-125zM300 600l125 125h-125v-125zM450 450
h125l-125 125v-125zM450 300h125v125h-125v-125zM450 150h125v125h-125v-125zM450 0h125v125h-125v-125zM150 750h125v125zM300 750h125l-125 125v-125z" />
    <glyph glyph-name="AE" unicode="&#xc6;" horiz-adv-x="900" 
d="M0 0h125v125h-125v-125zM0 150h125v125h-125v-125zM0 300h125v125h-125v-125zM0 450h125v125zM150 450h125v125h-125v-125zM150 150h125v125h-125v-125zM425 0v125h-125zM300 150h125v125h-125v-125zM300 300h125v125h-125v-125zM300 450h125v125h-125v-125zM450 450h125
v125h-125v-125zM450 150h125v125zM450 0h125v125h-125v-125zM600 450h125l-125 125v-125zM600 300h125v125h-125v-125zM600 150l125 125h-125v-125zM600 0h125v125h-125v-125z" />
    <glyph glyph-name="Ccedilla" unicode="&#xc7;" 
d="M125 150v125h-125zM0 300h125v125h-125v-125zM0 450h125v125zM150 450h125v125h-125v-125zM150 150h125v125h-125v-125zM150 -150h125v125h-125v-125zM300 0h125v125h-125v-125zM300 150h125v125h-125v-125zM300 450h125v125h-125v-125zM450 450h125v125h-125v-125z
M450 150h125v125h-125v-125zM300 -150l125 125h-125v-125z" />
    <glyph glyph-name="Egrave" unicode="&#xc8;" 
d="M275 600v125h-125zM150 750h125v125h-125v-125zM125 0v125h-125zM0 150h125v125h-125v-125zM0 300h125v125h-125v-125zM0 450h125v125zM150 450h125v125h-125v-125zM150 0h125v125h-125v-125zM300 0h125v125h-125v-125zM300 150h125v125zM300 450h125v125h-125v-125z
M450 450h125l-125 125v-125zM450 300h125v125h-125v-125zM450 150l125 125h-125v-125zM450 0h125v125h-125v-125z" />
    <glyph glyph-name="Eacute" unicode="&#xc9;" 
d="M300 600l125 125h-125v-125zM300 750h125v125h-125v-125zM125 0v125h-125zM0 150h125v125h-125v-125zM0 300h125v125h-125v-125zM0 450h125v125zM150 450h125v125h-125v-125zM150 0h125v125h-125v-125zM300 0h125v125h-125v-125zM300 150h125v125zM300 450h125v125h-125
v-125zM450 450h125l-125 125v-125zM450 300h125v125h-125v-125zM450 150l125 125h-125v-125zM450 0h125v125h-125v-125z" />
    <glyph glyph-name="Ecircumflex" unicode="&#xca;" 
d="M150 600l125 125h-125v-125zM425 600v125h-125zM150 750h125v125zM300 750h125l-125 125v-125zM125 0v125h-125zM0 150h125v125h-125v-125zM0 300h125v125h-125v-125zM0 450h125v125zM150 450h125v125h-125v-125zM150 0h125v125h-125v-125zM300 0h125v125h-125v-125z
M300 150h125v125zM300 450h125v125h-125v-125zM450 450h125l-125 125v-125zM450 300h125v125h-125v-125zM450 150l125 125h-125v-125zM450 0h125v125h-125v-125z" />
    <glyph glyph-name="Edieresis" unicode="&#xcb;" 
d="M0 600h125v125h-125v-125zM450 600h125v125h-125v-125zM125 0v125h-125zM0 150h125v125h-125v-125zM0 300h125v125h-125v-125zM0 450h125v125zM150 450h125v125h-125v-125zM150 0h125v125h-125v-125zM300 0h125v125h-125v-125zM300 150h125v125zM300 450h125v125h-125
v-125zM450 450h125l-125 125v-125zM450 300h125v125h-125v-125zM450 150l125 125h-125v-125zM450 0h125v125h-125v-125z" />
    <glyph glyph-name="Igrave" unicode="&#xcc;" horiz-adv-x="300" 
d="M125 600v125h-125zM0 750h125v125h-125v-125zM0 0h125v125h-125v-125zM0 150h125v125h-125v-125zM0 300h125v125h-125v-125zM0 450h125v125h-125v-125z" />
    <glyph glyph-name="Iacute" unicode="&#xcd;" horiz-adv-x="300" 
d="M0 600l125 125h-125v-125zM0 750h125v125h-125v-125zM0 0h125v125h-125v-125zM0 150h125v125h-125v-125zM0 300h125v125h-125v-125zM0 450h125v125h-125v-125z" />
    <glyph glyph-name="Icircumflex" unicode="&#xce;" horiz-adv-x="450" 
d="M0 600l125 125h-125v-125zM275 600v125h-125zM0 750h125v125zM150 750h125l-125 125v-125zM75 0h125v125h-125v-125zM75 150h125v125h-125v-125zM75 300h125v125h-125v-125zM75 450h125v125h-125v-125z" />
    <glyph glyph-name="Idieresis" unicode="&#xcf;" horiz-adv-x="600" 
d="M0 600h125v125h-125v-125zM300 600h125v125h-125v-125zM150 0h125v125h-125v-125zM150 150h125v125h-125v-125zM150 300h125v125h-125v-125zM150 450h125v125h-125v-125z" />
    <glyph glyph-name="Ntilde" unicode="&#xd1;" 
d="M150 600l125 125h-125v-125zM425 600v125h-125zM450 600l125 125h-125v-125zM150 750h125v125zM300 750h125l-125 125v-125zM450 750h125v125zM0 600h125v125zM0 0h125v125h-125v-125zM0 150h125v125h-125v-125zM0 300h125v125h-125v-125zM0 450h125v125zM150 450h125
v125h-125v-125zM300 450h125v125h-125v-125zM450 450h125l-125 125v-125zM450 300h125v125h-125v-125zM450 150h125v125h-125v-125zM450 0h125v125h-125v-125z" />
    <glyph glyph-name="Ograve" unicode="&#xd2;" 
d="M275 600v125h-125zM150 750h125v125h-125v-125zM125 0v125h-125zM0 150h125v125h-125v-125zM0 300h125v125h-125v-125zM0 450h125v125zM150 450h125v125h-125v-125zM150 0h125v125h-125v-125zM300 0h125v125h-125v-125zM300 450h125v125h-125v-125zM450 450h125l-125 125
v-125zM450 300h125v125h-125v-125zM450 150h125v125h-125v-125zM450 0l125 125h-125v-125z" />
    <glyph glyph-name="Oacute" unicode="&#xd3;" 
d="M300 600l125 125h-125v-125zM300 750h125v125h-125v-125zM125 0v125h-125zM0 150h125v125h-125v-125zM0 300h125v125h-125v-125zM0 450h125v125zM150 450h125v125h-125v-125zM150 0h125v125h-125v-125zM300 0h125v125h-125v-125zM300 450h125v125h-125v-125zM450 450h125
l-125 125v-125zM450 300h125v125h-125v-125zM450 150h125v125h-125v-125zM450 0l125 125h-125v-125z" />
    <glyph glyph-name="Ocircumflex" unicode="&#xd4;" 
d="M150 600l125 125h-125v-125zM425 600v125h-125zM150 750h125v125zM300 750h125l-125 125v-125zM125 0v125h-125zM0 150h125v125h-125v-125zM0 300h125v125h-125v-125zM0 450h125v125zM150 450h125v125h-125v-125zM150 0h125v125h-125v-125zM300 0h125v125h-125v-125z
M300 450h125v125h-125v-125zM450 450h125l-125 125v-125zM450 300h125v125h-125v-125zM450 150h125v125h-125v-125zM450 0l125 125h-125v-125z" />
    <glyph glyph-name="Otilde" unicode="&#xd5;" 
d="M150 600l125 125h-125v-125zM425 600v125h-125zM450 600l125 125h-125v-125zM150 750h125v125zM300 750h125l-125 125v-125zM450 750h125v125zM0 600h125v125zM125 0v125h-125zM0 150h125v125h-125v-125zM0 300h125v125h-125v-125zM0 450h125v125zM150 450h125v125h-125
v-125zM150 0h125v125h-125v-125zM300 0h125v125h-125v-125zM300 450h125v125h-125v-125zM450 450h125l-125 125v-125zM450 300h125v125h-125v-125zM450 150h125v125h-125v-125zM450 0l125 125h-125v-125z" />
    <glyph glyph-name="Odieresis" unicode="&#xd6;" 
d="M0 600h125v125h-125v-125zM450 600h125v125h-125v-125zM125 0v125h-125zM0 150h125v125h-125v-125zM0 300h125v125h-125v-125zM0 450h125v125zM150 450h125v125h-125v-125zM150 0h125v125h-125v-125zM300 0h125v125h-125v-125zM300 450h125v125h-125v-125zM450 450h125
l-125 125v-125zM450 300h125v125h-125v-125zM450 150h125v125h-125v-125zM450 0l125 125h-125v-125z" />
    <glyph glyph-name="Oslash" unicode="&#xd8;" 
d="M125 0v125h-125zM0 150h125v125h-125v-125zM0 300h125v125h-125v-125zM0 450h125v125zM150 450h125v125h-125v-125zM150 300h125v125zM150 150h125v125h-125v-125zM150 0h125v125h-125v-125zM300 0h125v125h-125v-125zM300 150l125 125h-125v-125zM300 300h125v125h-125
v-125zM300 450h125v125h-125v-125zM450 450h125l-125 125v-125zM450 300h125v125h-125v-125zM450 150h125v125h-125v-125zM450 0l125 125h-125v-125z" />
    <glyph glyph-name="Ugrave" unicode="&#xd9;" 
d="M275 600v125h-125zM150 750h125v125h-125v-125zM125 0v125h-125zM0 150h125v125h-125v-125zM0 300h125v125h-125v-125zM0 450h125v125h-125v-125zM150 0h125v125h-125v-125zM300 0h125v125h-125v-125zM450 450h125v125h-125v-125zM450 300h125v125h-125v-125zM450 150
h125v125h-125v-125zM450 0l125 125h-125v-125z" />
    <glyph glyph-name="Uacute" unicode="&#xda;" 
d="M300 600l125 125h-125v-125zM300 750h125v125h-125v-125zM125 0v125h-125zM0 150h125v125h-125v-125zM0 300h125v125h-125v-125zM0 450h125v125h-125v-125zM150 0h125v125h-125v-125zM300 0h125v125h-125v-125zM450 450h125v125h-125v-125zM450 300h125v125h-125v-125z
M450 150h125v125h-125v-125zM450 0l125 125h-125v-125z" />
    <glyph glyph-name="Ucircumflex" unicode="&#xdb;" 
d="M150 600l125 125h-125v-125zM425 600v125h-125zM150 750h125v125zM300 750h125l-125 125v-125zM125 0v125h-125zM0 150h125v125h-125v-125zM0 300h125v125h-125v-125zM0 450h125v125h-125v-125zM150 0h125v125h-125v-125zM300 0h125v125h-125v-125zM450 450h125v125h-125
v-125zM450 300h125v125h-125v-125zM450 150h125v125h-125v-125zM450 0l125 125h-125v-125z" />
    <glyph glyph-name="Udieresis" unicode="&#xdc;" 
d="M0 600h125v125h-125v-125zM450 600h125v125h-125v-125zM125 0v125h-125zM0 150h125v125h-125v-125zM0 300h125v125h-125v-125zM150 0h125v125h-125v-125zM300 0h125v125h-125v-125zM450 300h125v125h-125v-125zM450 150h125v125h-125v-125zM450 0l125 125h-125v-125z" />
    <glyph glyph-name="Yacute" unicode="&#xdd;" 
d="M300 600l125 125h-125v-125zM300 750h125v125h-125v-125zM125 150v125h-125zM0 300h125v125h-125v-125zM0 450h125v125h-125v-125zM150 150h125v125h-125v-125zM300 150h125v125h-125v-125zM450 450h125v125h-125v-125zM450 300h125v125h-125v-125zM450 150l125 125h-125
v-125zM300 0h125v125h-125v-125zM150 -150h125v125h-125v-125zM300 -150l125 125h-125v-125z" />
    <glyph glyph-name="Thorn" unicode="&#xde;" 
d="M0 0h125v125h-125v-125zM0 150h125v125h-125v-125zM0 300h125v125h-125v-125zM0 450h125v125h-125v-125zM150 450h125v125h-125v-125zM150 0h125v125h-125v-125zM0 -150h125v125h-125v-125zM300 0h125v125h-125v-125zM300 450h125v125h-125v-125zM450 450h125l-125 125
v-125zM450 300h125v125h-125v-125zM450 150h125v125h-125v-125zM450 0l125 125h-125v-125zM0 600h125v125h-125v-125z" />
    <glyph glyph-name="germandbls" unicode="&#xdf;" 
d="M0 0h125v125h-125v-125zM0 150h125v125h-125v-125zM0 300h125v125h-125v-125zM0 450h125v125h-125v-125zM150 300h125v125zM275 150v125h-125zM150 0h125v125h-125v-125zM300 0h125v125h-125v-125zM300 150h125v125h-125v-125zM300 450h125v125h-125v-125zM300 300
l125 125h-125v-125zM450 150h125l-125 125v-125zM450 0l125 125h-125v-125zM0 600h125v125zM150 600h125v125h-125v-125zM300 600h125l-125 125v-125z" />
    <glyph glyph-name="agrave" unicode="&#xe0;" 
d="M275 600v125h-125zM150 750h125v125h-125v-125zM125 0v125h-125zM0 150h125v125h-125v-125zM0 300h125v125h-125v-125zM0 450h125v125zM150 450h125v125h-125v-125zM150 0h125v125h-125v-125zM300 0l125 125h-125v-125zM300 450h125v125h-125v-125zM450 450h125l-125 125
v-125zM450 300h125v125h-125v-125zM450 150h125v125h-125v-125zM450 0h125v125h-125v-125z" />
    <glyph glyph-name="aacute" unicode="&#xe1;" 
d="M300 600l125 125h-125v-125zM300 750h125v125h-125v-125zM125 0v125h-125zM0 150h125v125h-125v-125zM0 300h125v125h-125v-125zM0 450h125v125zM150 450h125v125h-125v-125zM150 0h125v125h-125v-125zM300 0l125 125h-125v-125zM300 450h125v125h-125v-125zM450 450h125
l-125 125v-125zM450 300h125v125h-125v-125zM450 150h125v125h-125v-125zM450 0h125v125h-125v-125z" />
    <glyph glyph-name="acircumflex" unicode="&#xe2;" 
d="M150 600l125 125h-125v-125zM425 600v125h-125zM150 750h125v125zM300 750h125l-125 125v-125zM125 0v125h-125zM0 150h125v125h-125v-125zM0 300h125v125h-125v-125zM0 450h125v125zM150 450h125v125h-125v-125zM150 0h125v125h-125v-125zM300 0l125 125h-125v-125z
M300 450h125v125h-125v-125zM450 450h125l-125 125v-125zM450 300h125v125h-125v-125zM450 150h125v125h-125v-125zM450 0h125v125h-125v-125z" />
    <glyph glyph-name="atilde" unicode="&#xe3;" 
d="M150 600l125 125h-125v-125zM425 600v125h-125zM450 600l125 125h-125v-125zM150 750h125v125zM300 750h125l-125 125v-125zM450 750h125v125zM0 600h125v125zM125 0v125h-125zM0 150h125v125h-125v-125zM0 300h125v125h-125v-125zM0 450h125v125zM150 450h125v125h-125
v-125zM150 0h125v125h-125v-125zM300 0l125 125h-125v-125zM300 450h125v125h-125v-125zM450 450h125l-125 125v-125zM450 300h125v125h-125v-125zM450 150h125v125h-125v-125zM450 0h125v125h-125v-125z" />
    <glyph glyph-name="adieresis" unicode="&#xe4;" 
d="M0 600h125v125h-125v-125zM450 600h125v125h-125v-125zM125 0v125h-125zM0 150h125v125h-125v-125zM0 300h125v125h-125v-125zM0 450h125v125zM150 450h125v125h-125v-125zM150 0h125v125h-125v-125zM300 0l125 125h-125v-125zM300 450h125v125h-125v-125zM450 450h125
l-125 125v-125zM450 300h125v125h-125v-125zM450 150h125v125h-125v-125zM450 0h125v125h-125v-125z" />
    <glyph glyph-name="aring" unicode="&#xe5;" 
d="M275 600v125h-125zM300 600l125 125h-125v-125zM150 750h125v125zM300 750h125l-125 125v-125zM125 0v125h-125zM0 150h125v125h-125v-125zM0 300h125v125h-125v-125zM0 450h125v125zM150 450h125v125h-125v-125zM150 0h125v125h-125v-125zM300 0l125 125h-125v-125z
M300 450h125v125h-125v-125zM450 450h125l-125 125v-125zM450 300h125v125h-125v-125zM450 150h125v125h-125v-125zM450 0h125v125h-125v-125z" />
    <glyph glyph-name="ae" unicode="&#xe6;" horiz-adv-x="900" 
d="M125 0v125h-125zM0 150h125v125h-125v-125zM0 300h125v125h-125v-125zM0 450h125v125zM150 450h125v125h-125v-125zM150 0l125 125h-125v-125zM425 0v125h-125zM300 150h125v125h-125v-125zM300 300h125v125h-125v-125zM300 450h125v125h-125v-125zM450 450h125v125h-125
v-125zM450 150h125v125zM450 0h125v125h-125v-125zM600 450h125l-125 125v-125zM600 300h125v125h-125v-125zM600 150l125 125h-125v-125zM600 0h125v125h-125v-125z" />
    <glyph glyph-name="ccedilla" unicode="&#xe7;" 
d="M125 150v125h-125zM0 300h125v125h-125v-125zM0 450h125v125zM150 450h125v125h-125v-125zM150 150h125v125h-125v-125zM150 -150h125v125h-125v-125zM300 0h125v125h-125v-125zM300 150h125v125h-125v-125zM300 450h125v125h-125v-125zM450 450h125v125h-125v-125z
M450 150h125v125h-125v-125zM300 -150l125 125h-125v-125z" />
    <glyph glyph-name="egrave" unicode="&#xe8;" 
d="M275 600v125h-125zM150 750h125v125h-125v-125zM125 0v125h-125zM0 150h125v125h-125v-125zM0 300h125v125h-125v-125zM0 450h125v125zM150 450h125v125h-125v-125zM150 0h125v125h-125v-125zM300 0h125v125h-125v-125zM300 150h125v125zM300 450h125v125h-125v-125z
M450 450h125l-125 125v-125zM450 300h125v125h-125v-125zM450 150l125 125h-125v-125zM450 0h125v125h-125v-125z" />
    <glyph glyph-name="eacute" unicode="&#xe9;" 
d="M300 600l125 125h-125v-125zM300 750h125v125h-125v-125zM125 0v125h-125zM0 150h125v125h-125v-125zM0 300h125v125h-125v-125zM0 450h125v125zM150 450h125v125h-125v-125zM150 0h125v125h-125v-125zM300 0h125v125h-125v-125zM300 150h125v125zM300 450h125v125h-125
v-125zM450 450h125l-125 125v-125zM450 300h125v125h-125v-125zM450 150l125 125h-125v-125zM450 0h125v125h-125v-125z" />
    <glyph glyph-name="ecircumflex" unicode="&#xea;" 
d="M150 600l125 125h-125v-125zM425 600v125h-125zM150 750h125v125zM300 750h125l-125 125v-125zM125 0v125h-125zM0 150h125v125h-125v-125zM0 300h125v125h-125v-125zM0 450h125v125zM150 450h125v125h-125v-125zM150 0h125v125h-125v-125zM300 0h125v125h-125v-125z
M300 150h125v125zM300 450h125v125h-125v-125zM450 450h125l-125 125v-125zM450 300h125v125h-125v-125zM450 150l125 125h-125v-125zM450 0h125v125h-125v-125z" />
    <glyph glyph-name="edieresis" unicode="&#xeb;" 
d="M0 600h125v125h-125v-125zM450 600h125v125h-125v-125zM125 0v125h-125zM0 150h125v125h-125v-125zM0 300h125v125h-125v-125zM0 450h125v125zM150 450h125v125h-125v-125zM150 0h125v125h-125v-125zM300 0h125v125h-125v-125zM300 150h125v125zM300 450h125v125h-125
v-125zM450 450h125l-125 125v-125zM450 300h125v125h-125v-125zM450 150l125 125h-125v-125zM450 0h125v125h-125v-125z" />
    <glyph glyph-name="igrave" unicode="&#xec;" horiz-adv-x="300" 
d="M125 600v125h-125zM0 750h125v125h-125v-125zM0 0h125v125h-125v-125zM0 150h125v125h-125v-125zM0 300h125v125h-125v-125zM0 450h125v125h-125v-125z" />
    <glyph glyph-name="iacute" unicode="&#xed;" horiz-adv-x="300" 
d="M0 600l125 125h-125v-125zM0 750h125v125h-125v-125zM0 0h125v125h-125v-125zM0 150h125v125h-125v-125zM0 300h125v125h-125v-125zM0 450h125v125h-125v-125z" />
    <glyph glyph-name="icircumflex" unicode="&#xee;" horiz-adv-x="450" 
d="M0 600l125 125h-125v-125zM275 600v125h-125zM0 750h125v125zM150 750h125l-125 125v-125zM75 0h125v125h-125v-125zM75 150h125v125h-125v-125zM75 300h125v125h-125v-125zM75 450h125v125h-125v-125z" />
    <glyph glyph-name="idieresis" unicode="&#xef;" horiz-adv-x="600" 
d="M0 600h125v125h-125v-125zM300 600h125v125h-125v-125zM150 0h125v125h-125v-125zM150 150h125v125h-125v-125zM150 300h125v125h-125v-125zM150 450h125v125h-125v-125z" />
    <glyph glyph-name="ntilde" unicode="&#xf1;" 
d="M150 600l125 125h-125v-125zM425 600v125h-125zM450 600l125 125h-125v-125zM150 750h125v125zM300 750h125l-125 125v-125zM450 750h125v125zM0 600h125v125zM0 0h125v125h-125v-125zM0 150h125v125h-125v-125zM0 300h125v125h-125v-125zM0 450h125v125zM150 450h125
v125h-125v-125zM300 450h125v125h-125v-125zM450 450h125l-125 125v-125zM450 300h125v125h-125v-125zM450 150h125v125h-125v-125zM450 0h125v125h-125v-125z" />
    <glyph glyph-name="ograve" unicode="&#xf2;" 
d="M275 600v125h-125zM150 750h125v125h-125v-125zM125 0v125h-125zM0 150h125v125h-125v-125zM0 300h125v125h-125v-125zM0 450h125v125zM150 450h125v125h-125v-125zM150 0h125v125h-125v-125zM300 0h125v125h-125v-125zM300 450h125v125h-125v-125zM450 450h125l-125 125
v-125zM450 300h125v125h-125v-125zM450 150h125v125h-125v-125zM450 0l125 125h-125v-125z" />
    <glyph glyph-name="oacute" unicode="&#xf3;" 
d="M300 600l125 125h-125v-125zM300 750h125v125h-125v-125zM125 0v125h-125zM0 150h125v125h-125v-125zM0 300h125v125h-125v-125zM0 450h125v125zM150 450h125v125h-125v-125zM150 0h125v125h-125v-125zM300 0h125v125h-125v-125zM300 450h125v125h-125v-125zM450 450h125
l-125 125v-125zM450 300h125v125h-125v-125zM450 150h125v125h-125v-125zM450 0l125 125h-125v-125z" />
    <glyph glyph-name="ocircumflex" unicode="&#xf4;" 
d="M150 600l125 125h-125v-125zM425 600v125h-125zM150 750h125v125zM300 750h125l-125 125v-125zM125 0v125h-125zM0 150h125v125h-125v-125zM0 300h125v125h-125v-125zM0 450h125v125zM150 450h125v125h-125v-125zM150 0h125v125h-125v-125zM300 0h125v125h-125v-125z
M300 450h125v125h-125v-125zM450 450h125l-125 125v-125zM450 300h125v125h-125v-125zM450 150h125v125h-125v-125zM450 0l125 125h-125v-125z" />
    <glyph glyph-name="otilde" unicode="&#xf5;" 
d="M150 600l125 125h-125v-125zM425 600v125h-125zM450 600l125 125h-125v-125zM150 750h125v125zM300 750h125l-125 125v-125zM450 750h125v125zM0 600h125v125zM125 0v125h-125zM0 150h125v125h-125v-125zM0 300h125v125h-125v-125zM0 450h125v125zM150 450h125v125h-125
v-125zM150 0h125v125h-125v-125zM300 0h125v125h-125v-125zM300 450h125v125h-125v-125zM450 450h125l-125 125v-125zM450 300h125v125h-125v-125zM450 150h125v125h-125v-125zM450 0l125 125h-125v-125z" />
    <glyph glyph-name="odieresis" unicode="&#xf6;" 
d="M0 600h125v125h-125v-125zM450 600h125v125h-125v-125zM125 0v125h-125zM0 150h125v125h-125v-125zM0 300h125v125h-125v-125zM0 450h125v125zM150 450h125v125h-125v-125zM150 0h125v125h-125v-125zM300 0h125v125h-125v-125zM300 450h125v125h-125v-125zM450 450h125
l-125 125v-125zM450 300h125v125h-125v-125zM450 150h125v125h-125v-125zM450 0l125 125h-125v-125z" />
    <glyph glyph-name="oslash" unicode="&#xf8;" 
d="M125 0v125h-125zM0 150h125v125h-125v-125zM0 300h125v125h-125v-125zM0 450h125v125zM150 450h125v125h-125v-125zM150 300h125v125zM150 150h125v125h-125v-125zM150 0h125v125h-125v-125zM300 0h125v125h-125v-125zM300 150l125 125h-125v-125zM300 300h125v125h-125
v-125zM300 450h125v125h-125v-125zM450 450h125l-125 125v-125zM450 300h125v125h-125v-125zM450 150h125v125h-125v-125zM450 0l125 125h-125v-125z" />
    <glyph glyph-name="ugrave" unicode="&#xf9;" 
d="M275 600v125h-125zM150 750h125v125h-125v-125zM125 0v125h-125zM0 150h125v125h-125v-125zM0 300h125v125h-125v-125zM0 450h125v125h-125v-125zM150 0h125v125h-125v-125zM300 0h125v125h-125v-125zM450 450h125v125h-125v-125zM450 300h125v125h-125v-125zM450 150
h125v125h-125v-125zM450 0l125 125h-125v-125z" />
    <glyph glyph-name="uacute" unicode="&#xfa;" 
d="M300 600l125 125h-125v-125zM300 750h125v125h-125v-125zM125 0v125h-125zM0 150h125v125h-125v-125zM0 300h125v125h-125v-125zM0 450h125v125h-125v-125zM150 0h125v125h-125v-125zM300 0h125v125h-125v-125zM450 450h125v125h-125v-125zM450 300h125v125h-125v-125z
M450 150h125v125h-125v-125zM450 0l125 125h-125v-125z" />
    <glyph glyph-name="ucircumflex" unicode="&#xfb;" 
d="M150 600l125 125h-125v-125zM425 600v125h-125zM150 750h125v125zM300 750h125l-125 125v-125zM125 0v125h-125zM0 150h125v125h-125v-125zM0 300h125v125h-125v-125zM0 450h125v125h-125v-125zM150 0h125v125h-125v-125zM300 0h125v125h-125v-125zM450 450h125v125h-125
v-125zM450 300h125v125h-125v-125zM450 150h125v125h-125v-125zM450 0l125 125h-125v-125z" />
    <glyph glyph-name="udieresis" unicode="&#xfc;" 
d="M0 600h125v125h-125v-125zM450 600h125v125h-125v-125zM125 0v125h-125zM0 150h125v125h-125v-125zM0 300h125v125h-125v-125zM150 0h125v125h-125v-125zM300 0h125v125h-125v-125zM450 300h125v125h-125v-125zM450 150h125v125h-125v-125zM450 0l125 125h-125v-125z" />
    <glyph glyph-name="yacute" unicode="&#xfd;" 
d="M300 600l125 125h-125v-125zM300 750h125v125h-125v-125zM125 150v125h-125zM0 300h125v125h-125v-125zM0 450h125v125h-125v-125zM150 150h125v125h-125v-125zM300 150h125v125h-125v-125zM450 450h125v125h-125v-125zM450 300h125v125h-125v-125zM450 150l125 125h-125
v-125zM300 0h125v125h-125v-125zM150 -150h125v125h-125v-125zM300 -150l125 125h-125v-125z" />
    <glyph glyph-name="thorn" unicode="&#xfe;" 
d="M0 0h125v125h-125v-125zM0 150h125v125h-125v-125zM0 300h125v125h-125v-125zM0 450h125v125h-125v-125zM150 450h125v125h-125v-125zM150 0h125v125h-125v-125zM0 -150h125v125h-125v-125zM300 0h125v125h-125v-125zM300 450h125v125h-125v-125zM450 450h125l-125 125
v-125zM450 300h125v125h-125v-125zM450 150h125v125h-125v-125zM450 0l125 125h-125v-125zM0 600h125v125h-125v-125z" />
    <glyph glyph-name="ydieresis" unicode="&#xff;" 
d="M0 600h125v125h-125v-125zM450 600h125v125h-125v-125zM125 150v125h-125zM0 300h125v125h-125v-125zM150 150h125v125h-125v-125zM300 150h125v125h-125v-125zM450 300h125v125h-125v-125zM450 150l125 125h-125v-125zM300 0h125v125h-125v-125zM150 -150h125v125h-125
v-125zM300 -150l125 125h-125v-125z" />
    <glyph glyph-name="OE" unicode="&#x152;" horiz-adv-x="900" 
d="M125 0v125h-125zM0 150h125v125h-125v-125zM0 300h125v125h-125v-125zM0 450h125v125zM150 450h125v125h-125v-125zM300 150h125v125h-125v-125zM300 300h125v125h-125v-125zM300 450h125v125h-125v-125zM450 450h125v125h-125v-125zM450 150h125v125zM450 0h125v125
h-125v-125zM600 450h125l-125 125v-125zM600 300h125v125h-125v-125zM600 150l125 125h-125v-125zM600 0h125v125h-125v-125zM150 0h125v125h-125v-125zM300 0h125v125h-125v-125z" />
    <glyph glyph-name="oe" unicode="&#x153;" horiz-adv-x="900" 
d="M125 0v125h-125zM0 150h125v125h-125v-125zM0 300h125v125h-125v-125zM0 450h125v125zM150 450h125v125h-125v-125zM300 150h125v125h-125v-125zM300 300h125v125h-125v-125zM300 450h125v125h-125v-125zM450 450h125v125h-125v-125zM450 150h125v125zM450 0h125v125
h-125v-125zM600 450h125l-125 125v-125zM600 300h125v125h-125v-125zM600 150l125 125h-125v-125zM600 0h125v125h-125v-125zM150 0h125v125h-125v-125zM300 0h125v125h-125v-125z" />
    <glyph glyph-name="Ydieresis" unicode="&#x178;" 
d="M0 600h125v125h-125v-125zM450 600h125v125h-125v-125zM125 150v125h-125zM0 300h125v125h-125v-125zM150 150h125v125h-125v-125zM300 150h125v125h-125v-125zM450 300h125v125h-125v-125zM450 150l125 125h-125v-125zM300 0h125v125h-125v-125zM150 -150h125v125h-125
v-125zM300 -150l125 125h-125v-125z" />
    <glyph glyph-name="endash" unicode="&#x2013;" horiz-adv-x="600" 
d="M0 150h125v125h-125v-125zM150 150h125v125h-125v-125zM300 150h125v125h-125v-125z" />
    <glyph glyph-name="emdash" unicode="&#x2014;" horiz-adv-x="600" 
d="M0 150h125v125h-125v-125zM150 150h125v125h-125v-125zM300 150h125v125h-125v-125z" />
  </font>
</defs>
</svg>
